/* XPM */
static char *result[] = {
/* columns rows colors chars-per-pixel */
"64 64 252 2 ",
"   c #060504",
".  c #080706",
"X  c #0A0807",
"o  c #0D0B0A",
"O  c #110E0C",
"+  c #15110E",
"@  c #1A140E",
"#  c #110F11",
"$  c #161311",
"%  c #1B1611",
"&  c #1E1913",
"*  c #1C1A19",
"=  c #231B14",
"-  c #281E16",
";  c #221E1A",
":  c #2C2117",
">  c #26211C",
",  c #2B231C",
"<  c #32251B",
"1  c #372A1E",
"2  c #252322",
"3  c #2A2623",
"4  c #2D2925",
"5  c #382723",
"6  c #332A23",
"7  c #3A2D23",
"8  c #332D29",
"9  c #3D3124",
"0  c #36312D",
"q  c #3C342C",
"w  c #3A3632",
"e  c #492B1E",
"r  c #433325",
"t  c #43352B",
"y  c #4C332B",
"u  c #48372A",
"i  c #4C3B2D",
"p  c #57392C",
"a  c #453C37",
"s  c #4B3D32",
"d  c #753C2B",
"f  c #56532F",
"g  c #4E4035",
"h  c #47423C",
"j  c #4B433B",
"k  c #534234",
"l  c #5A4535",
"z  c #534E37",
"x  c #5B4936",
"c  c #554539",
"v  c #594739",
"b  c #56493D",
"n  c #5C4B3C",
"m  c #654837",
"M  c #6D4C31",
"N  c #624D3D",
"B  c #754839",
"V  c #675837",
"C  c #65513D",
"Z  c #6B533E",
"A  c #596638",
"S  c #586F3D",
"D  c #67693B",
"F  c #766A3A",
"G  c #68773D",
"H  c #7A7C3D",
"J  c #5B3E43",
"K  c #544747",
"L  c #554C42",
"P  c #5C4D41",
"I  c #56494B",
"U  c #5C5347",
"Y  c #624F41",
"T  c #654948",
"R  c #655243",
"E  c #6B5544",
"W  c #6E5945",
"Q  c #64564A",
"!  c #6B5649",
"~  c #675B4D",
"^  c #6D5A4B",
"/  c #725643",
"(  c #735A45",
")  c #795D46",
"_  c #745648",
"`  c #745D4B",
"'  c #7A5E4B",
"]  c #6B5C52",
"[  c #735E50",
"{  c #785A56",
"}  c #4A6445",
"|  c #5C7446",
" . c #557250",
".. c #766748",
"X. c #76614D",
"o. c #7B624C",
"O. c #657A45",
"+. c #737845",
"@. c #6C6751",
"#. c #756252",
"$. c #7B6452",
"%. c #7F6854",
"&. c #7A6759",
"*. c #7D6A5A",
"=. c #7A7856",
"-. c #6D5D63",
";. c #737168",
":. c #864939",
">. c #934C39",
",. c #8C5237",
"<. c #A55839",
"1. c #B25C34",
"2. c #AA6D3C",
"3. c #DE593D",
"4. c #C46B3E",
"5. c #EA7638",
"6. c #ED713D",
"7. c #895048",
"8. c #875849",
"9. c #965549",
"0. c #975B55",
"q. c #A3584A",
"w. c #82654D",
"e. c #84684F",
"r. c #8A6A4F",
"t. c #837943",
"y. c #816652",
"u. c #846A53",
"i. c #8A6D54",
"p. c #836D5A",
"a. c #896E5A",
"s. c #9C6359",
"d. c #8D7156",
"f. c #84715E",
"g. c #8C725B",
"h. c #917256",
"j. c #93755A",
"k. c #987A5D",
"l. c #A6645C",
"z. c #B17453",
"x. c #8A6563",
"c. c #867562",
"v. c #8B7461",
"b. c #957B65",
"n. c #A46A65",
"m. c #AD7778",
"M. c #B17770",
"N. c #E5564C",
"B. c #EA5B48",
"V. c #E85F52",
"C. c #D2764E",
"Z. c #F6684A",
"A. c #F76656",
"S. c #F17455",
"D. c #66844B",
"F. c #6A864A",
"G. c #758748",
"H. c #76914F",
"J. c #6E8D52",
"K. c #768754",
"L. c #779456",
"P. c #7C9C5C",
"I. c #7EA15D",
"U. c #7E8C64",
"Y. c #7C9B63",
"T. c #7D9C69",
"R. c #7EA263",
"E. c #7FA268",
"W. c #FB893B",
"Q. c #8D8C4E",
"!. c #849549",
"~. c #889757",
"^. c #839C5C",
"/. c #959958",
"(. c #AE9151",
"). c #8BA35C",
"_. c #97A35B",
"`. c #AFA15E",
"'. c #958B65",
"]. c #869E64",
"[. c #AC9864",
"{. c #AE9071",
"}. c #82A565",
"|. c #85AB6D",
" X c #88A86A",
".X c #97A667",
"XX c #89AD73",
"oX c #88A876",
"OX c #96AC73",
"+X c #8CB278",
"@X c #93B27A",
"#X c #A7AA68",
"$X c #ADA770",
"%X c #A4B275",
"&X c #CD8759",
"*X c #C49A5B",
"=X c #E8844C",
"-X c #FD8C44",
";X c #F68A49",
":X c #F98848",
">X c #FD9443",
",X c #FD944D",
"<X c #FD9A4C",
"1X c #E58955",
"2X c #F28D52",
"3X c #FC9452",
"4X c #FE9B52",
"5X c #FE9D5B",
"6X c #FDA04F",
"7X c #FEA255",
"8X c #FEA35B",
"9X c #FBA85C",
"0X c #CE916C",
"qX c #E89761",
"wX c #FB9F63",
"eX c #C9A364",
"rX c #D7AC71",
"tX c #ECAF6D",
"yX c #FDA563",
"uX c #FEAB64",
"iX c #F8A36A",
"pX c #FEAB6B",
"aX c #FEB26C",
"sX c #FCAC76",
"dX c #FEB573",
"fX c #FEB37A",
"gX c #B57E8A",
"hX c #B48488",
"jX c #90AD86",
"kX c #93B583",
"lX c #98B68A",
"zX c #97B693",
"xX c #9DBA94",
"cX c #B3A890",
"vX c #B7ACA1",
"bX c #CAB099",
"nX c #E8B188",
"mX c #FFB685",
"MX c #CEC7BB",
"NX c #F5C2AD",
"BX c #BFBBC5",
"VX c #B8C8E6",
"CX c #DAD5D5",
"ZX c #EADBD0",
"AX c #FBE9DE",
"SX c #C4D4EB",
"DX c #C9D9F7",
"FX c #D7E4F5",
"GX c #F2EDEC",
"HX c #E3ECF6",
"JX c #F8F6F7",
"KX c #FCFDFE",
/* pixels */
"q % 1 1 i 1 x r < , * U & % $ x , r i i r i wX4X1Xc w 6 4 = Q ] * , < 4 3 q , U 1 = y u < 1 - 7 ; - t : > , 1 < % = 1 % , 6 w + ",
"o + O   o + O o   + o + o   & X   X X o + 8XpX8X>XO $ o > + + o % O @ . . @ $ o O = . X X O . . X o o o o X X o X X   O o @ 2 @ ",
"0 + l , R Z X.E k k v c > 1 W ` R n i.o.( yXpXpX<XX.` N > 9 Q 3 + x k n v C E R Y R v k R v N Q ^ o.E Z C C C C v x g E j P R % ",
"L X = o.x v ( X.u.u.X.#.X.u.%.&.p.#.f.` yXyXfXsX7XR X.` g.j *.U & X.%.` X.X.X.o.p.] c.*.$.' ! E X.%.p.u.i.u.u.e.p.p.X.%.$.u.w : ",
"w o r k u W &.R f.[ X.E ! %.` y.( c R nX5XsXmXfX8X1Xa.X.] k t 3 & x Q ^ k o.$.p.` Q ] p.d.o.R ' f.o.%.o.d.#.p.p.a.y.$.! #.] 4 % ",
"8 % = r w...` $.X.o.` u.%.X.o.X.X.E n 8X8XfXmXfX9XW.` p.R ] HXHX+ , ..E n ! ` x X.! ! $.j.o.X.! o.^ d.` %.X.p.#.X.p.[ ! E ! w - ",
"4 , ; i Z ( X.o.%.o.` ( n R ` E n R ! 5XyXfXmXmX9X,X0Xp.! HXHXHXCXc N g N X.E ` u.$.#.^ ( ^ X.! @.o.o.%.o...' ` E ! c ! R n 2 , ",
"0 o l ..o.i.E @.( u.$.` ' #.! ( R [ ! qXeXeX`.eX`.eX&X- : HXHXHXSXs s P g X.%.X.$.! ` $.#.' X.u.` p.X.E X.o.o.X.` Y R ` R R * > ",
"6 & ( C E %.%.! o.%.' $.` _ $X{.$X[.[.[.Q.!.!.+.H H H t.Q.(.(.BXVXFXx n P R ! $.$.h.X.u.#.%.X.c.` #.#.R n $.$.X.' $.[ ` R ! K = ",
"8 % t W *.R o.X.o.o.cX$X[..X/.~.~.~.~.].R.~.^.P.P.H.G.F.+.H Q.Q.MXSXMXk a R E $.$.%.e.X.b.^ a.Q #.&.o.` ^ [ $.` #._ $.` f.t $ = ",
"& 1 ( o.o.` o.` o.$X/./.~.P.^.P.P.R.].).iX3X;X].).P.L.H.G.F.!.!.Q.SXCXg v n E %.X.o.Q p.b + $.#.^ [ X.X.%.X.$.' ! ' ^ y.a.2 L ; ",
"4 : E o.C R E Q #X.X^.^.P.^.P.Y.E.|.|.iXyX8X,X1X|.R.I.P.H.H.!.!.U.FXCXR ! [ N ! o.#.#.X.t o.#.$.W $.o.` o.X.X.! E n ! [ p.$.; $ ",
"2 @ f.v *.u.] $X}.I.R.E.Y.R.}. X|.+XrX5XfXaXS.Z.*XXXXX}.).I.!.!.FXDXbX&.[ y k R _ h 4 _ *.! ! $.$.k.( W $.o.i.&.[ [ [ $.' *.a ; ",
"s : X.X.c [ ' /.}.|.E.E.|.|.|.XXOX%X5XiXmXaXZ.A.S.0XXX X X).).!.DXDXvXE $.&.$.X.v.Q v ! %.! ` X.' ^ ..( W ' X.w.8.Q ' %.` ` L & ",
"c 9 X.X.Q R $X].}.|.XXXXXXXX+X@X@XiX3XyXmXuXZ.A.A.S.`.XX X)._._.0XDXcXZ ` X.p.X.t r $.#.%.$.( n Y [ k ( $.X.$.y.i...u.y.*.' 3 O ",
"U ; ' R [ a..XP.}.|.+X+X+XkXkX@XOX5X3X5XfXaXA.A.A.S._.OX)._._.(.;XDXvX{ ' #.a o p.[ %.y.u.u.$.u.o.d.$.y.w.o.u.u.X.u.w.y.i.v.s $ ",
"4 9 ( ~ W ( /.P.R.E.XXkXkXkXkX+XeX6X,X5XpXpXB.B.A.A.oX+XXX.X_.<X-XCXcX> R { u Y ' #.#.u.u.X.y.y.E X.o.%.o.o.e.' w.8.u.%.p.y.i + ",
"8 % #.*.^ .._ L.P.E.E.kXkXzXxXkXeX>X,X5XyXpXB.B.V.V.oXkX+X.X_.W.>X;X: # k R p.` #.{ ` [ X.$.' $.o.$.( ..! _ N u.X.u.j.u.y.#.s $ ",
"8 + n ^ ` [ o.H.L.P.E.E.XXzXxXkX`.-X;X3X5X5X3.B.V.V.OX@XOX#X(.>.C.W.=XC.y.$.' _ ( a.( ` ' [ ' ! g Y E ! _ $.E ! o.#.a.%.y.[ w & ",
"2 ; W C P P #.Q.J.L.R.E.E.zXxXxX*X:X;X,X5X5X:XN.N.(.lX@X%X_.q.1.<.,X-X:X5.1X&X0X' [ ' [ y.X.$.X.' E E _ P ! ' ` X.X.X.#.[ [ t O ",
"8 @ R b R X.R #.F.J.L.P.E.kXzXxX(.:X;X-X3X4X5X3.N.].lX%X#X[.1.M &X,X<X7X4X-X-X:X=X&.R R $.` ! ! u.$.` R Y ` %.` ` ^ #.b R ] ; $ ",
"; - ..R C #.$.n '.F.J.L.P.E.kXzX).&X;X:X,X4X4X5XtXlXlX$X#X<.F p 4.8X9XuXuXyXyX8X8X[ l ! ' p._ [ ' ! n _ o.$.` X.` ! X.X.[ c * % ",
"* = ..! C X.E X.Z +.D.J.J.Y.oXzXxX@XQ.1X-X-X4X7X/.lX@X%X`.iX( l C.7XuXaXdXdXaXaX8XR T ` #.X.! ` ` ' E ( E ( $._ [ #.( ` Q 4 & > ",
"w 1 k.^ U E E ^ ^ ` K.D.J.J.T.+XlXxXxX XH (.P.].lXlX%X#XtX9XV l 7X9X9XuXuXaXuX4X2X' $.` &.y.X.R W ` W R w.o.E X.%.X.$.[ s 8 $ & ",
"3 = i.y.W ` ..E N W '.| D.F.J.T.oXjXzXzXzXxXxXzXzX%X%X[.9X9X4.=X6X7X7X8X7X<X:X$._ $.^ ' [ ! ` ` _ E N R R ' [ ' [ ' ' ] R P 4 , ",
"3 < ( v x x ' x E i x U.O.D.D.J.Y.T.oXjXjXzXzXjXjXjXOX.X9X5X3X4X<X<X>XW.:X( ! R ` ! _ ` ( X.` E E E s s N Y o.$.E E ! R P R > o ",
"6 = ) ) x C ( g ` R c v =.D D.F.J.L.Y.T.oXoXoXoXoXOX.X/.9X<X<X<X-X;X1Xz ! _ $.E R ' Y _ ' R Y ! / N v k E Y [ R ` E ! R ! Q q ; ",
"s < i.u.i.( o.X.u.' E X.X.=.D | | D.J.L.Y.Y.].Y.U.]..X~.5X<X>X-Xz.S.S.N ! ' E R X.$.' $.$.u.$._ ( R ( ! R Y ' #.y.' y.$.#.] ; = ",
"0 r d.d.o.j.X.g.n u.a.` %.j.i.F  .| O.D.J.J.H.H.H.L.~.~.&XW.5.f A B.6.W ! $.[ p.*.p.' g.$.$.u.#.$.y.$.$.! P $.$.$.*.y.a.%.&.t % ",
"q 9 r g.b g #...@.i a.{.f.#.o.'...S S | | D.G F.F.G.H.G.F t.F D F S.Z.%.$.R ^ *.#.u.v.c.o.u.&.$.p.k N p.^ *.P %.f.#.%.#.f.c.c % ",
"4 + r i k g i i m N 1 i p.g.*.x 8 +.D A A S S S G S G G G H D F a.0XM.m v.8 - a i &.s ^ u.*.f.f.s = s - Y ! Q #.f.{ X.%.&.c.4 % ",
": O & = & > + = % % @ @ @ % : > ; j ; ..A A A A A A A S D A D A 0.nXz.a r 7 t r 7 j U 8 : , s 3 8 $ % & O = < u < u C n < : , + ",
"= O O o O X . o X O O + O @ @ # O o O ~  .O.@.I R x D =.K.=.O.l M r.= @ + X X   O O X X + + , $ % . . O O O o   o o o o . o $ + ",
"s % l ! ZXCXnX&Xm n o.` j.j.B e '.s i A A z -.;.{ y.B m U.Q.p p f m < O n i , @ s 3 s E y $ r Y Z ! l R R E k s c _ a.b.&.6 > + ",
"c - GXJXGXFX=X5.5.C.z.e.) p t e :.:.z.N v y I T { B M p ~ R p m A z j i ( c 7 ' ! #.[ Y Y Y N T ` R Z Y N R ` X.W E a.W 3 9 + $ ",
"a = KXKXKXJXsX;X-X5.5.5.C.J J x.9.7.7.p p e s.m.s.9.>.m p ( l O.} A M :.a.E X.[ %.*.Q Y [ y.( ' ` o.o.` ' N R $.' R X.j.u.c c & ",
"] JXKXJXKXKXJX7X8X,X-X,Xd -.-.gXm.n.0.N 0 T 9.n.s.7.d 7.C =. .O.A 7.7.>.9.#.j u.p.#.[ [ u.y.$.u.X.%.$.%.u.v $.u.#.` ^ i.b.p.6 & ",
"8 KXJXKXKXKXAXaXuX9X8XyXy -.{ gXhXhXm.z } ~ 9.l.l.9.7.d &.D. .| *.M.n.z.:.b.q %.` &.Y #.! ` X.$.$.$.%.W Q ' E ' u.$.` a.#.- > o ",
"6 GXKXKXKXJXmXfXdXuXaXdXs J s.n.M.m.hXS }  .9.9.l.l.9.q.q.,. ...n.gXm.M.B ' _ [ [ #.! ! _ ^ ! o.' o.o.%.X.%.R X.` p.^ *.*.#.0 O ",
"0 t JXKXJXmXdXdXaXuXpX2.e p 0.9.9.l.l.b.O. .;.7.0.m.M.0.,.q.>.:.0.0.n._ N ! p.` [ ` ' ` _ #.! R ! X.o.^ Y ! W L *.E ` ! Q ^ ] & ",
"3 : JXKXNXuXuXuX9X7X7X5Xe d >.>.y.>.q.<.<X7X4X,.0.M.9.M.z.1.<.:.B d J p $...*.X.#.X.$._ #.' ` $.X.! o.( ` R #.u.^ p.' R P K a & ",
"4 : o.GXAX:X5X4X,X-XW.o.i.w.r.i.y.j.w.e.r.&Xe.] 9.0.m.M.sX5X>Xe 5 y ' y.#.&.&.P E ` ` ` ' _ X.' i.i.` o.! x ` #.E R w.^ Q & # $ ",
"> 1 i.N ( bXW.S.h.o.d.i.i.o.i.r.a.y.i.%.( w.'.r.s.q.z.mXmXfX4XK ; y.' ^ C b ^ %.y.$.` ` X.u.o.o.` X.X.N v ! g X.u...w.' c.n 6 % ",
"c 1 $.! ( ( ..u.Q R X.d.%.h.e.w.{.' B a.%.i.i.p.o.:.3XpXpXyX1Xa % i.&.( X.#.n $.` k ] #.%.! E ! ` ! C E _ ` ' ! ` X.y.' L a % & ",
"0 & C N i.i.e.R E N d.( i.o.d.j.) w.v.X.P %...( C ) 0X3X5XqX{ h - X.C o.o.W C ^ ! ( X.' X.' %.o.! E ( ( #.` X.' [ y.! ` s 3 - & ",
"3 o l w.8..._ R ! ^ e.k.X.e.i.i.u.i.X.! X.e.u.u.o.p.Z p / y.Q 3 + ..! X.E R ] i.! w.W ` $.! ' ' o.` ' E ` ' R ( ` Y E ! %.` 2 & ",
"a O 1 h.o.o.^ v n E u.d.i.i.E X.j.j.o.i.o.u.h.u.u.N E u.a.j.i.> O i.l C E U X.o.u.X.E ! ! ^ #.u.i.o.! ! ' E $.! [ Y R E R [ = $ ",
"> o ( i.e.o.X.o.o.X.i.u...o.X.E X.x ` y...p.y.a.N %.w.h.y.u.y.q = Z N Z E ^ E Q %.X.E ` ( ' %.$.e.r.e.` E W o.k $.N [ ` f.Q < = ",
"a = ( W X.^ u.h.( ) w.i.u.j.i.) n ! X.o.o.X.^ o.n e.%.W ' i.i.T - R Z o.` ' ( ' o.%.` ` W b.C w.%.e.o.o.o.o.( ^ C E X.! p.7 # % ",
"w + x X.( w.) o.e.W d.w.r.h.8...Q R v ^ r.p.o.o.#.X.e.g.` { '.w O N ..( o.w...e.o.X._ E X.W o.k.r.o.e.( C r.E ` ! W _ v.U 2 5 & ",
"6 @ ( d.( o.8.N N ` ( w.o.Z o.C R Y N R ( ^ W v N r.e.` w.! L 6 & w.E o.d.w.e.o.i.o.$.R X.Q k.r.h.o.( ` R w.u.` E E W s j P 0 % ",
"4 1 ' ..W ^ C N ' _ ( i.w.o.u.r.n _ u.X.U 9 n u.o.r.o.o.y.' ; * @ r.X.( r.r.w.y.o.e.u.&.#.Q e.( u.u.o.E R o.) Z %.u.w.t % > 2 % ",
"3 % e.^ X.! l _ / e.8.y.e.h.y.j.` Z R i.n W e.8.w.i.y.' ' _ 4 a & w.o.o.o.i.( u.i.o.i.` [ P X.%.e.e.m X.` o.X.) ) w.w.i.W x 0 3 ",
"4 % ( R x n e.i.e.i.r.e.w.e.w.e.i.R ` C ( ! w.E ) e.w.' o.8.< 8 < i.Z w.o.i.u.u...i._ %.^ n o.e.e.i.w.e.e.( h.o.w.h.e.j b.p.U % ",
"& 1 ( w.d.e.j.e.w.h.o.w.y.o.E w.w.w.w...( 8./ / i./ i.w.u.' j.r < ) Z ( R x ..o.w.E k.a.R ^ e.e.X.o.( w.e.w.( o.u.o.i.! t * $ $ ",
"3 r ( j u.i.o.d.e.e.h.' i.E ' e.e.o.w.X.C o./ Z ` e.e.` u.e.h.E ; e.w.w.o.y.` X.^ *.p.E ` E o.$.e.w.) w.C ..w.w.i.u.e.( g U 0 % ",
"3 1 N Y o.( e.' y.e.w.E / L R Z e.( w.) R / ( ..o.u.o.u.y.i.a.k % 8.e...e.p.#.R o.o.u.R ! W ..d.h.) w.( e.u.y.i.u.u.o.j.v ; 8 & ",
": < R R o.w.w.o.) h.i.m m $.R o.( R w.Z / x ( n x 8.w.w.' y.y.f.r E %.X.N ! o.Z o.$.Y Y n ! E o.w.' ..t ! ' h.i.h.h.y.i.o._ + @ ",
"q < ( X...i.i.u.y.8.E w.` n _ / ( 8.) ) w.o.w.w...) ) ` ' y.#.4 7 ..e.Z e.Z o.W #.l n W o.e.w.( / s C R x R ( o._ ( $.W ! Q w - ",
"b : ! ( X.( ` e.) y.e.i.e.8.) e.o.` Z e._ i.o.d.j.i._ e.e.y.C & = N e.( F o.w.( o.i.o.) e.o.w.8.8./ ` ! R $.%.( ` ` $.` w.( 6 > ",
"0 < k [ d.X.d.d.e.o.o.o.r.e.i./ e.! ` o.d.i.o.E i.h.a.j.f.g.E 0 : v b.X.y.u.u.j.^ ! w.#.g.X.( X.h ( e.o.E r.r.e.h.' y.u.e.y.R 7 ",
"w t ] k n a.C u.u.u.8.) u.w.8.w.b.o.p.( ( i.e.g.*.g./ s C #.X.U q h j s ` m e.j.o.'.e.u.#.x g o.p.r i.d.N n w.b.Q i.w.j.b.i.s 1 ",
"L * : = r & - = w < 9 u : p m r = < t 7 % 6 ; u : E R t q b q 3 % 9 @.L & #., q 7 > & : q > : 3 6 = > > = e - < : * = 6 6 v 6 = ",
"> o - $ = % O X o + + 6 @ O + : o X o ; % X O & + = & $ @ * , O O : ; + , o @ = : O X = * % @ = > % + @ - 8 O O & O & ; = i 4 < "
};
