/* XPM */
static char *result[] = {
/* columns rows colors chars-per-pixel */
"64 64 254 2 ",
"   c #060504",
".  c #080706",
"X  c #0A0907",
"o  c #0D0B0A",
"O  c #110E0C",
"+  c #15110E",
"@  c #1A140E",
"#  c #110F11",
"$  c #161312",
"%  c #1B1611",
"&  c #1E1913",
"*  c #1B1919",
"=  c #231B14",
"-  c #281E16",
";  c #221D1A",
":  c #2C2217",
">  c #26211C",
",  c #2B231C",
"<  c #32251B",
"1  c #372A1E",
"2  c #252322",
"3  c #2A2622",
"4  c #2E2825",
"5  c #332A23",
"6  c #3B2D23",
"7  c #382825",
"8  c #332D29",
"9  c #3D3124",
"0  c #36312D",
"q  c #3C342D",
"w  c #3E2E32",
"e  c #3A3632",
"r  c #412B1B",
"t  c #462B26",
"y  c #433324",
"u  c #43352A",
"i  c #48372A",
"p  c #4C3B2C",
"a  c #573A2A",
"s  c #463A36",
"d  c #4B3D32",
"f  c #543D32",
"g  c #683C33",
"h  c #4C4C2E",
"j  c #55562C",
"k  c #4C4236",
"l  c #4B433B",
"z  c #534235",
"x  c #5B4535",
"c  c #544539",
"v  c #55493D",
"b  c #5A4838",
"n  c #5C4A3C",
"m  c #575C37",
"M  c #674B38",
"N  c #624E3D",
"B  c #734D32",
"V  c #65513D",
"C  c #6B533E",
"Z  c #685D3A",
"A  c #4F622E",
"S  c #4B6636",
"D  c #586936",
"F  c #5A743C",
"G  c #666735",
"H  c #6F7037",
"J  c #797B3D",
"K  c #5C3C44",
"L  c #554C42",
"P  c #5D4D41",
"I  c #59484A",
"U  c #5D5146",
"Y  c #575051",
"T  c #624F41",
"R  c #664549",
"E  c #794A43",
"W  c #655243",
"Q  c #6B5544",
"!  c #6E5945",
"~  c #64564A",
"^  c #6B5749",
"/  c #67594B",
"(  c #6D5A4B",
")  c #725643",
"_  c #755646",
"`  c #735A45",
"'  c #795D46",
"]  c #745D4B",
"[  c #7A5E4A",
"{  c #6C5C53",
"}  c #745E51",
"|  c #4B6948",
" . c #5B7646",
".. c #576752",
"X. c #527755",
"o. c #7C6646",
"O. c #76614D",
"+. c #7B634C",
"@. c #687B47",
"#. c #787848",
"$. c #6D6155",
"%. c #756252",
"&. c #7B6552",
"*. c #7E6955",
"=. c #796559",
"-. c #7D6A5A",
";. c #6A7956",
":. c #595669",
">. c #6F5860",
",. c #587963",
"<. c #6E7567",
"1. c #8D4A3A",
"2. c #80793E",
"3. c #D24936",
"4. c #EA5436",
"5. c #CC693A",
"6. c #ED763A",
"7. c #875849",
"8. c #96574A",
"9. c #905957",
"0. c #A35C4D",
"q. c #82654D",
"w. c #84694F",
"e. c #896849",
"r. c #906E4A",
"t. c #816651",
"y. c #846A53",
"u. c #8A6D53",
"i. c #836D5A",
"p. c #886F59",
"a. c #9B635A",
"s. c #8D7156",
"d. c #85725C",
"f. c #8C735B",
"g. c #917256",
"h. c #93755A",
"j. c #98795C",
"k. c #A8674B",
"l. c #B06E51",
"z. c #B56A56",
"x. c #A9775B",
"c. c #866961",
"v. c #897462",
"b. c #977B66",
"n. c #A66864",
"m. c #A97766",
"M. c #B2776E",
"N. c #D14A4E",
"B. c #DB5359",
"V. c #E55C5C",
"C. c #DA7649",
"Z. c #CE7851",
"A. c #E46E4A",
"S. c #E76659",
"D. c #EA7656",
"F. c #D64C60",
"G. c #E35A64",
"H. c #CC7D61",
"J. c #EB6664",
"K. c #F36964",
"L. c #74803D",
"P. c #668149",
"I. c #7A8747",
"U. c #768B4B",
"Y. c #79934C",
"T. c #728A56",
"R. c #7C9958",
"E. c #77916C",
"W. c #668575",
"Q. c #7EA465",
"!. c #86863F",
"~. c #FE873B",
"^. c #878948",
"/. c #87964B",
"(. c #8F8B51",
"). c #978C55",
"_. c #899857",
"`. c #839B5B",
"'. c #949858",
"]. c #AD9255",
"[. c #8AA45B",
"{. c #94A45B",
"}. c #97A45D",
"|. c #839E64",
" X c #968970",
".X c #AD8D6E",
"XX c #84A464",
"oX c #8AA363",
"OX c #89A969",
"+X c #97A967",
"@X c #9DB26F",
"#X c #89A975",
"$X c #98AC74",
"%X c #8FB276",
"&X c #96B274",
"*X c #9CB274",
"=X c #96B27B",
"-X c #ADAD6F",
";X c #A4AA73",
":X c #C4815E",
">X c #ED884D",
",X c #FA8846",
"<X c #FD8C4A",
"1X c #FC964B",
"2X c #E88757",
"3X c #E89858",
"4X c #FE9453",
"5X c #FE9A54",
"6X c #F89658",
"7X c #FE9D5B",
"8X c #FEA557",
"9X c #FDA35A",
"0X c #D98665",
"qX c #DA9464",
"wX c #CF8F74",
"eX c #EA9168",
"rX c #FD9D62",
"tX c #F69568",
"yX c #FB9C79",
"uX c #D6A66B",
"iX c #FEA263",
"pX c #FCA865",
"aX c #FEA46C",
"sX c #FEAD6C",
"dX c #EFA870",
"fX c #FCA777",
"gX c #FDAB73",
"hX c #FDB277",
"jX c #8C7984",
"kX c #6E8F85",
"lX c #958A8C",
"zX c #AD8C87",
"xX c #A59B9A",
"cX c #98B587",
"vX c #94B389",
"bX c #ADA39D",
"nX c #9F9EA1",
"mX c #B3AEAE",
"MX c #C79B81",
"NX c #C7AE8F",
"BX c #E4A584",
"VX c #FEB482",
"CX c #FDB887",
"ZX c #FBB189",
"AX c #C9B8B2",
"SX c #BFBCC7",
"DX c #B9C1C2",
"FX c #D1CFD3",
"GX c #E6DFD9",
"HX c #F3E0D2",
"JX c #D8DAE7",
"KX c #E1DAE6",
"LX c #EDEDF0",
"PX c #FDFCFC",
/* pixels */
"q % 1 1 p 6 b y < , > L ; % % c , y h p y p z i u L tX2X, ; ~ $.% 3 < 5 3 u , Y 1 = i i < 7 - 7 ; ; i : : > < 1 & & 1 % , 5 e + ",
"o + O   O + o X   + X O X   & X   o   X O + % 3 o dXsX9X1X+ + o @ o % X   + @ O O =   X . O . . o o X o + o X X X .   O X % 3 + ",
"0 + x , V C O.C x z c c > < ! O.W n u.+.` u.x d k qXgXpX1X9 / 3 + n z n x N W W T W v z Q x T W ( +.! C V V C V c n c Q k P W % ",
"L X = +.b c O.+.*.y.O.&.O.p.*.&.-.&.-.O.y.f.+.%.d.dXgXsX8X8X-.U ; ` t.( O.+.O.+.i.{ v.i.%.[ ! Q %.*.p.t.y.*.y.w.d.y.] *.&.y.e : ",
"e o r z p Q &.U f.$.O.Q ! *.O.q.) c U %.Q Q ] %.=.6XhXhXpX8XeX4 % n Q ( c +.&.*.] / ( i.p.t.W ] i.&.*.O.s.O.y.i.i.t.%.( %.( 8 % ",
"8 % = u q.O.O.+.] +.] w.&.O.+.O.O.C V ! C &.+./ $.rXhXhXsX8X5X* @ , ( ! v ( ] n O.( ^ %.h.+.] ! O.O.s.O.*.O.*.+.O.i.} ^ ^ / e ; ",
"4 , ; p ! O.O.+.q.+.] ] P W O.W N V Q V ! O.] ] %.7XhXCXhX8X8XuX> z n z N O.! ` t.%.} ] ` ^ O.! ] &.+.&.o.O.` O.! ^ c ^ T P ; < ",
"0 o x o.o.y.W $.] y.+.] ] O.! ( W $.( ! O.W [ ^ fX9XCXZXhXdX8X3X+ p k n k O.*.O.&.] ] &.%.] O.p.] -.O.Q O.*.&.O.] N Q ( W Q * > ",
"4 & ! C Q -.&.( +.&.O.*.] ] ] &.&.) ( ! n N ^ NXuX-X-X'.(._.(.].-X-X-XM v U ( t.+.g.] p.O.*.%.i.} %.%.Q n &.&.O.] t.} } Q ( L = ",
"5 @ i ( -.W +.O.o.*.%.] %.t.( &.] *.%.C NX-X-X}.`._._.[.`.R.`.).1XeXI.^.^./.(.).-X7.q.O.b.( i./ %.%.+.] ( O.%.O.} _ &._ i.q $ = ",
"> < ) +.+.` q.` O.` ] ! t.i.+.+.] ] _ -X-X+X|.|.[.R.R.R.R.XXoX6XaXsX>X/.Y.T.U.Y.U.^.).i.L + &.%.] { %.O.t.O.%.} ^ } ] t.p.4 L * ",
"4 : Q &.N Q Q W +.+.O.y.p.+.q.u.t.&._ +X+XoXOXXXXXQ.Q.XXOXoXK.K.rXCX9X3X[.R.Y.Y.Y.U.I./.u +.%.&.! &.+.] +.O.[ ( ^ n Q } i.%.; $ ",
"> @ d.c -.t.{ +.+.O.+.y.O.+.s.W w.g.q.;XXXOXOXOX#XOXOXQ.'.eXJ.K.D.fXhX8X}.'.R.R.R.Y.Y.L./.` ( O.%.j.` ! +.+.p.*.} } &.%.] i.s - ",
"k : ] O.c O.+.O.O.p.] O.t.] w.q.&.} %.] XXQ.#X%X%XOXOX[.eXK.J.K.K.iXhX8X3XOX[.[.[.[.[.[./.'.O.O.+._ O.] ! O.O.+.7.Q ] *.} ] L % ",
"c 9 &.] ~ Q ] ] ] O.] +.] +.+.+.Q ] %.gXuX[.#X%X=XOX[.3XJ.J.J.S.J.iXhX8X<X#X+X[.[.[.{.{.[.'.` n n O.z ` &.+.*.+.p.O.t.*.-.[ 2 O ",
"U > ] W %.u.u.o.+.+.O.*.+.+.[ w.[ ^ ] iX7X`.OXcXcX%X[.tXG.J.V.S.S.iXsX8X<X#X&X%XOX}.+X[./.!.+.r.&.s.&.q.q.+.w.*.+.w.q.t.u.v.z $ ",
"4 9 ( ( ( ` ! O.y.u.` ) h.q.s.s.j.u.] 7X7XqXoXcXcX%XOXZ.J.G.V.V.S.iXpX8X<XcX=X@X@X}.}.{./.^.t.t.! O.o.+.+.+.w.[ q.7.t.t.i.t.p O ",
"8 % O.-.( O.! ` +.W ( ( W y.&.y.&.h.dX7X7X7XY.#XcX=X&X).G.G.B.V.V.9X9X5X<XcX=X*X@X@X}.{./.).[ t.O.*.` +.^ ] N t.O.y.h.i.t.=.f $ ",
"8 + n ( O.] o.` ] n { / i.O.&.` r.O.7X7X7XrXfXQ.cXcXOX[.F.F.B.B.A.5X8X1X,X-X=X*X@X}.{./.^.O.] ^ d T Q ( _ } ^ Q &.O.d.t.t.O.e % ",
"2 > ! V n V %.( ] ( U / O.W O.*.$.dX7X5X0Xk.0X(.%XcXcX%Xz.F.N.N.5X5X1X1X1X:X*X@X@X}.'./.!.O.%.] [ ! W ] P _ [ ] O.O.] %.%.] e O ",
"8 @ V v U O.U &.P P ( / ( W ! } gX7X6X3X1.8.a.8.R.vXvXcXR.F.N.A.4X5X1X~.~.].*X@X@X}././.(.' ^ ( i.[ ] T T ] *.] ] ( %.v W / > $ ",
"; : O.V C O.*.n ( z ] ( Q ( aX7XrXrX7X0.1.1.1.n.v.|.vXcXOX0XS.4X5X5X1X~.>X#X&X@X}././.!.] i.) } [ ( N ( q.%.] ] ] ^ O.O.} c * % ",
"* & O.( n O.Q O.Q P ! 5X5X5X7XiXsXpXrXtX].k s E a.|.#XvX=X+X<X5X8X~.<X'.cX&X@X@X'./.L.!.*.} ^ ] ] [ Q _ Q ` +.] } %.] ( / , * , ",
"e 9 j.] U Q Q ( ] _ .XgXhXhXVXCXCXhXrX7Xl.e l 7.rX].|.vXcX=X2.].3X3XR.+X&X;X@X'./.I.!.[ %.t.} W ! ] ! W q.+.^ O.*.O.&.} d 8 $ & ",
"2 : w.&.( O.o.C V ( k.pXVXCXCXCXZXaXrX7XZ.y e k.iXrXR.Q.vXcX;X;X&X%X$X$X*X;X+X(.I.L.).O.} ] [ ] ! Q N Q Q [ } [ [ ] ] } W P 4 , ",
"3 < O.b b x ` v C k uX4X7XaXVXfXrX7X7X6X4XB 6 2X7X9XT.E.#X=X$XcX*X&X*X;X@X+X'.I.I.r._ ] ! ] ^ Q Q Q d f N T +.+.Q Q ^ W L W > o ",
"5 = Z o.c C C k _ Q b Z.>X,X1X4X4X4X4X4X4X6X6X4X6X5X@.E.#X#X$X$X$X$X;X+X{._.Y.J J [ W _ ] W C ! ! N c d Q P [ W ] Q ) W ^ / w = ",
"d < u.u.r.O.q.O.p.} Q &.` p.6.,X,X,X<X<X4X<X<X<X5X4X@.R.#XoXoXOX+X+X'._./.I.L.2.O.%.+.&.&.y.&.] ] T ] Q Q T } &.t.} t.*.%.{ ; ; ",
"8 y u.s.+.h.O.s.n p.f.` t.j.r.u.Z.5.6.6.,X,X<X<X<X1X .T.Q.R.R.R.R._./.U.I.J J =.i.t.%.f.&.*.t.%.&.t.%.&.^ P } &.*.*.t.i.&.%.u % ",
"q y y g.L k $.O.$.i h. Xd.%.+. X- C.r.l.5.6.6.,X,X>XP.T.T.P.U.Y.U.U.U.J H H / =.%.*.v.v.+.t.*.%.i.z N i.( -.U *.i.%.*.&.v.v.v % ",
"4 O y p z f p z M M 1 p i.f.-.b 7 % .X;.@.e.5.C.C.#.P.P.P.P.P.L.H P.H F H 7 > d p =.p ] *.-.i.v.d ; f - T ^ / %.c.&.O.*.-.-.3 & ",
"> O = = % > @ % + % @ @ @ % : > = l > #. .;._.).#.F | F  .F F D D D G r.y 9 u y 6 l U 0 > , k , 8 $ % % + = , i < u V b 1 , , + ",
"% + @ o O O . o X O O @ O @ @ + O X O o H #.@.F S S S A S j j A Z H f s t . o   o qXZ.H.KXSXAX= & X   O O o o   o o o o . . $ + ",
"d @ x ! ` C N ! x n +.` g.g.w.O.V k .Xo.| X.,.X.S A h j j j G G B 7.9.:.R >.4 wXD.C.C.>XwXJXKXGXQ Q x T Q Q z d z ` i.b.=.6 > O ",
"c : ! q.q.O.! ` ` C ) w.o.+.q.q.Q .X].M | | ,.W.kXT.| X.X.S S s.G 9.n.{ { g Z.C.D.2XD.tXtXPXLXPX_ Q Q W N W ] ] ( W p.` 3 6 $ $ ",
"k % h.w.C ) _ _ q.q.Q ` u.u.q.q.c }.u.g p | ,.,.W. .;.Y E...P.G m z.m.m.K B C.2X2XtXtXtXyXPXPXPXHX+.] ' ] M Q &.[ / O.h.y.n c % ",
"/ 1 C O.w.s.w.p.' q.q.O.p.s.s.*.&.{ | N s s ..X.<.h s I R { c.Q B l.eXz.g M 2XtXyXyXyXZXhXHXPXPX%.=.&.*.y.c %.p.*._ ! p.b.t.8 % ",
"0 , &.d./ $.d.).+.Q *.d.&.f.y.*.} ] | ..0 L w >.{ f t t p g g f e.e.iXiXaXfXiXyXyXyXfXVXsXhXsXLX%.&.*.( ! O.Q O.i.%.] p.} > > + ",
"5 , s.&.! o.Q &.p.f.h.y.s.y.] +.=...X.,.W.l K I w t 9.M.M.M.z.a j G >X4X5X7XrXrXrXgXpX9XpXpX7XHXO.+.+.+.} &.Q ] ` i.( -.=.O.0 O ",
"0 p ! *.*.Q O.w.O.O.+.y.w.( q.+.&.=.,.,.<.,.kXY s M.8.a.n.m.z.Z m j n 5.6.<X4X7X7X9X9X5X8X8X6XQ ] ] &.` W ! ^ L -.Q ] / ( ( $.% ",
", : ( &.*.C *.V u.+.u.q.q.y.u.u.t.t.u.,.W.kXkXkXi.8.9.a.z.z.k.! A A O.o.*.O.C.6.,X<X<X<X~.2X` &.] ] +.] ] W O.i.( i.] Q P L s ; ",
"3 : q.O.q.C y.w.w.` u.+.s.u.w.p.w.h.q.w.y.E.kX7.HXGXKXKXLXJXLXLXGXQ o.&.*.%.%.n ! z.O.) ] ] [ ] y.y._ O.] n _ ] ( N q.] W * # $ ",
"> < s.n ! O.` O.h.[ g.y.s.+.s.r.g.w.u.&.8.Z.8..XJXFXJXJXFXDXFXSXAXAX+.! V v ( *.t.} ] ] ] t.O.+.O.O.+.N z ! d +.t.o.+.] d.P 5 @ ",
"x 1 *.( ` ` +.u./ V O.f.q.g.w.+..Xm.l.0.8.a.z.FXFXFXmXmXmXmXmXmXmXNX*.! O.&.n %.] z ] %.*.! ! ( ] ( N Q ] ( ] ] ] O.y.] L s % & ",
"0 @ V V r.p.q.W ^ N f.` y.q.u.m.8.7.7.8.a.0XdXmXnXnXmXmXmXbXmXmXmXNXV +.&.! V ( ] ] [ ] O.] t.+.( Q ` ] %.] +.] ] *.^ ] f 3 , @ ",
", + z q.+.O.` W Q ] q.j.] i.b.E a.M.n.m.m.a.AXxXnXlXnXxXxXbXbXxXxXbXQ O.Q Q $.u.! +.! ] &.( [ ] +.` ] Q _ ] W ] ( W Q ^ %.} 3 & ",
"l o 1 g.+.q.( c n W y.s.p.u.' K a.zXzXM.BXdXxXlXlXlXlXlX X.X.X3 @ r.x V W P O.+.t.O.! ( ( ( %.u.u.+.( ) ] ! O.( } T W Q Q } & $ ",
"> o ` u.q.+.O.+.o.O.s.y.' q.} K { m.7.x.wXBXjXjXjXb.v. Xa.BXqXe = Z M Q Q ( ( U &.+.Q ( _ ] t.&.w.y.t._ Q ] +.z &.N O.} -.~ < = ",
"e ; O.! O.] t.g.` [ q.u.w.g.u.t I R n.eX4.V._ 9.c.k.x..Xm..XMXU : W C +.O.+.` +.&.t.] ( ] b.V +.q.q.t.' +.+.] ] N Q [ ^ i.7 $ $ ",
"e @ x ` ` q.' +.q.! s.q.u.g.+.+.u t R H.4.4.4.4.%.O.e.g.] &.m.e O N o.` O.q.O.q.+.O.` Q O.! +.j.s.o.t.] n u.C ] ! ( ( v.P 3 5 % ",
"4 @ ` s.` [ 7.N M ] ] q.7.C q.V T T t i wX3.H.x N y.t.[ [ ( L 5 @ q.Q +.r.o.w.q.w.+.&.W $.Q j.s.g.+.` ] Q +.q.] Q ! ` d l P 0 % ",
"4 9 o.O.! ( V T O.` _ u.q.+.w.w.n ] e.[ n q M y.+.p.7.[ t.[ ; * % w.O._ y.s.q.t.+.w.p.%.%./ y.` y.t.+.Q Q +.` C *.t.q.u % > 2 & ",
", % t.( O.( x ` ` q.7.t.w.u.p.h.] C W p.b ! y.7.q.u.u.' ' _ 3 s @ q.O.+.q.y.o.t.u.o.i._ ( W ] q.y.w.N ] ] O.O.o.' q.q.u.! b 0 , ",
"4 % ! Q b n w.u.y.e.u.w.q.w.q.q.w.Q ] V ] ! q.) _ q.q.] [ [ 5 8 1 p.C q.O.u.t.t.+.s.` *.( n +.q.y.w.q.e.y.` g.q.q.g.t.l b.i.L * ",
"% 1 ` q.s.w.g.w.q.g.+.+.q.+.Q q.q.q.q.] ` o.` C u.) u.q.y.[ h.t , ' C ' C c +.+.q.( j.f.W ( w.t.+.+.C q.e.q.O.+.i.q.u.) u * % % ",
"3 y ] k y.u.+.s.e.q.g.+.s.Q O.w.q.q.w.] Q [ ) C +.w.q.O.y.u.g.Q ; e.w.[ +.*.] ] ( -.t.Q ] ! +.t.w.w.' w.C ` +.q.y.q.y.` k L 0 % ",
"3 1 N P O.` e.' y.w.q.Q _ P W C q.' q.' Q Q ` +.' w.+.p.t.y.u.c & q.q.o.w.y.%.U q.+.y.T ( ! ` s.s.' q._ w.q.w.p.y.u.+.h.c - 8 % ",
", : Q Q +.q.q.+._ s.u.N M O.Q O._ Q q.V ) x ) n x q.+.q.7.t.y.d.t ! *.O.W ( o.Q O.&.T T n ! Q +.w.[ o.p ! +.u.u.h.g.+.p.q.) $ % ",
"0 < ` O.+.p.p.w.u.q.Q 7.] n ) Q _ [ ' o.q.+.q.q.' 7.[ ] [ t.%.3 1 o.q.C q.Q +.! O.x n ` +.t.q.' Q d W N n W ] +.( ] %.( ! ( e ; ",
"n , Q ! +.` ] w._ t.w.u.e.7.' w.[ ] C w.` u.+.s.h.p._ t.t.t.T ; = N t.` ` q.o.` +.p.' [ q.+.+.q.' _ ` ( W %.&.] ' _ q.] &.` < > ",
"0 < z ] s.+.f.u.t.q.+.+.u.w.s.) q.] ] O.s.u.+.! u.s.s.f.d.f.Q 8 > c ).O.w.w.e.j.{ ! t.%.f.O.O.O.d _ y.+.Q e.y.e.g.] q.p.t.t.Q 7 ",
"e u { k x f.W u.p.t.7.' i.7.' q.b.+.i.) ! p.y.f.-.f.C k V %.] U u s l k ] N q.f.%.).w.t.O.z z +.i.y u.f.N N w.b.Q u.q.h.b.u.d 1 ",
"n ; , = y @ = ; q , y i , a M y = < i 5 = < = y , Q ! q q n e , % q $.L & &.4 q 9 > @ : q > > > 7 % , > = r - : , * = 7 5 c 5 = ",
"> o ; + = & O X o + O 1 @ O + - o X O * % o + % @ = % @ % % , O O > = O , + + & : O o & ; % @ : > % + @ - 0 O + % O % = ; p 5 , "
};
