/* XPM */
static char *result[] = {
/* columns rows colors chars-per-pixel */
"64 64 244 2 ",
"   c #070605",
".  c #090706",
"X  c #0A0807",
"o  c #0D0B0A",
"O  c #110E0C",
"+  c #15110E",
"@  c #1A140E",
"#  c #110F11",
"$  c #161312",
"%  c #1B1611",
"&  c #1E1913",
"*  c #1B1919",
"=  c #231B14",
"-  c #281E16",
";  c #221E1A",
":  c #2C2217",
">  c #26211C",
",  c #2B231C",
"<  c #32251B",
"1  c #34291E",
"2  c #3A2C1E",
"3  c #252322",
"4  c #2A2622",
"5  c #2E2825",
"6  c #312720",
"7  c #332A23",
"8  c #3A2D23",
"9  c #332D29",
"0  c #3D3124",
"q  c #36312D",
"w  c #3C342C",
"e  c #3A3632",
"r  c #452B27",
"t  c #433324",
"y  c #44362A",
"u  c #47382A",
"i  c #4C3B2C",
"p  c #583728",
"a  c #553A2B",
"s  c #463A35",
"d  c #4B3D32",
"f  c #563B34",
"g  c #4D4A2B",
"h  c #4C4136",
"j  c #4C433B",
"k  c #534335",
"l  c #5A4635",
"z  c #5C4937",
"x  c #544539",
"c  c #594739",
"v  c #56493C",
"b  c #5C4B3C",
"n  c #495838",
"m  c #575937",
"M  c #6D4E32",
"N  c #674B38",
"B  c #634E3D",
"V  c #72453B",
"C  c #6B5731",
"Z  c #65513E",
"A  c #6B533E",
"S  c #4B633B",
"D  c #54673B",
"F  c #6F6F3A",
"G  c #554C43",
"H  c #5C4D41",
"J  c #544B4B",
"K  c #5C5146",
"L  c #624E41",
"P  c #6B4C4C",
"I  c #655243",
"U  c #6B5544",
"Y  c #6E5945",
"T  c #645549",
"R  c #6B5649",
"E  c #66594B",
"W  c #6D5A4A",
"Q  c #725643",
"!  c #735A45",
"~  c #795D46",
"^  c #75554A",
"/  c #735D4B",
"(  c #7A5E4A",
")  c #6A5A52",
"_  c #735E50",
"`  c #795F51",
"'  c #4B6B49",
"]  c #536743",
"[  c #56744A",
"{  c #536B52",
"}  c #567458",
"|  c #786547",
" . c #76614D",
".. c #7B634C",
"X. c #6E734E",
"o. c #66784A",
"O. c #777E47",
"+. c #6C6254",
"@. c #756252",
"#. c #7B6552",
"$. c #7F6854",
"%. c #7A6759",
"&. c #7D6B5A",
"*. c #637B59",
"=. c #6B5963",
"-. c #5D7C67",
";. c #6E746A",
":. c #813F2F",
">. c #924C36",
",. c #A75335",
"<. c #F3753D",
"1. c #865545",
"2. c #8A5048",
"3. c #98584A",
"4. c #9C5D53",
"5. c #A55A47",
"6. c #82654D",
"7. c #84684F",
"8. c #8A694E",
"9. c #956A4E",
"0. c #816651",
"q. c #846A53",
"w. c #8A6D54",
"e. c #836D5A",
"r. c #896D58",
"t. c #9B655A",
"y. c #8D7156",
"u. c #85725D",
"i. c #8C725B",
"p. c #917256",
"a. c #93755A",
"s. c #987A5B",
"d. c #B4694F",
"f. c #A86657",
"g. c #BB765D",
"h. c #93696C",
"j. c #897461",
"k. c #947B64",
"l. c #987963",
"z. c #A8706A",
"x. c #B8766A",
"c. c #B37A76",
"v. c #D67849",
"b. c #C77853",
"n. c #DC765A",
"m. c #F0704C",
"M. c #E35965",
"N. c #D36360",
"B. c #EB656A",
"V. c #F0696C",
"C. c #F3796D",
"Z. c #F56D72",
"A. c #FB7473",
"S. c #FA7A75",
"D. c #76813D",
"F. c #69854A",
"G. c #788B4A",
"H. c #7D924C",
"J. c #688757",
"K. c #748A58",
"L. c #6F915F",
"P. c #7A9659",
"I. c #698668",
"U. c #758667",
"Y. c #73916E",
"T. c #779678",
"R. c #FA873D",
"E. c #848A49",
"W. c #85954B",
"Q. c #888855",
"!. c #889A59",
"~. c #969052",
"^. c #AE8C52",
"/. c #8BA158",
"(. c #94A35A",
"). c #998768",
"_. c #889B66",
"`. c #909671",
"'. c #AF8C6E",
"]. c #89A668",
"[. c #99A665",
"{. c #95B06F",
"}. c #95B47A",
"|. c #AAAD6E",
" X c #BAA976",
".X c #D08D53",
"XX c #EC8847",
"oX c #FD8A42",
"OX c #F68A49",
"+X c #FE944B",
"@X c #FD994B",
"#X c #F98958",
"$X c #EA9257",
"%X c #FE9B54",
"&X c #FA9758",
"*X c #FEA04F",
"=X c #FDA457",
"-X c #FEA25D",
";X c #CC886A",
":X c #CD8F6F",
">X c #FC8569",
",X c #FA9B67",
"<X c #FB8374",
"1X c #FB8973",
"2X c #FF857A",
"3X c #FE8A79",
"4X c #F39A70",
"5X c #C3B078",
"6X c #FDA362",
"7X c #FDA967",
"8X c #FEAC6A",
"9X c #EBB267",
"0X c #FEB16D",
"qX c #FEAB72",
"wX c #FBA976",
"eX c #FDB375",
"rX c #FEB47C",
"tX c #B47D82",
"yX c #6C8F89",
"uX c #879D81",
"iX c #B38C8B",
"pX c #9CB986",
"aX c #A3BB85",
"sX c #B1B58E",
"dX c #B9AEA9",
"fX c #FF918C",
"gX c #D7A695",
"hX c #FEA585",
"jX c #FEB484",
"kX c #FEB788",
"lX c #FEBA8C",
"zX c #FEBC93",
"xX c #CBB2AF",
"cX c #C8B8A9",
"vX c #A3C293",
"bX c #D2C4B7",
"nX c #C6BFC0",
"mX c #D2CFD3",
"MX c #D8DCEC",
"NX c #DAE3F0",
"BX c #E7E9F2",
"VX c #EBF2FC",
"CX c #F3FBFD",
"ZX c #FBFEFE",
/* pixels */
"w % 1 2 i 2 l 0 1 , > G * % % l , t h k t u k t y j e 7 5 = T +.$ , < 5 , w , K 7 = i u < 8 - 8 ; = u - : , 1 5 % = 2 & , 7 e @ ",
"o + O   O + O X   + o o X . * X   X   X + O -X,Xo $ @ o , + + o & O @   . + $ O O & &X6X-XO . X X O X o O X . o X     o X @ 3 @ ",
"q + l , I A  .U k h c x > 1 Y ! U b w...A 7XwXjX8X$X .b : 9 Y < + c k C x Z I U U qXzX4XwX%XL T W #.U U Z Z Z Z l b k Y k b H % ",
"G X = ..l v ~ #.q.w. .#.| r.$.%.&.@.e./ r.&X<XA.hX0XOX .i.h &.sX X X X'. X.. ...&XkX2X3X2X,XR U @.$.w.q.w.q.q.7.e.e._ #.#.e.e , ",
"e o t k u Y #.H u._ / U R $. .0.Q x K @.I <XA.S.C.rX-X&XW 5X X X X~.^.~.~.~.^.6XjX3X3X2X1X1XT / e...$.| y.#.e.e.e.#.#.W @.) 5 * ",
"5 % = t 6.| / #.| ../ q.#. . .| | U H / U S.A.A.A.C.rX-XR. X X|.(._.W.E.E.E.&XqXkX3X3X2X2XS./ U ../ y. .#. .&... .e.@.R U R q - ",
"5 , ; i U !  ...$.../ ! H L / U b Z U B U >XS.Z.Z.V.hX0X=X.X[.!.!.!.H.G.G..X6XlX1X3X2X2XS.<X#.R _ #...#...| / / U R x U I H 3 , ",
"e o l | | w.U +./ 0.0./ / ` R / U @.W Y / #XZ.B.V.V.V.rX8X[.]./.P.P.P.L.G.G.rXlX<X3X2XS.S.>X( r.W e. .U  .#... ./ B U R I R * : ",
"7 & Y I U %.#.W ..0.@.#./ / / ....! W U b $XB.B.B.B.M.lX[.].P.}.}.{.].P./.!.E.jXC.<XS.S.C.4X#.u.W ` @.U b #.@. ./ $._ / I T G ; ",
"9 @ u Y &.I .. ...#.#.W #.$.W #. .$.#.A | ! B.M.M.M.;X].].}.pXpXvXpXpX}.{.{./.W.~.C.C.C.Z.$Xe.E @.%.../ W / #.` @.^ 6./ e.y $ = ",
"* 1 ! ....! 6.!  .~ | U #.e.( #.W  .U B  .R B.M.N. XP.}.}.pXsXvXvXvXvXaX}.|.{.].W.E.^.Z.V.$ #. .W _ @. .e./ #./ Q / W $.r.4 G ; ",
"5 : U ..Z U U I .. . .q.w...6.y.7...Y A ..| $Xg.[._.].}.].].!.H.D.D.W.H.(.(.|.|.{.(.W.E.,XG.@.#.U #.../  .|  .W R b R ` e.( BX# ",
", @ u.v &.0.) 6.(  .#.q. .6.w.I 6.y.6./ $.k  X(._.P.P.P.^.qXrXkXrXkXrXeX0X0X9XW.(.|.{.(.W.~.Y #.#.s./ A 0...w.$.@. .#.| / MXxX> ",
"h : / / x  . ...#.q./ #.0./ 6.7.#.#.@./ W  X].P.P.G.~.6X,XwXjXzXzXlXlXrX0X0X0X-X=XG.(.[.(.W./ .. ./ | / Y  .` ..6.I  .#.MXbXG % ",
"v 8 .. .T U ../ / ../  ./  . .6.U / ..7.Y [.P.F.F .X$Xb.wXwXjXzXzXlXkXrXeXeX.X,.,.*XF W.(.~.A b b ` x ! #. ...#.w./ w.NXBXbX4 O ",
"K - / T  .w.w. ./ ..| q..... .7. .U / Y I `.G.D.^.;X3.f.z.b.rXzXzXlXrXrXeXd.x.b.d.,.@XF G.(.| y.#.i...6.6...q.q...7.NXBXcXi.h $ ",
"4 0 Y E W Y  .! q.w.! ! a.7.y.y.s.w./ / @.Y F.H.$X#XM V 2.iX4XlXzXlXjXrXd.'.d.8.N &X*XF G.!.0.q.U |  .6.....7.( 6.ZXZXmXcX7.a + ",
"q % #.&./  .Y ! ..I R W I q...$...s./  .U U F.!.$XOXa G P >.x.jXzXzXrXrXtX,.^ r.A .X@XD.K.!.( #...#./  .Y W B q.CXZXCXcX8.#.d + ",
"5 + b / W  .| ~ / b +.E e. ...~ w... ./ _ ` F.!..X+Xg d J ,X3.hXzXlXrXrXd.7XT | N v.+XF P.E. .R h L U R ^ #.W mXZXZXbXcX0. .e % ",
"3 : Y b H b #.W @.W H E  .I  .%.W w./ U b R J._.^.OXd.w V %X6XjXlXkXrXrXqX8X.Xz M @X+XG.Y.Q. . .( U U / H / / CXZXmXdX .@. .e O ",
"5 @ Z v I  .K #.Z H R E Y I Q  .Z ....I @./ o.]./.XXOXm.&X&X6XqXrX8X7X7X7X7X7X=X@X+XoXP.Y.).U Y q.( ^ I L / BXCXVXcX@.v U W ; $ ",
"; :  .I I  .#.b W h W / U /  . .Z ~ ! ` Y  ._ J.].^.OXXXOX+X&X6X-X=X*X*X=X*X*X@XR.R.E.T.Q.e.Y  .( W b / | mXCXVXxXR @. .) x * * ",
"* & | W Z  .Y  .U H U  .U  . . ... .#./ U / / ] T.P.XXXXOXOX&X6X6X%X%X%X*X@X@XoXoXXXyXP.Q.` U / /  .U ! Q VXCXmXdX@.~ W T 5 * , ",
"e 0 a./ K I Y W W | / / T Y U | ! ! ! R B ( 0.` D T.o.m.m.OX&X6XqXqX-X=X+XoXoXR.XXL.`.F.@.$.( T R / ! I MXCXBXxX%. .#._ d 7 + & ",
"4 > 7...Y  .| U B W Z Z H c U U I /  ./ ! I U W u.Y.T.K.~.v.OX&X5.x.8X-XR.<.XXO.T.uX_.C P Q / / R U H nXVXVXdX( .. ./ W R G 6 4 ",
"4 < ~ b z l ~ v A i b I Z x b l A U b b ! U U f.4.m [ T.Y.J.^.#Xv.,.-X+XoXF I.`.Y.o.X.V V >.^ U U R s NXVXdXdX#.U U U T G I ; o ",
"6 = | ~ c Z ! h | I v v l Y A W k U Z Y P U 3.t.c.B J.S } T.T.^.<.oXXX~.} -.T.J.*.I.^ t.3.3.4.Q Q L mXBXMXiX` L / U Q U W W w ; ",
"d < w.q.w.~ ../ e. .A ..| y. ...I B ! ..'.3.z.tXtX>.g ' ] S ] D [ o.} ] S m S n G E p 3.c.t.f.3.>.iXh.MXdXK ` ` #. .0.#.@.) ; = ",
"q t y.p...a./ i.z w.r.! $.s.w.7.@.W a.8.g.t.2.tXz.f.>.n g X.[ } -.I.Y.-.[ X.X.m g t M 4.3.iXwX+XgXgXx.f.'.L ` 0.#.$.0.e.#.%.y % ",
"w 0 t i.v h  .@.+.i u.'.&.#.#.).: c A k &X4.x.2.g.5.e.d ).m ' } -.Y.T.I.U.K.O.v V 7.i.1.t.hXjXwXm.iX;X5.W &.T #.u.@.$.#.&.j.v * ",
"5 + t i k k i g z B 1 i e.i.&.z q % t 0 6X,X4.b.:.>.W x ).a b { -.-.;.Y.+.f Q a p C | 1.>.&XrXm.C.1X<.- L R T @.j.`  .$.%.u., * ",
": O % = % > + & @ % % @ @ % : : ; j > % #X-X+X>.>.@ = ).s.a r r r f f f f ^ U N m n m 5 >.OXm.fXfX>Xn.% # = < y < y Z z 1 , , + ",
"% + + o O + X X X O O O O @ % o O o O X . v.v.X @ @ @ Q.o.S s s P =.) T J I o.[ S n   o $ >X1XfX>X<.. O O o o   X o o X X   * O ",
"d @ l Y ~ A B Y B z ..~ p.p.w.| L d i u | A A H U ! ~ / S ' ' { -.yX@XI.*.{ [ D S 4 i U '.m.fX>Xm.! f U U U x i x ! r.k.%.8 ; O ",
"x : Y 7... .Q ! A Q ! 7.~ ..6.6.U U v U U L b b Q ( ..q.' ' { { } I.m.p.} { ' ( R @.W T :Xh.n.C.m.U A U B I / / / T w.! , 8 $ % ",
"j = a.8.A A ! ! 6.6.U ! w.w.6.7.x U U ! ! I W R U R q.w.z &XwXhXhXn.A #.! U ( _ #.&.R I @.:X:Xd.~ ( / ~ / B I #./ U @.a.e.v x & ",
"E < A ..7.i.7.y.~ 6.6...u.i.y.$.( W / #.#.W  .@.e.r.a.l.a.,.5.5.,.n.U #. . .j q.e.@./ / e.0.^ q.( #.#...w.x #.w.$./ W w.l.e.7 % ",
"9 , #.u.E  .u.l. .U $.e...i.w.#.@./ ) W  .@.@.%.e.e.k.i.g.4.'.c.f.5.T #.#.s w $.) #.L %.R / / #.#.` %./ R  .R / q.@./ r.` > > o ",
"5 < i.#.!  .E #.q.i.a.e.y.q.! 7.#.#.#.L ) W @.W #.&.R j.3.4.c.c.x.d.h.| I / / ` ` _ U U / R Y / ` ..#.../ $.I  ./ e.W &.&._ q O ",
"q u Y $.#.U | q.| | ..$.q.U 7. ...$.6./ U R R ` b / ..e.x.3.2.2.V >.b x ( U e./ @./ ` / ^ ` ^ I / / ..W T U U H $.U W R R W +.& ",
", : / $.#.I $.Z w...w.7.7.8.w.w.7.$.8.6.~ T W  .$.#...q.9.4.h.t.3.>.~ 6.#.| &. .@.| #.W ` / / #./ /  ./ / T @.0.) e./ U H J s ; ",
", < ..| 7.Z q.7.7.! w. .w.w.7.w.q.a.6.w.q.Z q.W %.0.w.i.2.0.h.h.t.9.1.q.#.%.%.b U _ / / / / (  .q.w.! ( ! b / ( W B 6./ I & # + ",
", 1 y.b ! ! !  .a. .y.w.y. .p.8.w.q.w.../ 6.s.i.q. .x q.f J =.=.^ U B R K v W $.0.@./ / ( $. .../ /  .B k R d ..0. .7. .j.H 1 % ",
"c 1 #.Y ! ! | y.R I  .y.7.y.7.6.'. .A w.$.w.w.e. . .a. .( r s f f i #.! / #.b #._ f W #.#./ U W / / B U / / / / / / 7./ x s $ & ",
"q @ Z B y.w.7.I R B r.! q...w.s.~ 7.k./ H q...| N / w.q.0.( ` s - ( Z  .$.U b _ W / #./  ./ q. .W U ! ^ #./ ../ / $.R / x , , $ ",
"4 O l 6.6./ ! K U / 0.s. .q.w.w.q.q./ W / ..0.0...e.U l ^ 0.E 5 % / U | U U _ r.W ..U / 0.R (  .../ / U / / L / W I U U #._ 4 & ",
"s + 2 w.( 7./ x H I q.y.w.w.U / a.i. .w.....i.w.q.B U q.i.j.r.3 + w.l Z U K  . .6./ R R ^ R @.w.w.../ U / U #.W ` H I U U / & % ",
"3 X ~ w.6... . .( | w.q.| 6./ W | l | q...e.$.w.B $.6.w.6.w.0.w & U N U I W U I q.| U / / / #...7.q.6./ U !  .k #.B @.` &.T , ; ",
"s = | Y  ./ q.p.! ( 6.w.q.a.w.~ b ! /  ...#.Y ..b $.7.U ( w.r.K : U N ..|  .~ ( $.#./ / / k.Z 6.6.7.6.( | ( / W Z U / ^ &.8 # $ ",
"e + l / ! 6.~  .7.U p.6.8.p.6. .T I x / q.$.....@. .$.a./ @.).q O B  .~  ...~ q.....^ I  .Y ..a.w.| 7./ Z w.U / W Y / j.K 4 7 % ",
"6 @ ! y./ ~ 1.B N / / 6.1.A 6.B L L b U ! W U c B 8.7./ ..^ G 6 @ 6.U ..w.7.8.( 7...#.U W R s.w.p...! / I ..7.^ U U Y d j H q % ",
"5 8 / | Y ! I L  .! Q w.6.| 7.7.b / q. .I w l r...w.....q.( ; & @ 7. .! 8.w...q.| 7.e.#.+.E q.~ 7.$...U I ..~ U q.0.6.y * : 3 & ",
"5 % q.W  .U z ! ! 7.1.6.w.r.w.a./ A I w.c ! q.1.6.w.w. .( / 4 s & 7.| ..6.q.| 0.w...w./ W T / 6.q.7.N / /  .| ( ~ 6.6.w.U c q , ",
"5 % Y U c b 7.q.7.q.w.8.6.6.6.0.8.I / I / U 6.Q ! 7.1.( ( ( < q 1 w.Z 6. .w.q.7...w./ #.R b ..6.8.q.6.7.7.! p...6.y.q.j k.e.G & ",
"% 2 ! ..y.6.a.7.6.p.#...6...U 6.6.6.7./ ! ( ! U 8.Q w.7.q.( a.w , ~ U ~ I c  ...6.Y s.r.U W 7.q. ...Q 6.8.6.~ ..q.6.w.U y * * % ",
"4 t Y x w.w...y.8.6.p.( y.U  .7.6.6.7./ A ..Q A  .7.q./ 8.8.p.P - 8.6.( ..q./ / W $.e.U / U ..#.7.7.~ 6.Z | ..6.q.q.7.~ h G q % ",
"5 2 B H  .~ 8.~ 8.q...Q ! H L U 6.~ 6. .U U ! | ( 7...q.0.w.w.x & ( 7.| 7.e.@.B 6...q.I Y U | y.y.~ 6.! 7.7.q.w.q.q...a.x ; 9 % ",
", : U I ..6.....~ w.8.N B ` U ( Q U 1.U ! z ! b z 6.6.6.( 0.0.u.u U q./ H W ..U ....L L H Y U ..6...~ d U ..w.w.p.p...w.0.Q + % ",
"q < !  .| w.w.7.q.1.U 6.( b Q U ! ~ ~ ~ 6...6.6.~ ( ~ / ( q.@.5 2 ~ 7.A 6.Q ..! @.x c Y  .7.6. .U i H B b I / ../ ^ @.W U R e - ",
"v : U W ( / / 7.! 0.q.i.7.1.( 6.( / Q 7.! w...w.a.w.^ 7.6.0.Z * = B q.! ! | | ~ ..w...| 7...| 1.~ ~ ~ W I #.#.! ~ / 6./ $.~ 6 > ",
"q < k / w.#.i.w.0.0.( 6.w.8.w.! 6./ /  .y.w. .U w.p.w.a.r.i.I q , h )./ 6.7.7.s._ U 7.@.i. .!  .d ! q.#.U 8.w.7.p./ q.q.0.#.U 8 ",
"e y ) x z u.I w.w.0.1.~ 0.6.~ 6.k...e.Q ! w.q.i.&.i.! d Z #. .K w h h k  .B 6.a...l.7.q.#.c d ..e.t q.p.b N 7.l.R r.6.s.l.w.d 2 ",
"G ; : = t % - = e : t u < a N t = < t 7 = 6 = u < U T 0 w G w , % 0 +.G & %., w 8 > @ : q , 4 > 7 = , - - 8 - < : % = 6 6 b 5 = ",
"> X - $ - % o o o + O 6 @ O + - o o O ; % o O & + = % $ $ % , + o , ; O , o @ & < o o ; * % % = - & O % - 9 O O % # % = ; i 4 < "
};
