/* XPM */
static char *result[] = {
/* columns rows colors chars-per-pixel */
"64 64 253 2 ",
"   c #070605",
".  c #080606",
"X  c #0A0807",
"o  c #0D0B0A",
"O  c #110E0C",
"+  c #15110E",
"@  c #1A140E",
"#  c #110F11",
"$  c #161311",
"%  c #1B1611",
"&  c #1E1913",
"*  c #1B1919",
"=  c #231B14",
"-  c #281E15",
";  c #221E1A",
":  c #291E18",
">  c #2C2117",
",  c #26211C",
"<  c #2B241C",
"1  c #32251B",
"2  c #3B251C",
"3  c #33291E",
"4  c #3A2C1E",
"5  c #252322",
"6  c #2A2623",
"7  c #2D2925",
"8  c #332A23",
"9  c #3B2D23",
"0  c #3A2826",
"q  c #332D29",
"w  c #3D3124",
"e  c #36312C",
"r  c #3C342C",
"t  c #3A3632",
"y  c #4D331F",
"u  c #4A2A25",
"i  c #433324",
"p  c #43352A",
"a  c #483729",
"s  c #4C3B2C",
"d  c #553929",
"f  c #453A37",
"g  c #4B3E32",
"h  c #553C33",
"j  c #6E3B2E",
"k  c #4E4F1F",
"l  c #484A26",
"z  c #52452B",
"x  c #4B562B",
"c  c #55592B",
"v  c #4D4035",
"b  c #47413C",
"n  c #4B423B",
"m  c #534335",
"M  c #5A4635",
"N  c #5B4836",
"B  c #544539",
"V  c #5A473A",
"C  c #56493D",
"Z  c #5C4B3C",
"A  c #4B5A35",
"S  c #575836",
"D  c #624D3D",
"F  c #684839",
"G  c #754C36",
"H  c #65513E",
"J  c #6B533E",
"K  c #6D5F39",
"L  c #75553C",
"P  c #58632E",
"I  c #4F6032",
"U  c #576937",
"Y  c #5B723C",
"T  c #656D36",
"R  c #706436",
"E  c #687538",
"W  c #787939",
"Q  c #554B42",
"!  c #5C4D42",
"~  c #574A4B",
"^  c #5D5146",
"/  c #5B4F57",
"(  c #624F41",
")  c #674F4D",
"_  c #655243",
"`  c #6B5544",
"'  c #6E5945",
"]  c #64554A",
"[  c #6B5749",
"{  c #67594B",
"}  c #6D5A4A",
"|  c #725643",
" . c #765547",
".. c #735A45",
"X. c #795D46",
"o. c #735D4B",
"O. c #7A5E4A",
"+. c #684F51",
"@. c #6D5D51",
"#. c #6A5B55",
"$. c #735F50",
"%. c #795F50",
"&. c #5C754D",
"*. c #786646",
"=. c #76614D",
"-. c #7B634C",
";. c #657845",
":. c #6D6256",
">. c #756252",
",. c #7C6552",
"<. c #7E6955",
"1. c #7A6759",
"2. c #7E6A5A",
"3. c #727A53",
"4. c #777955",
"5. c #746868",
"6. c #87483B",
"7. c #954935",
"8. c #87583C",
"9. c #A7593B",
"0. c #807C3D",
"q. c #8E4E42",
"w. c #885745",
"e. c #95574B",
"r. c #9A5B54",
"t. c #A45A49",
"y. c #82654D",
"u. c #89674B",
"i. c #84694F",
"p. c #897648",
"a. c #816652",
"s. c #846A53",
"d. c #8A6D53",
"f. c #836D5A",
"g. c #886F58",
"h. c #9A6654",
"j. c #8C7156",
"k. c #84715E",
"l. c #8C725B",
"z. c #917256",
"x. c #93755A",
"c. c #96795C",
"v. c #987B59",
"b. c #A26A56",
"n. c #AC7051",
"m. c #847261",
"M. c #8B7561",
"N. c #977B65",
"B. c #947371",
"V. c #AC6C63",
"C. c #B1756E",
"Z. c #78823E",
"A. c #6B864A",
"S. c #778748",
"D. c #7D924D",
"F. c #738B55",
"G. c #7A9555",
"H. c #7D9C5B",
"J. c #5B8262",
"K. c #688667",
"L. c #788662",
"P. c #769473",
"I. c #80813F",
"U. c #FE8A3C",
"Y. c #848945",
"T. c #88954C",
"R. c #96964C",
"E. c #898954",
"W. c #899954",
"Q. c #839D5B",
"!. c #969353",
"~. c #A98D52",
"^. c #B6985A",
"/. c #8DA04F",
"(. c #82A15D",
"). c #8EA458",
"_. c #95A459",
"`. c #938E6C",
"'. c #A68966",
"]. c #AF936D",
"[. c #B58B74",
"{. c #83A463",
"}. c #8BA464",
"|. c #89A768",
" X c #8AAC6C",
".X c #97A867",
"XX c #9FB16B",
"oX c #88AA73",
"OX c #8EB176",
"+X c #99B377",
"@X c #ADA970",
"#X c #B4AA79",
"$X c #CB8E55",
"%X c #F68D4A",
"&X c #FA9449",
"*X c #EE8F51",
"=X c #FD9957",
"-X c #EFA05F",
";X c #FDA35B",
":X c #FEA95B",
">X c #D59871",
",X c #EC8B6F",
"<X c #E69A66",
"1X c #F59A67",
"2X c #C6AC76",
"3X c #DAA37A",
"4X c #C8B77C",
"5X c #DBB278",
"6X c #FEAB63",
"7X c #FDA869",
"8X c #FEB06C",
"9X c #E2AB74",
"0X c #E8AB75",
"qX c #FDAB73",
"wX c #FDAA78",
"eX c #FFB272",
"rX c #FDB27C",
"tX c #F7B879",
"yX c #759587",
"uX c #AA9187",
"iX c #99B685",
"pX c #99B68C",
"aX c #B7AC8E",
"sX c #B6A598",
"dX c #B8AAA4",
"fX c #BDB3AE",
"gX c #C89A8B",
"hX c #D3A78D",
"jX c #F0AD8A",
"kX c #FEB383",
"lX c #FDB78A",
"zX c #FEB990",
"xX c #C3B7AB",
"cX c #C7BBB3",
"vX c #E2BEAE",
"bX c #D0C4BC",
"nX c #FACAA2",
"mX c #BABCC2",
"MX c #D7C9C3",
"NX c #D1CECB",
"BX c #DDD9D6",
"VX c #DEDFDC",
"CX c #E3D6CC",
"ZX c #F6DDC5",
"AX c #E4DDD5",
"SX c #EAE2D9",
"DX c #F5E7DD",
"FX c #ECEBEA",
"GX c #F3ECE4",
"HX c #F9F5EA",
"JX c #EDEEF3",
"KX c #F9F8F7",
"LX c #FEFEFE",
/* pixels */
"r % 3 4 s 4 N i 1 < ; ^ * % % N > i z g i s z a p n f 8 7 = ] :.* < 3 7 < p < ^ 0 @ d a < 9 : 9 ; - a - > < 3 3 % % 4 % 3 8 r + ",
"o + O   o + o o   + o o X   % X   o   X O + * 6 o $ + X , + + o % o @ X   + $ o O =   o   O   X X O X o O o X o X X   o X + 5 @ ",
"e + M < ` J =.` m z B B : 3 ' o._ Z d.-...i.N s m -.=.Z , 9 { 6 + N m Z V D _ ` ( _ V m _ N ( _ } -.' ` H H H H N N n ' B ! _ % ",
"Q X = -.N C ..-.s.f.>.,.=.g.<.1.2.>.k.=.f.j.-.>.2._ =.o.l.n 2.^ = =.<.} =.>.=.-.2.@.M.f.,.o.} ` >.-.f.s.s.s.i.i.k.f.o.<.>.s.t , ",
"t o i s s ` ,.^ k.$.o.` [ <.o.a...B ^ >.` ` =.>.1.8 d.>.} n r 6 = N ] } M -.,.f.o.] @.f.d.,._ o.k.-.<.-.j.>.f.f.g.1.>.} >.@.q % ",
"q % = a y.*.=.>.=.-.o.i.,.-.-.=.*.` ( ' ` >.*.} o.3 ..2.^ $.g * + < =.' C [ o.N O.} [ >.c.-.o.` =.=.j.=.,.*.f.-.O.f.%._ ` [ t = ",
"7 < ; s ' ..-.-.s.-.o...! _ o.` Z H ` H ' =.=.} 1...s f.[ v 2.q > m Z v D =.' o.s.>.%.o...} =.' } -.=.,.-.=.=.o.' [ B ' ( ! ; 3 ",
"e o M *.-.s.] =.o.<.,.o.O.>.' ' _ >.` ` =.` =.} } ,.s = > >.e b o s s ^ v =.,.=.>.o.o.>.>.o.-.g.=.k.=.` =.,.-.=.o.( ` } ` [ * ; ",
"8 & ' ` ` 1.,.[ -.i.>.<.o.o.o.,.-...} ` Z D ' } o.2._ o @ o.e * @ 8 C Z ! ] } ,.,.x.o.d.>.<.=.f.@.>.%.` D >.,.=.o.,.$.$.( [ Q = ",
"8 @ p ' 2.` -.O.-.-.-.} -.<.} ,.o.<.,.J *.=.} ` Z } Z =.Z v C , @ C w n g ( ` >.,.y.<.>.N.} k.{ $.>.,.o.[ >.>.o.%. .a.o.k.p # = ",
"; 3 ..-.=...y.o.=...=.` ,.f.-.-.} =.` D ..` Z =.} ` -.=.' 8 ! b @ g _ v M Z ' <.=.-.} <.C + ,.>.o.$.$.>.s.=.>.%.} %.} a.l.6 Q ; ",
"7 > ` -.H ` ` _ -.-.=.s.g.-.y.j.i.-.' J -.=.$.} ' ' -.-.=.>.6 f - _ [ H { o.D [ -.>.>.o.p -.>.,.' ,.-.o.*.-.-.} ` V ` $.f.>.; $ ",
", % k.N 2.s.#.-.*.-.=.s.=.-.d.H y.z.a.o.-.g >.-.f.>.-.j.f.o.1.$ & O._ %.%.p B ( o.f 6 o.1.` [ ,.>.c.o.J ,.y.s.,.$.O.,.,.$.1.f : ",
"f > =.=.B >.=.*.>.d.o.-.s.o.y.i.,.%.>.o.[ ! } [ ` =.1.>.o.B n e @ ' o.' >.,.,.=.M.[ V [ ,.[ o.-.O.o.X.o.' o.=.y.y.` o.,.%.o.Q % ",
"B w -.o._ ` -.o.$.O.o.-.o.-.-.-.` o.-.s.' Z } >.-.qXo.1.{ @.<.r - ` _ ` o.-.f.=.r w ,.1.a.,...C Z -.M ..,.-.,.a.s.o.s.1.2.O.6 O ",
"^ ; =._ =.d.g.O.=.-.=.<.-.-.o.d.o.' o.' ` ] [ D 6X7X;X<Xo.{ f.6 = p ' ,.-.>.f o f.%.a.a.g.s.>.d.-.k.-.s.-.-.d.,.-.d.y.a.s.M.h $ ",
"7 w ..{ ' =.' ..i.d.' | c.i.d.j.c.j.o.o.>.' Z =XkXkX8X:X_ } Q b > i q ; _ :.s D o.>.1.wX1XO.<.s.` *.-.-.-.O.a.O.y.w.a.a.s.,.s O ",
"q % >.2.} =.' =.=.` } } ^ s.,.i.-.c.o.=._ ..-.1XkXzXrX:X&X:.Q Q = >.; $ m ` s.o.-.>.7XeX6X=Xo.,.>.,.o.-.} o.D s.=.s.c.s.a.1.h $ ",
"q + Z ' } =.=...o.Z :.{ f.=.-.o.j.-.=.o.o.%.` =XwXzXrX8X6XU.^ q aX@X^.#Xa.,.-.[ o.6XrXrX8X7X-X} h ! ` }  .%.[ ` ,.>.g.,.a.>.t % ",
"5 , ' H Z H >...=.' ^ { =.H =.<.o.i.o.` Z o.-.=XqXlXlXqX8X;X-X@X.X).(.E.W.!.].jX=XwXlXkXeX6X*X=.o.` ` o.! ' O.o.=.=.o.1.=.o.t O ",
"q @ _ C _ =.^ >.Z ^ ' { ' ` ' o.J -.y._ >.o.jX=X1XkXlXrXeX:X=XXX}.Q.Q.W.T.T.tX6XqXlXzXrXeX:X<X[ d.%.o.( ( O.,.o.o.} >.C { } ; $ ",
"* > .._ H ,.<.Z } m =.} ` } -.=.H o.| %.[ -.>.*X=XwXkXkXtXeX^.}.}.Q.H.G.T.W.1XqXlXzXlXeX8X:X..=.-.[ V o.y.>.$.O.o.} >.=.o.B * $ ",
"* = =...S =.' =.J ^ ` -.` =.*.-.-.*.O.o._ O.o.*X=X1XrXrXtX.X X|.{.{.H.H.D.D.^.wXzXlXrXqX7X=X..o.o.o.' ..` ..,.o.o.%.O.[ { 7 ; , ",
"t w c.} ] ` ` ' } =.} o.] ` ` =...o.o.' D O.a.1X&X=XqX4X.X X X X{.H.Q.H.G.D.W.^.lXrXqX8X6XU.o._ ' o.' _ y.-.` o.>.-.>.o.g 8 $ * ",
"6 - u.s.' =.FXVXVXBXH H Z N ` ` _ o.=.o.o.( ` 5X%X9XhX X X XH.H.{.{.(.H.(.H././.^.8X8X:X=X*Xo.o.| ` D _ _ o.%.O.,.o.o.} _ ! 6 < ",
"6 < ..N N N KXGXSXBXBXNXNXM Z N ` H Z N ..J aX~.4X#X}.).OXH.OXOX X X{.).(.).)././.$X:X:XU.*.} ` ' _ g h D ( -.,.` ` } ( Q ) ; O ",
"8 = X.=.N H ` KXHXGXBXBXNXcXK =.m ` ( o.J H aX4X@X}.(.{.H.iXOXOXOXOX X X X).)././.R.$XU.%XH H ..' D V g ` ( %.( O.` | [ } [ r ; ",
"g 1 d.s.i.=.=.NXKXHXGXBXCXcXxX*._ D | -.-.O.2X#XW.Q.Q.(.H.OXiXpXiXiX+XOX.XXX_.)./.T.R.~.4.i.-.o.o._ o.' _ _ %.>.,.%.a.,.>.@.; = ",
"e i j.j.-.x.} NXLXKXKXGXSXbXfXdX>.o.x.u.N.O.2X@XE.Q.G.H.H.oXiXpXpXpXiX+XXXXXXX_./.T.R.R.~.<.f.>.-.a.>.,.[ ! %.a.,.1.,.d.1.<.p * ",
"r 4 i l.C v =.,.mXKXKXHXGXDXbXfXdXV | z D a.2X_.E.F.F.G.F.H.P.iXiXiX+XiX+XXX_._.T.T.Y.Y.R.s.,.,.a.B ( f.} 2.^ ,.f.>.<.1.f.m.C $ ",
"8 + i s m z s s cXBXLXGXDXDXSXcXdXsXw uXB.~.2XE.S.S.S.A.F.H.P.H.}.oX.X.XXX.X_._.T.Y.I.Y.~.1.f.k.f - h , ( [ _ $.M.>.,.,.2.2.3 % ",
"< O & = % , $ * % sX`.FXDXSXSXAXcXdX* [.V.$X+ z.3.;.A.A.A.A.A.G.G.W.Q.W.).).R.T.Y.Y.Z.W ~.> v 6 8 + % & O = 8 a 3 a H N 3 , 3 O ",
"= + + o o + X X X O o sXB.AXCXCXCXbXsXhXh.$Xo '.p.;.;.&.Y ;.A.A.A.F.A.D.D.D.D.Z.S.Z.Z.0.~.@ < $ % X . O O o o   X o o X X   $ $ ",
"g @ M ..*.H D ..N N -.X.M.sX`.CXCXMXMXuXb.Z ` ! z.T Y U Y Y Y Y E ;.Z.Z.A.Z.Z.Z.W W W W g $ p ( J ` M _ ` ` B s B ..g.N.1.0 , o ",
"B - J y.y.o.` ....| ..i.-.,.y.uXB.MXbXhXb.,X! ! '.*.I I I I I I U U Y U E E Z.E E W W ) D D F _ o._ H _ D _ o.o.o._ g.| : i $ $ ",
"n % c.u.H ..o...y.-.J ..d.d.y.y.b uXgX<X9Xh.$Xn.`.v.R A x x x x x c P P P P T E R 0.aX( o.,.o.o.o.O.O.O.o.D ` ,.o.` >.c.f.C B * ",
"} 3 ` *.i.l.i.j.O.y.y.>.d.j.j.<.=.M.hX3Xb.t.r.e. .K.`.K z l l l l l x x c P P P R y.o.%.a.s.a.s.,.,.,.,.s.B >.d.,.o.o.g.c.f.9 * ",
"q < ,.m.] =.k.v.*.` <.g.a.l.f.<.>.gX>Xr.[.r.r.r.h P.yXL.#X..z z l l l l k P R p.y %.( a.} } %.-.,.>.2.o.` -.' o.s.%.o.j.>., ; o ",
"8 < j.-...=.} ,.g.k.x.s.d.s.o.a.[.hX<X( gXq.r.e.F f K.F.3.&.K.].R L -.~.].+.$. .q.6.` } o.} } o.o.-.,.-.>.<._ o.o.f.] 2.2.o.e + ",
"e s ` f.<.J =.a.*.=.-.s.s.[ y.*.a.`.n.=.C.6. .q.q.0 ;.U &.J.yXyXP.K.&.&.Q f F B.B.e.q.6.[.%.} _ o.o.-...( [ ' ! 2._ o.[ { ' :.* ",
"< > } ,.1.J s.D d.a.d.y.y.d.d.d.i.a.d.y.X._ z.j j d.2 c L.vXGX,X`.P.K.F.x u d r.C.C.V.r.t.7.o.,.o.o.O.o.o._ >.s.} s.o.` ! ~ f ; ",
"6 > y.*.y._ s.i.y...d.=.j.s.y.d.u.N.y.i.y.H a.$.5.`.'.KXKXLXKXJXFXhXP.E.3.2 d 6.e.V.C.C.n.t.<X%.s.d.o.-...B o.%.} _ y.o._ % # + ",
", 3 z.Z ....o.=.z.-.z.s.j.*.z.d.d.a.d.-.o.y.N.d.<.;.VXLXLXLXLXLXLXHX3X4.H F *.c.j q.r.V.9.C.&X,.o.o.-.D B ' g -.s.*.a.o.k.! 3 % ",
"N 3 -.} ....-.d.[ _ o.j.i.z.y.y.'.a.| f.,.d.d.g.=.#.KXLXLXLXLXLXLXLX<Xu F z A c w.j 6.7.V.9.&Xo.o.[ D _ o.o.o.o.o.o.a.o.C f % & ",
"e & H D j.d.i._ ` D j.o.s.-.g.c.X.y.M.=.( ,.*.o.F O.KXLXLXLXLXLXLXHX<XM 4.;.U @. .%.8.6.7.%X*XO.o._ ....%.o.-.o.=.,.[ $.B 6 , @ ",
"6 o M y.y.o..._ ' o.a.v.*.i.d.d.s.d.>.[ o.s.s.s.-.f.JXJXLXLXLXLXLXHXnXK.3.;.4.s.[ %.` o.a.' O.o.-.o.O.` o.O.( o.[ _ ` ` ,.o., = ",
"f O 9 z.-.y.} B ! _ s.j.g.d.` =.c.z.O.g.-.a.z.s.a.( JXJXKXLXKXLXHXGX0X3.3.*.n.=.a.o.} }  .o.$.d.d.O.' } o.` ,.[ >.( _ _ ` o.* % ",
", o | d.y.*.=.-.*.=.d.s.O.y.=.` o.N O.a.*.f.a.g.( a.MXVXJXJXKXFXKXnX6.e.e.9.8._ a.-.` o.' o.a.,.y.d.y.o.` o.*.m ,.D %.%.2.] 1 ; ",
"f = =.' o.o.s.z.' O.y.d.y.z.d.X.Z [ o.-.-.>.[ -.Z s.g +.dXcXMXGXZXj u h ( G ..O.-.a.o.o.o.N.D y.y.i.y.*.*.-.o.o.D [ %.} a.0 $ $ ",
"t + N ....i.X.-.u.' l.y.d.z.-.-.] _ N } s.f.-.-.>.=.p / 5.uXe.G o ( ~ 1 2 [ o.s.-.>.| ` =.' -.v.j.O.s.' D d.` ..[ ' ' M.^ 6 8 % ",
"8 @ ..j.o.X.w.D D O.o.y.y.J y.D _ D D _ ..} ` N ( i.( f ~ +. .y % O.[ O.z.y.u.y.s.-.1._ } [ c.j.z.-.o.o._ y.a.o.` ' ' g n ! e % ",
"7 4 *.=.' } H ( o...| d.y.-.i.u.D [ s.=.H r Z s.%.d.O.d u u y = % a.o. .u.z.y.a.-.i.s.1.>.] s...a.s.-.` _ -.X.J s.a.y.p % , 5 * ",
"6 & i.} =.} M ..| y.w.a.u.j.d.z.o.J ` d.N ' s.w.y.d.i.O.O. .7 f = y.o.y.y.s.*.a.d.-.d.o.} ^ =.y.s.y.D O.o.-.=.X.X.a.y.d.' C e < ",
"7 @ .._ N Z y.j.i.d.d.y.y.y.a.a.d._ o.H o.' y.|  .u.y.O.-.w.6 q 3 d._ y.=.d.a.a.-.j...,.} Z -.i.i.d.y.y.a...z.y.y.z.a.g N.d.^ % ",
"% 2 ..y.g.y.z.i.y.z.-.y.y.-.` y.y.y.y.o...-.| ` d.| d.y.s.O.c.i < o.J X._ V *.-.y.` c.j.` ` s.i.*.y.| y.u.y.o.-.g.-.d.' a * * $ ",
"5 a ' n d.d.-.j.a.u.z.O.j._ >.u.y.y.y.o.J -.| J O.y.s.o.s.a.x._ , s.a.w.-.s.o.o.} 2.f.` o.` -.a.a.y.X.y.H *.-.y.s.s.i.o.v Q e $ ",
"6 4 D ! *.o.u.O.d.y.y.`  .! _ J y.X.y.O.` J ..-.*.s.-.s.a.s.j.B @ y.i.=.i.f.>.Z y.-.a._ ..` o.j.z.X.y...i.i.y.d.s.d.-.c.B ; q & ",
", 1 _ _ -.y.y.-.O.d.u.D N ,.` O. ._ y.H ..N | Z N w.y.y.O.y.<.k.i ` i.o._ ` -.' -.>.D ( ! [ ` O.y.-.X.s ' O.z.g.z.z.y.d.y.| O $ ",
"e 1 o.O.O.d.g.y.d.w.` y.o.Z | `  .O.X.X.u.-.y.y.O.O.X.o.O.a.>.7 4 *.u.J i.L -.' >.V N ..*.y.-.X.` g D _ C _ o.-.[ o.O.[ [ ` f - ",
"B 1 _ o.*.o.O.y...a.s.j.u.w.O.y.*.o.| y.' d.-.d.x.g.O.y.y.s.H & = D s.....*.y...-.d.-.o.a.y.y.y.O. .=.[ _ -.,.o.O.o.,.o.i.o.< , ",
"e 1 m o.g.-.l.d.a.-.O.y.d.i.z.| a.[ o.-.j.d.*.` d.l.d.x.g.l._ e < m N.$.i.s.i.v.o.J y.=.l.=...-.g o.s.-.` u.d.y.x.o.a.d.a.a._ 9 ",
"t a } n N f._ d.g.s.w.X.s.y.X.y.N.-.f...o.d.s.l.2.l. .g D ,.=.^ r b b z =.N i.x.O.`.s.s.>.M v -.d.w d.j.N F y.N._ d.y.x.N.d.g 4 ",
"Q ; < = i & = = r > i a 3 d F i - 1 p 0 = < = a < ` _ w t C t < % w :.Q & ,.< t w , @ > r , , 5 8 = < ; - i - > < * = 8 8 C 7 = ",
", o - + = & O o O + O 8 + O O : o X o = & X O * @ = % % @ % < + O < , O < o @ % > O o ; * % @ - - % + % : q O O = O & = = s 6 1 "
};
