/* XPM */
static char *result[] = {
/* columns rows colors chars-per-pixel */
"64 64 241 2 ",
"   c #060504",
".  c #090706",
"X  c #0A0807",
"o  c #0D0B09",
"O  c #110E0C",
"+  c #15110E",
"@  c #1A140E",
"#  c #110F11",
"$  c #161311",
"%  c #1B1611",
"&  c #1E1913",
"*  c #1B1919",
"=  c #231B14",
"-  c #281E16",
";  c #221E1A",
":  c #2C2117",
">  c #26211C",
",  c #2B231C",
"<  c #32251B",
"1  c #34291E",
"2  c #3A2C1E",
"3  c #252322",
"4  c #2A2623",
"5  c #2D2925",
"6  c #312720",
"7  c #332A22",
"8  c #3A2D22",
"9  c #332D29",
"0  c #3C3024",
"q  c #36312D",
"w  c #3C342C",
"e  c #393633",
"r  c #3B3632",
"t  c #41301F",
"y  c #472D23",
"u  c #433325",
"i  c #43362B",
"p  c #48372A",
"a  c #4C3B2C",
"s  c #553B2B",
"d  c #463A37",
"f  c #4B3D32",
"g  c #553D33",
"h  c #6F3D2C",
"j  c #54422D",
"k  c #48552A",
"l  c #4C582C",
"z  c #4E4035",
"x  c #464638",
"c  c #4B433B",
"v  c #534234",
"b  c #5A4635",
"n  c #5C4937",
"m  c #544539",
"M  c #59473A",
"N  c #56493C",
"B  c #5C4B3C",
"V  c #565834",
"C  c #654937",
"Z  c #624E3D",
"A  c #65513E",
"S  c #6B533E",
"D  c #605F3E",
"F  c #74523C",
"G  c #4C6233",
"H  c #586737",
"J  c #5D743D",
"K  c #6C663C",
"L  c #677639",
"P  c #737738",
"I  c #554C42",
"U  c #5C4D41",
"Y  c #514D49",
"T  c #4A5A44",
"R  c #5E5145",
"E  c #5A5249",
"W  c #624F41",
"Q  c #655243",
"!  c #6B5544",
"~  c #6E5945",
"^  c #64554A",
"/  c #6B5749",
"(  c #67594B",
")  c #6D5A4A",
"_  c #725643",
"`  c #735A45",
"'  c #795D46",
"]  c #725649",
"[  c #735D4B",
"{  c #7A5E4A",
"}  c #6D5D50",
"|  c #735E51",
" . c #795F51",
".. c #4B6845",
"X. c #586C47",
"o. c #597542",
"O. c #50774F",
"+. c #786747",
"@. c #76614D",
"#. c #7B634C",
"$. c #647C47",
"%. c #73714F",
"&. c #6D6155",
"*. c #756252",
"=. c #7B6552",
"-. c #7E6855",
";. c #7A6759",
":. c #7D6A5A",
">. c #646965",
",. c #6A7661",
"<. c #994F33",
"1. c #9A5135",
"2. c #D65330",
"3. c #EF5728",
"4. c #CE683A",
"5. c #E66D31",
"6. c #E8743C",
"7. c #F2793D",
"8. c #8F594E",
"9. c #995A49",
"0. c #AB5A47",
"q. c #82654D",
"w. c #84684F",
"e. c #89694F",
"r. c #8E7148",
"t. c #816651",
"y. c #846A53",
"u. c #8A6D53",
"i. c #836D5A",
"p. c #886E59",
"a. c #996257",
"s. c #8C7156",
"d. c #84715E",
"f. c #8C735B",
"g. c #917256",
"h. c #93755A",
"j. c #96795C",
"k. c #9B7B5D",
"l. c #AD6E4F",
"z. c #AB6759",
"x. c #B57655",
"c. c #966B6B",
"v. c #857261",
"b. c #8B7461",
"n. c #947B64",
"m. c #977B65",
"M. c #A86A64",
"N. c #A87966",
"B. c #AA7375",
"V. c #D14E52",
"C. c #DD5A56",
"Z. c #D17253",
"A. c #EB7E48",
"S. c #E87764",
"D. c #69844A",
"F. c #778748",
"G. c #75904F",
"H. c #6D8A53",
"J. c #758E55",
"K. c #7B9959",
"L. c #7EA15D",
"P. c #7B9966",
"I. c #7EA268",
"U. c #FC913E",
"Y. c #848948",
"T. c #84924D",
"R. c #88944C",
"E. c #8D8956",
"W. c #859958",
"Q. c #939A59",
"!. c #87A35D",
"~. c #93A45B",
"^. c #A2A25E",
"/. c #9C8365",
"(. c #859E67",
"). c #A78468",
"_. c #A68B76",
"`. c #B29079",
"'. c #83A563",
"]. c #88A768",
"[. c #89AC6C",
"{. c #98A868",
"}. c #9CB16C",
"|. c #8BA979",
" X c #9AAC78",
".X c #8DB173",
"XX c #8EB57B",
"oX c #98B377",
"OX c #92B37C",
"+X c #A5A969",
"@X c #B7A56A",
"#X c #ACAB76",
"$X c #A2B274",
"%X c #D48555",
"&X c #EC884B",
"*X c #F68847",
"=X c #FB8D4C",
"-X c #FD9344",
";X c #FD944C",
":X c #FE9A4A",
">X c #F88E55",
",X c #ED9257",
"<X c #FC9454",
"1X c #FE9C54",
"2X c #F79459",
"3X c #FE9C5C",
"4X c #FCA356",
"5X c #FDA35C",
"6X c #C49867",
"7X c #EB976B",
"8X c #F59C66",
"9X c #FD9D61",
"0X c #CAAC7A",
"qX c #FDA364",
"wX c #FFAB65",
"eX c #FEA86C",
"rX c #EDA774",
"tX c #FCAC75",
"yX c #FCB374",
"uX c #FEB37D",
"iX c #9F8F87",
"pX c #AB978F",
"aX c #8EAB83",
"sX c #91AD84",
"dX c #96B687",
"fX c #99B58C",
"gX c #9BB98B",
"hX c #9BB692",
"jX c #B9AFA9",
"kX c #CCB097",
"lX c #ECB08C",
"zX c #F8B488",
"xX c #C9BBAB",
"cX c #E0B7A2",
"vX c #E8CFB7",
"bX c #D3D1D0",
"nX c #FAE9D7",
"mX c #EEE8E8",
"MX c #FAF4EB",
"NX c #F8F5FB",
"BX c #FDFEFE",
/* pixels */
"w % 1 2 a 2 b u < , ; E & % % M , u a a u a j p i c r 9 7 & ^ &.* , 1 7 4 i , E 7 = p p : 8 - 8 ; = i - = < 1 1 % = 1 % 1 7 w + ",
"o + O   O + O X   + o o X   & X   o X o # + % 4 o $ @ o , + + o % o $ X   + $ o O = . o . O X X X O X O O o X o X   X o X @ 4 $ ",
"q + b , Q S @.! v v N m ; 1 ~ [ Q B y.#.` w.b a v @.@.B = 0 ( 4 + n v B M Z Q ! W Q M v ! M W Q [ @.~ ! A A A A N B v ~ v U Q % ",
"Y X = #.b m +.@.y.y.@.=.@.u.-.;.-.=.d.@.y.f.+.;.i.Q @.[ d.c i.E = @.-.) @.*.{ #.i.} v.i. .{ ~ Q *.-.y.y.y.y.y.y.y.i.) :.*.-.r , ",
"e O t j a / =.R f.@.@.! ) -.[ t.` m ^ *./ ~ #.*.;.1 i.@.} v r 5 & n ! ) v @.-.y.[ ^ } i.u.-.Q [ i.-.-.+.p.*.i.d.i.t. .) *.} 9 $ ",
"7 @ = i q.@.@.=.@.@.[ q.-.{ #.[ +.! B ~ A @.#.( [ 1 ` :.Q &.f % + , [ ) M ) [ M @.) / *.h.#.{ ~ @.[ h.[ t.@.y.@.*.i.| / / / r = ",
"5 > & s ~ ` @.#.-.@.[ [ U Q @.! B A Q A ` @.@.) ;.! a i.~ f lX9 > v B z Z @.~ [ y.*.| { ` / @./ [ @.#.#.#.@.` { ~ / M ~ W U > < ",
"q + b +.+.y./ } [ y.#.[ | { ~ ) Q @.~ ~ @.Q @.) ) -.a = : *.qX1X7Xz a R z [ -.@.=.) [ *.*.{ @.p.) d.@.~ @.-.#.@.[ Z Q [ Q ^ * ; ",
"9 & ` A ! :.#.) #.q.@.t.[ [ [ @.-.~ ) ~ B Z ) ) [ ;./ X % lXwXwXU.1 N N I / ( =.=.h.@.y.*.-.*.i.) | *.Q B -.=.@.[ t.{ [ Q ^ I = ",
"7 @ i ) i.Q @.@.#.-.*.) *.i.) t.[ -.@.S #.` ! / B ) B @.B tXtXeX4X:X0 v f W ! =.@.q.#.=.n.[ i./ *.;.#.[ ) | *.|  .] ;.[ d.i # = ",
"; 1 F #.@.` q.[ @.` { ~ -.i.#.=.) +.! Z @.! B @.~ ! =.@.~ eXuXuXwX1X,Xx M B ! ;.@.#.) y.N + -.@.[ | @.@.y.[ *.{ /  ./ t.p.4 I ; ",
"5 : ! -.Z ! ! Q #.+.@.y.u.#.q.u.q.q.~ A #.@.) [ ) ~ q.#.` 5XtXuXeX5X-XW / @.Z [ -.*.@.&.i @.*.-./ -.#.[ #.#.{ ) Q Z / { i. .; $ ",
"> @ d.M :.y.} q.#.@.@.u.[ #.s.Q t.g.t.[ #.z @.@.i.@.*.s.3X3X^.+X@X@X@X0X#XkXv Q ] x 4 / t./ ( @.@.k.` S #.#.y.-.| { *.@.| :.d ; ",
"x : { [ m @.[ @.*.y.[ @.t.{ q.q.=.{ *.[ ) Z ( ) ! @.#X7XyX4X=X].!.L.!.L.L.R.K.T.E.Q.#XS ;.) [ @.@.[ ' [ ) { *.w.#./ { -. .[ I & ",
"m 0 *.{ ^ ! { [ { @.[ #.[ #.@.#.! [ @.u.~ B } @.#X#X'.rXtXyX:X-X.X.X[.I.L.L.L.L.J.G.G.Q.=.q.` N Q @.v ` =.@.-.t.u.{ y.-.;. .4 O ",
"E > [ Q *.u.u.+.@.#.#.-.#.@.#.e.[ ~ [ ~ / R @.0X#X].[.S.qXuXwX:XU.dX.X[.[.L.I.L.W.L.W.T.E.u.=.u.@.f.@.y.#.#.w.t.@.y.q.t.u.f.g $ ",
"4 0 ~ ( ~ @.~ ` w.s.` ` h.q.u.s.h.s.@.` *.~ jX+X].[.{.S.<XuXyX4XU.,XXXoX.X[.[.[.[.!.~.~.R.[ t.t.~ #.#.#.#.#.q.{ q.q.t.t.i.=.s O ",
"q % =.:.) @.~ @.@.Q ( ) Q u.-.y.#.h.[ @./ ! #X~.[..X{.C.>XtXyXwX:XU.^.XXdX.X.XoX.X}.~.~.R.-. .=.@.=.` #.[ ] Z y.{ w.h.y.t.;.f $ ",
"5 + B ) ) { +.` @.B &.( -.@.=.` s.#.@.@.@.@.! '.[.|.!.C.7X9XqXwX4X:XU.dXdXoXoXoX}.}.{.~.Y.@.{ / v B / ! ] *./ / @.*.i.i.t.| r % ",
"3 : ~ A U A *.` @.! R ( @.Q @.-.[ w.[ ! B [ #.W.[.OX'.V.S.>X3XwX4X4XU.gXgXdXoX$X$X$X{.Q.Y.+.*.{ [ / / [ U ] { ] @.{ { *.| { r O ",
"5 @ A N Q @.R =.B R ) ( ` A ~ [ A q.#.! =.@.@.Q.'.dX!.V.Z.<X3X5X5X4X:XgXgXoX$X$X$X+X~.R.F. ./ ) u.{ [ W W [ t.| [ ) *.N / } * $ ",
"; : @.Q Q @.-.N ) v ) [ Q ) #.@.A ` ` @.! @.[ rXK.|.OXl.C.<X1X4X5X4X:XgXdXdX$X$X$X}.~.R.{ y.] [ { / B ` q.#.[ { [ / @.@.) m & % ",
"* = +.) B @.! @.S R / =.~ @.+.@.#.#.@.[ ! { [ x.G.'.gXK.&X;X;X3X1X5X$XhXoX$X$X+X{.Q.R.P ;.{ / [ [ { / ` ~ ` =.[ | *.#.) ^ < * 4 ",
"r 0 j.@.R ! ! ) ) @.~ [ Q ~ ! @.` ` ] ~ Z #.yXx.F K.|.dX%X=X;X2XQ.hXhXfXsX}.{.{.~.R.F.` *.-. .Q ) [ ~ Q #.#.Q @.t.@.@.*.d 9 $ & ",
"3 = e.y.~ @.+.! A ) A A B n ! ) Q @.rXtX5X3X3X%Xs G.(.fXfXfXdXfXhXfXsXsX X{.Q.Q.G.F.P ' { [ [ ` ] ! Z ! / { | {  .[ [ [ Q I 5 , ",
"3 1 ` n n b ` n ! a B A A v B n ! A 3XqXqX3X;X,Xp 6XP.sXhXhXfXhXdXaX|.{.{.Q.(.J.F.P ` ` ~ [ [ / ! Q f f Z W @.#.Q ~ ] W U Q 3 o ",
"1 = ' @.M A ` z @.Q N N b ~ S ) v ! ,X<X9X<X*X*X<.&XH.I.aXaXsXsX|.(.(.(.Q.R.Y.%.L r.W ] [ Q W / _ Z v f ! Z { Q { ! ~ Q ( ( w = ",
"f < y.u.s.` #.+.y.@.S #.@.s.@.#.W Q %XA.=X=X*X*X*X&XH.P.P.I.I.P.(.K.W.W.J.G.L P P =.#.=.t.y.q.[ MXNXNXNXmXW { *.t. .t.;.| } ; = ",
"q u s.s.#.f.[ f.B y.i.` y.j.s.e.*.[ g.w.x.4.6.6.A.A.$.H.H.H.J.J.G.G.F.F.F.L L L -.t.*.f.=.-.lX8XBXBXBXBXBXbXq.-.;.:.t.p.-.;.i % ",
"w 0 u f.B z } =.&.j i._.d.@.=./., M ` s C t.| x.4.7.L o.O.D.D.D.D.D.L L L H P ;.;.t.b.v.@.t.<XzXBXBXBXBXBXMXW #.i. .-.*.v.v.m % ",
"5 + t s z z a j n n 2 j d.f.-.n 9 = 0 u : u f u - 6XX.X.o.o.L J L J J H H K = a p ;.f [ t.9X3XzXBXBXBXBXBXMXQ *.p.;.@.-.;.v.5 % ",
", O & = % , + & @ % @ % + % : > ; c ; & % % $ ; - @XV G G G G G G l l l r.@.w u 7 I R 9 qX=X>X3XeXzXnXBXBXMX6 u < p A n 1 , , + ",
"% + + O o + X X o o O @ O @ @ + o o O o X + o o + /.D k k k k k l H V m.k l X   O O X 9X2X=X=X9X9X3XqXvXNXnXO   X o o X X . $ $ ",
"f @ b ~ ` S Z ` n B #.` g.g.w.#.Q p a p @.Z ! B ! ` ' @.%.X.%.X.D.,.d g j H V $ a 7 9X3X3X=X*X*X>X3X;X3XnX! v f m ` p.n.;.8 ; O ",
"m , ! q.q.+.S ` F _ _ e.+.#.q.#./ / B ! S Q Z M ~ #.#._.X.X.%...O.>. .8.s H h r.7X9XqX3X3X=X*XA.A.*X7.*XZ Q [ [ [ Q p.` 4 0 $ $ ",
"z & h.w.S ` ` ` q.#.! ` u.u.q.q.M A ! ~ [ A ) ( / ~ u.u...G O...d m c.M.0.C s zXzXtX9X<X=X*X7.5.2.A.#.' [ Z Q y.{ Q *.h.i.M m & ",
"( 1 S #.q.f.w.u.#.q.q.@.s.f.s.y.@.) { =.-.! *.*.y.s.h.n.z T ..y.y 8.B.B.l.1.V G <X=X*X7.5.4.t.y.@.=.=.-.y.M *.y.-.] ) u.j.i.9 % ",
"9 , =.d.^ @.d./.+.! -.i.#.d.y.;.*.[ [ ( @.*.*.;.:.i.j.j.M 9 7 < y 9.M.B.z.q...G | -.W ;./ [  .*.=.=.-.[ / [ / | y.=.[ p. .; ; O ",
"7 : s.-.@.+.! ;.s.f.h.y.s.u.@.#.=.=.=.U ) ) *.) *.i.( ..T T e e a.M.B.M.l.X.O.| | | Q / [ / [ [ @.=.+.@.{ -.Q @.[ i.( i.:.| w O ",
"q p ~ -.-.S @.q.@.@.@.y.e.~ #.#.@.=.-.{ / ( / *.C [ #.......>.mXBXmXvXxXkXX.v )  .[  .[ [ { / Q ) @.#.[ U ) ~ B :.Q [ / ^ ) &.& ",
", : ) #.;.S y.A u.#.u.q.q.s.u.u.w.y.e.q.@./ ) @.;.q.#.y.jXbXbXjXjXjXjXxXkX0.a.@.@.{ =.] { [ [ =.[ [ #.[ [ Q *.y.) i.{ / I I d * ",
"4 , q.#.w.A u.q.q.` u.#.w.u.w.s.e.f.q.u.q.A q.} ;.-.y.p.,XbXjXpXpXjXjXpXpX9.1.B ~ [ [ [ [ [ { { y.y.[ { ` n [ *.) Z q.[ Q & # @ ",
"> 1 s.B ` @.` } h.#.g.e.s.#.s.e.s.q.u.#.@.#./.s.y.*.f ;.&XiXiXiXiXpXiXpXkXrX<.-.t.*. .) { -.#.@.[ { #.Z m ~ f @.y.#.q.@.d.U 5 @ ",
"n 2 @.) ` ` #.s.( A @.s.w.s.w.q._.#.F y.-.u.e.d.{ #.h.c.B.m.m.n./.)._.`.B.`.F =.[ g }  .-.~ / [ { / Z ! [ ) { ~ [ [ q.[ N d % & ",
"w @ A Z u.u.y.Q ~ C d.` u.#.y.j.' #.b.{ B y.#.[ C { u.pXiXlXcXc.b.N.x.).q.! A ) [ [ { [ @.{ t.@.) ! ` [ { { @.[ [ -./ { m , , $ ",
"4 o b q.+.' [ Q ~ ) q.m.@.w.s.u.y.u.*.~ @.#.y.y.-.y.! N.B.8.0.2.<.3./ @.! Q @.i.) #.~ [ ;./ { [ @.[ [ ! [ [ Q [ ) Q / Q -.[ 4 & ",
"d O 2 g.#.q.) m U ! w.s.u.u.! @.h.h.#.u.#.-.s.u.t.Z Q a.a.M.M.Z.2.x.).A Q R @.@.q.@./ ~ ] ) *.u.u.#.] ~ [ / =.) { U Q / / | & $ ",
"> o ` e.q.#.#.@.@.+.s.w.@.#.@.! @.n [ y.+.y.-.u.Z ;.t.8.a.B.B.M.1.1.h Q ! ~ ~ Q -.@.! [ ` [ -.#.w.w.w.[ / ` #.z =.Z  .[ :.^ < = ",
"e = +.) [ [ y.u.` { q.u.w.g.u.' B [ [ @.@.@.) #.B q.q.[ 8.9.a.0.h C A #.#.@.` { y.q.[ [ [ n.A q.#.w.#.#.' #.[ ) A ! { / i.9 # $ ",
"e @ b [ ` q.' #.w.` f.q.e.g.q.#.^ Q M ) u.y.#.#.*.@.q.f.' d d y O Z #.` @.#.' w.#.@.] Q @.! +.j.u.q.w.] Z u.! ` ) ) ) b.U 4 7 = ",
"7 @ ' u.[ { q.C C { ` t.q.S q.Z W W Z ! [ ) ! N Z e.y.[  .] I 5 & q./ { s.q.w.q.y.#.-.Q | / h.s.s.#.` ` ! #.w.` ! ! ~ f c U 9 % ",
"5 8 +.@.~ ` W Z | ` _ u.q.#.q.w.B [ t.@.A w n y.#.u.{ #.e. .; = @ e.+.` e.u.#.y.#.w.i.*.*.^ u.' y.y.#.~ ! @.' S y.t.q.p $ > > = ",
"4 % q.) @./ b ] _ q.q.t.e.u.u.h.[ S Q u.M ~ e.{ q.u.t.{ { ] 4 d & q.' #.q.y.' y.e.+.i.[ } R @.#.y.w.C @.[ #.@.' ' w.q.u./ n q 4 ",
"5 @ ~ / n Z w.u.e.e.e.e.q.q.q.t.e.Q [ A [ _ q._ ' q.q.{ { q.6 9 < u.S q.@.u.y.q.#.s.` -.) B #.q.u.w.q.q.q.` g.q.q.u.w.c n.f.I % ",
"% 2 ` #.y.q.h.w.q.g.#.#.t.#.! q.q.q.q.[ ` q._ ! u._ u.q.e.{ h.u : { S { Q b [ q.q.~ j.p./ ~ y.q.#.#.` q.w.q.@.#.i.q.u.~ i * * $ ",
"4 u [ z s.u.#.s.e.q.g.{ s.Q { e.q.q.w.[ S { _ S { w.t.[ t.e.g.! ; e.q.{ #.-.{ [ ) :.y.~ ` ! #.y.q.q.' q.S @.+.q.y.q.y.` z U q % ",
"4 2 Z U #.` e.{ e.t.q._ ] U W _ q.' q.' ! ! ` #.{ t.{ y.t.u.u.m % q.q.+.w.y.=.R q.#.y.Q ~ ! ` s.g.' #.` w.q.w.u.y.u.#.h.m ; 9 % ",
", : ! A #.q.q.#.' u.e.C C  .Q  ._ ! q.A ` b ` B C q.{ q.{ t.y.d.y ~ w.@.Q ( #.! #.@.W W B ) / #.q.#.' f ~ #.u.u.g.g.q.u.q._ O % ",
"q < ` @.@.u.u.t.u.q.! q.[ C ] S ` { ' ' q.q.q.q.{ ' { { { t.*.4 2 #.w.S w.S #.S @.M B ~ #.q.q.' ! a Q Z B Q [ { ) ] *.) ) / r ; ",
"N , / [ #.` [ w.] t.q.u.q.q.' w.#.[ F q.` u.{ u.h.u.' q.t.t.A * = B w.` K q.q.` #.u.#.[ q.#.#.q.' ' ` ) Q =.-.] { [ q.[ q.` 6 , ",
"w , v { u.*.g.u.q.q.#.q.u.q.a.` w.[ [ @.u.u.#./ u.g.p.h.f.f.Q 9 : v /.@.t.y.w.j.} ~ q.@.b.#.` @.f ` y.#./ u.w.e.g.[ t.y.t.t.Q 8 ",
"w i ) c B p.! y.u.y.' ' y.q.' q.m.#.i._ ` u.y.f.:.f.` f Z *.[ ^ i x x z { Z q.h.#.k.u.y.*.b f { i.u u.f.Z C q.m./ u.q.n.m.u.f 2 ",
"I ; , = t % = = r : u p , s C y = : p 9 = 1 = p : / Q i w I w 5 % 0 &.Y & =., r 7 > @ : w > , 4 7 = , = = t - < : & = 6 7 M 5 = ",
"> o = $ - % # o O O + 1 + O + : o o O * % X O & + = % + % % , O o , & O < o + = , + o = * % @ - ; & O & - 9 O O % O & = = a 5 < "
};
