/* XPM */
static char *result[] = {
/* columns rows colors chars-per-pixel */
"64 64 249 2 ",
"   c #070605",
".  c #0A0807",
"X  c #0D0B09",
"o  c #110E0B",
"O  c #15110E",
"+  c #1A140E",
"@  c #110F11",
"#  c #161312",
"$  c #1B1611",
"%  c #1E1913",
"&  c #1B1919",
"*  c #231B14",
"=  c #281E16",
"-  c #221E1A",
";  c #2C2117",
":  c #26211C",
">  c #2B241C",
",  c #32251B",
"<  c #372A1E",
"1  c #252322",
"2  c #2A2622",
"3  c #2E2825",
"4  c #322720",
"5  c #332A23",
"6  c #3B2D23",
"7  c #332D29",
"8  c #3C3024",
"9  c #36312D",
"0  c #3C342D",
"q  c #3A3632",
"w  c #41301F",
"e  c #69361E",
"r  c #452E2B",
"t  c #433224",
"y  c #43362B",
"u  c #47382B",
"i  c #4C3B2C",
"p  c #55392C",
"a  c #453C37",
"s  c #4B3E32",
"d  c #543D34",
"f  c #6F3C28",
"g  c #4D4035",
"h  c #4B433B",
"j  c #474F3D",
"k  c #534334",
"l  c #5A4535",
"z  c #5C4937",
"x  c #544539",
"c  c #594639",
"v  c #56493C",
"b  c #5C4B3C",
"n  c #505636",
"m  c #654939",
"M  c #624E3D",
"N  c #65513E",
"B  c #6A533E",
"V  c #79503B",
"C  c #4D653A",
"Z  c #596838",
"A  c #57733C",
"S  c #67683B",
"D  c #687539",
"F  c #73783A",
"G  c #554B43",
"H  c #5C4D41",
"J  c #5C5246",
"K  c #624F41",
"L  c #655243",
"P  c #6B5544",
"I  c #6D5945",
"U  c #63554A",
"Y  c #6A5749",
"T  c #665A4A",
"R  c #6D5A4A",
"E  c #725642",
"W  c #735B45",
"Q  c #795D46",
"!  c #72574A",
"~  c #745D4B",
"^  c #7A5E4A",
"/  c #664D58",
"(  c #6D5E51",
")  c #735E50",
"_  c #745959",
"`  c #576C4B",
"'  c #587648",
"]  c #537257",
"[  c #676B4A",
"{  c #776544",
"}  c #76614D",
"|  c #7B634C",
" . c #6A7B45",
".. c #777E46",
"X. c #6D6155",
"o. c #756252",
"O. c #7C6552",
"+. c #7E6955",
"@. c #7A6759",
"#. c #7E6A5A",
"$. c #6D5E6A",
"%. c #843D2E",
"&. c #8C4B3C",
"*. c #B1683F",
"=. c #DC5437",
"-. c #EE5136",
";. c #D06A3B",
":. c #E86B39",
">. c #E7763D",
",. c #85544E",
"<. c #875948",
"1. c #96594B",
"2. c #985D54",
"3. c #B0564E",
"4. c #82654D",
"5. c #84684F",
"6. c #89694F",
"7. c #98684B",
"8. c #816651",
"9. c #846A53",
"0. c #8A6D53",
"q. c #836D5A",
"w. c #8A6A59",
"e. c #8D7156",
"r. c #84725C",
"t. c #8C725B",
"y. c #917256",
"u. c #93755A",
"i. c #987A5B",
"p. c #B2734D",
"a. c #A56B59",
"s. c #B77558",
"d. c #897461",
"f. c #977B63",
"g. c #99726B",
"h. c #A56C66",
"j. c #A8766B",
"k. c #AE7272",
"l. c #AB7572",
"z. c #D24C51",
"x. c #DA5659",
"c. c #E2595D",
"v. c #CC6D45",
"b. c #C97857",
"n. c #F66342",
"m. c #EA7052",
"M. c #E55C62",
"N. c #EC6962",
"B. c #79813D",
"V. c #698145",
"C. c #758F4F",
"Z. c #788848",
"A. c #6B8A53",
"S. c #6F9157",
"D. c #7A9557",
"F. c #7E9C5B",
"G. c #63846F",
"H. c #7A9A66",
"J. c #FA913E",
"K. c #858848",
"L. c #87944B",
"P. c #928B52",
"I. c #9A8857",
"U. c #879958",
"Y. c #969C5B",
"T. c #B58954",
"R. c #A6965C",
"E. c #8EA14F",
"W. c #86A35C",
"Q. c #94A35C",
"!. c #859E65",
"~. c #9B8B70",
"^. c #AD8E6B",
"/. c #83A363",
"(. c #88A768",
"). c #98A867",
"_. c #9BB16D",
"`. c #89AA75",
"'. c #96AC73",
"]. c #94AE7B",
"[. c #8DB278",
"{. c #99B474",
"}. c #94B37C",
"|. c #9AB37C",
" X c #A6AB6C",
".X c #AFAC6D",
"XX c #A3B372",
"oX c #CC8B57",
"OX c #F68546",
"+X c #FD8C43",
"@X c #FB8C4C",
"#X c #FB9448",
"$X c #FD944C",
"%X c #FD9B4D",
"&X c #E98556",
"*X c #FB8E55",
"=X c #E59456",
"-X c #FD9453",
";X c #FF9B55",
":X c #FB9659",
">X c #FD9C5C",
",X c #C8A45D",
"<X c #ECA15B",
"1X c #FEA658",
"2X c #FEA35D",
"3X c #CD916C",
"4X c #F18464",
"5X c #E79866",
"6X c #F59B65",
"7X c #FE9E62",
"8X c #C9A369",
"9X c #FEA264",
"0X c #FDA569",
"qX c #FDAB6C",
"wX c #F3AA76",
"eX c #FEAB73",
"rX c #FAA979",
"tX c #FEB378",
"yX c #938891",
"uX c #97959E",
"iX c #A6938F",
"pX c #95B486",
"aX c #94B188",
"sX c #9B99A7",
"dX c #A49EA6",
"fX c #9AA2B0",
"gX c #A2A2A8",
"hX c #A8A9B6",
"jX c #AEB1BC",
"kX c #B4B4BB",
"lX c #D1B08B",
"zX c #FEB486",
"xX c #F3B08B",
"cX c #D5B5A3",
"vX c #E6C6B2",
"bX c #B7BAC4",
"nX c #BDC1C9",
"mX c #C3C5CC",
"MX c #C5C8CB",
"NX c #C9CCD3",
"BX c #DADBD8",
"VX c #E4DBD7",
"CX c #DDE0D3",
"ZX c #F8E8D8",
"AX c #CFD7E1",
"SX c #D6DCE3",
"DX c #EDE7E6",
"FX c #F9F6F5",
"GX c #FDFEFD",
/* pixels */
"0 $ < < i < z t , > : G & % % z > y g k w i k t u h a < 4 * U X.& > > 5 2 y xX:X=X$ p u , < = 5 - = u = ; > , < % % < % , 5 0 + ",
"X O o   X O o . . O . O .   %     X   . O o & 3 X O O . > o O X % o $ .   O 9X9X$X=X  . . o . . . o X . o X . . .     X . + 2 O ",
"9 O l > L B } P k k l x : < I W L b 0.| B 9.z u g | } M : 7 Y 1 o z g z x L =XqX1X%Xz k P c K L R } I P N N B N v z k I k H J $ ",
"G . * | z v Q | 8.q.} o.} q.+.@.#.o.q.} 0.y.{ @.#.L } R e.h #.U % | +.~ } | 2XtX2X1X$X#.o.~ I P o.+.9.9.q.8.5.5.q.q.( +.o.9.q > ",
"q o w k u I O.J r.o.~ P I +.} 8.W x L o.L I } o.@.6 q.| ( g a 1 % z T R k wX9XtXqX1X%X#.0.+.L ! r.O.+.} e.o.q.q.w.@.o.I o.( 5 $ ",
"3 # * u 4.{ ~ O.} | ~ 5.| } | ~ } L H I P | | Y ( , { #.L ( a & O > { B b 9XqXzXtX1X1X#Xu.| ^ Y | ~ u.~ 8.} #.| o.q.^ Y Y Y q * ",
"3 : * i I W } | 8.| ~ W H L } Y b B I b I } ^ ( @.I i #.R s #.7 : k M g N >XeXtXtX1X1X#XW R | I ~ | } O.| } Q ~ I I c Y K H 1 > ",
"q o l { | 9.Y ( ~ 9.O.~ ^ ) I I L } I I } P } R } | i * = o.9 a o g k iX8X8X.XR.T.3X,X=Xo.~ ^ w.R r.} I } O.| } ! K L R P T & = ",
"7 $ E N I #.O.R | | o.8.~ ~ ~ o.| W R I v M R R R +.L . $ R 7 - .X.XR.U.W.W.F.Y.2X2X=XL.P.R..X.XR o.o.Y z O.O.} ~ +.) ) P Y G * ",
"5 $ u W +.L } ~ | O.} R o.9.R 8.~ +.O.B { W R L H R M } b s lX.X X).U./.F.F.U.m.>XeX;X=XC.Z.B.Z.K.P.R.R.R o.o.~ ^ ! 8.! w.0 # * ",
"& < E | } ~ | Q } W } I O.9.| O.R } P M } I v ~ R I } } I 3 .X X(.(.H./.H./.8XN.6XzXqX%XQ.W.F.D.C.Z.V.Z.K.R.^ ^ I ) R 8.t.2 G & ",
"3 ; Y | M P I L 5.} } 9.0.| 5.0.4.5.I N | } ~ ~ I I 4.| } o.).(.(.H.(.(.(.Q.N.N.4XtXtX1X#X'.F.F.D.C.C.Z.Z.Z.Z.S Y b Y ) q.o.- # ",
"1 + r.v #.9.( 4.| | o.9.o.| 0.L 4.u.5.~ | s o.) q.^ o.e.9.( @.H.(.[.[./.Q.m.M.N.4XrXtX1XJ.,X(./.F.F.F.D.F.C.Z.L.) ^ O.o.) q.a - ",
"s ; ^ } x } ~ } o.0.~ | 8.~ 4.9.O.o.o.~ R K R R P } +.o.o.k k !.F.[.[.F.5XN.M.m.4XrXtXqX#X-X{.(.(./.W.W.F.W.E.E.P.I ~ O.^ ! G % ",
"x 8 o.~ U P } ~ ~ | ~ } ~ } } 5.I ! } 9.I b R ~ O.O.! @.T ) 0XF.[.[.[.(.5XM.M.N.4XeXtX9X%X+X|.[.[.W.(.(.W.Q.Q.L.K.} 9.+.#.^ 2 o ",
"J : ~ L } 0.e.Q } | } +.| | Q 6.! P ^ ~ P J ! M ~ } O.~ ~ T 6XP./.[.[.F.s.x.c.c.N.qXqX1X%X+X X[.[._.(._.)._.Q.E.K.9.| 5.w.d.d # ",
"3 8 W T I W W { 5.0.W E i.5.0.e.i.0.~ W o.I H ~ ~ | ~ ^ U wX6X<X(.[.[.(.P.x.x.x.OX9X1X2X%XJ..X|.}.{._._._.).Q.E.K.4.8.8.q.8.i o ",
"9 $ o.#.R } I ~ O.L T R L 8.O.8.O.i.~ } L W ~ ) 8.~ ) #.@.7X=Xm.F.[.pX{.U.z.z.x.*X;X>X1X%X#XT.pX}.{._._.XX_.Q.L.K.6.u.9.8.@.d # ",
"3 O b R ~ ~ } Q ~ b ( T q.} | ~ e.| } ~ } ^ I R ^ o.o.~ 5X:Xa.1.e.H.pXpXU.z.z.z.:X>X1X;X#X+XR.|.{.{._.XX XQ.L.L.{ } q.+.8.o.q $ ",
"1 ; I N H M o.R ) R K T } L } +.R 6.~ P b ~ } 9.O.4.wX9X6X3X&.<.7.F.[.pX[.y.z.*X;X>X%X%X#X+XT.{.{.XXXX X XQ.L.Z.| Q } O.~ ~ q o ",
"3 + L v L } J O.N H T T I N I ~ B | 4.P o.! 7X>X>X6X9X>X1X&Xy.i <.U.!.aXpX/.;X>X;X;X%X-X+X=XW.{.{.XX X XQ.U.K.P.~ R ) G T ( & # ",
": = } L L } +.v R k ~ R I R | | N ~ E ) R oXqXeX0XeXeX9X>X1XV g h.*.H.aXaX}.oX:X-X%X%X<X!.aX|.|.XX_.).Q.U.L.Z.} ! ! } ) ) k % $ ",
"& % } W N } I } B J I | I R } | | | | ~ P 6X7XeXzXzXeX2X;X-XV g b.7XD.`.aXpX'.U.Z.,XL.].|.|.pXXXXX).Y.U.K.B.{ R ) o.^ R T 2 - : ",
"0 6 i.R J L I I R } R ) L I L } W I ! P m =X-X7X0XqX>X>X-X-Xp.9 &X:XI.H.aXaXpXpX'.].[.].].|.'.'.).Q.L.L.Z.e.P } 8.} ^ ) s 7 # % ",
"3 ; 5.O.I } } I b R N N b c P I L } } ~ W L &XOX$X-X-X-X#X-X-X;.-X-XP.H.aXaXpXpXaX].].].'.'.'.).U.U.K.Z...~ ^ ^ o.^ ! ) U G 4 1 ",
"1 , Q z z z { l P i b L L k b z B L M v W N L L >.OXOX=X#XOX=X@X*X-XZ.H.yXH.`.`.aX].).'.`.Y.Y.Y.L.Z.B.F K K ^ O.P P R L v P - o ",
"4 * Q } l N W g } B l v c I B R k P M W P P Y ! ! ! v.>.m.OX+XOX@X*X..S.H.!.!.(.!.(.)./.U.U.P.C.Z.D F d P K ) L ! P E K T Y 0 * ",
"g , 0.9.e.W | { 9.( I | { e.| | M M W | } | ~ ^ ^ O.P I p.;.OXOXOX@X .A.S.S.D.H.H.U.U.D.K.D.A...D F ! Y K P ^ ) 8.o.9.+.) ( 1 * ",
"9 8 e.y.| u.( t.v 0.e.~ +.i.6.6.o.~ u.6.i.| ~ O.w.@.4.d.6 I.s.m.OXoX' V.A.A.A.A.C.C.C.Z.V.B.V.D [ 5.o.O.Y H o.) 8._ 6.w.+.@.y $ ",
"8 8 t t.v g } O.} i t.~.q.o.| ~.: b B k M O.) o.q.~ q.a 7 ^.P.R.T.V.A A '  .V.V.V.V.F V.D Z D { 8.x M q.R @.U xX@X5XxXcXq.d.x $ ",
"5 O w i g g i i z z < i q.t.#.z 7 * 8 t = t i t ; r.Y x 0 ~.I.R.K.` C A A A A A A A Z Z Z S q.r.a - d ; K wX:X;X;X;X9XvXDX#.3 % ",
": O * % % > O * $ % % + + $ ; : - h - $ $ $ $ - : # * > , u 8 S C C C n CXDXDXBXCXBXCXZ S ; h > 7 @ # wX;X6X:X>XqXrXZXGXGXFX2 O ",
"$ O + X o O . . . o X O o + + o o X o . . o o . O # # % O O ~.[ ` ' j j SXSXSXSXBXAXAXFXBX@ > + # . 6X;X>X;X0X0XzXZXGXGXGXGX# o ",
"s + l I Q B M I m z | Q y.y.0.~ K s u u | M P M E E Q ~ L B { Z ` ] G.bXnXnXMXNXNXNXNXBXBX# r M B :X:X>X>X>XqXzXzXxXGXGXGXGX= @ ",
"x ; I 5.| } I E I B W 6.Q 5.^ 5.I L b P P K b v I ^ | 9.i I.2.j C ] bXbXnXnXnXNXNXNXNXMXMXm K 6X;X>X0X9X>X>X>XzXzXzXxXGXGXGX# # ",
"h $ y.5.B E W Q 4.4.P W 0.8.5.5.k P P W I P R Y Y R q.w.~.[ E p ` ] bXbXnXnXnXnXMXMXNXMXlX3Xp.f 3XrX7X>X;X-X-XeXrXrXzXZXGXGXd * ",
"R , I { 5.t.5.0.| | 4.o.0.e.e.+.O.R ~ O.8.R } o.q.0.u.j.a.6.C p r hXjXbXnXbXnXnXmXmXmXMXlX1.,.a r e ;X-X-X@X+X2X>X7X9XxXGXFX6 $ ",
"7 : O.d.U } r.f.{ P 9.q.+.t.q.+.o.! ) R o.) ( #.q.q.l.yXl.k.h.` yXhXhXjXjXbXbXbXnXmXmXnXcX1.1._ $.d -XOXOXOXm.OX@X*X#XFXFXVX: X ",
"5 > e.| } { T O.9.e.u.9.0.9.{ O.| @.O.H R R @.R @.#.^.,.3XlX5X3XfXgXhXhXhXgXfXjXkXkXbXkX3.h.h.k.$.Y f v.v.v.v.;.>.>.vXVX#.} 9 O ",
"9 u I #.+.B } 8.| } | q.5.R | | | O.5.~ P T P o.z f.1.2.j.b.lXsXsXdXfXsXgXsXgXgXgXgXiXU l.k.k.k./ _ m I K I Y b 8.I ! T T R X.$ ",
", ; ~ +.O.B +.N 0.| 0.5.5.9.0.0.8.8.5.5.Q L R o.@.p 2.g.k.b.1.yXsXsXyXuXuXuXuX~.+. .` [ k.k.k.s.w.c P ~ ^ L o.q.R q.~ Y H G a - ",
"2 ; | } 5.N 9.5.4.Q 0.| e.5.6.0.9.u.4.0.5.N 9.R @.d ,.3Xm.n.1.,.yXyXyXyXiX2.&.B ` ` S T 2.a.a.1.2.r m ^ I x ~ ^ T B 8.R L % @ O ",
": , t.M W I W ( y.| y.9.e.| 0.6.e.4.y.| Q 5.i.t.w.r $.n.n.n.c.b.p.s.^.l.a.b.v.+X7X7X&XE 1.1.&.&.1.e p l x I s | 9.{ O.^ r.H 4 $ ",
"l < O.I W Q | e.T L } e.5.e.5.4.~.4.V #.@.0.0.r.^ ^ 6 :.n.-.-.-.:.3.p.lX^.3X3X;.m.$Xn.f %.&.L ^ %.f d Y ~ ! ~ ~ } Q 8.~ G a $ % ",
"0 + N M e.e.5.J I m e.E 9.| 0.u.Q 5.d.} b 5.} ~ B Q 9.^.-.=.-.=.<.} N p.<.j.L R Q Q } ~ } ^ 8.} ! P ! ! ^ ) | ~ ~ 8.T ! d 2 ; $ ",
"1 X l 5.| Q W L P ~ O.f.| 5.e.0.O.0.} R ~ +.9.8.| q.I l E e 1.x + } I } <.8.( 0.I | I ~ O.R ^ ~ ^ ! ^ Y ~ ~ K ~ ! K I P +.! 2 % ",
"a X < y.| 4.~ x K Y 9.0.9.0.L } i.u.| 0.| 5.u.9.8.N P 0.q.u.w.> O 9.z N L J } } O.} I I ! I o.0.0.| ! I ~ I o.R o.K P P Y ) $ $ ",
"1 o W 6.4.| | } } } 0.9.{ 5.} I ~ z ~ 8.{ q.O.e.M O.O.0.4.0.8.0 % B N B L R I L 5.} I R ~ ~ O.O.5.6.8.~ P W | k O.K o.~ #.U > - ",
"a * Q I ~ ~ 8.y.W ^ 4.0.5.u.0.Q M R ~ } | | R | b 8.5.I ^ w.w.K ; N M | { | Q ^ O.8.~ ~ ~ f.M 4.| 5.| { | | ~ R M I ^ R q.7 o $ ",
"q O l ~ E 8.^ | 4.I e.4.6.y.| | U K x ~ 0.+.| } o.} 5.t.^ o.~.7 o M | Q ~ O.Q 5.| } E Y } I | i.0.4.9.! b 0.I W R I ! r.J 1 4 $ ",
", + Q 0.~ ^ | m M ^ W 5.Q B 4.M L M M L ~ R T z b 9.8.~ O.Y G 4 % | P | e.4.6.| 5.| O.L ( Y i.0.y.| W ~ P ^ 5.~ Y I I s G K 0 $ ",
"3 8 } } E W N K } W E w.4.| 5.5.b R 9.} L 8 z 9.| e.<.| w.^ * & + 5.} W 6.0.| 8.| 5.w.o.X.T 9.Q 9.8.| I P | W P 8.8.4.u @ - 1 % ",
"2 % 5.( } L z W E 4.<.4.0.y.0.y.| B L 0.z I 5.<.5.0.8.} ^ ~ 2 a % 4.} | 5.9.Q +.0.| 9.~ R L ~ | 8.5.M ~ W } ^ Q Q 4.5.w.P b 9 > ",
"3 + I P z N 4.0.5.0.9.6.4.4.4.8.9.P ~ N ~ Y 5.P W 4.<.^ | <., 9 < 0.B 4.} 0.9.5.| e.W +.R b | 5.5.0.4.6.9.W y.| 4.y.8.s f.w.G $ ",
"% < W 5.9.5.y.5.4.y.O.| 5.| P 4.4.4.4.~ W Q E E 0.E 0.5.8.| u.8 ; ^ B Q L z ~ | 5.I i.e.L R 8.5.| | E 4.6.| { | q.| 0.I y & & # ",
": y I h e.9.| y.6.4.y.^ 0.Y ~ 6.4.4.4.~ B | E P | 4.9.~ 9.5.y.P = 6.4.| | 8.} ~ R #.8.Y ~ I | O.5.5.W 4.B Q | 5.9.5.9.W g J 9 $ ",
"3 < N H } Q 6.^ 6.8.4.P E H L V 4.Q 5.Q P P W | | 8.| 9.8.w.0.k % | 5.{ 5.9.@.M 4.| 8.L I I Q e.y.Q 4.W 0.5.9.0.9.0.| u.x - 7 $ ",
": ; P L | 4.4.| Q y.0.m m o.L o.E P 4.N E z W z z <.| 4.^ 9.8.r.t I +.} L T | P | O.K K H I P | 4.| Q s I } 0.0.y.y.O.0.4.E o $ ",
"0 , Q } } 0.0.9.8.<.Y 4.~ z E I W Q Q | 4.| 4.4.| Q Q ^ ^ 9.o.3 < | 5.B 5.B | I o.x b I ^ 5.| W P s K M b K ~ ^ R ~ ^ I I Y a * ",
"v > L I } Q ~ 4.W 8.4.e.9.<.Q 4.| R V 4.~ 0.^ 0.u.e.! 4.4.8.N & * m 8.E V | | Q | 0.^ { 5.| 4.4.Q E W R P o.+.W ^ ~ O.~ 8.W 4 : ",
"9 , k ~ 9.o.u.0.8.| ^ 4.0.6.0.E 8.R ~ } 0.0.| P 0.t.0.u.r.t.L 9 > k f.( 5.9.5.i.~ I 5.o.t.| W } s Q 9.o.I 6.6.4.u.~ 9.w.8.8.L 6 ",
"0 y R h m r.L 6.0.9.<.^ 9.4.Q 4.f.| q.W W 0.9.t.#.t.W s M O.} J 0 h h g } M +.y.O.i.9.8.o.z s | q.t 9.u.M m 5.f.L 0.4.u.f.w.s < ",
"G - > * t $ * * q ; w u , p m t * , y 6 * 4 * u > Y L 8 0 v q > % 8 [ J * o.> 0 6 : + > 0 : : 2 5 * > = = < = , ; & * 5 4 v 4 * ",
": X * $ * * o . @ o o < O o O ; X . X - $ . O $ O * $ $ % $ > o o ; * o > o O * > o X * & # $ = = $ o $ = 7 o O $ o $ - * i 3 , "
};
