/* XPM */
static char *result[] = {
/* columns rows colors chars-per-pixel */
"64 64 242 2 ",
"   c #070605",
".  c #080606",
"X  c #0A0807",
"o  c #0D0B0A",
"O  c #110E0C",
"+  c #15110E",
"@  c #1A140E",
"#  c #110F11",
"$  c #161311",
"%  c #1B1611",
"&  c #1E1913",
"*  c #1B1919",
"=  c #231B14",
"-  c #281E16",
";  c #221E1A",
":  c #2C2117",
">  c #26211C",
",  c #2B231C",
"<  c #32251B",
"1  c #33291E",
"2  c #3B2C1E",
"3  c #252322",
"4  c #2A2623",
"5  c #2D2925",
"6  c #322720",
"7  c #332A23",
"8  c #3A2D23",
"9  c #332D29",
"0  c #3C3024",
"q  c #36312C",
"w  c #3C342C",
"e  c #3B3632",
"r  c #422B1F",
"t  c #472B2C",
"y  c #433224",
"u  c #44352A",
"i  c #48372A",
"p  c #4C3B2C",
"a  c #553A2A",
"s  c #443B36",
"d  c #4B3D32",
"f  c #553D35",
"g  c #6C3933",
"h  c #4D4035",
"j  c #47413C",
"k  c #4B433B",
"l  c #534235",
"z  c #5A4535",
"x  c #544E30",
"c  c #5C4A36",
"v  c #544539",
"b  c #59473A",
"n  c #56493C",
"m  c #5C4B3C",
"M  c #674838",
"N  c #624D3D",
"B  c #65513E",
"V  c #6B533E",
"C  c #73503B",
"Z  c #566538",
"A  c #727138",
"S  c #554C42",
"D  c #564947",
"F  c #5C4D41",
"G  c #524F4E",
"H  c #5C5245",
"J  c #604643",
"K  c #624E41",
"L  c #704B48",
"P  c #655243",
"I  c #6B5544",
"U  c #6E5945",
"Y  c #64564A",
"T  c #6B5749",
"R  c #67594B",
"E  c #6D5A4B",
"W  c #725643",
"Q  c #735A45",
"!  c #795D46",
"~  c #755649",
"^  c #735D4B",
"/  c #7A5E4A",
"(  c #6A5A53",
")  c #735F50",
"_  c #785A50",
"`  c #576944",
"'  c #597347",
"]  c #4F7153",
"[  c #527054",
"{  c #676B43",
"}  c #7A6046",
"|  c #76614D",
" . c #7B634D",
".. c #657B4A",
"X. c #6C6256",
"o. c #756252",
"O. c #7C6552",
"+. c #7E6855",
"@. c #7A6759",
"#. c #7E6B5A",
"$. c #6B7852",
"%. c #757657",
"&. c #5A7964",
"*. c #707268",
"=. c #803A17",
"-. c #8B4935",
";. c #984B39",
":. c #9C5437",
">. c #A4553E",
",. c #837C36",
"<. c #C66738",
"1. c #F7713D",
"2. c #895346",
"3. c #965748",
"4. c #985B55",
"5. c #A55A45",
"6. c #A35D55",
"7. c #82654D",
"8. c #84684F",
"9. c #89684C",
"0. c #9C684C",
"q. c #8F784A",
"w. c #816651",
"e. c #846A53",
"r. c #8A6D53",
"t. c #896D57",
"y. c #836D5A",
"u. c #9E655B",
"i. c #8D7156",
"p. c #85735C",
"a. c #8C725B",
"s. c #917256",
"d. c #93755A",
"f. c #97795C",
"g. c #AF6F4E",
"h. c #A6635A",
"j. c #B56A54",
"k. c #9F6564",
"l. c #877361",
"z. c #8B7561",
"x. c #977B64",
"c. c #A46A66",
"v. c #A7736C",
"b. c #B47568",
"n. c #AD7270",
"m. c #B57975",
"M. c #CC7755",
"N. c #F36546",
"B. c #E47946",
"V. c #FA715B",
"C. c #DE586A",
"Z. c #E45D6F",
"A. c #D37766",
"S. c #EE6C6A",
"D. c #F87969",
"F. c #EC6771",
"G. c #F26B74",
"H. c #FB7875",
"J. c #6A844A",
"K. c #7A8A4C",
"L. c #7C924B",
"P. c #698658",
"I. c #778657",
"U. c #799658",
"Y. c #698666",
"T. c #758C67",
"R. c #7B9267",
"E. c #6B8876",
"W. c #718971",
"Q. c #799975",
"!. c #FB853B",
"~. c #8D8948",
"^. c #988548",
"/. c #88934B",
"(. c #978B51",
"). c #869958",
"_. c #939D58",
"`. c #B88949",
"'. c #B59053",
"]. c #8EA45B",
"[. c #8E8D6B",
"{. c #859A66",
"}. c #A68769",
"|. c #B5906E",
" X c #88A566",
".X c #97A568",
"XX c #91AC73",
"oX c #95B47A",
"OX c #A6AB66",
"+X c #BAA46B",
"@X c #A5B776",
"#X c #B7B072",
"$X c #DC8C52",
"%X c #E88A4C",
"&X c #F88946",
"*X c #FD9345",
"=X c #FD934C",
"-X c #FA994C",
";X c #E78C5B",
":X c #FA895A",
">X c #FB9754",
",X c #FC9D5C",
"<X c #F9A44F",
"1X c #FDA459",
"2X c #D0936E",
"3X c #FC876A",
"4X c #FB9A66",
"5X c #FE8573",
"6X c #FC8878",
"7X c #EC9973",
"8X c #CAB077",
"9X c #FDA464",
"0X c #F9AB67",
"qX c #FDAC6C",
"wX c #FEB26A",
"eX c #FDA976",
"rX c #FEB374",
"tX c #FEB47C",
"yX c #759284",
"uX c #AB9285",
"iX c #96B285",
"pX c #A9B291",
"aX c #FF9892",
"sX c #F3AE8B",
"dX c #FEB483",
"fX c #FCB38A",
"gX c #FEBA8B",
"hX c #FEBB93",
"jX c #CEBCB4",
"kX c #A6C192",
"lX c #D1CBCF",
"zX c #DCD7D7",
"xX c #E2D4CC",
"cX c #E6D9D3",
"vX c #E9E2D9",
"bX c #C9C4E1",
"nX c #D5D8ED",
"mX c #DDE5F9",
"MX c #EAE8E8",
"NX c #EAEBF8",
"BX c #EBF4FD",
"VX c #F3FAFC",
/* pixels */
"w % 1 2 p 2 c y < , ; H * % % b < y h h r h f u u n e 7 7 ; Y ( & 4 < 5 4 u , H 7 = p i < 2 - 9 = = u : : , < 1 & & 1 & < 7 w + ",
"o + O   o + o X . + X + X   % X   X   X O O % 4 o + @ X , O + o @ O % X   + $ o O & . X . O     o O X o + X X X X .   O X @ 4 @ ",
"q + z , P V | I l l z v > 1 Q ^ P m e. .A r.z d l  .| m - 9 I 3 + c l m b N I P K P n f L v B Y E  .U V B B B B b c n I l m F & ",
"S X =  .c n ! O.e.y.| o.| t.O.@.#.o.p.| w.s.} o.#.P | ^ p.k #.Y = | O.^ | o./  .#.) z.y.o./ U I o.O.t.e.y.e.8.8.y.y.E +.o.y.e , ",
"e o r l p V O.F a.X.| I U +.^ e.Q n H o.P U | o.@.7 p. .E h s 4 & c R E l  .O.+.^ Y ( y.r.O.P ^ p.O.O. .p.| y.y.t.w.o.E o.( 9 % ",
"5 % = y  .} ^ O.|  .^ 8.O. . .^ | I N U B O. .T | 1 Q #.P X.s * + , E U m E ^ m o.U U o.f. .^ I | | i.| O. .e.| o.y.) T I T w ; ",
"5 , ; h } {  .o.O. .^ Q F K ^ I m B I B E | ^ E @.I p y.E d l.q : l m h B } U ~ w.o.) ) Q U  .T E O. . . . .| | U U v U P F 3 , ",
"e o z } | e.I ) Q e.O.^ / o.U E P o.U U | V  .E E O.p = - o.9 e + h d N h X.+.| +.U / o.o.^  .y.| y.| I | O. .| ~ K P E P I & > ",
"7 * U B I #.O.T  .8.o.O.^ ^ ^  .O.Q E U m B E E ^ @.I X % ) q * + 1 n m S I R O.o.s./ y.o.+.o.p.E ) o.I N O.o. .^ O.) ) I T S = ",
"7 @ u Q #.P  . . .O. .^ O.+.E O.| O. .V } Q E I m E m o.m h n * @ n 0 h d P U @.O.7.8.| x.E y.T o.@. .^ E ) o.) o.~ _ / l.u # = ",
"> < U  .| Q  .^ | Q | I e.y. .O.E | P B | R n | E U  .| I 7 F S + d I s z m I +.|  .R e.n + o.O.^ ) o.| e./ O./ U ) E w.a.4 S * ",
"5 : U  .B I V P  . .| e.y. . .r.8. .U I O.} E Q U E  . .| o.5 e = P Q P R o.m ~ O.o.) ) u  .o.O.I O. .E  .| ) E T m I ) #.o.; % ",
"> % p.b #.e.(  . . .O.e. . .r.B 8.a.8.^  .d o.^ e.} O.i.e.) o.$ =  .P ^  .i v K ~ j 5 ;X#.R U o.O.f.~ I 8.} y.o.) ) O.o./ #.s - ",
"s : / | v o. . .o.e.^ | w.^ 8.8.o./ ) ~ E m 0X4X2X .+.o.o.h v q @ I | U o.O. .| l.qXrXwX-XU ^  .| ^ } ^ E ^ / 8.7.T / O._ ^ S & ",
"n 0 o.^ H I  .^ ^  .|  .^  . . .U ^  .e.U 4XeXfXrX-X^ +.R ) O.0 - P I B /  .#.@.wXgX6X5X4Xw.^ n N | l Q o. . .w.r.^ e.O.#.) 3 # ",
"H - | P | r.i.! |  .| O. . ./ 8./ I ^ Q P ,XH.H.3XrX-X~ / 8X#X+X+X+X|.+X| o.2X9XgX3X6X6X6Xe. .y.O.t.O.e.8. .e.w. .e.7.7.r.a.l $ ",
"4 0 Q R E Q } Q 8.i.U W f.8.i.i.f.y.| ^ o.3X5XH.H.D.qX*X8XOX#XOX_./.~.(.(.'.1XdXdX5X6X5X5X .w.w.I |  . . . .7./ 7.7.w.w.y.w.p O ",
"9 % o.#.E | U ^ | P T E P e. .8.7.f.Q | P 3XH.H.H.H.dXqX*X#X.X{.).U.L.K.~.>XeXgXD.5X5X5X6XO./ O. .o.| } E ^ N e.^ 8.s.t.w.@.d % ",
"9 + B E | | | Q | m X.R #.| O.^ r.O.| | | 3XH.H.H.G.S.tX1X+X).).{.U.U.L./.^.tXdXD.5X5X5XD.) / T l F I U ~ o.T U  .o.y.e.w.o.e % ",
"3 = U N m B o.E | E F R | B | +.^ 8.Q I N :XG.G.G.G.G.fX0X X X X XXX X].U.L.^.rXD.D.H.D.3X) o.^ / I U E F ^ ~ ~  .^ ) o.o.~ e O ",
"5 @ B n F | H o.N F E E Q B U ^ V  .7.I o.;XG.F.Z.G.F.sX XXXXXoXoXoXoXXX.X].].L.A.D.V.D.4XQ U E y.| ~ P P ^ O.^ E E o.n P ( ; $ ",
"; : | B P O.O.m E h E E P E  .| B Q W o.U | F.Z.C.A..X XoXiXpXkXkXkX@X@X@X@XOX]././.M.S.| #.W ) | ~ m U } | ^ o./ T | | ) v * % ",
"* > | E N | U | V P U | U | |  . . .o.^ K ^ :XC.8X.X XXXiXoXXXXX]././.].].].OX#XOX]./.'.}.| E ^ ^ | I Q E Q o.~ ) o.^ ^ R , ; > ",
"w 2 d.| H I U E E | E ) P U I | Q E ~ U N ) '.#X].Q.XXXXU.'.sXgXgXdXtXrXwXwX<XA ].OX.X/.(.O. .H U ^ W I 8. .I  .o. .O./ s 9 + & ",
"3 > 9.O.U |  .I B E B B m b I I P | | ^ ~ #X.XU.{.{.L.8XqXeXhXhXgXgXtXtXwXwXwX<X1XA ).]./.V } U U P N I P / ) / O./ ^ E R F 4 , ",
"3 1 Q c c z Q c V p N P B n N x V B m m ~ OXU.R.L.J.,X4XeXdXfXhXhXgXdXrXrXwX;X>.:.*XA /./.} | I I L d l N K  .O.I I T P n T > o ",
"7 = } } b B Q d Q P n n b I V E z I B Q I XXU.L.,.:X3.u.m.h.fXgXhXgXdXtXwXM.b.g.>.<.*XJ.).B B U U N v d I K / K ~ I ~ I R R w ; ",
"h < r.e.i.Q  . .y.| V  .} i.|  .F K Q } _ XXP.L.`.>X5.M 2.6.m.dXhXgXtXrXrXm.5.r.x %X!.K.).+. .| ^ V ^ I I K ) +.+.) O.O.o.( ; = ",
"q 0 i.i. .d.^ a.N e.t.} +.d.i.8.o.E d.8.}.U P.).`.*X0.h G W 6.A.hXgXtXrXA.5.! 8.M %X!.P./.+.e.o. .e.o.O.T F _ O.+.O.w.t.O.+.vX$ ",
"u 2 y i.n h { } X.p i.}.#.o.| }., m C l N O.' ).`.&Xg.u n 2.A.j.hXgXtXrXM.0X2XQ a *X1.U.).O.+.O.#.l N y.( #.P O.y.+.O. .xXMXMX$ ",
"5 + r h h h h l c N 1 h p.a.#.c 9 = 0 y : y .. X`.&X:X2 e eX9XdXhXgXrXwXwX0X<X=.%X&X`.Q.).#.y.p.h = f , K U ( _ l.o. .vXNXMX5 * ",
", + % = & , + & @ & @ @ @ % : > ; k ; % @ @ I.{._.%X&X=X,X>X,XqXeXrX1X1X<X<X>X*X*X!.Q.R.- 4 j , 9 + % $ # = < t 6 pXcXBXVX, , O ",
"& O @ o O O X X X + o + + + @ + o o O X . @ + ' {.q.%X%X&X>X=X4X9X9X>X=X*X*X*X!.*X(.iXI.O O 4 % % X . O O O o   xXzXVXBXMX. % # ",
"d @ c I Q V N Q c m  .} s.d.9.Q P d p i | B B uXP.{.`.!.%X&X&X>X9XqX9X1X-X*X!.*X%XyXT.T d $ u K N I z K I U l cXzXVXVXNXy.8 > O ",
"v : U 8.8.| I W W W W 9.}  . .8.I P m I B P J n Z Q.P.g.1.B.&X&X,XrX6.;X<X&X&Xq.Q.{...P N N M K ~ I I B F K cXzXVXBXMXE , 8 $ % ",
"k = s.8.V W ! Q 7. .I Q r.r.7.8.l I I Q E I T |.C ' Q.Y.P.q.M.%X>X4Xh.<.,X$XY.{.R.{ I K ^ w.^ / |  ./ ^ ) xXzXBXBXzX/ d.w.n v & ",
"R < P  .e.a.8.t.}  .8.| i.a.i.+. .T | O.O.T 0.k.2.G T.' Q.Y.P.~.1.&X=X=X$X&.W.J.T.%.-.^ w.e.w.e.| +. . .xXlXBXNXlX^ ~ t.x.y.9 & ",
"7 , O.p.T { p.x. .I #.y.O.p.e.+.O.E ) T |.3.4.v.m.8 X.$.' ' Y.W.T.R.T.$.[ Z Z *.*.g 6.-.E ^ ) o.+.o.e.lXlXmXmXjXt.o.^ t.o.- ; O ",
"7 : i.O.| } R o.t.i.d.e.i.8.} O.O.o.O.|.4.4.h.b.j.3.8 ' ' ] &.E.E.&.$.$.` ` x ` a 6.c.3.-.E U / ^ O.xXlXnXmXuX) ^ e.R #.#.) w # ",
"q i U y.e.V | 8.| |  .e.9.E  . . .w.w.6.3.c.v.b.h.;./ 9.G ] &.yXyXW.P.I.I.{ Z 8 g L k.k.b.3.U P E jXbXnXnXpX( F #.I ^ T R U X.% ",
", : |  .+.B O.B r. .r.7.7.i.r.r.e.e.4XeXn.u.6.g.;.7.(.W a D ( *.E.W.[.[.%.z a }.} M c.b.n.j.5.| 2XbXnXnXuXP o.e.R y.^ I F S s ; ",
"5 :  .| 8.B t.8.8.W i.| r.8.8.r.e.d.,XgXsXc.5.;.o.[.e.` u J t q t b f f a M a 2.p.C 4.m.m.qX>X2X|.d.bX|.Q n ^ | E P 8.E P * # + ",
", < i.N Q E } X.d. .i.r.i. .i.r.t.w.;X9X0X>X>.0.e.o.` ` ] [ G j ( R _ _ B A Z Z C o.3.j.tXdX=XA.jXuXv.B v U d  .e. .8.^ l.m 1 % ",
"b 1 O.U Q ! } r.T P | i.8.s.9. .}.8.C B.*X!.r.p.|  .a.` [ [ &.yXyX9X*.$.' Z Z x | M g B.4X4XD.6X7Xn.P I ~ E | E ^ Q e.^ v s % * ",
"w @ B N i.t.8.P U N a.Q e. .i.d.} 8.z.| F 8. .| B / y.w.+.&.&.&.&.&Xg.Z { Z Z ^ Q Q / 7XN.S.6X3XB.I ~ ~ ) /  .^ / O.T / v , , % ",
"4 O l 8.} } Q Y U E  .f. .9.y.r.8.e.o.T E O.e.e. .e.V z U w.R 5 % ~ 2X1X0X1X&Xr.| O.I V.aX5XV.N._ ~ ^ T ^ ^ P ~ E P I Y O.) 4 & ",
"s o 2 s.} 7.E v F P 8.i.e.i.I | d.a.} r. .8.i.e.e.N I w.a.a.r.3 $ r.3.u.c.6.5.0. .| 2X|.H.V.N.9.r. .E U / T | E o.F P I T ~ % % ",
"> o Q r.7. .|  .| } i.e.} 7.| U | c | e.} y.O.i.N e.O.s.7.e.w.e & I 3.c.uXn.b.:. . .Y f.2X1.7.7.7.e.8.^ I ^ } l O.K  .) #.Y 4 = ",
"s = } T ^ ^ e.s.~ | 8.r.7.s.r.! m ~ ^ | | | U  .m e. .U / e.t.D , K 3.4.4.3.;.0.O.O.^ ^ }.x.B 7.8.8.8./  . .Q E B I | ~ #.9 O % ",
"e @ z | W 8.! } 7.U i.7.r.s.}  .Y P b | r.#. . .o.| 8.a./ o.}.q O M 4.4.4.3.;.:.}  .~ P o.I  .f.r.! 8.E N t.I ^ E U ~ a.H 4 6 & ",
", @ ! e.^ / 7.N B / Q w./ V 8.N P N N P Q E R c N r.e.^  .~ S 7 % 7.6.n.uXb.b.>.e.8.O.T ) T f.r.s. .Q ^ I } e.Q I U Q s k F w % ",
"5 0  .| U Q M P / Q W e.7.7.e.8.m E e.| B w c e. .r.7.} e./ ; * @ 9.t G *.L M z / 8.r.o.X.R r.Q 8.y.} I I  .Q I O.e.7.u $ > 3 & ",
"4 & 8.X.Q U z Q W w.7.w.9.s.r.s. .V P r.b ~ 9./ 7.r.9./ / ^ 4 s = 7.p t f F M f r.} y.^ E P ^  .e.8.N ^ ^ } } ! ! 7.7.r.U m q , ",
"5 % Q I c m 7.r.9.9.r.9.7.7.w.w.e.I ^ B ^ U 7.W W 7./ / ~ 7., q < y.I w. .r.w.w. .i.Q O.T m  .e.8.e.7.8.e.Q i.8.7.s.7.k x.y.S & ",
"@ 1 Q O.i.7.d.8.7.s. .} 8. .I 7.7.7.7.^ Q / W I r.W t.8.w./ d.t , / I ! P b  . .8.U f.a.I U e.8. . .W 7.9. .|  .y.} r.U u * * $ ",
"4 i Q h e.r. .i.9.7.s./ t.I ) 9.7.7.7.^ I } W V / 7.e./ r.9.s.I - 9.7./  .O.| ~ R #.e.I ^ I  .O.7.8.! 7.V }  .7.t.e.8.^ h F q % ",
"4 2 N F  .Q r./ t.w.w.W ~ F K I 7./ 7.! I I Q  ./ w. .e.7.t.r.v &  .8.| 8.y.o.N  .} e.P U U ^ s.r.! 7.Q 8.8.8.t.e.e. .d.v ; 9 & ",
", : I P  .7.7.} ! r.9.M M o.I / W I 7.B W z W m M 7.7. ./ w.w.p.y U e.| P U  .I  .O.P K F T U } 7. . .p U / s.y.s.s.O.i.7.W O % ",
"q < Q  .| r.t.7.t.7.I 7.^ M W I Q ! ! ! 7.7.} 8.Q / ! / / w.o.5 2 ! 7.V 9.V  .V o.b m Q  .8. .W I f P m m P / / ~ ^  .T E T e = ",
"n , I E  .Q / w.W w.7.r.7.7./ 7.7.^ V 7.^ r.7.r.d.t.~ 9.w.w.P * = N e.W }  . .}  .t.} Q 8. .7.7.! Q ^ T P  .O.Q ^ ^  ./ 8.Q 6 , ",
"w , l | r.o.s.r.w.7.} w.r.9.r.W w.E ^  .i.r. .I r.s.t.d.p.a.I 9 , b x.{ O.e.r.f.^ U 8.o.p.} E O.s ! e. .U 9.r.7.s.~ w.r.w.+.P 7 ",
"w u ) h b a.K r.r.w.7.! w.7./ 7.x.} y.Q Q i.e.a.#.a.Q p B o.| H w k k h | c 7.d. .x.8.e.o.c h } t.y e.i.m N 8.x.R t.7.d.x.r.d 2 ",
"S ; , % y % = = e < r i < a M i ; < y 7 % 1 = y : I I w w m e , @ 0 X.S &  ., w 8 > @ , w , , , 7 = , > = r - < , * = 6 6 n 6 = ",
"> o = % = = O X o O O 1 @ O O - o X + ; % o + * @ * % @ % % , + o , ; O , O @ & , o o = * % @ = > % + @ - 0 O O @ O & ; = d 6 < "
};
