/* XPM */
static char *result[] = {
/* columns rows colors chars-per-pixel */
"64 64 249 2 ",
"   c #070605",
".  c #080606",
"X  c #0A0807",
"o  c #0D0B0A",
"O  c #110E0C",
"+  c #15110E",
"@  c #1A140E",
"#  c #110F11",
"$  c #161311",
"%  c #1B1611",
"&  c #1E1913",
"*  c #1B1919",
"=  c #231B14",
"-  c #281E16",
";  c #221E1A",
":  c #2C2117",
">  c #26211C",
",  c #2B231C",
"<  c #32251B",
"1  c #33291E",
"2  c #3A2C1E",
"3  c #252322",
"4  c #2A2622",
"5  c #2E2825",
"6  c #322720",
"7  c #332A23",
"8  c #3A2D23",
"9  c #332D29",
"0  c #3C3024",
"q  c #36312D",
"w  c #3C342D",
"e  c #3A3632",
"r  c #432C1F",
"t  c #472E2D",
"y  c #433224",
"u  c #43362A",
"i  c #47382A",
"p  c #4C3B2D",
"a  c #503527",
"s  c #533B2C",
"d  c #443B36",
"f  c #4B3D32",
"g  c #543C33",
"h  c #703E36",
"j  c #514D2B",
"k  c #4B572D",
"l  c #4D4035",
"z  c #4B433B",
"x  c #534335",
"c  c #5A4535",
"v  c #5B4837",
"b  c #54453A",
"n  c #594739",
"m  c #56493C",
"M  c #5C4B3C",
"N  c #495D35",
"B  c #5C5736",
"V  c #654937",
"C  c #634E3D",
"Z  c #734936",
"A  c #65513E",
"S  c #6B533E",
"D  c #6B5B38",
"F  c #4E6334",
"G  c #566937",
"H  c #59733D",
"J  c #636637",
"K  c #756C36",
"L  c #66773B",
"P  c #74793B",
"I  c #563F47",
"U  c #554C43",
"Y  c #5C4D41",
"T  c #514D49",
"R  c #5E5044",
"E  c #5A5249",
"W  c #5E4D52",
"Q  c #624E41",
"!  c #724A4B",
"~  c #655243",
"^  c #6B5544",
"/  c #6E5945",
"(  c #64554A",
")  c #6B5749",
"_  c #67594B",
"`  c #6D5A4B",
"'  c #725643",
"]  c #735A45",
"[  c #7A5D46",
"{  c #735749",
"}  c #735D4B",
"|  c #7A5E4A",
" . c #6C5D51",
".. c #745E50",
"X. c #795F50",
"o. c #4A6B4A",
"O. c #576B47",
"+. c #597545",
"@. c #4A7154",
"#. c #597C58",
"$. c #786847",
"%. c #76614D",
"&. c #7B634C",
"*. c #647D44",
"=. c #697B47",
"-. c #767547",
";. c #756251",
":. c #7C6552",
">. c #7F6955",
",. c #7A6759",
"<. c #7D6A5A",
"1. c #6A7053",
"2. c #597C65",
"3. c #756863",
"4. c #834A2E",
"5. c #854939",
"6. c #994C36",
"7. c #94553A",
"8. c #A1573D",
"9. c #84733E",
"0. c #EB6239",
"q. c #894A43",
"w. c #924E41",
"e. c #885648",
"r. c #9D5543",
"t. c #985748",
"y. c #8D5D56",
"u. c #9B5C55",
"i. c #A35A45",
"p. c #82654D",
"a. c #84684F",
"s. c #89694F",
"d. c #816651",
"f. c #846A53",
"g. c #8A6D53",
"h. c #836D5A",
"j. c #886F59",
"k. c #966B50",
"l. c #8D7156",
"z. c #85745C",
"x. c #8C725B",
"c. c #917256",
"v. c #93755A",
"b. c #97795C",
"n. c #A6684D",
"m. c #A96B59",
"M. c #B56C51",
"N. c #AA7158",
"B. c #B57656",
"V. c #847261",
"C. c #8B7461",
"Z. c #977B65",
"A. c #926F71",
"S. c #A76A67",
"D. c #A97766",
"F. c #B37C6D",
"G. c #AC7B79",
"H. c #FE5F47",
"J. c #C67B52",
"K. c #6A8448",
"L. c #778747",
"P. c #7D8C4B",
"I. c #77904F",
"U. c #6A8957",
"Y. c #758D54",
"T. c #7A9454",
"R. c #789658",
"E. c #7D9C5C",
"W. c #5D8463",
"Q. c #7C9A63",
"!. c #6D8D73",
"~. c #6C8B75",
"^. c #7FA364",
"/. c #FE8B3E",
"(. c #858A47",
"). c #948B4B",
"_. c #88954A",
"`. c #828755",
"'. c #9A8C54",
"]. c #9B8A5A",
"[. c #889A58",
"{. c #989658",
"}. c #A99153",
"|. c #8BA358",
" X c #95A45A",
".X c #9C836B",
"XX c #839E61",
"oX c #9A9B62",
"OX c #AC8C70",
"+X c #84A465",
"@X c #89A567",
"#X c #97A766",
"$X c #89AC73",
"%X c #8FB071",
"&X c #99B379",
"*X c #A5A568",
"=X c #B2AF73",
"-X c #CA8D57",
";X c #F68D48",
":X c #FC974B",
">X c #EB8C53",
",X c #FA9758",
"<X c #FFA14D",
"1X c #FDA657",
"2X c #FEA35C",
"3X c #CC916F",
"4X c #E99767",
"5X c #F89C63",
"6X c #F2916D",
"7X c #CCAD76",
"8X c #ECAD6E",
"9X c #FEAC64",
"0X c #FCA468",
"qX c #FEAB6C",
"wX c #FCB26C",
"eX c #FDAC76",
"rX c #FEB374",
"tX c #FEB47D",
"yX c #719587",
"uX c #9B8D82",
"iX c #AA978F",
"pX c #97B686",
"aX c #99B68E",
"sX c #B7A99F",
"dX c #B9ADA6",
"fX c #B7ADAE",
"gX c #DC9783",
"hX c #D1A891",
"jX c #E6AD8B",
"kX c #FEB683",
"lX c #FCB687",
"zX c #FEB98C",
"xX c #FDBC91",
"cX c #C5B5AE",
"vX c #DBBBA3",
"bX c #E3C2AE",
"nX c #ECCCB7",
"mX c #C9BFC1",
"MX c #D0CDCC",
"NX c #D2CDD1",
"BX c #DCD7D8",
"VX c #E7D5CE",
"CX c #F7ECDC",
"ZX c #E2DFE2",
"AX c #E9E8E9",
"SX c #F5ECE9",
"DX c #EEF0F3",
"FX c #F7F7F9",
"GX c #FDFDFD",
/* pixels */
"w % 1 2 p 8 c y < , ; E & % % n : y p f y p j u u z d 6 6 ; (  .* 4 1 5 4 u , E 6 = a u < 8 - 8 ; = u - : , 2 1 % = 7 % 1 7 w + ",
"o + O   o + O X   + o O X   & X   X X o + + * 4 o + $ X , + + o @ o @ X   + $ o O =   o   O   . X O X O O X X X X   X o X + 4 + ",
"q + c , ~ S %.~ x s m x - 2 / } ~ M h.$.' g.c i x %.%.C - 9 _ 4 + n x M n C ^ ^ Q ~ m x ~ n Q ( ` &./ ^ C A A A m v x / x Y ~ % ",
"T X = &.v b $.&.f.h.;.:.%.h.>.,.h.;.z.%.>.l.&.:.h.~ %.} C.l <.E = %.f.` %.&.} %.h. .C.h.:.} ' ^ ;.&.h.f.h.f.f.a.h.h.` f.;.h.e : ",
"e O r x i / ;.~ z.%.%.^ ) >.%.d.] n R :.~ / %.%.,.7 h.%.` l u 5 % M _ ` x &.:.>.} (  .h.g.>.~ %.j.>.>.&.l.;.z.h.j.:.:.) ;.` 9 % ",
"5 @ = u p.%.%.:.} &.} a.&.;.&.} %.^ M / ^ $.&.( %., [ <.~  .d * + , ] / M ` } M %.` _ | v.&.} ^ &.` x.} >.%.>.&...h.X.) _ ) e = ",
"7 , & s / ] &.%.>.&.} ] Y Q %.^ M A ^ A / %.%.` ,.' p h.` z <.9 : x M l C %./ } >.;.;. .] ` %.` %.&.%.&.%.&.[ } / ) b ) Q M 3 < ",
"q O c $.$.f.( %.} f.:.} | ;./ / ^  ./ ^ %.^ 0X4XvX&.p = : ;.q d + l p R l %.>.} ;.tX,X4X;.} %.j.` z.%./ %.:.&.%.} C ^ ` ^ ( * ; ",
"9 & ' ~ ^ <.:.` &.d.;.:.} } } ;.&.] ` / M 2X9X0X:X>.^ X % ..9 * + 1 M m U ~ ` :.5XqX2X:X4X$.;.h. .;.;.^ M :.:.%.} :.....Q ) U = ",
"7 @ i / >.~ &.%.&.:.%.} :.f.` d.} >.&.S 0XeXtXqX2X:XM %.Q f m ; @ m 0 l f ~ / 8XqXeXqX9X<X` h._ ..:.&.} ` ;.;...X.{ d.} V.u # = ",
"; 1 ' &.%.} p.] %.] %.^ d.h.&.&.` %.^ C 5XeXlXtX9X2X;X&.^ 6 Q U + f ) f b C lX0XqXtXrXqX2X+ :.%.} ..;.%.f.} ;.| { X.` d.j.4 U ; ",
"5 : / &.C ^ ^ ~ &.&.%.f.j.&.&.l.a.p.^ ^ ,XqXzXzXqX9X1X>X..=X=X*X{.'.'.oX^ jX5XqXkXtXrXwX1X&.;.,./ :.&.} &.%.} ` ~ M ) } h...; % ",
"> @ z.n <.f. .p.$.&.&.f.%.&.l.A p.v.p.} ,X5XlXxXtXqX1X<X>X=X*X X[.(.(.'.}.5XqXtXzXzXrXwX<X` ) &.;.b.} S :.&.g.>...X.:.:...d.d ; ",
"l > } %.b ;.} %...h.} %.d.} p.f.;.X.;.} ,X5XeXxXzXrXqX9X:X=X*X[.[.P.(.).-X0XrXzXzXkXrXwX<X} %.%.| } $.} ] } %.p.e.^ } :...} U * ",
"m 0 %.} ( ^ %.} } &.} &.} &.%.p.^ } | f.6X,XqXlXxXlXwX8X*XoX[.|.[.`.P.(.(.}.lXxXzXtXrXwX;X$.[ M ~ ..g } :.:.:.f.h.%.f.,.,.| 4 O ",
"E - %.~ %.g.g.&.[ &.%.>.&.:.[ a.} { { ' jX:X5XeXzXzX7X*X#X@X[.E.[.Y.P.L.P.(.'.xXtXrXwX1X;Xa.:.f.&.x.&.p.$.&.a.:.&.a.p.d.g.C.g % ",
"5 0 / _ ` ] %.] a.g.] / b.p.g.l.b.f.} ` ;.;X,XqXkX7X#XoX+XXX^.^.E.E.T.I.I.L._.}.zXrX9X:X4X%.d.d.^ %.&.&.&.&.p.| p.e.d.d.h.d.p O ",
"9 % :.<.` %./ ] %.~ ` ` ~ f.:.f.:.b.[ %.~ ,X:X5X7X#X#X+X@X+X^.^.^.^.E.E._._._._.}.8X1X/.&.d.} d.%.:.[ &.` { C f.%.f.v.f.d.,.f % ",
"9 + C } } } %.$.%.M  ._ h.%.&.} l.:.&.%.[ =X>X7X#X@X+X+X$X$X%X%X%X|.%X|.E.|._._._.}.-X;X}.X.} ` x M ( / { X.) / $.;.j.f.d.X.e % ",
"3 = / M Y C ;./ %.` R _ %.A %.>.] f./ ^ V =X=XoX[.[.XX+X$XpXaXpXpX%X&X%X X|. X_._._.).}.].| ;.} } ^ ^ } Y } { { ;.%...;...} e O ",
"7 @ ~ m ~ %.R ;.M R ` _ / A / } A &.p.^ ..7X*X[.[.R.E.^.^.pXaXaXpXpX&X&X&X X X X_._._.).'.} ^ ` g...} Q Q } >.} } ` ;.m ~  .* $ ",
"> - } ~ ~ %.>.M ` x ` } / ` &.&.A [ ' ;.) =X{.`.T.R.R.Q.^.$XaXpXpX&X&X&X=X*X X X_._.(.).].f.' ..| } M ] p.:.} ..} ) ;.%...b & % ",
"* = %.` B %./ %.S R / :./ ` %.&.&.&.%.} ! =X[.Y.I.Y.R.R.Q.^.+X$X%X%X&X=X*X X X_._.(.(.).'.| } } } [ ^ } ^ } &.} ..X.[ } _ , ; > ",
"e 8 b.` ~ ^ ^ ` ` %./ ..~ / ~ $./ ] ' ^ V oX`.L.U.K.U.Y.R.!.E.^.|.|. X|. X X X_._.(.P 9.].,.} ~ ) } / ~ &.&.^ | >.%.:...d 9 $ * ",
"3 - s.>./ } %.S A / A A U n ^ / ( %.%.} ] ].L.K.=.K.K.U.K.U.I.R.T.E.E._.|._._._.L.L.P P }.%.} } ' ^ C ^ ^ [ ..| | } }  .~ Y 5 4 ",
"3 < ] v B v %.n S l B ~ S x M v S S M M / ].=.=.=.*.+.K.K.K.K.K.K.I.I.I.I._.P.L.L.P P 9.] %.` ^ ^ ^ f f Q Q %.&.^ ^ ) ~ Y Q ; O ",
"1 = MXVXm A / z [ ~ b m n ^ S ` x ^ C ] ~ S -.=.+.H +.+.K.K.K.K.K.K.L.L.L.L.L.L.L.P P ].[ A A / / C b l ^ Q X.Q } ^ ) ^ _ ) w ; ",
"l < s.FXcXnXnX$.h.%.^ %.[ l.%.&.~ A ' &.&.[ OXP H H H H H H H L *.K.*.P L K.P L L K 9.;.&.h.:.} } ^ } ^ ^ Q X.:.d.X.d.:... .; = ",
"q y l.l.GXfXcXnXvXh.j.} >.b.g.g.;.` v.s.Z.[ } >.J G G G G G H H H H L L L L L L L P } x.:.>.h.;.%.d.;.:._ Q X.:.:.>.d.j.>.>.u % ",
"w 2 y x.DXGXMXfXcXvXz..Xh.%.&..X: m D x C d...:.$.B N F F F F F G G G L H G J J P z.x.x.&.f.:.:.h.x Q h.` <.R :.V.X.,.:.V.V.b % ",
"7 + r p x DXFXFXdXdXhXj z.l.>.M 9 & y 0 - y f 8 : $.D k N N k k F F J k F J J K p ,.p ` >.<.h.h.d - g - Q ) ~ ;.V.X.;.>.,.V.5 % ",
", + & = & > DXAXSXmXdXdXcX@ - - ; z > % % % % ; c #.+.l.D j k k k k k k J K G N k z R q : , z , 9 $ % % # = < u < i A v 1 : , + ",
"% + @ o o + X NXBXAXSXfXdXiX$ o o o o X   + o o g W 3.U.=.F -.1.D K `.G o.yX~.U.1.~ X o $ + , % % o   O O o o   . O o X X   * O ",
"f @ c ^ $.S C ] M NXBXZXNXdXiX .~ f p i &.~ ~ m.y.t I ..Y.#.W.W.U.W.@.O.O.2.!.!.`.k.7.4.B.$ u Q A ^ c Q ^ / x f b ' h.Z.,.8 ; O ",
"b : / a.&.} ^ ' ' ' { NXBXBXsXiXiX3XB S ^ A D.u.G.G.t g 1.W.~.~.~.W.U.=.+.O.1.,.c r.i.r.t.i.C Q } ( ^ A C ~ | } } ( j.] , 0 $ $ ",
"z = c.s.S ' ] ] p.&.Q { cXMXNXBXiXOX3X] F.t.u.D.G.S.u.y o.2.yXyXMX!.!.Y.K.H l s w.N.M.M.M.m.} [ [ &.[ } } C ~ :.} ^ | v.h.m b & ",
"_ 1 S &.a.x.a.g.$.:.p.;.j.x.fXMXmXcXJ.,.N.y.S.S.S.i.6.g U A.DXDXDXZXVXuXs g D.h 6.n.M.m.M.M.d.f.;.>.&.:.h.v ;.g.:.} } j.Z.h.9 % ",
"7 > :.z.~ } h..X[ / f.h.&.x.z.iXfXA.J.M.t.u.u.t.r.6.%.g g FXFXFXGXFXDXVXd.V B D Z 5.6.6.M.-X} :.;.;.,.} ^ } / } h.X.} x.X.- ; o ",
"7 , x.&.%.$.( :.j.x.v.f.g.g.[ :.;.F.B.7.G.e.r.8.6.x.o.o.FXFXGXGXGXGXGXFXCXO.F k R ;.OX[  .{ } } | &.:.&.;.:.^ } { h._ d.<.;.w O ",
"q i / h.>.S &.a.%.%.%.f.f.` $.&.&.vXgX8X0.m.5.4.OX] o.@.FXGXGXGXGXGXGXGXCXO.G 9.X.....} { ..) ^ } } &.} Q ` / U ,.^ } _ ( `  .& ",
", : ` :.>.A f.A c.&.g.p.p.f.g.g.a.f.D.3X0.0.J.6XJ.&.5X4XDXFXGXGXGXGXGXGXSX8X3X:X;.;.;.} | | } :.} } %.} } ~ ;.f.` h.} ^ Y U d ; ",
"4 : p.%.a.A f.a.p.] g.&.s.g.a.g.f.v.p.s.hXH.H.i.3Xd.u.OXDXFXGXGXGXGXGXGXFX6XqX1X/ } } } } } } %.f.g.} [ ] n } ;.) A a.` ( & # O ",
"> < l.M ] ] %.%.v.| c.f.l.&.l.g.g.d.g.p.[ d.G.B.h.k.e.S.VXFXFXFXGXGXGXGXSXeX0X2Xd...} } ;.d.| :.} } &.C x ` g %.f.&.a.} C.Y 6 % ",
"v 2 :.` $.] &.f._ ~ %.l.a.c.p.p.OX&.S h.,.g.g.C.{ n.q.w.3XAXFXFXFXFXGXCXxXG.u.i.6.g ..X.:.) ^ } } ` C ^ } } } ] } } a.} U d % & ",
"w @ A C s.h.a.~ ^ C x.] f.&.f.b.[ a.Z.} Q d.&.} Q n.5.w.i.gXgXbXSXnX4X6Xt.A.S.S.8.{ | } %.| d.%.} S } ' :.} &.} } d._ ..g > , % ",
"3 o c p.p.[ / ~ / ` d.b.&.a.g.g.f.f.} ) } p.f.f.X.Z 5.w.r.i.6.3XJ.4X^ 7.! y.u.i.i.k.^ } :.` | } %.} } ^ } } Q } } Q ^ ^ ,.} 4 % ",
"d O 2 l.&.p.} b M ^ a.l.f.l.^ %.v.x.| g.&.a.x.f.d.C t g h Z ! 4 @ g.c 5.h q.t.r.i.6./ ) { ) ;.g.g.[ } ^ } ) ;.) ..Q ^ ^ ~ ..& % ",
"> o ] g.p.&.&.%.$.%.l.a.%.p.%./ %.v } f.$.h.>.g.Q d.d.j.t d.d.w @ S V 5.q.w.w.r.i.7.^ } } } >.&.f.s.f.} ^ ] &.x :.C ;...<.( < = ",
"d = %./ %.} a.c./ [ p.g.p.b.s.[ M } } &.&.%.` &.M f.:./ [ j.j.R : ~ ~ h q.q.w.w.Z d.` } } Z.C p.p.a.&.&.| &.} } C ^ } ) h.9 # % ",
"e + c [ / a.[ &.a./ j.p.g.c.&.&.( Q b ` f.h.&.&.;.%.a.x.} :.Z.e O C %.t U ! ^ Q | %.{ ^ %.^ p.b.g.&.f.] B g.^ } ` ) { C.Y 4 6 % ",
", @ ] l.[ } e.C A | } p.e.S p.C ~ C C ~ ] ` ) v C a.a.} | { U 7 % p.^ &.g.p.f.&.s.&.:.~ ` _ b.g.c.&.] } ^ &.d.} ^ ^ ] f z Y w % ",
"5 0 &.%./ ` A ~ } ] ' g.&.&.a.s.M } f.%.~ 0 M f.&.s.p.&.s.X.; * % p.} ' g.g.e.f.&.a.h.:.;._ f.[ f.f.&.^ ~ &.[ S f.d.p.u % > 3 & ",
"4 % a.` %./ c ] ' a.e.d.s.l.g.v.%.S ~ g.n / s.| p.g.f.[ [ { 4 d = p.&.&.&.f.$.f.g.| j.}  .R %.$.f.p.A } [ %.[ [ [ p.p.g./ n q , ",
"5 & ] ( n M p.g.a.g.a.s.p.a.&.p.a.^ } A } / p.' [ p.p.| %.e.6 9 1 f.S p.&.g.f.p.$.g.} :.` m &.a.s.f.p.s.f.' c.&.p.l.f.z Z.h.E & ",
"@ 2 / &.l.a.c.a.p.c.&.&.p.&./ p.p.p.a.] ] e.' ' g.' g.p.f.[ v.0 < [ A [ ~ n } p.p./ b.j.^ / a.a.&.&.' &.a.p.$.&.f.p.g.' u * $ % ",
"4 i / x g.f.&.c.f.p.c.| l.^ %.f.a.&.p.%.~ &.' S [ f.f.} f.g.v.^ - p.p.p.&.d.} } ` <.f./ } ^ &.a.p.a.[ p.S %.&.p.h.d.a.} l U q % ",
"5 2 C Y &.] s.| g.s.p.^ ' Y ~ S p.[ p.[ / ^ ] &.&.p.:.f.p.f.j.x % &.a.$.p.h.;.Q &.&.f.~ / / %.l.c.[ p.] a.a.a.g.f.g.&.v.x ; 9 % ",
"> : ^ ^ &.p.&.&.[ g.g.V C %.^ | ' ^ p.A ' c ] v V p.&.p.e.d.f.z.y / f.} Q ` &.^ &.:.C Q M _ ( &.p.%.[ p / &.g.g.c.c.d.g.d.' O % ",
"w < ] ;.$.g.l.f.f.e.^ &.} M ' ' ' [ [ &.p.&.p.p.[ [ [ } | d.;.5 2 $.p.^ p.^ &.D ;.v v / &.a.p.] ^ g Y A M ~ } &./ } X./ ' _ d = ",
"b : ~ } [ } } p.' f.a.l.p.e.[ f.p.} S p.} g.&.g.v.g.{ d.d.f.A * = C f.' ] p.&.[ &.g.&.%.p.&.p.e.[ ] [ ` ~ ;.>.' [ } :.} d.] 6 > ",
"w : x ..l.:.l.g.p.&.&.d.g.s.g.' p.} } %.l.g.&.^ g.x.g.v.x.C.~ q > x .X%.a.a.s.b.` / a.%.x.%.] %.l ] f.%.^ s.s.p.v.} f.h.d.>.^ 7 ",
"e u  .x v j.~ f.g.f.e.[ f.p.[ p.Z.&.h.' ] f.f.x.<.x.] f B :.%.R w l z l } C a.x.&.Z.f.f.;.v l &.h.y f.v.M C p..X~ j.e.b.Z.g.f 2 ",
"U ; : = y % - = e , y y , s V a = < u 7 = 1 = i , ^ ~ u w m w , % 0  .U & :., w 0 > @ : w > > , 9 % , - = r = < , & = 6 6 m 5 = ",
"> X - $ - % o o o + + 6 @ O O - o X O ; % X + % + = % $ $ & , + o , > O , o + = : O o ; * % @ - : % + % : 9 O + @ + % ; = p 6 < "
};
