/* XPM */
static char *result[] = {
/* columns rows colors chars-per-pixel */
"64 64 245 2 ",
"   c #070605",
".  c #090605",
"X  c #0A0907",
"o  c #0D0B09",
"O  c #110E0C",
"+  c #15110E",
"@  c #1A140E",
"#  c #110F11",
"$  c #161311",
"%  c #1B1611",
"&  c #1E1913",
"*  c #1C1A19",
"=  c #231B14",
"-  c #281E16",
";  c #221E1A",
":  c #2C2117",
">  c #26211C",
",  c #2B231C",
"<  c #32251B",
"1  c #39221E",
"2  c #34291D",
"3  c #3A2C1E",
"4  c #252322",
"5  c #2A2623",
"6  c #2E2825",
"7  c #322720",
"8  c #332A23",
"9  c #3A2D23",
"0  c #332D29",
"q  c #3D3124",
"w  c #36312D",
"e  c #3C342C",
"r  c #3A3632",
"t  c #5B311F",
"y  c #452926",
"u  c #433224",
"i  c #43362A",
"p  c #47372B",
"a  c #4C3B2C",
"s  c #543A29",
"d  c #443D37",
"f  c #4C3D32",
"g  c #533C33",
"h  c #723826",
"j  c #3C4924",
"k  c #395232",
"l  c #464A26",
"z  c #56482B",
"x  c #48572A",
"c  c #515A2A",
"v  c #4A4236",
"b  c #4B433B",
"n  c #534235",
"m  c #5A4535",
"M  c #5A4936",
"N  c #544539",
"B  c #594739",
"V  c #56493C",
"C  c #5C4A3C",
"Z  c #4A5C37",
"A  c #575B34",
"S  c #664936",
"D  c #634D3D",
"F  c #6A5231",
"G  c #685635",
"H  c #65513E",
"J  c #6B533E",
"K  c #745338",
"L  c #56622D",
"P  c #4E6433",
"I  c #576A36",
"U  c #5D733A",
"Y  c #656B34",
"T  c #677739",
"R  c #74793B",
"E  c #533F41",
"W  c #554C42",
"Q  c #5C4D41",
"!  c #554B4A",
"~  c #5B5347",
"^  c #575051",
"/  c #624F41",
"(  c #6B4C47",
")  c #655243",
"_  c #6B5544",
"`  c #6E5945",
"'  c #63554A",
"]  c #6B5749",
"[  c #675A4B",
"{  c #6D5A4A",
"}  c #725643",
"|  c #735A45",
" . c #795D46",
".. c #75564B",
"X. c #745D4B",
"o. c #7A5E4A",
"O. c #6A5B55",
"+. c #735F50",
"@. c #795F50",
"#. c #49694A",
"$. c #566B42",
"%. c #5D7741",
"&. c #506C58",
"*. c #5B7A5C",
"=. c #636944",
"-. c #7B6546",
";. c #76614D",
":. c #7B634C",
">. c #677A46",
",. c #757A48",
"<. c #756252",
"1. c #7C6552",
"2. c #726855",
"3. c #7F6955",
"4. c #7B6559",
"5. c #7D6A5A",
"6. c #647C5B",
"7. c #6B5D69",
"8. c #587767",
"9. c #70716A",
"0. c #8E3F2E",
"q. c #D03E29",
"w. c #874639",
"e. c #924A3A",
"r. c #88543B",
"t. c #9A543C",
"y. c #836C3D",
"u. c #BD663D",
"i. c #855B47",
"p. c #8A594E",
"a. c #945948",
"s. c #A45E49",
"d. c #82654D",
"f. c #8C664B",
"g. c #84694F",
"h. c #9B674B",
"j. c #8D7747",
"k. c #816652",
"l. c #846A53",
"z. c #8A6D54",
"x. c #836D5A",
"c. c #886D58",
"v. c #8D7156",
"b. c #85715E",
"n. c #8C725B",
"m. c #917256",
"M. c #93755A",
"N. c #987A5D",
"B. c #A6654B",
"V. c #AA775D",
"C. c #B47251",
"Z. c #897461",
"A. c #947B64",
"S. c #987C62",
"D. c #A97A64",
"F. c #F56648",
"G. c #77813F",
"H. c #6A8448",
"J. c #788746",
"K. c #6F8C52",
"L. c #758A57",
"P. c #7A9558",
"I. c #5F8075",
"U. c #67856A",
"Y. c #728669",
"T. c #7D9B60",
"R. c #6A8977",
"E. c #718F7B",
"W. c #868945",
"Q. c #88934C",
"!. c #8C9A4C",
"~. c #91944B",
"^. c #898852",
"/. c #998757",
"(. c #869856",
"). c #949857",
"_. c #A78D56",
"`. c #A39759",
"'. c #87A25C",
"]. c #93A459",
"[. c #97856A",
"{. c #869D62",
"}. c #949A62",
"|. c #A9876E",
" X c #AF8E6F",
".X c #B69777",
"XX c #84A463",
"oX c #8CA363",
"OX c #87A96B",
"+X c #97A867",
"@X c #8AA674",
"#X c #94AE71",
"$X c #97B37A",
"%X c #A5A96B",
"&X c #ACA972",
"*X c #BBA675",
"=X c #A6B174",
"-X c #B9B278",
";X c #D08957",
":X c #F6894A",
">X c #FB964B",
",X c #F08D53",
"<X c #FA9758",
"1X c #CFA15D",
"2X c #FEA65A",
"3X c #D0946D",
"4X c #F49769",
"5X c #CDAE77",
"6X c #FBA868",
"7X c #FDB26C",
"8X c #ECA678",
"9X c #FCAB76",
"0X c #EAB274",
"qX c #FFB272",
"wX c #FEB47B",
"eX c #708F84",
"rX c #979298",
"tX c #99B687",
"yX c #9EBD92",
"uX c #BFAC92",
"iX c #A49CA8",
"pX c #BAABA5",
"aX c #B1ABB1",
"sX c #BCB4B8",
"dX c #D9A793",
"fX c #FEB383",
"gX c #F0B18B",
"hX c #FFB88A",
"jX c #E8AD93",
"kX c #FBB991",
"lX c #C4B3A8",
"zX c #C5BAB7",
"xX c #D0C2B8",
"cX c #CAC7C6",
"vX c #D2CBC7",
"bX c #D4CFCE",
"nX c #D8D6D6",
"mX c #E9D2C2",
"MX c #E6DCDB",
"NX c #F7E9DA",
"BX c #D9DDE5",
"VX c #F1EEED",
"CX c #EDF1F7",
"ZX c #F6F6F9",
"AX c #FEFEFE",
/* pixels */
"e % 2 3 a 3 m u < , > W * % % M : i l a u s z i i b r 0 8 & ' O.* , < 6 5 i , ~ 2 % a 6X<X>X: 2 > = i : > , 2 < % = 2 % < 8 w @ ",
"o + O   O + O X . + o o X X % X   o X o # O * 0 6X6X6Xo , + + o & O % X   + % o O % 6X7XqX6X>XX X O o o O X X o X X   O o @ 4 @ ",
"w + m , ) J ;._ n a C N ; 8 | X.) C l.:.| z.m jX7X7X6X,X> 0 ] > + C n C B D ) ) ) 9XqXfXwX7X2X) =.:._ J H H H H M C N ] N Q ) % ",
"! X = :.M V | :.l.x.<.1.;.v.3.<.x.2.5.;.l.n.:.<XfXfX7X2X>Xv 5.' & -.1.{ ;.<.X.d.kX2XwXhXwX7X2X_ <.3.x.g.l.l.l.g.x.3.{ 3.<.l.r > ",
"r O u z p ] 2.) b.;.;._ { 3.o.k.| N ) <._ _ :.<XwXkXwX6X2X>Xl 4 % -X%X%X).).}.k.4X9XfXhXwX7X2X| x.k.3.:.v.;.x.b.x.4.@.X.<.+.6 % ",
"6 @ = u d.;.X.1.;.:.X.g.1.;.:.X.;._ D ` H 1.d.<X9XhXfX9X6X2X>X%X&X+XoXoX(.).`.6X6XfXkXhXwX7X2X_ ;.X.n.o.3.;.l.:.;.x.@.) _ ] r ; ",
"6 , ; a ` | ;.;.3.:.X.{ Q / ;._ C H ` C ` ;.o.,X6XfXhXfX7X2X2X5X%X+XoX(.{.).).6X9XkXhXfXqXqX2X<XX.1.:.;.:.;.;.X._ { B { ) C 4 , ",
"w O m -.-.l.[ ;.| l.1.o.o.<._ { ) 2.` ` ;._ :.:X<X9XfXfXqX7X2X&X+X+X{.}.{.(.(.^.1XkXfXwXqX6X>Xz.{ b.X.{ ;.:.:.;.| D ) X.) ' % > ",
"8 % ` ) _ 5.:.{ :.:.<.3.X.X.X.;.:.| { ] C C ` ,X<X4XwXfXwXqX%X#X+X{.oX{.'.T.P.P.!.~.wX7X7X2X>Xb.{ <.<.) D 1.1.;.X.3.@.+.) ' W = ",
"0 @ p | 5.) :.;.:.3.;.X.<.l.{ l.X.3.1.J -.-.` dX:X<X6X9XfX-X+XoXOXXXXXXXT.'.T.!.P.!.!.0X2X>X:X] <.4.d.X.{ <.<.X.@...k.X.x.i $ = ",
"; 2 } :.;.| :.X.;.| ;._ k.x.;.1.{ ;._ D X.] V X.:X<X2X8X-XOXOXOXOXOX@XOXOXOXoX'.].!.!.`.1X>X1X1.{ +.;.;.l.X.4.X.{ @.{ k.c.5 W * ",
"6 : ` 1.D _ J ) :.:.;.l.x.:.d.z.g.d._ J 1.X.X.X.8XF.<X5X+XoXOX$X$XtX$XtX$X#X#X+X].].!.!.~._./.3._ 1.:.X.:.;.X.X.) C ) @.x.4.; $ ",
"> @ Z.V 5.l.O.:.:.:.<.l.:.:.z.H d.m.k.X.:.f <.X.&X;X5X].T.'.T.OX$XyXyXyXtX$X$X+X+X].!.!.Q.~.`.d.1.S.| J :.d.x.1.+.o.1.<.X.5.d = ",
"f : X.o.V ;.:.:.;.x.X.;.k.X.d.g.1.<.<.X.{ / { { uX-X).(.P.P.T.T.T.tXtXtXtX$X=X%X%X].!.Q.W.W._.-.;.X. .o.X.X.X.d.i.{ X.1.@.X.W & ",
"N q <.X.~ _ ;.o.X.:.o.:.X.;.:.:._ X.;.l.{ C { <.5X&X(.P.P.P.U.T.T.E.$X$XOX+X=X%X].].!.Q.W.W.~.M ) ;.v o.1.;.1.k.l.;.l.3.5.@.5 O ",
"~ > X.) ;.z.v.:.bXvX;.3.:.:. .z.X._ o.| _ ~ { / *X+X^.K.K.K.K.K.T.T.T.T.'.oXoX+X].].Q.W.G.G.W.f.:.c.3.:.:.:.l.l.;.l.d.d.z.Z.g $ ",
"5 q ` [ { ;.` -.CXcXxXxXxX3.z.z.N.z.o.{ <._ D X.*X}.L.J.H.H.H.K.K.K.K.K.P.'.P.P.!.!.Q.G.G.R W.d._ :.:.:.d.:.d.o.d.i.k.k.x.k.a O ",
"w % ;.5.{ | { X.<.CXcXcXsXzXxXj.-.M.o.<.) { X.@.*X^.,.>.>.H.H.H.H.H.G.G.G.J.G.G.J.J.G.G.R R j.k.;.<.-.:._ { D l.;.l.M.l.k.4.g $ ",
"0 + D ;.;.X.;.| X.nXCXcXcXxXsXxXv.:.o.X.;.;._ { .XJ.,.>.%.%.%.%.H.H.H.I G.G.G.G.J.R G.T R R /.{ n / ' _ ..<.] _ :.<.x.3.k.<.r % ",
"> ; ` D V D :.{ <.[ BXCXbXcXzXsXxXj.{ _ C { :.l.1.M.,.Y $.U I I H.P H.P H.H.T G.T T R T R y.1.X.X._ ) X.Q ..o.X.<.;.o.<.X.;.r O ",
"6 @ H V ) ;.~ 1.H Q [ BXMXbXcXcXlXlX:.( <.X.:.1.1.o.-.=.I P P P x P P H.U I Y I Y T Y T R .X' { z.o...) / o.3.X.X.{ X.W ' [ > $ ",
"; : ;.) ) ;.3.C [ N X.cXcXnXbXbXcXpXlXo.{ ;.;.<.X.X..XR A x x x x x x x c L L L I L Y Y j.k.{ X.o.{ C | :.<.X.X.X.{ <.;.+.N & % ",
"* = ;.` D ;.] ;.J Q ] ;.` sXcXnXxXcXlXpX) o.o.;.:.X.) N.J x l x j j j x x x c c c L Y j.P  X..f.V. ._ | _  .<.X.+.@.o.{ ' , * > ",
"r q M.;.~ _ _ ` ` ;.;.;.' [ aXsXbXxXzXsXlX;.k.<.X.;.;.;.|.:.z p j j j j j x l c G j.9.6.N a.e.w.w.V.{ ) d.:._ ;.1.;.1.+.f 0 + ; ",
"4 : g.1.` ;.:._ D ` H H V C _ ` aXsXcXzXpXpXD.C.( X.X.[.6.R.Y./.y.Y G z l F R  X$.&.8.Y.g B.B.s.s.s.C._ ) o.@.o.@.X.X.X.' B 6 5 ",
"5 < | M M m  .M J f C ) H N C M _ iXaXsXzXiX3XC.k....XJ 6.E.R.Y.>.>.U.Y.U.#.#.I k k Z ' s t.B.B.B.s.u.f / / ;.:._ _ { ) W ( > o ",
"8 = -.o.V H J n ;.) V V N ] J ` n ( Q iXiXzX3XC.V.s.a. Xi *.6.>.$.U.R.eXE.U.6.>.=.k j 3  X0.w.e.t.s.3XN _ / o./ X._ _ ) [ ] e = ",
"f < l.l.l.-.:.;.l.;.J :.-.v.:.:.H / | o.rX.X3XB.a.a.a.i.s u I P #.*.R.E.E.Y.Y.Y.J.A m.<.i.l.N.r.3Xa.| _ ) ) @.1.k.@.k.3.<.O.; ; ",
"w u v.v.:.n.;.b.C l.b. .3.M.z.g.<.{ m.g.S.3Xs.a.a.p.i.0.t K l z #.&.*.8.U.9.L.L.l.s r.G <.3.l.<.1.k.<.1._ Q <.1.4.3.k.l.1.3.e % ",
"e q u n.V n ;.<.+.l b.|.b.<.;.|.: V } z  XdXC.4XV.h h h e.d N.S n ^ &.&.*.6.^ ( s g I Z :.l.3.1.x.n D x.O.5.~ k.x.4.3.4.b.Z.V % ",
"8 + u s n n a z C D 2 s x.n.l.M w ; q u : a.a.u 0. Xh D.e ,.$.n s y 1 : y y |.S y i.=.P k.x.x.b.d - f - / _ ' <.x.4.;.3.5.b.6 % ",
"> O & = % > + & @ % % @ @ % > > ; b ; @ = @ $ ; 1 q.F.F., p #.#.#.^ v e b K E ^ ! g f.0 > , v > 0 $ % & + = < p < u H M < , , + ",
"% + @ o o + X o X O O O O @ @ O O o O X . + o o + @ h.k.O + # #.&.I.eXR.9.S ^ 9.7...S . # @ 5 $ % X . O O o o   X o o X X . % # ",
"f @ M J  .J D ` S C :.-.M.m.z.;.) a a p  .D _ / ` _  .o.) |  X..2.U.E.eX8Xf 7.7.7.@.@.] a $ y / J _ m / _ _ n f N | c.A.5.8 > O ",
"N > ` g.:.;.` } ` J | g. .:.:.d._ ) C _ _ ) C V _ :.:.l.a N 9 w.e.;Xt.t.4Xg ^ 7.7.4.k.|./ / S / o.) _ D D ) X.o.X._ c.| , q $ $ ",
"b = M.g.J } | | d.:.J } z.z.d.g.n _ _ { | ) { ] _ { l.c.C , 8 3Xi.h B.5X9XD.4X8Xh.1.p.( o.1.X.@.o.:.X.o.X.D ) k.X.) <.M.k.B N & ",
"[ 2 J :.g.n.g.v.o.d.d.<.v.n.v.5.<.[ X.1.d.[ ;.<.x.z.m.A.A.p % , V.h.D.k.9X9X6XgXmXgX5X..x.k.l.l.<.1.1.3.l.N <.x.1.{ X.z.S.x.0 % ",
"0 : 3.b.[ ;.b.N.-._ l.x.:.n.l.3.<.o.X.{ <.<.+.5.x.x.A.n.l.n.{ 5 & g ' <.9XfXNXCXZXCXVXNX{ { @.<.1.<.3.{ _ ;._ ;.z.4.X.c.4.; ; o ",
"8 , v.:.` -.[ 3.c.n.M.l.v.l.| g.1.1.1./ <.[ <.{ 4.5.{ Z.n.[ p ; 8 a _ X.8XZXAXAXAXAXZXVXNX{ | o.;.:.1.:.<.1._ ;.X.k.[ 5.5.+.e O ",
"w p ` 3.3.J ;.g.;.;.:.3.g.{ :.:.:.3.1.X.) { _ +.C X.o.c.1.b._ ; + v Q N 9XAXAXAXAXAXAXAXNX@.{ ) X.X.:.{ / { _ Q x.) X.] ' ] 2.& ",
", : X.:.3.H 3.H m.:.z.d.d.l.z.z.g.3.z.d.K ' { :.1.3.:.l.l.c.:.e : M  .:.jXZXAXAXAXAXAXAXNX;.X.:.X.X.;.o.o.) <.l.[ c.X._ Q W d ; ",
"6 : :.;.g.H l.g.d.| z.:.z.z.g.z.z.m.d.z.l.H l.{ 4.1.l.v.:.:.l.w : ] :.g.kXZXZXAXAXAXAXAXNX| ;.;.l.l.X. .{ N X.@.{ / d.X.' & # + ",
"> 2 v.D | X.;.;.M.-.z.z.v.:.z.z.c.g.z.d. .g.S.v.l.;.N z.| | x.! * l.-.[ 8XBXCXAXAXAXAXZXZXg.;.1.o.X.:.D N _ f :.l.;.:.X.b.Q 7 % ",
"V 3 :.] |  .-.l.' ( <.m.g.m.d.d.|.:.J x.3.l.z.b.o.:.M.<.:.;.z.d = z.3.} +.dXAXCXVXVXNXNXMX} _ X.X.[ D _ X.X.X.X.X.o.l.X.W d % & ",
"w @ H D v.x.g.) _ D v.{ l.:.v.M. .g.Z.;.Q l.;.;.H  .x.k.k.o.4.d = ;.H :.:.{ zXnXMXmXmX{ :.;.k.;.X._ X.| 1.X.:.X.X.3.] +.g > , $ ",
"5 o m d.:. .| ) { X.:./.:.g.z.z.l.l.;.{ X.:.l.l.1.l.J m } d.' 5 @ -._ ;.] ) ;.l.` d._ o.1.[ o.X.;.| X._ X.X./ X.{ ) _ _ 1.@.> = ",
"v O 3 v.:.d.{ N C ) g.v.l.v._ ;.M.M.:.l.:.3.v.l.l.D _ k.Z.Z.c.5 + l.M H _ Q 2.:.l.;.] [ X.X.@.z.z. .{ } X._ <.{ @.Q ) _ ) +.& % ",
"4 X | z.d.:.;.:.;.;.z.l.-.d.;.] X.M o.l.-.l.3.v.H 1.d.m.d.z.k.e % J H J _ ` ] ) :.:._ X.{ | 3.;.l.z.k.X._ | :.n 1.D @.@.5.' < ; ",
"d =  .{ X.X.l.m.{  .d.z.k.m.z. .C X.X.;.:.:.{ :.C l.:.{ o.c.c./ : J D :.;.;.o. .:.k.X.X.X.A.D d.d.k.d. .:.:.X.{ H _ X.{ x.0 # @ ",
"r + m  .| :. .:.d.` m.d.z.m.d.-.' ) N { x.l.:.:.@.;.g.M.X.<.A.r O C :.-.;.:. .g.:.;.{ _ ;.` :.N.z.-.l.X.D z._ | { { { n.Q 5 8 % ",
"6 @ | v. .o.i.D H X.| d.i.J d.D ) D / H | [ { M D g.1. .@...W 7 @ d._ :.v.d.g.d.z.:.1.' X.' M.v.v.:.| X.( -.d.X._ { ` f W Q w % ",
"6 9 -.;.{ | D ) o.| } c.d.:.g.g.C { l.:.H e M l.:.m.o.:.f.@.; * % g.;.| f.z.d.k.:.d.l.1.<.[ l. .l.l.:._ _ ;.-.J 3.d.d.p # - 4 = ",
", % g.{ ;.] m | } d.i.k.l.c.z.M.;.J ) x.C X.f.o.d.z.k.o.o.| 5 d % g.;.:.:.l.-.k.z.-.c.X.;.Q ;.:.g.g.H o.X.:.;. . .k.d.z._ C w , ",
"6 % | ' C D d.z.g.z.z.d.d.d.d.k.l._  .H X._ d.}  .d.d.o.o.i.< w < v.J d.:.z.l.d.:.v.| 1.{ V :.g.z.l.d.g.g.` m.d.d.m.k.b A.x.! & ",
"% 3 | :.l.d.M.g.d.m.:.d.k.:.J d.d.d.d.X.} o.} _ z.} c.:.k.o.M.i <  .J | _ V :.:.d.{ M.v.) { l.g. .d.} d.g.:.;.:.x.d.z.} e * % % ",
"5 u { n z.z.:.v.k.f.m.o.v._ X.z.d.:.d.o.J :.| J o.d.g.o.l.z.m.) ; k.d.d.;.k.X.X.{ 5.l.] o._ ;.1.k.d.| d.G o.:.d.l.d.d. .v Q w % ",
"5 3 D Q ;.| z. .l.f.i._ | Q ) J d. .k.o._ _ } :.:.g.:.x.d.z.c.N % d.g.-.g.x.<.) :.:.l.) { _ o.v.m. .:. .g.d.g.z.l.l.:.M.n = 0 & ",
", : _ ) :.d.-.:.o.z.l.D D <.) o.} ) d.J _ M } C M i.d.:.o.k.k.n.u _ 3.;.Q { :.J :.1.D / Q _ _  .d.:. .p { :.v.x.M.m.:.x.k.} + % ",
"w 2  .;.:.z.c.l.l.d._ i. .C } } | i. .-.d.d.d.d. .o. .o.o.l.;.5 3 -.k.J d.` :.` <.M C ` :.g.:. ._ f D ) C H o.o.| X.<.] _ ' r - ",
"V , ) { o.o.X.f.| k.d.m.l.i.o.k.o.| _ d.| z.:.z.M.c...d.k.k.H * = S l.} K d.-.| :.l.:. .g.:.d.d. .|  .{ ) <.1.{ o.| k.o.k.o.7 > ",
"e , n X.z.;.m.z.d.d.:.d.z.f.z.} k.{ o.;.v.v.:._ z.M.z.M.b.n.) w > N [.;.l.l.g.M.;.] g.<.Z.o.o.;.f | l.:._ z.z.f.M.| l.z.k.k.) 9 ",
"w p [ N C x._ k.z.l.o.o.k.d.o.d.S.;.x.| | l.l.n.5.n.} a D 3.;.~ e v v n ;.H g.M.:.N.g.l.<.M f :.x.u l.m.D S d.S._ c.d.M.S.z.f 3 ",
"! ; , = u = = = e , y p < s S u - < p 8 = < = i : _ ' q e V r , % q O.W & 2., e 0 > @ : e > > , 0 = 5 - - 3 - < > * = 7 0 B 6 = ",
"> X - @ = % O o O O O 7 @ O + : o X o ; % X + % @ ; % % % % , + o : = + , O @ & : + o = * % @ = - & O % - 0 O O % O % = = a 6 < "
};
