/* XPM */
static char *result[] = {
/* columns rows colors chars-per-pixel */
"64 64 251 2 ",
"   c #070605",
".  c #090706",
"X  c #0A0807",
"o  c #0D0B09",
"O  c #110E0C",
"+  c #15110E",
"@  c #1A140E",
"#  c #110F11",
"$  c #161312",
"%  c #1B1611",
"&  c #1E1913",
"*  c #1B1919",
"=  c #231B14",
"-  c #281E16",
";  c #221E1A",
":  c #2C2117",
">  c #26211C",
",  c #2B231C",
"<  c #362217",
"1  c #32251B",
"2  c #33291E",
"3  c #3A2C1E",
"4  c #252322",
"5  c #2A2623",
"6  c #2E2825",
"7  c #322720",
"8  c #332A22",
"9  c #3A2D23",
"0  c #332D29",
"q  c #3C3024",
"w  c #36312D",
"e  c #3C342D",
"r  c #3A3632",
"t  c #43281D",
"y  c #562E26",
"u  c #433224",
"i  c #43362B",
"p  c #48362A",
"a  c #4C3B2C",
"s  c #563A29",
"d  c #423D37",
"f  c #4B3D32",
"g  c #563C35",
"h  c #65372A",
"j  c #773E33",
"k  c #56442B",
"l  c #47542A",
"z  c #4E4035",
"x  c #47423B",
"c  c #4B433B",
"v  c #534335",
"b  c #5A4635",
"n  c #5C4937",
"m  c #54453A",
"M  c #594739",
"N  c #55493C",
"B  c #5C4B3C",
"V  c #4A5E33",
"C  c #515730",
"Z  c #674837",
"A  c #624E3D",
"S  c #714434",
"D  c #65513E",
"F  c #6B533E",
"G  c #635A39",
"H  c #7A553A",
"J  c #4C6537",
"K  c #586838",
"L  c #5B733D",
"P  c #68693C",
"I  c #677239",
"U  c #76713B",
"Y  c #554C42",
"T  c #5C4D41",
"R  c #514D49",
"E  c #5E5044",
"W  c #5A5849",
"Q  c #624F41",
"!  c #654B49",
"~  c #655243",
"^  c #6B5544",
"/  c #6E5945",
"(  c #64554A",
")  c #6A5749",
"_  c #67594B",
"`  c #6D5A4B",
"'  c #725643",
"]  c #735A45",
"[  c #795D46",
"{  c #755448",
"}  c #745D4B",
"|  c #7A5E4A",
" . c #634C56",
".. c #6C5C52",
"X. c #745751",
"o. c #735E50",
"O. c #4E6943",
"+. c #586744",
"@. c #597646",
"#. c #6B6D46",
"$. c #76614D",
"%. c #7B634C",
"&. c #796A4A",
"*. c #667B47",
"=. c #737748",
"-. c #6D6155",
";. c #756252",
":. c #7B6552",
">. c #7F6955",
",. c #7A6759",
"<. c #7E6A5A",
"1. c #677A55",
"2. c #727451",
"3. c #5A7A66",
"4. c #757065",
"5. c #87493A",
"6. c #964B3A",
"7. c #9B553C",
"8. c #AB5639",
"9. c #8F6F3C",
"0. c #AB683C",
"q. c #DE483B",
"w. c #EC5A36",
"e. c #CC713E",
"r. c #F47A35",
"t. c #8C4C41",
"y. c #875C49",
"u. c #9D5548",
"i. c #9A5C53",
"p. c #A55A4C",
"a. c #A15F56",
"s. c #82654D",
"d. c #84694F",
"f. c #89694F",
"g. c #986E4F",
"h. c #826651",
"j. c #846A53",
"k. c #8A6D54",
"l. c #836D5A",
"z. c #896E59",
"x. c #8D7156",
"c. c #86725E",
"v. c #8C725B",
"b. c #917256",
"n. c #93755A",
"m. c #987A5C",
"M. c #AA6950",
"N. c #A56159",
"B. c #B87658",
"V. c #9E6460",
"C. c #847261",
"Z. c #8B7561",
"A. c #967C64",
"S. c #A76A66",
"D. c #B77769",
"F. c #AF7371",
"G. c #ED594B",
"H. c #E95955",
"J. c #C3774D",
"K. c #DB7949",
"L. c #F6644B",
"P. c #F1714B",
"I. c #F76857",
"U. c #F47168",
"Y. c #68844C",
"T. c #75864B",
"R. c #7D914D",
"E. c #678454",
"W. c #6E8B54",
"Q. c #758B55",
"!. c #79965A",
"~. c #7DA05E",
"^. c #6E866A",
"/. c #7B9864",
"(. c #7FA167",
"). c #FC863B",
"_. c #858A4B",
"`. c #8B974C",
"'. c #918A56",
"]. c #879856",
"[. c #969857",
"{. c #AD8B53",
"}. c #89A45D",
"|. c #94A65B",
" X c #A5A25F",
".X c #909568",
"XX c #AC8F6F",
"oX c #85A564",
"OX c #89A668",
"+X c #86AB6C",
"@X c #97A969",
"#X c #95B36C",
"$X c #87A677",
"%X c #8AAD72",
"&X c #92AC77",
"*X c #8BB174",
"=X c #93B275",
"-X c #97B37C",
";X c #A6A968",
":X c #A6AB74",
">X c #A6B075",
",X c #B5B074",
"<X c #D69258",
"1X c #EC874A",
"2X c #F88846",
"3X c #F48B4A",
"4X c #FC8D4C",
"5X c #FD934B",
"6X c #FA954A",
"7X c #EE8A57",
"8X c #EE9352",
"9X c #F69656",
"0X c #FE9452",
"qX c #FD9B53",
"wX c #FD9C5A",
"eX c #FFA256",
"rX c #FEA45C",
"tX c #FDA95D",
"yX c #D3946B",
"uX c #FA9E62",
"iX c #F49168",
"pX c #D1A576",
"aX c #FEA463",
"sX c #FDAB64",
"dX c #F7A36A",
"fX c #FCA56B",
"gX c #FEAC6A",
"hX c #F8B269",
"jX c #FDB26D",
"kX c #FCAB76",
"lX c #EAB07A",
"zX c #FDB273",
"xX c #FEB37B",
"cX c #FFB87F",
"vX c #B27B80",
"bX c #8DAA83",
"nX c #92AE88",
"mX c #98B789",
"MX c #99B691",
"NX c #C7B38A",
"BX c #FEB382",
"VX c #FCB78C",
"CX c #F0B794",
"ZX c #C8B6A6",
"AX c #D7B8AF",
"SX c #F7BFA3",
"DX c #CBC3AA",
"FX c #F2CEC5",
"GX c #EDE9E9",
"HX c #E6ECF3",
"JX c #FAF8F9",
/* pixels */
"e % 2 3 a 3 n u 2 , * W & % % n , u z k q a v u p c r 9 8 & ( -.* , 2 6 5 i , W 8 = a p < 9 ; 9 ; ; u : - , 1 2 & & 2 % 8 8 e + ",
"o + O   O + o X   + o + X   &     o   X + + * 5 o + @ o , + $ o % o $ o   + $ o O %   X . O X X o o o o O o o o X   X o X @ 4 @ ",
"w + b , D F $.D v z N v > 2 ] } ~ B j.%.] d.n p v $.$.A ; 9 ( 5 + M v B n A ~ ^ Q ^ N v ^ M Q ~ _ %./ F D D D D n B v / v T ~ % ",
"R X = %.n N $.:.j.j.$.:.$.z.:.,.<.:.l.$.>.x.&.:.<.~ $.` v.c <.W ; [ :.] o.%.} %.l...Z.<.o.} { ^ ;.>.j.j.l.j.j.j.j.l.` >.;.j.r > ",
"r O u k p ^ ,.A c.$.} ^ ) >.} h.] N E ;.~ ^ $.;.,.9 z.$...z i 6 % n _ _ v %.:.j.` ( ..j.k.h.~ } c.%.>.&.k.;.l.l.z.h.:.) ;...0 $ ",
"6 @ = u s.$.$.%.$.:.] j.:.%.%.} $.~ A / F %.%.` $., ] <.E o.f % + , $.^ N ` o.CXaX8X` :.n.%.} ^ %.$.v.$.>.%.j.%.;.l.o.) ) ) r = ",
"6 , ; a / ] $.%.>.%.} ] B ~ $.^ A D / B / $.} ..,./ a l./ z 4.0 : v A z A $.^ aXsXqXo.} ] ` $.) ` :.&.%.%.$.} } ~ { M / Q T ; 2 ",
"e o b %.&.j.^ -.] j.s.} o.o.^ } ~ ;./ / $.^ | ` ` >.a = : ;.w d + z f A z ;.rXkXhXqX} :.:.} %.z.o.l.} ^ } :.%.$.} Q ~ } ~ ) * ; ",
"8 & ' ~ ^ <.:.) :.%.$.>.} ] } :.%.] ` ^ B A } ` ] ,.~ o @ o.0 > + 2 M N Y VXfXzXzXrX} l.;.>.;.c.} ;.;.( M :.:.%.} :.X.} ~ ) Y = ",
"8 % i / <.~ %.;.%.>.%.} ;.>.` >.$.>.:.F $.] ` ~ E ` A $.B z M ; @ N q v f aXfXxXzXrX3X$.A.` l.( ;.,.%.] ` o.:.o.;.{ h.| C.i # = ",
"; 2 ' %.%.] s.] $.] $.^ :.l.| :.` $.^ A $.^ B ;.^ _ :.$.^ 8 T c + f _ f CXrX3XxXxXrX5Xj.GXHX:.%.` o.;.$.>.$.;.} ' :.) j.v.5 Y * ",
"6 : ^ :.A ^ ^ ~ %.%.$.j.x.%.s.k.d.s.^ D &.$.` ] / / %.%.$.;.6 d = ~ ] Q fXgXeX4X[.[.;XpXZXHXHXs./ :.%.] %.%.%.` ( B ~ o.l.;.; % ",
"> % c.N <.j.` %.%.%.:.j.$.%.x.~ s.b.h.} %.f ;.} l.| ;.c.>.$.;.NX,X:X@XuXxXxX2XI. X].!.].R._. XDX:.m.' F %.%.l.:.o.o.:.o.} l.d ; ",
"x : $.[ N ;.$.%.;.j.} $.h.} s.d.:.o.:.} ` Q ` ` ^ %.>.$.NX,X#XOXoXOX;XwXVXzXP.I.P.+X}.~.!._.`.[.[.} %.} ` } %.s.y.^ } :.X.} Y % ",
"m q %.} E ^ %.] } %.] :.` %.%.%.^ } %.j.` B ` o.:.:.NX:X@XoXoX+X+X@XzXwXBXgXL.I.U.<X&XOXoX}.`.`.`.ZXv [ :.%.%.:.k.$.j.>.l.o.5 O ",
"W > } ~ $.k.x.$.$.%.%.>.%.%.| d.} ) } ] ^ E ) A } ,X@XoXoX+X+X*X%X,X9X0XkXzXL.L.I.U.;X+XoX}.}.`.DXZX%.s.s.%.j.j.%.j.s.h.k.v.v $ ",
"5 q ] _ / $./ $.d.k./ ' m.d.k.x.m.j.| } ;./ B | >XOXOX+X+X+X*X*X%XCX4X9XgXjXG.L.I.I.8X@X#X|.|.|.HXZX[ %.%.%.s.| s.y.h.:.l.h.s $ ",
"0 & ;.<.} ] / ] :.~ _ ` ~ d.:.d.&.m.} } ( ^ ` ZX}.oX+X%X%X*X=X*X%XdX4X0XaXsXG.G.I.U.{.%X+X|.|.{.8XZX] %./ ` A j.$.j.n.j.h.;.f $ ",
"6 + A } o.] $.$.} B -._ j.$.:.$.k.%.$.} o.| F >X~.oX(.+X%X=XmXmX#X8X3X0XwXaXq.G.H.I.@X=X#X|.`.6X2XZX~ ` { :./ ^ %.;.l.>.:.:.r % ",
"4 - / B B A :./ $.` E _ ;.~ $.:.} k.} ^ B } s.;X!./.(.+X$XnXmXmX=X3X2X0XqXrX0XH.H.H.OX-X#X#X{.6X2XNX~ } T { } X.$.$.;.:.} } r O ",
"6 @ D N ~ $.E :.A E _ _ / ~ / ] ~ %.%.^ ;.} %.:XR.!./.(.+X*XMXmX=X3X3X3X0XwXrXq.H.B.mX=X#X|.J.B.5X2X} ~ ~ [ >.} ` } o.Y ( ..; $ ",
"> - $.~ ~ ;.>.N ` v ` ] ^ ` %.%.D [ ' o.` %.| o.R.Q.!.!./.*XmXMX%X2X2X2X0XqXrX0XG.$XmX=X@X{.M.8.0.2XB / %.$.} } } ) $.$.o.v & % ",
"* = $.` G $./ $.^ E ^ $.^ $.$.&.%.&.%.} ~ } } :._.W.W.!.!.(.$XMXmX'.1X2X2X0XtXtXpXmX=X>X|.B.6.6.8.8X).<X/ ] :./ X.:.} ] ( , * , ",
"r 3 m.` E ~ / / ` $.] o.~ / ^ $.] ] ` { D | h.o.] T.W.W.W./.oXnXMXmXnX_.8X5XrX<X-XmX#X>X{.e.%.k e.3X6XeX4X3X7XyX>.$.:.o.f 0 $ * ",
"5 - d.j./ $.$.F D / D ~ T M ^ F ~ } $.} } Q ~ } T '.*.Y.W.W.!.$XmXMXMXMXMXMXMXMXMXnX:X;XsXhX%.k {.eXsXtXrXtXeXeX9X$.} ` ( T 5 , ",
"4 2 ' n n n [ N F a B ~ D v A N ^ D A M ] F ^ ^ s.} =.*.Y.Y.W.!.$X$XnXnXMXMXMXMXMX&X:X;XsXtXH a wXtXsXjXjXzXjXsXsX^ ) Q N ) > O ",
"8 = [ $.n D F z [ ~ N N m / F ` v ^ A ] ~ ^ ^ ) { { ^ =.*.*.Y.W././.$XbXnXnXnXbXbX&X@X;XsXrX<Xe.tXrXsXsXjXzXjXrX6X^ / ^ ) ( w = ",
"f 1 k.j.f.%.&.$.j.$.F &.[ x.%.%.Q Q ] %.%.| } :.;.:./ ] #.L *.Y.E.W././.$X$X$X$X$X@X@X[.aXrXqXqXeXrXrXtXaXeX5X).:.%.>.:.;...> = ",
"w u b.x.%.n.$.v.B l.l.] >.m.j.d.;.} n.j.A.$.} :.z.>.s.Z.9 #.K @.@.Y.Y.W.W.!././.!.OX@X[.eXeXqXqXqX5X5X2X2Xr.%.:.>.,.:.z.>.>.i % ",
"i 3 u v.Y z $.;.o.a j.XX<.;.$.XX> M H a A h.o.:.<.} l.f 0 d P K L L Y.Y.1.W.W.W.W.].].'.eX6X6X).).).).P.` <.~ >.l.;.:.:.C.C.N $ ",
"6 + u a v z a a n A 1 k c.v.<.n 0 = q u - u a q , v.) c i e = G J J K @.@.*.*.Y.Y.T.R._.9.6X).).P.1Xw.- Q ) ( o.C.:.$.>.,.C.6 % ",
"> + @ = & > + = % & % @ @ % : > ; c > % @ % % ; ; $ = , , p 9 f G J V J K J L L L *.U T.T.9.0.U I yXL.@ # = 1 p 1 p A Z 2 > 2 O ",
"% + + O O O   o X O O + O @ @ O o O o X o + o o + @ $ = O + o + & G C l l V V V J K K I I I U U U U.L.7XO O o   o o o o     * O ",
"f @ b ^ [ F A ] Z n &.$.b.b.f.$.~ f a a CXiXwXqX2X1X1XpX~ / A e : B 8 v.C k l l l l C V K K I g.8.U.iXG.~ / g a M ] l.A.,.9 > O ",
"M > ^ d.s.$.^ ] ^ F ' f.%.%.s.s.^ ~ n JXdXdXfXrX0X0X5X3X).yX3 e @ n N m .X#.P K 2.C 2.@.K J J G p.XXyXg.A ~ | } ` ) z.] , 9 $ $ ",
"z & n.d.F ' { [ s.s.D [ k.f.s.s.v ^ F JXJXBXxXBXgXsXsXaXwX9X1X6 , p F XXP 1.@.@.O.J K E.Y.*.K K y.D.D.{.} A ~ %.} ~ $.n.z.N M % ",
"_ 1 F &.s.x.d.z.[ %.d.$.l.v.k.j.%.` JXJXJXVXVXBXzXxXcXxXzXgXrX0X1X7.i.XXn.R 4.4.W 2.L ^.^.1.*.k 5.{.:.:.j.M :.l.:.} } k.A.l.8 * ",
"0 , :.Z._ $.c.'.%.^ >.c.j.v.l.>.;.} JXJXSXVXVXBXzXzXxXxXcXxXxXxXjXeX1XB.s g  . .X.d.=.Q.]..XG h %.:.>.` ) } ) | j.;.} x.o.- ; o ",
"8 , x.:.] $._ :.l.v.n.j.k.j.] s.:.;.GXHXfXkXfXsXgXsXaXsXfXfXgXkXxXBXxX{.y V.vXF.h S s 4.E { s h K J :.:.$.>.~ } } j._ ,.<.} w + ",
"w p / >.>.F $.d.%.} &.j.j.` %.&.%.%.%.JXwXuXrXwXrXeX6X6X5X4X4X0XqXrXfXm.a.V.F.i.M.5.S g y X.F 2.K J %.` Q ` / Y ,.) } ` ( ` -.& ",
", : } >.:.D >.D k.:.k.s.s.k.k.k.d.>.f.s.FX4X5X2X4X).).K.J.y ! N.p.8.{.2.a.N.F.N.t.u. .o.E 2.1.@.@.W | ] } Q ;.j...l.} ~ T Y d = ",
"5 : %.$.d.D j.d.s.] k.%.x.j.d.k.j.n.s.f.d.AXe.r.K.:.l.k.y.y g p.p.u.&.W m.i.S.i.u.6.4.^.^.3.3.*.O.k.} } } n } ;.` A s.} ( = # # ",
"> 1 b.A ] ] ] $.n.%.b.j.x.%.k.f.k.h.k.s.} s.m.k.j.$.m j.' t y 6.6.j Z O.+.u.S.S.i.7.u.^.^.3.1.pX5.} | ! m / z %.j.%.s.$.C.B 8 % ",
"n 2 >.^ $.] %.x.) ~ ] v.d.b.d.s.XX%.F l.>.k.k.z.%.%.n.;.%.} j S % k.>.' ..y.S.S.D.i.6.V.yXuXBXJ.p.6.XX^ } ` } / } } s.} Y d % & ",
"e @ D A k.k.d.E ^ A x.] j.s.k.n.| d.Z.$.B h.$.} A | l.%.l.| | d ; } D &.s.t.S.i.D.D.B.7.3XaXD.vXB.8.t.5.5.$.%.} } h.) | g 5 - % ",
"5 o b s.%.[ ] ~ / ` h.m.%.j.k.k.&.j.$.` } j.j.j.%.l.F Z ' h...5 $ [ ^ $._ 7.i.S.D.lXhX8Xj i.F.F.B.D.N.p.8.y.~ ` } Q ) ) :.} 5 = ",
"d O 3 x.%.s.` N B ^ j.x.j.k.^ $.m.b.%.k.%.>.x.k.j.A ^ h.z.Z.z.4 + x.n D ~ [ t.uXBXBXjX5XS 5.p.p.S.vXF.S.M.y $.` o.Q ~ ~ ) } & $ ",
"> o ] k.s.%.$.%.&.$.x.d.$.s.$.` } M ] d.%.j.>.k.A h.h.x.s.f.h.e % F A F ~ / J.9XfXfXrX3X| h j 6.N.F.D.D.y.Z %.v :.Q o.} <.( 7 = ",
"d = %./ } } j.x.] [ s.k.s.b.k.%.B ` } :.%.$./ %.B j.d.^ | k.z.E : F A %.} %.[ K.4X0X2X} { A.h 5.p.p.i.! ' B } ` A ) ;.) l.0 # @ ",
"r + b ] ] s.| %.s./ v.s.f.b.s.%.( ~ m ] k.>.%.%.;.$.d.v.} o.A.r O B %.[ %.&.[ d.| %.{ ~ :.^ j j j g g y B k./ } ` ' { Z.T 4 8 = ",
"6 @ [ z.} | y.A D } } s.y.F s.A Q A A ~ ] _ ^ n B j.j.} h.{ R 7 @ s.^ %.x.s.d.s.j.%.>.~ ..~ m.< < t / ] ^ %.j.] ^ / / f c Q w % ",
"6 3 %.$./ ] A Q | ] ' k.s.%.s.d.B } j.$.~ e n l.:.g.| %.h.| ; = @ d.%.] d.k.%.s.%.h.z.;.;._ l.[ k.j.%.^ ~ %.[ ^ h.h.s.i $ > 4 % ",
", % s...$./ n ] ' d.y.h.d.x.k.b.$.F ~ k.M / j.y.s.k.h.| | } 5 d % s.$.%.s.j.%.j.k.%.l.} ` Q } &.j.s.D } ] %.} [ [ h.s.k.' N w , ",
"6 & ] ( M A s.k.d.j.f.f.s.s.s.h.j.^ $.D } / s.' [ s.s.| [ y.7 0 2 x.F s.$.k.j.s.| x.[ :.` N s.s.j.k.s.f.j.] g.%.s.x.j.f A.l.Y & ",
"% 9 / &.k.s.b.d.s.b.%.%.s.%.^ s.s.s.d.] ] y.] F f.' k.s.j.| b.i 1 ] F ] ~ M $.:.s.` m.k.^ ` s.j.| s.' %.d.%.$.&.l.s.k./ i * * % ",
", u / m k.k.%.x.s.f.b.| x.^ $.j.s.%.s.$.D %.^ F } d.j.} h.k.b.^ ; k.s.s.%.j.} ] ` <.j.^ } / %.&.s.s.[ s.D %.s.s.j.s.j.[ z Y w % ",
"6 3 A T %.] f.| f.f.s.^ ' Y ^ F s.[ s.%.^ ^ [ %.%.s.%.l.h.k.z.v % s.d.$.d.l.;.~ s.%.h.~ / ^ $.x.b.[ %.[ j.s.h.k.j.k.%.n.m ; 0 % ",
"> , ~ ~ &.s.s.%.[ k.f.Z A :.! | ' ^ y.D / b ' B Z s.%.s.| h.h.c.u ^ j.&.~ ^ %.F %.:.Q Q T ) ^ $.s.%.| p / %.x.k.b.b.:.k.s.' + % ",
"w 1 [ %.} k.k.j.j.y.~ s.| B ] F } | [ [ s.%.s.s.[ [ [ | | j.;.5 3 %.d.F s.F &.^ ;.b N / %.d.%.[ ^ f ~ Q B ~ } | ` { :./ } ) r = ",
"M 1 ~ } } [ } s.} h.h.b.s.y.| s.%.] F s.] k.%.k.n.k.{ s.h.h.D * = Z >.F [ s.s.] %.j.s.[ d.%.s.y.[ ] ] ` ~ %.>.] [ } :.} s.] 8 > ",
"w , v } k.%.v.k.s.s.%.s.k.f.k.' h.` } %.k.k.%.^ k.v.k.n.c.v.^ w , k A.$.&.j.f.m.o./ h.;.v.%.] %.f [ h.%./ f.j.f.b.} h.z.h.:.~ 9 ",
"e i ..v B c.~ k.k.j.| | j.s.[ s.A.%.z.] [ l.j.v.<.v.] f D $.$.E e x c z } A s.v.&.m.d.j.;.m z %.l.u k.v.B A s.A.) k.s.n.A.k.f 3 ",
"Y ; , = t % = = r , t a 1 s Z p = 1 u 8 % 2 = p , ^ ~ q r N r , % q -.Y * :., e 9 > @ : e > > , 8 = , ; = t - < - * = 8 7 N 7 = ",
"> o = + = = O o O O O 2 + O O - o X + ; % o + & + = % % @ % , + O , ; O , o @ = > O O = * % @ - > % O % - 0 O O = O % = ; a 6 1 "
};
