/* XPM */
static char *result[] = {
/* columns rows colors chars-per-pixel */
"64 64 247 2 ",
"   c #0A0807",
".  c #0D0B09",
"X  c #070605",
"o  c #110E0B",
"O  c #15110E",
"+  c #1A140E",
"@  c #161312",
"#  c #1B1611",
"$  c #1E1913",
"%  c #1B1919",
"&  c #110F11",
"*  c #231B14",
"=  c #221E1A",
"-  c #281E15",
";  c #2C2117",
":  c #26211C",
">  c #2B241C",
",  c #32251B",
"<  c #33291E",
"1  c #3A2C1E",
"2  c #2A2623",
"3  c #2D2925",
"4  c #252322",
"5  c #332A23",
"6  c #3A2D23",
"7  c #332D29",
"8  c #352621",
"9  c #3C342D",
"0  c #393129",
"q  c #3A3632",
"w  c #4A331B",
"e  c #433224",
"r  c #43352A",
"t  c #4C3B2C",
"y  c #47392A",
"u  c #543B2C",
"i  c #4B3D32",
"p  c #433B36",
"a  c #533D32",
"s  c #4A2C28",
"d  c #683E36",
"f  c #743D2D",
"g  c #56412B",
"h  c #4D4035",
"j  c #4B433B",
"k  c #444238",
"l  c #534335",
"z  c #5A4535",
"x  c #544539",
"c  c #594739",
"v  c #56493D",
"b  c #5C4B3C",
"n  c #5C4937",
"m  c #475936",
"M  c #535834",
"N  c #624D3D",
"B  c #654836",
"V  c #65513E",
"C  c #6B533E",
"Z  c #714D38",
"A  c #56663B",
"S  c #496339",
"D  c #6A6C34",
"F  c #745D1E",
"G  c #554C42",
"H  c #5C4D41",
"J  c #574A49",
"K  c #5C5146",
"L  c #4C4F44",
"P  c #624F41",
"I  c #62454A",
"U  c #655243",
"Y  c #6B5544",
"T  c #6E5945",
"R  c #64554A",
"E  c #6B5749",
"W  c #6D5A4B",
"Q  c #67594B",
"!  c #725643",
"~  c #735A45",
"^  c #795D46",
"/  c #735D4B",
"(  c #7A5E4A",
")  c #735749",
"_  c #6C5D52",
"`  c #735E50",
"'  c #795F50",
"]  c #7A4842",
"[  c #4A6747",
"{  c #576744",
"}  c #597555",
"|  c #507052",
" . c #76614D",
".. c #7B634C",
"X. c #786547",
"o. c #667946",
"O. c #6D6155",
"+. c #756252",
"@. c #7C6552",
"#. c #7E6955",
"$. c #7D6A5A",
"%. c #786857",
"&. c #767B55",
"*. c #647E5D",
"=. c #5C7967",
"-. c #667D63",
";. c #7C6F61",
":. c #98553B",
">. c #8F4B39",
",. c #A4573D",
"<. c #AB563B",
"1. c #907939",
"2. c #B3673F",
"3. c #F55B37",
"4. c #E1663B",
"5. c #885546",
"6. c #995847",
"7. c #995952",
"8. c #894B47",
"9. c #A75B46",
"0. c #A45F53",
"q. c #82654D",
"w. c #84684F",
"e. c #89694F",
"r. c #816651",
"t. c #846A53",
"y. c #8A6D53",
"u. c #836D5A",
"i. c #886F59",
"p. c #98675A",
"a. c #8C7156",
"s. c #8C735B",
"d. c #86745D",
"f. c #917256",
"g. c #93755A",
"h. c #987A5C",
"j. c #97654C",
"k. c #AA624A",
"l. c #A96657",
"z. c #B07352",
"x. c #8B7461",
"c. c #837261",
"v. c #967C64",
"b. c #9A6F73",
"n. c #A66966",
"m. c #AB7C67",
"M. c #B87667",
"N. c #A97576",
"B. c #B57875",
"V. c #B86D71",
"C. c #D35350",
"Z. c #D07850",
"A. c #F16F54",
"S. c #E65A66",
"D. c #EC6567",
"F. c #F36B6A",
"G. c #F7766B",
"H. c #FD7D72",
"J. c #FC7471",
"K. c #F0716D",
"L. c #E66557",
"P. c #6A854B",
"I. c #77884A",
"U. c #6A8859",
"Y. c #768659",
"T. c #7B9656",
"R. c #7C914B",
"E. c #768863",
"W. c #799568",
"Q. c #789678",
"!. c #6F8B70",
"~. c #FA883C",
"^. c #878B4A",
"/. c #8B974D",
"(. c #889856",
"). c #979756",
"_. c #8D8B56",
"`. c #AC9356",
"'. c #8AA359",
"]. c #899E65",
"[. c #839B7B",
"{. c #958869",
"}. c #B28C75",
"|. c #89A766",
" X c #95A766",
".X c #95AD7B",
"XX c #97B47A",
"oX c #9CB16C",
"OX c #A6A668",
"+X c #A6B678",
"@X c #B4AD70",
"#X c #C78356",
"$X c #D38B55",
"%X c #ED8448",
"&X c #FA8945",
"*X c #FE9549",
"=X c #E99557",
"-X c #FE9957",
";X c #F38F55",
":X c #FEA458",
">X c #FDA04F",
",X c #D89977",
"<X c #D2936B",
"1X c #FD8272",
"2X c #F88B72",
"3X c #F58F6A",
"4X c #C8B076",
"5X c #FEA463",
"6X c #FEAC64",
"7X c #FEAB6D",
"8X c #F8A76B",
"9X c #FDB26D",
"0X c #FBA97A",
"qX c #FEB374",
"wX c #FDB47C",
"eX c #EBAD76",
"rX c #B37F83",
"tX c #809E82",
"yX c #BA908E",
"uX c #9CBC88",
"iX c #A3BE91",
"pX c #B4ABB0",
"aX c #CE9782",
"sX c #FFB484",
"dX c #FEBA8D",
"fX c #FEB788",
"gX c #FEBA91",
"hX c #FFB690",
"jX c #F9A986",
"kX c #DEA193",
"lX c #D2C2BD",
"zX c #BAB9C7",
"xX c #B3B6CE",
"cX c #C9BFC0",
"vX c #BAC2D7",
"bX c #C4C9DB",
"nX c #CED2DC",
"mX c #D9D7D9",
"MX c #D3CAC9",
"NX c #E4D6D0",
"BX c #CDD4E3",
"VX c #D4DCE7",
"CX c #C9CEE0",
"ZX c #DAE3EF",
"AX c #F3F3F2",
"SX c #E8E2D9",
"DX c None",
/* pixels */
"DXDXDXDXDXDXDXDXDXDXDXDXDXDXDXDXDXDXDXDXDXDXDXDXDXDXDXDXDXDXDXDXDXDXDXDXDXDXDXDXDXDXDXDXDXDXDXDXDXDXDXDXDXDXDXDXDXDXDXDXDXDXDXDX",
"9 # < 1 t 6 n e , > % K = # # n > e h t e t g y r j p 5 5 * R O.$ 2 , < 2 r 2 K 8 + u r , 6 - 6 = * r ; ; > < < $ * < $ < 5 9 O ",
"  + o X . O .   X O . o   X $   X     . O O % 2 . O O . 2 o @ . # . +   X o @ . O * X . X o X X . o . . O     .   X X .   O 3 O ",
"0 O z > Y C  .Y z t c x - < T / U b y...~ e.z y h  . .V - 6 R 2 O b l b c N Y Y U U c l Y z N R W  .T C V V V V c b l T l H U $ ",
"L . $ ..z c ~ ..#.u.+.@. .i.#.%.u.%.$. .u.a...%.u.U  ./ a.j $.K = / #.`  .../ ..$._ x.$.@. .E Y +.@.u.w.y.t.w.w.u.u.W u.+.r.q > ",
"q o e l y T %.U d. .W Y E #./ r.T l K  .R C  .+.%.5 u..._ h p 2 $ n Y E l  .@.u.~ R _ u.y.@.U / a...#. .a.+.u.u.i.@.@.W +._ 7 # ",
"3 # * r q./ / .. .../ w.r. ... . .Y b T C ....E  ., / #.U _ i $ O > / T b W / b / W E @.g...( E @./ s. .@. .t. . .u./ E U E q * ",
"3 > = t T X. ...t.../ ~ H U / Y V V T V T  . .W %.Y t u.E h ;.7 : z N h N / T ~ u.+.' / ~ W  .E W @....... . . .Y E c E P H 4 , ",
"9 . z X...u.R ` / t.../  .+.T ) Y ` W T X.U  ./ / @.t * - +.7 p . t i K i  .@./ @.E / +.+./  .i.W u.+.Y  .@.../ / P Y W P R % - ",
"5 $ ! U Y $...W ....+.@./ / (  .@.T W T b b T W / $.Y . # ` 7 % + < v n H R W %.@.h./ y.@.@.+.i. .+.+.Y b @.@.+./ r.' ` E E G = ",
"5 + y ~ u.U .. ......./ +.r.W @./ @...C X.~ W R v W b +.H h x = + v 0 l i P Y @.@.q.r.+.v.W u.Q O.+.../ W +.+.' ' ) ' / u.r & * ",
"% < ! .. .~ ../  ./  .T r.u...@.`  .Y V  .Y v  .W T +. .Y 5 H L + t R i c H Y %. ...Q t.v O @. ./ / +. .t./ @.( T ' W r.s.4 x = ",
"3 ; T @.N Y Y U ..( +.t.a...q.y.q.@.! V ..8X3X~ T / q...( +.3 p * U ~ P E +.N ~ r.+.` ` 9 ..+.@.E r.../ .. . .W Y b Y ' $.' = # ",
": # d.c $.t.W ......+.y./ @.y.U q.f.w./ -X0XfX:X,X+. .a.u.+.%.& *  .U  .' r 8XsXwX6X3 ~ $.Y W +.+.h.! T q...y.@.` ' @.+.' $.p = ",
"i > / / x +. . .+.y./ +.t. .q.w.@.( %.~ G.J.G.wX:X+.#.+.@.@X@XOX`.@X' W +.8XjX2XH.1X~.T @./ / .. ./ X.~ T /  .q.5.R / @.` / G $ ",
"c 6 @./ U Y ../ / ../  .~  .....Y /  .y.J.J.G.K.9X>X` 4X@X@XOX).`.)._.`.8X8X0XH.1XH.:X%.@.../ v P ' l / @.+...r.u. .u.r.%.' 3 o ",
"K :  .Y  .y.a.X./ q. .#.....X.q./ T / ~ F.J.F.F.jX7X*X$XoX X|.'.^.^.).8X8XfX1X1X1XH.-Xr.y.u.+.t...u...w.....y.r. .y.q.q.y.s.l @ ",
"2 6 T Q W ~ ~ ~ w.y.! ! h.w.y.a.h.y.( / F.F.F.D.L.wX:XOX|.'.T.T.T.R./.5XdX2X1X1XH.J.-X@.@.( t.r.T  . .w...( q.....5.q.@.u.r.u o ",
"7 #  .;.~ ~ W / +.U W W U w.#.w.@.h./  .D.S.S.D.D.hX4X|.|.|.W.'.W.T.R.eXhXH.1X1XJ.J.*X` ..r./ r. .+./ X.! / b r. .y.h.t.r.%.i O ",
"7 O V W W / X./ X.G O.Q $. ... .y...( / K.S.S.D.D.OX X|..XXXXXXXoX|.(./.eX1X1X1XK.K./ / / ( ' W l N R T ) @.E ) #. .u.#.r.+.q # ",
": ; ~ b H V %.W  .T H Q  .Y / #.~ t.~ Y =XS.C.aX X|.uXuXiXiXiXuXXXXXoXoX/./.;XK.K.F./ ' r.' +./ ( E E ) H ) / / / +.+.+.' / q o ",
"3 + U v U  .K +.N K E Q T V ! / U q.@.U ` C.@X].|.XX.XuX.X.X XXX+X+X+X+XOX'./.Z.K.-XR U ' / E ~ y.( / P P ~ r./ W W ` b U _ = @ ",
"= :  .V U ..@.b W h / W Y W ....V / ! ' 4X X].].T.P.1.0XfXdXdXfX$X@XD ).OXoX X/./.1.z E / u.! ` / E P ~ ..+./ / / E  . .W x $ # ",
"% *  .T V  .Y  .C K T  .T  . . ... .+./ ].T.T.o.z.5X8XwXdXgXdXfXqX9X9X6X`./.OXOX).^.{.W $./ W ` / ( Y ~ T / r.) ' +./ / R 3 = : ",
"q 1 h.W K T T W /  .T  .U E Y  .~ ~ T W R.P.D 3X$X3X8XjXsXhXgXfXwXqX9X7X5X:XD /. X/._. .%.%.' U T / ! U ....E +.@.+.@.` i 8 & * ",
"4 - e.#.T /  .C V T V U G n Y Y V  . ./ P.P.=X`.6.p.V.0XsXgXdXfXqXqX<Xl.M.k.-XF ^.).{.X./ ~ / ~ ~ Y N Y Y / ( (  .( ` W U J 3 2 ",
"> , ~ n n z X.n Y y b V Y l b z C V b b P.I.=X;Xt Z 6.V.wXhXdXsXwX,XM.k.:.>.*X*Xo.(.~ ~ ~ / / Y E Y i i P P  ...Y Y ) P c R = o ",
"3 * ^  .c V ~ h X.Y c v n T C ~ x Y V ~ P.^.=X$Xr G Z 0.sXgXgXsXqX}.9./ @.g *X&Xo.(.P / / U U ! T N x a Y P ( P / Y T Y Q Q 9 * ",
"h , y.u.e.~ X. .u.` Y .. .f. .q.V P ~ ..o.(.=X;Xs p $Xk.0XhXdXsXwX<.7XT ! u *X~.U.^. .@.@.r.@./ / U / Y U U ( $.r.mXVX@.+._ : = ",
"0 e a.a...h./ s.b t.a. .r.h.y.e.+.W g.w.o.].<X~.z.w -X5X0XdXfXsXwX9X9Xu g $X*X&XU.I. .s.@.@.u.+...r.@.@.Y b mXmXVXVXZXy.@.@.r # ",
"9 1 e s.v h  .%.O.g i.{.u.%. .{.> n ! g b U.|.%XA.&X*X-X5XwX5X7X6X6X:X:X*X&X~.P.E.{.x.x...t.@.@.$.a N u.NXmXVXmXZXZXAX+.d.c.x # ",
"3 O w h h h g y n B < y u.s.u.n 7 * 6 e ; { [.^.~.%X%X-X5X5X-X:X:X:X>X*X&X~.`.[.I.%.i W r.u.s.c.p - i NXmXnXVXZXZXAX' @.%.c.3 $ ",
"; o $ * + : O $ + $ # + + + - : % L = # # # U.W.$XZ.%X-X5X9X7X:X>X*X&X~.~.&XQ.Y.}.L K 7 : > p 2 5 o NXNXnXnXVXZXAXSXN B , > > O ",
"# o + . O O   .   o o O O + + o . & o .   & A tXY.`.Z.=X5X=Xk.6X>X~.~.~.$XQ.[.D o &   . O O , + # NXmXnXVXVXVXAXAX@ . .   X @ O ",
"i + n T X.C N ~ b b ..^ g.f.e./ P i y y ( N P S Y.Q.U.#X;X:.l.7X*X~.}.!.tX!.o.z.p.8 t Y t @ r V NXMXCXBXBXZXmXMXc ~ u.v.%.6 : O ",
"x > Y w.../ C ~ ! C ! e.X.....w.Y Y B Y Y U l.a !.[ [.[.#XA.&X*X&X=.W.W.o._.P.:.9.+.W Y H N N lXbXCXCXBXnXMXMX/ W Y a.T > 0 O @ ",
"j * g.q.V ~ / ~ e...Y ! a.w.q.q.a U Y ! }.6.7.f } | o.m [ | *.} { { A A L A g V.0.>.E m.}.q.MXzXzXbXVXMXMXc U @.' U  .g.u.x x # ",
"E < C ..w.s.q.a.^ q.w. .y.d.a.t.@.W }.7.p.n.l.M.f M A [ =.!.Q.!.&.&.&.A M g ] n.b.k.9.p.<XlXzXxXbXzXcXpXr.l @.t.@./ W y.h.u.7 # ",
"7 : ..x.Y +.d.h.X.T $.u.@.s.u.#.+./ 0Xl.B.V.M.M.,.`.M [ } -.Q.!.{.E.&.D 5.Z d 8.6.M.k.eX,XxXxXxXcXpX@./ E +.T ' t.@.' i.+.: = o ",
"5 > a.@.~ / R %.y.i.h.t.y.y.~ w.@.%.5XdX,XM.9.:.@.X.l K L [ -.-.U.&.o.z B M d 7.N.l.-Xj.yXyXpXpX/ ..@.../ @.Y / ~ u.E $.$./ 9 o ",
"7 y T #.#.T  .w. . ...t.w.T ......#.-X0X7Xk.<.M.{ { y i 8 s O._ d s B u A m ) f 3X:X:X2X{.rXyXY / / ..~ P T Y b $.Y ~ E E W O.$ ",
"< ;  ...@.V w.V f...e.q.w.a.y.y.w.t.$X*X*XZ.6./ @.[ [ [ p p J I c s _.&.A M $./ 4.&X2XG.<X,Xe.@./ ~  ./ / U +.u.W u./ Y G J p = ",
"2 ; .. .w.V t.w.w.! a. .y.w.w.a.w.g.q.y.t.V w./ <X{ | | =.=.k.-.E.E.&.&.o.%.@.C.J.jXG.3.( aXm.}.y.y./ ( ~ x / ' E V q./ U $ & O ",
": < a.V T  .T  .f...a.t.y. .f.e.y.t.y.../ t.h.i.7.-X;X@X=.-.r.G -.&._.fX5XG g.M.3.3.3.X.' e.' @./ / ..P c E i ..u. .#./ c.b < # ",
"z < @.T ~ ~ ..a.E U  .s.t.g.w.q.}.q.C u.@.t.y.u.5.n.jXZ.j.}.a.p * %X-X5X5X$Xb 5.] 3./ @.@.) Y ~ / W N Y / / / W ( / r./ G p # = ",
"9 + V N a.y.w.U T N a.T y...y.g.! w.x. .P t...j.8.>.0.9.:.' @.p m.k.7XwX9X<.U W E E +./  ./ r. .W Y ~ ~ ' / ../ / @.E / l > ; @ ",
"4 . z q.q. .T U T W w.h. .e.y.y...a. .E  ...t.7.N.yXl.9.,.q.R 3 O 8.N.V.M.,.W y.E q.T / @.T ( / ..~ / E / / P / ~ U Y E @.` 4 * ",
"k o 1 a...q.W x v Y t.a.t.y.Y  .h.a.X.y...t.s.6.N.N.M.k.6.s.y.4 O >.8.6.9.9. . .r./ E E ) W +.y.y. .) T / T @.E +.P U Y Y ' # @ ",
": . ~ y.q. . .....X.y.t.( q. .T  .n  .t. .u.#.s Z 6.6.d 5.t.r.p m.8.n.rXz.k.6.U r. .E / W / t...w.w.w./ C ~ ..l @.N +./ c.R 2 * ",
"p * ( ~ / / t.f.~ ( q.y.w.g.e./ b T /  ... .~  .B p q.T ( i.i.H ; >.b.rXB.M.,.^ @.@.~ ~ ~ v.N q.q.t.q.X... ./ W U Y ( E $.6 o @ ",
"9 O z / ! q.^ ( q.T f.q.e.f.q.X.R U x / e.u.....+. .q.s./ @.{.q . e 8.7.9.5.d w...../ Y +.T ..g.y.q.t.~ b y.Y / T T ~ x.H 4 8 # ",
"3 + ~ a.~ ( q.N N ( ~ q...C q.N U N b U ~ W T x b t.r.( ( E G 8 + q.E a a q.w...y...@.R W E h.a.f. .~ ~ Y q.r.! R T ! i G P q # ",
"3 6  . .T ~ N V +.T ! y.q.( r.e.b W t. .V 9 n t.@.y.5.+.t.( - % + e./ C w.a.q.q. .e.t. .+.Q u.^ t.#...! Y  .X.! r.r.q.r & > 4 # ",
"> $ q.O. .Y z ~ ! w.5.r.e.f.y.g. .C Y y.b T w.5.q.y.e.( ( / 2 p $ q...w...y.^ t.y...i./ W U / ..t.r.N / /  . .^ ^ q.q.y.T c 7 > ",
"3 $ T Y n B q.y.t.e.e.e.q.w.q.r.w.Y  .V / T w.! ^ q.q./ ( 5.2 7 5 y.Z q. .y.t.q. .a./ @.T v ..q.y.w.q.w.e.C f...q.y.w.j v.u.J $ ",
"# 1 ~ ..u.w.h.q.q.f.@...q...C q.q.q.q./ ~ ^ ! Y e.! y.q.e.( h.9 > ~ C / U c ( q.q.T h.a.Y W t.w.( ..! q.e.q.X...u.q.y.W e % % # ",
"2 y ~ l e.y...a.q.e.f.( y.Y / y.q.q.q.( Y ( ! C  .e.r.( t.e.f.Y > q.q.q...t./ / W $.t.Y / Y ..r.q.q.^ q.C  ...r.y.t.t.~ h K 7 # ",
"2 < N H  ./ e.( e.r...T ^ H P C q.^ q.^ Y Y ! ....r...t.r.t.y.x + ..q.X.e.t.+.P q...t.U T T / f.f.^ q.~ w.q.t.y.t.t.( h.x = 7 # ",
"> ; C U ..e.q...( y.e.N B +.Y ( ! Y q.C Y z ! b n 5...r.5.r.@.d.y C t. .U T  .Y  .@.P P H T Y  .q.(  .t T ^ f.y.f.f...y.r.! @ # ",
"0 , ^  . .y.y.w.r.q.! 5./ N ! Y ~ ^ ^ ( w.q...w.( X.( / ( r.+.3 1 ..w.C ..T w.C ` z b ~  .w...^ Y a V P b U / ( W ~ +.~ ! E q * ",
"v > Y / / / / q.~ q.w.y.e.5./ r.../ ! q./ e...y.f.a.~ q.w.#.V = $ n t.C ~ ..X.~ ..y.( / w.q...q.^ ! X.E U +.@.~ ( / r./ r.~ 8 : ",
"0 > h +.y. .g.y.r.q...q.y.e.a.! q.W ~  .y.y...Y y.a.a.g.s.x.U 5 > z {. .w.y.e.h./ C t. .s. .! ..i / u...T r.y.q.f./ r.y.r.@.R 6 ",
"9 e _ h b s.Y r.y.r.q.^ y.5.^ q.v...u.! ~ y.t.s.;.d.! t V  . .Q r k j h  .V q.g...{.w.t.+.c t ..u.6 y.a.B B e.v.U y.q.g.v.y.i 1 ",
"G = > * e # * * q , 6 y > u B y * , y 8 * 5 * y , Y U r q v 9 > + 0 O.G $ @.> 9 0 : + ; 9 : > 2 5 * > * * e - , ; % * 5 5 x 5 * "
};
