/* XPM */
static char *result[] = {
/* columns rows colors chars-per-pixel */
"64 64 243 2 ",
"   c #070605",
".  c #080606",
"X  c #0A0807",
"o  c #0D0B09",
"O  c #110E0C",
"+  c #15110E",
"@  c #1A140E",
"#  c #110F11",
"$  c #161311",
"%  c #1B1611",
"&  c #1E1913",
"*  c #1B1919",
"=  c #231B14",
"-  c #281E15",
";  c #221D1A",
":  c #2C2117",
">  c #26211C",
",  c #2B231C",
"<  c #32251B",
"1  c #34291E",
"2  c #3A2C1E",
"3  c #252322",
"4  c #2A2623",
"5  c #2D2925",
"6  c #312720",
"7  c #332A23",
"8  c #3A2D23",
"9  c #332D29",
"0  c #3D3124",
"q  c #36312D",
"w  c #3C342D",
"e  c #393633",
"r  c #3B3632",
"t  c #512B25",
"y  c #433324",
"u  c #43352A",
"i  c #48372A",
"p  c #4C3B2C",
"a  c #57392B",
"s  c #463935",
"d  c #433D36",
"f  c #4B3D32",
"g  c #563C32",
"h  c #58462D",
"j  c #4D4035",
"k  c #47413C",
"l  c #4C433B",
"z  c #534335",
"x  c #5A4635",
"c  c #5C4937",
"v  c #55453A",
"b  c #59473A",
"n  c #56493C",
"m  c #5C4B3C",
"M  c #5A5B34",
"N  c #664937",
"B  c #624D3D",
"V  c #734A33",
"C  c #665636",
"Z  c #65513E",
"A  c #6B533E",
"S  c #576637",
"D  c #5B733C",
"F  c #68683A",
"G  c #67713D",
"H  c #7A763D",
"J  c #554C42",
"K  c #5C4D41",
"L  c #514D49",
"P  c #5B5347",
"I  c #5A4851",
"U  c #624F41",
"Y  c #6A4E40",
"T  c #655243",
"R  c #6B5544",
"E  c #6D5945",
"W  c #64564A",
"Q  c #6B5749",
"!  c #67594B",
"~  c #6D5A4A",
"^  c #725643",
"/  c #735B45",
"(  c #795D46",
")  c #745748",
"_  c #735D4B",
"`  c #7A5E4A",
"'  c #675F54",
"]  c #6D5C51",
"[  c #735F50",
"{  c #795F51",
"}  c #586946",
"|  c #5B7743",
" . c #576C58",
".. c #527150",
"X. c #756845",
"o. c #76614D",
"O. c #7B634C",
"+. c #627D45",
"@. c #67744A",
"#. c #677848",
"$. c #6D6155",
"%. c #756252",
"&. c #7B6552",
"*. c #7E6855",
"=. c #7A6759",
"-. c #7E6A5A",
";. c #777C52",
":. c #6F7666",
">. c #80412E",
",. c #934C36",
"<. c #94533D",
"1. c #B85E2C",
"2. c #A6563A",
"3. c #89623E",
"4. c #DD603B",
"5. c #8D4D42",
"6. c #875747",
"7. c #97554A",
"8. c #9A5D56",
"9. c #A75C45",
"0. c #82654D",
"q. c #84684F",
"w. c #8A6B4E",
"e. c #857146",
"r. c #816652",
"t. c #846A53",
"y. c #8A6D54",
"u. c #836D5A",
"i. c #886E59",
"p. c #9C615C",
"a. c #8D7156",
"s. c #85715E",
"d. c #8C725B",
"f. c #917256",
"g. c #93755A",
"h. c #96795C",
"j. c #9B7B5D",
"k. c #AB6855",
"l. c #B36F51",
"z. c #847461",
"x. c #8B7461",
"c. c #947B65",
"v. c #997C62",
"b. c #A66B68",
"n. c #B67565",
"m. c #AE7771",
"M. c #EB594B",
"N. c #D3734F",
"B. c #D37C54",
"V. c #F0724F",
"C. c #F26753",
"Z. c #69854A",
"A. c #758747",
"S. c #75924F",
"D. c #6C8A52",
"F. c #748E54",
"G. c #789456",
"H. c #7C9A5C",
"J. c #7CA15E",
"K. c #7C9A64",
"L. c #6C8871",
"P. c #7DA163",
"I. c #FC873B",
"U. c #988D49",
"Y. c #889547",
"T. c #8B8951",
"R. c #829453",
"E. c #899A59",
"W. c #979B5B",
"Q. c #B29357",
"!. c #8CA256",
"~. c #96A45C",
"^. c #90896A",
"/. c #879B67",
"(. c #A5886B",
"). c #A7906B",
"_. c #B79C63",
"`. c #81A363",
"'. c #83A56B",
"]. c #84A96B",
"[. c #88AB6A",
"{. c #97A862",
"}. c #9FB069",
"|. c #88A873",
" X c #8AAB7B",
".X c #94AD74",
"XX c #8CB278",
"oX c #93B379",
"OX c #A7A969",
"+X c #ABAA6D",
"@X c #B1A675",
"#X c #A2B378",
"$X c #D18757",
"%X c #DB875B",
"&X c #D49557",
"*X c #ED8446",
"=X c #FC8D44",
"-X c #F88849",
";X c #FA8C4D",
":X c #FD9345",
">X c #FA9945",
",X c #FC944D",
"<X c #FE9A4C",
"1X c #EC8952",
"2X c #E69659",
"3X c #FC9552",
"4X c #F59956",
"5X c #FD9B53",
"6X c #FC9C5B",
"7X c #FDA154",
"8X c #F6A05B",
"9X c #FEA45B",
"0X c #FFA95E",
"qX c #CF906D",
"wX c #F09863",
"eX c #CAA761",
"rX c #F5A467",
"tX c #FCA664",
"yX c #FEAB64",
"uX c #FDAD6A",
"iX c #FEB16B",
"pX c #EBA570",
"aX c #FAAB76",
"sX c #FEB473",
"dX c #FEB37C",
"fX c #B37F81",
"gX c #8EAE85",
"hX c #93B583",
"jX c #94B28B",
"kX c #97B88A",
"lX c #9BB98B",
"zX c #96B792",
"xX c #9DBB93",
"cX c #B3AB8D",
"vX c #FEB583",
"bX c #FEB788",
"nX c #F8BF97",
"mX c #C7B7AF",
"MX c #DED7D0",
"NX c #EAE5E5",
"BX c #F7F2EE",
"VX c #F7F5F6",
"CX c #FCFDFD",
/* pixels */
"w % 1 2 p 2 x 0 < , > L = % % c , y j h 0 p h y w l r 9 7 & W $.* , 1 5 4 u , P 7 = p i < 8 > 8 ; = i : > < < 1 % & 1 & 1 7 r + ",
"o + O   O + + X   + o o X   % X   o   X O + * 5 O + @ o > + + o @ O @ X   + $ o O &   X   O   . X o X o o o o o X     o X + 3 @ ",
"q + x , T A o.R h f b v > 1 / _ T m y.O./ w.c u j O.o.m > 0 R 4 + b z m b Z R T Y T b z Y b Y W ~ O.E A Z Z Z Z v c z E z K T @ ",
"L X = O.c n / &.t.u.%.&.o.i.&.=.-.&.-.o.*.a.O.&.u.Z o.o.s.l -.P & O.*.~ o.O._ O.-.[ z.-.&._ R R o.*.u.t.t.t.q.q.i.u.[ *.&.*.r , ",
"e O 0 h i R =.m s.o.~ R R *._ r.^ z P %.T E o.%.=.1 i.o.] j s 4 & m ! ~ z O.&.*._ W ] u.y.&.T _ s.&.*.O.a.%.u.s.i.-.&.~ %.] 9 $ ",
"5 @ = u 0.o._ &.o.O.o.q.*.O.O.o.o.E Z E A O.O.~ [ 1 / *.P [ d * + , / ~ %X~ _ m o.Q Q &.h.O.o.R o._ d._ *.o.t.O._ u._ R T ~ e = ",
"7 , ; a E X.o.O.*.O.( _ K T _ R m T R Z E o._ ~ =.E p s.E j -.9 > h K 4X8Xo.E / t.%.[ _ / ~ O.Q _ &.X.O.O.o.o._ Q Q b Q T K > 1 ",
"q o x X.O.t.T [ / t.&._ _ o.Q E T o.~ R o.T O.~ ~ &.p = : %.q d + f 5XaX9X2X*.o.&.~ _ &.{ _ o.y._ u.o.~ o.O.O.o._ B T ~ T T * > ",
"7 & E T R -.&.Q O.q.%.*._ _ _ O.O./ ~ R m m ~ ~ _ =.T o % [ q ; + pXuXdXtX2X! &.&.g.[ y.%.*.O.s.~ [ %.R m &.&.O._ r.{ _ T W J = ",
"9 @ i / *.T O.o.O.&.O.~ &.*.~ &._ *.&.A o.o._ T m _ m o.m f n ; @ 8XaXbXuX2XQ &.&.O.0.%.c.~ u.W %.=.O._ ~ [ %.[ [ ) r._ s.u # = ",
"* 1 ^ O.O._ 0._ o./ o.R &.u.O.&.~ o.R B o.R m _ ~ R o.o.Q 7 K l tXtXvXdXyX>XR &.o.O.~ t.J + &.%._ ] %.o.t._ &._ ) [ ~ r.i.4 J ; ",
"5 : E O.B T A T O.O.o.t.a.O.0.y.q.0.E Z O.X.~ _ ~ E 0.O._ %.7 d 6XyXbXvXuX>XB _ r.%.[ ] u O.%.&.R r.O._ O.o.o.~ R m R [ u.{ ; $ ",
"> @ s.n -.t.] O.O.O.o.t._ O.y.T 0.g.O._ O.j %.&.u.` o.cX@X@X_._._._._.W.eX&XqXT ) k 4 _ *.W ~ O.&.j./ R O.O.a.&.[ _ &.O.[ u.s ; ",
"j : ( o.v %.o.O.%.y._ O.t._ 0.q.&.` &._ ~ m ~ cX+XW.T.R.G.R.G.R.R.H.E.R.A.#.A.U.).W b R &._ ~ O.o._ X./ E o.o.0.6.Q _ &.[ _ J & ",
"v 0 &._ P R O./ _ O._ O._ O.O.O.Q _ o.y.E m @X~.E.H.H.H.H.H.J.P.'.W.pX&XR.S.A.A.A.U.Q.&.&.O._ n U { z _ &.o.&.t.y.o.t.-.=.` 4 O ",
"P > _ T o.y.a.o.o.O.o.*.O.O._ w._ Q _ _ ! cXE.P.P.J.J.J.P.'.[..XOX6XtX<X{.H.H.S.A.Y.U.O.y.t.&.t.O.i.O.r.0.O.t.O.o.u.0.r.y.x.g $ ",
"4 0 E ! E E X./ q.a.E ^ h.q.y.a.h.y._ _ %.~.`.'.P.].].P.XXXX.X#X6XuXsX;XV.|.`.H.R.Y.Y.*.*.O.r.r.E o.O.O.O.O.0.` 0.6.&.r.t.&.p O ",
"q % &.-._ o.Q _ o.T ~ ~ P q.&.t.q.h._ o.T /.'.[.XXXXXXXXXXXX}.rX6XvXiXV.V.@X[.[.!.!.Y._ O.&.` &.o.&./ O.~ ) B t.o.t.g.i.r.=.g % ",
"9 + m _ o._ o./ o.m $.! u.o.O._ y.O.o._ cXR.`.].XXhXhXhXoX}.rX4X6XvXyXC.C.V..X[.~.!.E.) _ { _ ~ z K R ~ ) &.R Q &.o.s.t.r.%.e % ",
"> ; / m m m =./ o.~ K ! o.Z o.*._ w.~ R K R.K.'.XXhXkXlXoX}.8X3X6XaX7XC.C.C. X|.}.~.&X&.r._ &._ _ R R _ K ) _ ) o.o._ %.o._ r O ",
"5 @ Z n T o.P &.m K ~ ! E T E _ Z 0.0.T %.F.G./.|. XzXxXhX_.;X,X3XtX6XM.M.N.oX.X}.~.I.E *._ Q ~ y.` ) T U _ *.[ _ ~ %.n W ~ ; $ ",
"; : o.T T o.&.m ~ z o.~ R _ O._ Z / ^ [ R /.F.H.K. XgXxXkX&X;X;X3X6X-XM.M.(.gX.X}.Q.>XE _ *.) _ ` Q m _ O.&._ ` _ Q %._ ] v * % ",
"* = o./ Z o.E o.A K R &.E E o.O.O.O.&._ Y [ A.D.H.P. XxXzX2X;X;X;X6X,X4.M.P.oX#X~.,.N.I.=._ _ _ _ ( Q / R / O._ _ &._ _ ! 5 * , ",
"r 0 h.E P T E ~ ~ o._ [ T E R X.E / / Q B [ T.D.F.H./.lXlXQ.*X;X;X;X-X4.N.lX#X+XU.2.2.I.=X1X_ T ~ _ E T 0.O.Q _ *._ &._ f 7 + * ",
"3 = w.*.E o.o.^ B ~ Z Z J b R E R ~ o.o._ U T #.Z.F.H.|.xXkXR.;X=X3X3X5X/.kX#X~.<.h 6X<X7X<X=XI.1XR B T T _ &._ { _ _ _ T K 6 4 ",
"4 < / b b x X.b A p m T A z m c E Z m m / A Q ^.Z.Z.D.K.jXzXlX].&X3X2XeXkX#X+XQ.3.h 7X9XyXiX0X0X4XT f j B U o.o.R R Q T J T > o ",
"6 = X.( v C / j o.T n v v E R NXMXMXmX/ T A Q Q ;.+.Z.F.P. XjXzXlXlXkXlXlX#X~.9XV V 5X9XyXsXsXiX8XU v g R B { Y _ R ) T ! W w ; ",
"f < y.y.a./ O.o.y.o.A O.o.a.VXCXCXBXNX%XO.` _ &.O.#.| Z.L.K.P.gXjXjXjXjXoX}.U.<X1.5X<X6X7X0X7X>X_ T _ R R T { &.r.{ *.&.=.] ; = ",
"q y y.a.O.g._ d.m t.s._ t.VXCXCXCXVXBXI.*Xo.[ { i.*.X.| Z.D.F.K.|. X|.|..X{.Q.,X<X>X:X;X=X*Xt.o.O.r.%.&.Q K { r.&.-.r.u.&.*.u % ",
"w 8 y g.J j o.=.$.p d.(.-.VXCXCXCXCXVX7XI.qX[ &.-._ u.F | | Z.D.F.G.K.H.E.W.4X:X:X*X*Xz.O.r.*.&.u.z B u.~ -.P &.s.{ &.&.u.z.v % ",
"7 + y p h f p p c C < p s.BXCXCXCXCXBX0X<XI.$X0 : d.! J @.S | Z.#.D.A.F.S.R.2XI.l.H f _ t.-.s.s.f - f : U Q T { s.&.O.*.=.z.5 * ",
"> O = & % > + = @ & % @ @ BXCXVXnXdXiXiX<X<X:X%X; $ = , h.F S S D | +.A.#.A.H H G ^.K 9 > , d 4 9 $ $ & $ & 6 u < u Z c 1 : , O ",
"& O @ o O O X X X o O O O @ NX6XtX0XyX5X9X0X0X3X=XV.+ ).C }  .C M M S S D G F H w.O X X $ + 4 $ % X   O O O o   X o o X X . $ $ ",
"f @ x E / A B / m N O.( g.g.r.*X3X6X5X:X7XyXsXsXsXuXuXa.X.}  .@...} M M M M F T.i 5 f R s $ y U Z R x T R R z f v / i.c.=.8 ; # ",
"v : R q.q.o.R / ^ A / w.( O.0.0.B.V.=X:X<X9X0XtXtXrXeX} g K }  .L.L.D.@.R.;.S (.Q =.[ U B B Z Y _ W T Z B T _ _ ) R i.E 4 0 $ % ",
"l & g.q.A ^ / / 0.0.T / y.y.q.q.z C R E _ B.N.$XR ~ *.} P g g r I ' ^.S ;.@.) ~ &.-.W U _ O._ ` _ O.` ( _ B T &._ W O.g.r.b v % ",
"~ 1 R O.t.d.q.a.O.0.0.&.s.d.y.*.O.~ o.O.O.~ %.%.-.a.g..... .L t a t a a Y a C M u.{ ] [ r.u.t.t.O.*.&.&.u.v &.y.&._ ~ y.v.u.9 & ",
"7 > &.s.! o.s.h.X.R *.u.O.d.y.&.%._ _ ! &.$._ =.s.-.h. ...:.:.i.m.8.7.6.N N } } [ *.U &.Q ~ [ &.%.&.&._ R O.R o.i.&._ i.%.; ; O ",
"7 < a.&.X._ R &.t.d.g.t.a.t._ 0.&.&.&.K ~ ~ =.~ &.-.~ s.x.L.L.7.b.p.5.>.e.;.G { [ [ R Q _ Q ) ( _ O.O.O.[ *.T _ ~ u.~ -.-.~ q O ",
"q i E *.O.E o.t.o.o.O.t.w.~ O.O.O.*.O.o.T ~ R %.c _ O.u.t.d.qX5.p.b.b.k.V ,.3._ { _ [ _ ) { Q T _ _ O._ U ~ Q m *.R _ W ~ ~ %.% ",
", : ~ *.&.R t.Z y.O.y.0.0.y.t.y.t.*.w.0./ T _ &.&.O.O.t.t.i.3XaX7.b.b.b.l.N.V _ o.O.&.~ ` _ _ *._ _ O._ _ T %.t.~ u._ R K J d ; ",
"4 : 0.X.0.Z t.q.0.^ a.O.e.t.w.y.q.g.0.t.t.Z t.~ =.*.u.a.0.v.,X6X7.7.m.qXiX5Xo.m R _ _ _ _ _ O._ t.t._ ( / b _ %.~ U 0._ T * # + ",
"> 1 a.m E / / o.g.O.f.q.d.` f.y.a.t.y.O.o.0.j.y.t.o.v t./ 7.qXaXaX7.9.vXvXyX~ t.r.{ _ ) O.&.O.&._ _ O.B v Q f O.t.O.O._ d.m 7 % ",
"c 1 &.~ X./ O.y.! Z o.a.t.f.0.0.(.0.A y.*.t.y.s.O.O.g.o.O.7.m.fXn.k.1X6X8XwXm &.[ f ] &.&.) T ~ _ _ B R / _ _ ~ _ / t._ J s & * ",
"w @ Z B y.i.q.P R B d.A t.O.y.h./ q.x._ K *.X._ Z ( t.*.b.5.7.p.l.2.Y $X*.Q T ~ _ _ O._ ` _ t.O.~ T / _ O._ O._ o.&.Q [ f 4 - % ",
"3 o x 0.6.o./ T E _ O.(.O.q.y.t.t.y.o.~ _ q.i.r.O.u.^ x k.5.8.b.n.l.,.( R T ~ t.~ O.Q _ &.~ _ ` O._ _ R _ _ Y _ ~ Y Q R &.[ 4 = ",
"k o 2 a.O.O.~ v m T q.a.t.a.E o.g.g.O.w.O.r.a.t.*.Z A t.s.5.b.fXn.n.9.B W K O.o.0.o.R ~ ) Q %.y.y.O.) Q _ Q %.~ O.K U Q Q _ % % ",
"> o ( y.0.O.O.O.o.o.a.w.o.0.o.R o.c _ t.O.u.r.y.Z O.*.a.q.t 7.b.n.k.V A R ~ ~ T r.o.R _ _ _ &.O.q.t.0.( R / O.z &.B { _ -.W 4 = ",
"d = / E _ _ t.f.E ( 0.y.q.f.y.( m ~ _ O.O.o.~ O.m t.q.R ( y.y.g N x Z O.o.O./ ( &.&._ _ _ c.Z 0.0.q.0.X.O.O./ ~ B R _ ) -.9 + % ",
"r @ x o./ 0.( 0.q.Q y.0.y.f.0.O.W T v _ y.*.O.O.%.o.q.d._ &.c.e O B O./ o.O.O.q.O.O.) T O.E O.f.y.O.r.) Z w.R _ E ~ ~ x.K 4 6 & ",
"5 @ / a./ ( O.N N _ / 0.6.A 0.m U B B T _ ~ R c N y.t._ r.Q J 7 % ` R O.w.0.0.0.q.O.&.W ~ ! h.a.f.O./ _ T 0.r._ R R / f l K r % ",
"5 y X.o.Q _ Z U O._ ) y.0.O.q.w.m _ t.o.Z w v t.&.w.O.O.r.` ; * & 0.o./ w.a.0.r.O.q.y.%.%.! a./ t.t.O.R T O.( R *.t.0.u $ ; 3 & ",
"> & r.~ o.R x / / 0.6.r.t.y.y.g._ A T y.c Q w.` 0.y.i.` ( _ 4 s & 0.( O.0.t.X.r.y.O.y._ [ K o.O.t.0.Z _ _ O.( ( ( 0.0.y.) b q , ",
"5 @ / T b B q.w.q.y.y.q.0.q.q.0.y.T o.Z _ ) 0.^ / 0.6._ ` 6.6 9 1 y.A 0.o.y.i.0.O.a./ &.E n O.q.q.y.0.q.q.^ f.O.0.f.r.j v.u.L & ",
"& 2 ) O.i.0.g.0.0.f.O.O.0.O.R O.0.0.0._ / ` ) A y.^ y.r.t.` g.y : ( Y ( R b o.O.0.R h.d.R ~ q.t.O.0.^ 0.w.0._ O.y.O.y.Q y * & @ ",
"4 y E v a.t.O.g.q.0.f.` y.R o.y.0.0.0.( A O.^ A X.q.r.( t.r.g.R > y.0.O.O.O.o.o.~ -.t.R / E &.O.0.0./ 0.Z X.0.0.t.t.q._ j P q % ",
"4 2 Z K O./ 0.( w.q.0.R ^ K U R 0.( 0.` R A / O.` q.O.i.r.r.y.v & O.w.o.w.u.%.m 0.O.t.T Q E o.a.f.( 0./ q.t.r.y.t.t.O.g.v ; 9 % ",
", : R T O.0.0.O.( y.y.N N &.R ` ^ T 0.A / x E N N ` O.0.6.r.t.d.y R O.o.K ~ O.E O.&.B U K R R O.0.` ( f E ( f.y.g.f.0.y.r.^ O % ",
"q < / O.o.a.a.t.q.6.R 0._ m ) R / ` ( ` 0.O.0.0.( ` ( _ O.t.%.4 2 O.q.A 0.A O.A %.v c / O.q.O./ R f T B m T _ ` ~ _ ` ~ / W s ; ",
"b , T ~ O./ ( 0.( r.t.i.w.6.( 0.0./ A 0._ y.` y.g.y._ 0.0.*.Z * = N t.^ / 0.0.X.O.y.` _ q.O.0.6.( / / Q T &.*./ ( _ &._ r./ < > ",
"q < z o.y.&.d.y.O.0.O.O.y.t.a.E r.~ _ O.a.y.O.R y.a.a.g.d.x.E 9 : x c.X.q.t.r.g._ A 0.%.x.O._ o.f / t.O.Q w.y.0.g._ r.u.r.&.R 7 ",
"r u ] j c d.T t.y.t.0.6.t.6.` 0.v.O.u.^ / y.t.d.-.d./ f m &.o.P w k l j o.C q.g.O.^.w.t.%.b p O.i.y y.d.B N 0.v.R y.0.g.v.y.f 2 ",
"J > : = y @ = = w , 2 i , a N y = < u 7 = 5 - y , R T 0 w n r 4 % 0 $.J * &., w 9 , @ : w > > , 7 = , ; = 2 - < : * = 6 7 b 6 = ",
"> o = $ - % O X O + + 1 @ O + - o X O = & X O * @ = % $ $ % , O O : ; O , O @ % : O o = * % @ - - & O % - 9 O O & O & ; = p 5 < "
};
