/* XPM */
static char *_549f6a0072f4037c14bbe49ee25dcb24WChuTHh2MZGSc2J[] = {
/* columns rows colors chars-per-pixel */
"64 64 189 2 ",
"   c #000000",
".  c #090705",
"X  c #0B0907",
"o  c #0D0C0A",
"O  c #120E0C",
"+  c #15110E",
"@  c #19140F",
"#  c #141312",
"$  c #1B1611",
"%  c #1E1914",
"&  c #1C1B1B",
"*  c #21170F",
"=  c #231C14",
"-  c #291E15",
";  c #231E1A",
":  c #2C2117",
">  c #26211C",
",  c #2C231C",
"<  c #32261B",
"1  c #34281E",
"2  c #3B2C1E",
"3  c #252323",
"4  c #2B2622",
"5  c #2D2925",
"6  c #2C2C2B",
"7  c #332722",
"8  c #332A23",
"9  c #3C2D22",
"0  c #332D29",
"q  c #3B2E28",
"w  c #3C3024",
"e  c #36312B",
"r  c #3C342C",
"t  c #353433",
"y  c #3B3531",
"u  c #3E3933",
"i  c #3A3A3A",
"p  c #442F20",
"a  c #433425",
"s  c #493526",
"d  c #43352A",
"f  c #4A3729",
"g  c #45392D",
"h  c #4D3B2C",
"j  c #513E2D",
"k  c #453B34",
"l  c #4B3D32",
"z  c #443E3A",
"x  c #483F38",
"c  c #503F30",
"v  c #4E4134",
"b  c #47423B",
"n  c #4C433B",
"m  c #534234",
"M  c #5A4535",
"N  c #5B4836",
"B  c #544439",
"V  c #59463A",
"C  c #56493D",
"Z  c #5C4B3C",
"A  c #634532",
"S  c #614638",
"D  c #624D3D",
"F  c #694F3E",
"G  c #65513E",
"H  c #6B533E",
"J  c #444444",
"K  c #4E4A45",
"L  c #4C4C4C",
"P  c #534740",
"I  c #534B41",
"U  c #5C4D41",
"Y  c #574F48",
"T  c #5E5044",
"R  c #52504F",
"E  c #5E5348",
"W  c #545453",
"Q  c #595654",
"!  c #5B5856",
"~  c #5C5C5C",
"^  c #624F41",
"/  c #655243",
"(  c #6B5544",
")  c #6D5946",
"_  c #645549",
"`  c #6B5648",
"'  c #66594C",
"]  c #6D5A4B",
"[  c #715743",
"{  c #735B45",
"}  c #795D46",
"|  c #725749",
" . c #745D4B",
".. c #7A5E4A",
"X. c #6C5E52",
"o. c #615D5B",
"O. c #735F50",
"+. c #7B5F50",
"@. c #76614D",
"#. c #7B624C",
"$. c #6E6053",
"%. c #65615D",
"&. c #6B635B",
"*. c #736150",
"=. c #756251",
"-. c #776452",
";. c #796252",
":. c #7B6552",
">. c #7E6652",
",. c #796655",
"<. c #7E6755",
"1. c #7E6855",
"2. c #75665A",
"3. c #7C6758",
"4. c #7C6B5B",
"5. c #7E6A5A",
"6. c #636363",
"7. c #6B6560",
"8. c #6C6C6C",
"9. c #736B64",
"0. c #7C6F60",
"q. c #756F69",
"w. c #7E7569",
"e. c #737373",
"r. c #7B7B7B",
"t. c #82654D",
"y. c #84684F",
"u. c #896A4F",
"i. c #826651",
"p. c #836951",
"a. c #846A53",
"s. c #816A56",
"d. c #836C56",
"f. c #866D55",
"g. c #8A6D53",
"h. c #896E55",
"j. c #836D59",
"k. c #836C5A",
"l. c #896F59",
"z. c #8D7156",
"x. c #86715D",
"c. c #8C735C",
"v. c #917256",
"b. c #92755A",
"n. c #95795C",
"m. c #9A7B5D",
"M. c #816F63",
"N. c #867361",
"B. c #8C7663",
"V. c #8D7864",
"C. c #82766B",
"Z. c #8A7769",
"A. c #8A7A6C",
"S. c #947763",
"D. c #947B62",
"F. c #9A7D64",
"G. c #937E6A",
"H. c #857C75",
"J. c #887D75",
"K. c #817C78",
"L. c #84807C",
"P. c #8C837C",
"I. c #938377",
"U. c #A1836B",
"Y. c #848484",
"T. c #898786",
"R. c #8D8884",
"E. c #8D8D8D",
"W. c #918982",
"Q. c #948D89",
"!. c #949494",
"~. c #999593",
"^. c #9E9995",
"/. c #9C9B9B",
"(. c #A09F9E",
"). c #A4A4A4",
"_. c #A9A4A1",
"`. c #ACA9A6",
"'. c #ACACAC",
"]. c #B2AFAD",
"[. c #B3B3B3",
"{. c #BCBCBC",
"}. c #C3C3C3",
"|. c #CCCCCC",
" X c gray83",
".X c #DCDCDC",
"XX c gray88",
"oX c #EAEAEA",
"OX c gray95",
/* pixels */
"r $ < 1 f 9 M 9 < > ; I = $ $ m < a f h a f j d d n u 8 8 = E ' % , < 4 4 r , Y 1 = f d : 2 = 8 ; = a = = , < < $ = 1 $ , 8 e + ",
"o + O . O + O X . + o + X . % X . X X o + # % 4 O @ @ X , O + O $ O $ X . + # O + % X X X + X X X O X O O o X o X X X O X # 4 @ ",
"0 + M , / H  ./ m c B m > 1 ( { / Z f.#.{ y.M g v @...D > 9 / , + V m Z V D / / / / V m / M D / ] #.) H G G G D V Z B ( m U ^ % ",
"K X = ..N C { #.1.d.*.;. .f.:.,.1.-.j. .s.z.#.-.5./  . .j.n 5.E =  .<.] @.#. .#.5.] N.5.-. .` ( =.:.d.p.f.p.p.y.j.s. .<.;.<.u > ",
"t O 2 m h ( -./ x.@. .( ] 1...i.{ B _ *./ ) #.*.,.w s.-.] v k 5 = M _ ] B @.;.>.{ _ X.s.h.:./ ..j.:.1.#.h.;.d.j.f.<.;.] =.X.0 $ ",
"5 $ = d #... .-.#.#...t.:.@.#.....( Z ) ( @.#.`  .8 { 1./ ] l % + 4 { ` C )  .Z @.] ` ;.b.#...( #. .c...:.#.s.#.@.s. .` ( ` y = ",
"5 > = j ) { @.#.:.#...{ U /  .( D G ( D ) @...] ,.( h 1.` n 5.0 > m Z v D ..) { p.#. . .{ ] @.`  .-.#.#.#.@... .( ` V ( ^ U 3 < ",
"e O M } #.d.(  ...:.#. . . .` ] /  .] )  .( @.]  .:.l = : X.e u + l l U m  .:.@.-.]  .;.=. .@.f. .j. .` ..:.#. ...D / ] / ( & = ",
"8 = ( / ( ,.#.] #.#.@.:. . ...#.#.{ ] ` Z D ] ]  .,./ O $  .0 ; # 1 C C C _ ] ,.:.v. .a.=.:.;.j.] =.=./ Z ;.#.@. .:. . ./ ` B = ",
"8 @ g ) 1./ #. .#.:.#.] ;.1.] :. .:.;.H { { ] / Z ] Z  .Z v B ; $ B w v l ^ ` -.-.t.t.@.D.] s.` O.2.#.{ ] *.;. .@.{ #...s.d $ = ",
"; < [ #.@.{ #. .@.{ ..` :.s.#.-. ...( G ..` U  .) ( @.@.( 8 U b $ l / l M Z ( ,...#.` 1.C $ =.=. . .*.@.>. .;. .`  .] i.j.4 n ; ",
"4 : ( #.G ( ( / #.#.@.p.f.#.#.h.t.#.( / #...] { ) { t.#...X.0 u - / ] ^ /  .D ] :.=. . .d @.=.-.` :.#. .#.#...] ( Z (  .5.=.4 $ ",
"> $ x.V 3.s.] #...#.;.p.#.#.f./ t.z.#. .#.m *. .s.#.=.f.s. .*.# = ../  . .g B / | b 0 ` <.` ] #.;.n.{ ( #.#.s.:.O. .;.;.@.1.x ; ",
"k :  ...C @.@.#.=.a. .#.i...t.y.;.#.=. .] ^ ` ] / @.<.=.@.B B e $ (  .` =.-.#.@.x.( V ( -.{  .#.@. .{ { )  .O.t.t.(  .-. . .C % ",
"B w ;. ._ ( #. . .#. .#.{ @.#.#.` ..#.a.` Z ]  .#.;. .,.` ] ,.r : / ( (  .#.1.@.d d +.;.<.#.{ C / ..m { =.;.:.i.a.@.s.<.,...5 O ",
"T > ../ @.a.h.....#.#.:.#.#...y. .`  . ./ T ] ^ { #.;. . .' s.5 = g ( #. .@.l + <.O.<.s.f.p.#.p.#.f.#.t.#.#.a.:.#.a.t.i.a.c.v $ ",
"5 w { ` ]  .{ { t.g.{ [ b.t.h.h.n.h...{ =.` U  ...#. . ./ X.U z > d q > ^ X.h D  .#.;.1.:.#.i.t.) #.#.#.#.#.t...#.t.t.i.s.i.h + ",
"6 = @.5.]  .] ..#./ ` ] / a.:.p.y.b... ./ )  . .:.{ =.3.,.X.U n =  .; $ m ` i. . .=.]  .;.:...#.@.;. ...) ] D i.#.p.n.a.i.2.l $ ",
"6 + D ]  . .@.{ ..Z $.' s.@.#...g.#. . .@.@.( ] #.;.;. .=.] / 5 $ U  .U <.:.:.] ..f. .{  ... .` m D / ` | ;.` ` #.;.j.<.i.#.y $ ",
"> = ) D Z G =.]  .` T '  ./ ..,. .a.{ ( Z ] #.p.:.#.<._ { s.e & + M =.4 { j. . . ..... .:.#.;. . .` ( { U ]  . . . .O.=.@. .y O ",
"5 * / C / ../ =.D U ` ' ] / (  ./ #.#./ @. .#.#.:. .` #.] 8 q % $ ` D V [ ..` ..S 2.( / :. .` ] a. .{ / ^  .:. .{ ]  .C / ] > + ",
"; - ../ / #.-.Z ] B ] ] / ] #.@.G { {  .) #.@.;. ...;.3.O.Z d & + = / {  .{ ..:... .V (  .1.{  .@.{ D ) #.#. . . .] @. .] B % $ ",
"& = #.{ G  .(  .H T ` #.` { @.#.#.#.#. ./ ....j.I.P.~._.].`.`.(.~.!.^.^.~.Q.J.Z.M.^ ^ ] ,.@.{  . ...` { ) { #.{  .=...] _ 8 ; > ",
"y 9 n.] / ( ( ] ] ..)  ./ ` ( ..{ { { J.!.]. X.X.X.X.XOXOX.XXX X}.|.|.{.{.[.`././././.E.P.j. ./ )  .` / #.#.` @.<.#.;. .l 0 # % ",
"4 - g.:.)  .@.( D ) G G U V ( @.L./.}.|.}.{. X XXX.X|.oXOX X.X X|. X}.{.[.'././.!.E.Y.r.r.r.Y.T.A.( D / / ..@. .#... . ./ C 5 , ",
"4 < { Z Z N { V ( l Z / G H.E./.`.[.[.}.}.|.|. X X|.|.oXoX}.}.|.|.{.{.{.[.`.)./.E.Y.Y.r.e.e.8.8.8.r.K.l D ^ #.#.( ( ` / C / 3 O ",
"5 = } ..V G { m { / C &.Y.Y.E.E./.).'.{.{.}.}.}. X}.{..XoX}.|.}.}.{.[.'.'./.~.~.Y.Y.r.e.e.e.6.6.~ ~ 6.r.P.^  ./  ./ ) / ` ` e = ",
"k < g.a.f.{ #...s.@.R.e.e.r.!.!.~./.'.[.{.{.}.}.|.|.[.}.[.r.e.e.6.8.8.r.T./.!.E.Y.r.e.e.8.6.6.6.6.~ Q Q 6.Y...;.:.#.>.-.=.] > = ",
"e a z.z.#.c.@.c.Z W.6.6.e.r.Y.T.!.~.~.)./.~ & X                                 . o t ~ e.6.6.6.~ ~ W L W Q T.:.<.<.:.a.:.-.g $ ",
"r 2 a c.C v @.-.w.6.Q ~ 8.r.Y.Y.e.i                                                         & Q ~ Q W W L L W ^.j.,.<.,.x.N.B $ ",
"5 + p h h h h h T.Q Q ~ 6.e.R                                                                     & W L L L L e.j.;.=.<.2.5.8 % ",
"> O = = % > # = e.L Q ~ 6                                                                             # L J J 6.1 a D N 1 , , + ",
"% + @ O + + X X r.Q J                                                                                     3 L 8.o + + O X X # + ",
"k @ M ( { H S ) H.i                                                                                         & q.M ( a.B.2.7 ; O ",
"B > ( t.>. .( { { 7.& .                                                                                   & W  .] ( f.) , 9 + # ",
"n = v.y.H { { { t.#.2.6 o                                                                             o 6 &./ #. .( @.n.s.V m % ",
"_ 1 ( #.t.c.y.g...#.t.=.~ 6 # .                                                                   o 3 R p.V =.a.:.{ ] h.n.1.0 % ",
"0 , -.x.` @.j.n.#.) 1.j.:.c.q.i & o .                                                       X & t %.5. .`  .`  .s.;. .h.=., ; O ",
"8 , h.:.{ { ` -.f.z.n.p.h.a...#.1.o.i 3 & o .                                     . o # 3 t Q -. .#.#.#. .-.(  . .s.] 3.5.] e + ",
"0 g ) 1.>.( @.t.#.@.#.p.y.] #.#.#.:.#.@.] %.L i 6 3 & # # # o o o o # # # & 3 6 t J o.M.{  .] / { ..#.{ / ) ( U 1.(  .` ( ` X.% ",
", : { :.-.( :.G g.#.a.t.t.f.a.h.y.p.g.t.{ / { =.<.#.:.A.A.w.9.! W %.9.C.x.-.5...@.#.;.{ .. . .#. . .#...../ @.p.] a. ./ U I k = ",
"4 : #...t./ p.y.y.{ h.#.h.a.a.h.g.c.t.y.t./ t. .,.<.p.h.#...a.e : ( #.i.-.-.,.U `  . .{ ..{  .@.a.a...#.) V { @.` / t.{ / = # + ",
", 1 g.D { { { @.z.#.g.a.h.#.g.g.g.p.h.#.@.t.m.h.s.@.C p.{  .a.K > #.#.` / U ] :.i.=. . .;.:.#.;... .#.D V ( m #.1.#.i. .j.V < $ ",
"m 2 -.` { { #.f.` / @.z.p.v.y.t.U.#.[ s.<.a.g.j...#.v.;.#.@.f.z = a.-.{  .=.Z ;. .B ] ;.-.] (  . .` ^ ( { ]  .) ....i. .P k % % ",
"e $ G D h.h.y./ ` D h.{ a.#.h.b.} y.c.@.T :.#. .F ..a.:.<...@.b = ..G #.#.` ^ ] ) { @. .#...#.#.] ( { { .. .#. . .:.`  .B , > $ ",
"3 O M t.t...{ / ` { t.m.#.y.h.h.t.a.@.]  .>.p.s.#.s.( M [ t._ 4 $ { ( @.( _ ] f.] #.` ..:.]  ...#.{  .(  .../  .] / ( ( -. .4 % ",
"k O 9 z.#.t.{ B U / p.z.a.f.` ..b.z.#.h.#.p.z.a.i.G ( t.l.c.f.4 @ y.M G / / @.#.#...` ] { ] =.a.h.#.{ `  .` @.]  .U / ( (  .% $ ",
"3 O { h.t.#.#.#.#...h.a.#.t.@.)  .Z ..p.#.s.:.h./ #.:.g.t.a.t.r = H D ( / ) ` / :.@.( { { ..:.#.y.a.t...( { #.B #.D @. .5._ , = ",
"u = { ] .. .p.g.{ ..t.h.y.v.h.{ D )  .#.#.@.] #.Z p.t.{ ..a.a.U , / D #...@.{ ..#.#. .{ { V./ #.#.y.t.....#...] / (  .{ 1.q # # ",
"t @ M  .{ t.} #.y.{ z.t.u.v.#.#._ / V  .a.1.#.#.O.@.t.c...;.G.y + D @...@.#.} y.#.#.{ ( #.` #.b.h.#.a.{ G a.( { ] ) { x.T 4 7 % ",
"4 @ { f.....t.S D ..{ t...H #.D / D ^ / { ] ( V D a.i...#.` I 8 = #.( #.h.t.y.#.y.#.-./ ] ( n.h.z.#.{ { / #.i.{ ( ` ) l n U e $ ",
"5 9 #.@.` { D D  .[ [ g.t...p.y.D ] a. .D d N a.#.h...#.i...; % % t...{ y.h.#.t.#.t.a.;.*._ a. .p.1.#.( / #.{ ( :.i.t.g $ , 3 % ",
"4 = t.]  .( N { { t.t.i.g.g.h.v...H / a.Z ` y...t.g.i..... .4 u = t...#.t.a.#.p.h.#.d. .] ^ ..#.p.y.G  ...#...} } t.t.i.( V t , ",
"4 = { / Z D t.a.y.g.u.y.t.t.#.i.a.( ../  .` t.( { t.t.......1 e 8 p.F t.#.a.s.t.#.h...-.` C #.t.a.a.t.y.p.{ g.#.t.g.i.B c.s.I % ",
"$ 2 { #.f.y.v.y.t.v.:.#.t.#.( #.t.t.y. .{ ..[ ( u.[ g.t.i...z.d <  ./ { / V ..#.t.{ b.j.( ] t.p.#.#.[ #.y.#.@.#.d.t.g.` d ; & @ ",
"4 a ) B a.g.#.z.a.y.g...g.( @.a.t.#.y...( ..[ / ..y.y...a.g.z./ , y.y.#.#.:. .{ ] 5.p.( { ( #.:.y.t.} #.H ..#.t.a.p.y.{ v U e $ ",
"4 2 D U #.{ y...a.y.t.( { U / H t...t.#.( ( { #.#.y.#.a.t.a.h.B = #.y.#.y.s.=.^ t.#.i./ ) ` ..z.z.} t.{ y.t.a.h.p.a.#.v.B ; 0 $ ",
", , / / #.t.#.#...h.a.D S ;./ ..[ / t.H ` Z ` Z N ..#.#...i.i.s.s ( p.../ ) #.( #.#.^ ^ U ` ( #.t.#...h ` #.g.h.z.v.#.h.#.( $ $ ",
"e < { #.@.h.f.y.a.#.[ #...S [ ( { } } } t.#.#.t.....} ....i.O.8 2 } y.H #.) #.) @.V Z ) ..t.#.} ( m / D Z / ..#.{ { #.] ) ` r = ",
"B < / { @.....y.{ t.t.g.y.....t.#. .[ t.{ g.#.h.v.h.} t.t.p.D ; = Z p.{ { #.#.{ #.a.} ..t.#.#.#.} {  .` / #.<.{ .. .#...t.{ 8 > ",
"e < m O.f.#.g.g.t.t.#.#.g.y.g.{ t.]  .#.h.h.#.( g.z.g.c.l.c./ 0 , M D.@.i.p.g.b.] ` t.;.c...{ @.n { s.#.` y.a.y.g. .p.a.i.:./ 9 ",
"r d ] m Z j./ a.f.a.....s.t...y.S.#.j.{ { f.p.c.0.c.{ j D =. .T d n n v  .D t.c.#.D.a.p.*.V m ..s.a a.z.D S t.F./ f.t.n.F.f.l 2 ",
"I ; > = w = = = r < 9 s , j A s = < d 8 = 1 = s < / / r r C r 4 $ w X.I ;  .8 r 0 > * : r , , , 0 = , = = 9 - < , % = 8 8 C 8 = ",
"; o = # = $ O X O O @ 1 @ O + - o X O ; $ X O % + = % $ $ % , O o > = O , O + % , O X = ; $ $ = > $ O $ ; 0 + O $ O $ = = h 5 , "
};
