/* XPM */
static char *result[] = {
/* columns rows colors chars-per-pixel */
"64 64 127 2 ",
"   c #060504",
".  c #080706",
"X  c #0A0807",
"o  c #0D0B0A",
"O  c #110E0C",
"+  c #15110E",
"@  c #1A140E",
"#  c #110F11",
"$  c #161311",
"%  c #1B1611",
"&  c #1E1913",
"*  c #1D1A19",
"=  c #231B14",
"-  c #281E15",
";  c #231E1A",
":  c #291E18",
">  c #2C2117",
",  c #26211C",
"<  c #2B231C",
"1  c #32251B",
"2  c #33291E",
"3  c #3A2C1E",
"4  c #232121",
"5  c #2A2623",
"6  c #2E2925",
"7  c #2E2C29",
"8  c #312720",
"9  c #332A23",
"0  c #3A2D23",
"q  c #332D29",
"w  c #3A2E28",
"e  c #3C3125",
"r  c #36312C",
"t  c #3C332C",
"y  c #353334",
"u  c #3B3632",
"i  c #3E3A33",
"p  c #41301F",
"a  c #402E23",
"s  c #433325",
"d  c #4A3626",
"f  c #43352A",
"g  c #46392D",
"h  c #4B3B2D",
"j  c #523D2C",
"k  c #443C35",
"l  c #4B3D32",
"z  c #423E39",
"x  c #503F30",
"c  c #52402D",
"v  c #4D4035",
"b  c #47423C",
"n  c #4C433B",
"m  c #534235",
"M  c #5A4535",
"N  c #5C4937",
"B  c #544539",
"V  c #59473A",
"C  c #56493D",
"Z  c #5C4B3C",
"A  c #654733",
"S  c #614B36",
"D  c #624D3D",
"F  c #6A4F3F",
"G  c #65513E",
"H  c #6B533E",
"J  c #70543F",
"K  c #4F4B46",
"L  c #554B42",
"P  c #5C4D42",
"I  c #514D49",
"U  c #575047",
"Y  c #5E5044",
"T  c #5D5349",
"R  c #624F41",
"E  c #655243",
"W  c #6B5544",
"Q  c #6E5945",
"!  c #645549",
"~  c #6A5649",
"^  c #67594B",
"/  c #6D5A4A",
"(  c #725643",
")  c #735A45",
"_  c #795D46",
"`  c #725749",
"'  c #735D4B",
"]  c #7A5E4B",
"[  c #675F54",
"{  c #6D5E51",
"}  c #735E50",
"|  c #795F51",
" . c #7A6047",
".. c #76614D",
"X. c #7B634D",
"o. c #6D6155",
"O. c #756252",
"+. c #7B6552",
"@. c #7F6855",
"#. c #776658",
"$. c #7B675A",
"%. c #7D6A5A",
"&. c #7C6F61",
"*. c #805F4B",
"=. c #82654D",
"-. c #84684F",
";. c #89694F",
":. c #816652",
">. c #846A53",
",. c #8A6D54",
"<. c #836D5A",
"1. c #886E59",
"2. c #8C7156",
"3. c #85715E",
"4. c #8C725B",
"5. c #917256",
"6. c #93755A",
"7. c #96795C",
"8. c #9B7B5D",
"9. c #847261",
"0. c #8B7561",
"q. c #937760",
"w. c #947B64",
"e. c #9A7E63",
"r. c #9C836B",
"t. c #A5876F",
"y. c #A28A73",
/* pixels */
"t % 2 3 c 9 M e 2 < , U & $ % N < s c c e h c v t n i 9 2 & ^ o.$ 5 2 6 5 f < T 8 = d f 1 0 - 9 ; = d ; > < 2 2 & & 9 & 1 9 t + ",
"o + +   o + O X   + X + X X % X   o X o O O $ < o + @ X < + + o % O @ X   + $ o O = . o . O X X o O X O O o X o X   X o X + 5 @ ",
"r + M < G H O.H c c C B , 2 Q ) E Z >.X. .;.N v v ....D > q ^ < + N m Z V G W E R W V m W M R E / X.~ H G G G G N S n Q B Z Y & ",
"I . = X.N C  .O.>.<.O.+...2.@.#.>.#.%...@.2.X.O.%.G ..' 3.n %.T = ..+.' ....' X.%.{ 0.<.O.' ` W O.@.,.>.>.>.-.-.%.<.' @.O.@.i > ",
"y + p c h Q +.G 4.{ ' W ~ @.' -.Q V Y ..! Q ..O.@.0 >.O.{ v i 5 % N ^ / B X.+.@.' ! { <.,.-.! ' 3.X.@.X.2.O.<.3.1.$.O./ O./ 7 % ",
"6 @ = f =.....+...X...-.@...X.' ..W D / H X.X.~ { 2  .%.Y ..l & + 2 ) / V Q ..Z ../ ~ O.6.X.' ~ X.' 2...@...@.X...<.] ! W ^ u - ",
"9 < & c Q  ...X.@.X.' ) P E ..W D G ^ Z Q X.../ +.J c %./ v 3.7 , M Z v D ..Q Q >.O.} ] ( / ..Q ' +.X...X. ...' ~ ~ V ~ E P 4 2 ",
"r O M  . .<.E { ' :.+.' ] ..~ Q E ../ W  .W ../ { +.v & > { r z + g h Y v ..@...+./ ' O.O.' ..2./ 3.' Q ..+.X...` F W / E ~ $ ; ",
"9 % ) G W %.+.~ X.X...@...' ' X.X.) / Q Z Z Q / / @.! o % ' r * + 2 C C P ! / +.+.5.' ,.O.@.X.<.{ } ..! D +.X...' X.| ` ! ~ L ; ",
"9 @ g Q %.E X.] X.:.X./ O.@./ @.' @.+.H  . ./ W Z Q D ..Z v V * + Z e B l R W #.+.=.-.O.w./ <.^ O.O.-.' / O.O.O.+.` :.' <.f $ = ",
", 2 Q X...) -.' X.) ..W @.<.X.X./ ' W D ' ^ C ../ Q O...Q 6 P K + l ^ h M Z W @...X.^ >.L + +.O.` } ....:...O.] Q O./ :.1.5 L * ",
"5 > Q X.G W H E X.X...>.,.X.X.2.-.-.Q G +. .{ ) / Q X.X. .O.5 i - E Q E ! } D ) :.O.} { f X.O.+.Q +.X.' X...../ W Z W } %.O.: $ ",
"4 @ 3.V %.>.{ X.X.....,...X.,.G -.2.-.' +.l O.' >.O.O.2.<.` #.$ & X.! ' ..h B E ` b 8 ` %.~ ~ X.+.8.) W X.X.1.+.} ' +.O.O.<.z : ",
"l < ....B ......O.,.' ..:...-.-.O.O.O.' / R ~ / W ..@.O.} B B r @ W ] ~ O.+.O...9.W V ! +.' ' X...'  .) Q ....=.*.~ ] +.' ' L % ",
"B e ..] ! W ..' ' X.' X./ X...X.W ] ..,.Q Z / ] +.| ' @.~ { $.t - E W H ] ..<.' f s +.#.@.X.' C D ..m ' +...+.:.,.] >.:.$.| 5 O ",
"T - ' ! ..,.2. ...X.X.@.X.X.] ;.] Q ` Q W T ' R ` X.O.' } ~ 1.5 = g ~ +.] O.k O <.} :.:.>.>.O.,.X.3.X.-.=.X.>.@.X.:.-.=.,.0.x $ ",
"5 e ) ^ Q /  .) -.2.Q J 7.-.2.2.7.2.../ O.Q Z ..] O.` ] ! { L z : f w ; R } h R ] O.@.>.:...:.:.Q X. .X.X.X.=.] X.*.:.:.<.:.h O ",
"r % ..&./  .Q ' O.E / / Y -.X.@.X.7.) ..! ) ' ] :.' O.%.+.[ P L = +.= % m ! :.` } } / ..+.+.] +...#.) X.' ` D ;...;.6.>.:.#.x $ ",
"7 + Z Q / ....)  .Z o.^ <...X...2.+.X.' O...! Q ..+.O.] } { ! 6 @ R ` P >.+.:.` ' 1.` ` ] ] ' / l R ^ Q ` O.W ~ X.O.1.@.:.} u % ",
", , Q G Z G #.Q { ^ G ^ O.H ..@.Q ;.Q Q D Q X.>.+.+.>.! ` <.q * O V | 5 ` 3.| ` | ] ] O.+.} O.] ] W W ' R ` ' ' ....} +.} } f O ",
"7 @ G C E ..Y +.G C { E / G H ..G =.X.W ..' X.O.+...W O.` 5 w % $ ` D V ` _ W ] A | ! W @.] ~ / >.| ( E R ] +.' ` / O.C ! / * $ ",
"; > ..G G +.@.C / m ..{ E ..X...G ) ) O.~ X...+.] ` +.$.} R f ; O = W ` | ' ' :.| } x ~ ` <.Q } ] ' Z ) =.O.] ..] Q O.' } B & & ",
"* = X./ D ..Q ..H Z Q X.Q ....X.X.X...' E ] ' +.O.' ! +.` } l : o ; ` ..] ' W *.` R E } +.| / ] ' ] W ) W ) +.` } O.' ' ! < ; , ",
"i 9 7./ Y ^ H / / ....{ Y Q G ..) ) ) ` D ..:.O.] ..` #.` +.g ; % x <.] ` ' ] ` ` | :.} O.@...! ~ ' Q ! X.X.~ ..@...+.} l q $ * ",
"< > -.+.Q ....H D Q D G C Z Q Q W { ..' ' R W Q R X.) ..$.' <.8 % +.! ( ` +.W ] ' | ' ] } ' ` ( ~ W D W W ] | ] | ' ' / ! P 6 < ",
"5 1 ) N N M  .N H v Z G G m Z N H G Z Z ) H ! W X.) ..' / 0.x 5 = ~ D R ' ] ( ~ ` ~ ` / / ] ' W W W l l D R ..X.W ~ ~ E C W 4 o ",
"6 =  . .C G J v ..G C C N Q H / m W G ) E W W / ` ` W W ' f ! < % W ` V W ' | W W ] R _ ' E W ~ ( D V v W R | R ` W ` W ~ ^ t = ",
"v 1 ,.>.2. .X...<.O.H X. .2...X.E D )  ...] ] O.O.X.~ Q R U P ; O W C W / ' W ~ } +.] O.+.:.X.' ' W ' W E R | +.:...:.+.O.{ ; ; ",
"r s 2.2.X.7...4.S <.2.Q @.7.,.;.O./ 7.;.8.' ' +.1.:.=.0.w 6 i q & ~ h ~ ! +.| <.@.<.} 4.+.@.>.O...:.#.+.~ P | +.+.$.:.1.+.#.g % ",
"t 3 p 4.C v { +.[ c 2.y.%.O.X.r.< V J c D @.] O.%.] <.g q k q z $ ' m >.| ~ / @.O.<.4.0...>.+.+.>.m D <./ %.T +.<.O.@.+.9.9.C % ",
"6 + p h v c h c S S 2 c 2.4.%.N q % s e > s h s < 3.~ L f w ; 8 + ' %.C 3.w ; l h +.l / >.%.,.9.k - x : R Q ! O.0.+...@.%.&.2 % ",
"< + = = & < + & @ % % % @ & > , , n , @ % % $ ; : $ = < : h w l % = 0 k a w t s 0 n T q < < b < q $ % % O = 1 f 1 f G N 1 , 2 O ",
"% + @ o O O X X X O O @ O @ @ o o o O   X + o o + + + % O + O O @ % ; + +   o   O O   o # O 8 $ @ . . O O O o   X o o X X . $ $ ",
"v @ M Q  .H S  .N N X.) 7.5.,. .E l h h X.D E R Q )  .' ! ) S t > D 8 @ Z l 8 @ l 6 l W l $ s R W W M R W ~ m h m ) 1.w.$.0 , o ",
"B > Q X.X...J Q ) J ) ;.) -.X.-.~ W Z W H E Z C ) ] X.,.h l 0 t @ N V m ` V 8 ] ~ O.} E D D F R ' ! W F D R ' ' ' W 1.Q < w $ $ ",
"n & 7.;.H J ) ) =.X.W ( ,.-.-.-.m G W Q ' G / ~ W / >.1.Z 1 w 5 < g W ..' Q ..' +.%.! R ' :.' ' ] X.] ( ' D W :.] ! ..6.<.V V & ",
"^ 1 H X.@.2.-.,._ -.=...<.4.2.@.+./ ] +.-.~ O.O.<.1.6.q.q.h $ 5 ; d W @.] O.v >.<.O.{ ' @.>.:.>...@.+.+.>.V #.>.@.` / 1.7.%.q % ",
"q < O.4.E ..3.r.X.W @.<.X.4.,.+.O.' ` ^ O.{ ' %.<.<.w.4.>.6.` 5 % x E O.+.k t @.` $.R $.Q ' O.X.+.O.%.' W ..W ..>.O.' 2.O.< ; O ",
"9 < 2.X.....^ +.<.2.7.@.2.>. .X.X.#.@.Z ' / #./ O.%./ 3.3.~ k ; 8 h ~ ] E ] ` | ' } ! / Q ` ` ' ] X.+.X.O.@.E ..' <./ $.%.' r O ",
"7 c Q %.X.H X.-.X...X.>.>./ X.X.X.:.X.O.E / ~ O.S ' +.,.X.1.~ * $ l C B ] ~ <.' | ' | ] ` } / E ' ' X.Q P Q ~ Z %.W ' ~ ~ / o.& ",
"2 > ' X.@.H @.G ,.X.,.=.-.,.,.,.,.@.;.-.) ! / ..@.X.X.>.,.3.X.t < S ) X.@...&...O. .O.) | ' ' +.] / X.' ) E O.>./ 1.' W P L z ; ",
"< < X. .@.G ;.-.=._ ,.X.2.-.;.2.;.4.=.,.-.G :.' #.@.>.2.X.] ,.r > ~ =.>.X.#.@.Z Q { ../ ] ' ..] >.,.) ] ' C ' O.^ E -./ E & # + ",
", 2 2.D Q / ....5.X.5.-.,. .2.;.2.;.,.X. .-.r.,.:.X.B ,.) ) ,.K , -. .Q G C ' X.:.O.' ' ..:...X.' O.X.D m Q l ..:...X...0.Z 8 % ",
"C 3 X.^  . . .>.^ G ..2.X.7.;.X.t.X.J >.#.-.;.3...X.6...X.X.,.z & <.+.Q / #.Z +.] m / +.+.) ~ ' ' ~ D W ' ' ] Q '  .;.' L z % & ",
"r & G G ,.,.-.Y W D 2.) >.X.1.7. .-.0...Z @.X.' G _ ,.+.:.| | z =  .G X.X./ D { / ' ..' X.' :.../ W ' ) O.] X.' ] :.~ } x 5 : $ ",
"4 X M -.X. . .E Q / X.r...;.,.;.-.-.{ Q ..-.>.>.+.>.W M ` :.~ 6 +  .W X.H ! ..<./ X.~ ' +./ ] ' X.) ] W ' ] R ' / R ~ W +.} 5 = ",
"b O 3 5.X.X./ B Y E -.2.,.,.W ..7.4. .2.X.X.2.,.:.G W ,.2.0.,.4 + ,.V G E Y X.X.X...Q Q ` / O.,.,.X.Q Q ' ~ X./ O.R R W W } % $ ",
", o J 2.=.X.X... ...2.,. .X...Q ..N ..,.X.<.+.,.D @.X.,.=.,.:.u & J S W E / ^ E :.X.! ' ) ' :.X.-.>.:.' W ) X.v +.D | ' &.! 1 - ",
"k =  .) ' ' :.5.) ] =.,.:.7.;._ Z ' ' ..X.O.Q X.Z -.X./ ] ,.1.R > H G  . .X.) X.X.-.' ' ' w.D =.-.;.X.X. .X.' / G W ] Q %.q # @ ",
"y + M  .) -._ X.;.Q ,.=.,.5. .X.! R m ..,.@.X.X.O...-.6.' +.w.u O D X.) X.X. .-.X...` W ..Q X.7.,._ -.` Z ,.Q ) / / ' 4.T 5 8 % ",
"5 @ ) 2.` ] =.S S ] ' -.] H =.D E D R H ) / Q V Z ;.@.' =.~ L 8 % =.! X.2.X.-.=.>.X.+.! / ~ 7.,.5.X.) ' E =.:.) W Q Q l n P u % ",
"6 e  ...) ` D R ..) ( >.=. .,.;.Z ' :...E t V >.X.5. .X.:.| ; * @ ;. ._ -.2.X.:.X.;.>.#.O.^ ,.) -.@.X.W W X. .H :.:.=.f $ < 4 % ",
"< % -./ ..! M Q ( -.*.=.;.5.,.5.' H E 1.Z ~ ;.] -.,.:.] ] ` 6 k & X.X.X.X.,. .:.;. .3.' / E ' -.>.;.G ' ) ...._ _ =.-.,.` C y < ",
"6 & ) ! V S -.,.;.;.;.=.=.:.=.:.;.E ' G ` ( =.( _ =.=.] ] *.8 w 2 ,.H =...,.:.-.X.2.) X./ C X.:.>.-.=.;.>.) 5.X.=.5.:.v w.,.U % ",
"% 3 Q -.2.=.5.;.*.5.+.=.:.X.W =.=.=.;.) ( =.( H ;.( 1.=.:.] 6.a < _ H ( W B  .X.-.Q 8.3.W Q -.;.X.X.J X.;.=. .X.<.X.,.Q f * % % ",
"5 s ) n ,.,.X.2.:.;.5.X.,.E ] ;.-.X.-.' H X.( H ] -.-.' ;.;.5.W ; -.-.-.X.@.] ' / %.:.Q ' Q ..+.-.-._ =.G  .X.-.,.:.:.) v P r % ",
"5 3 G Z .._ -._ ;.;.*.( ` P R ( =._ =. .W W ) X.] -.X.>.-.>.2.B % =.-.X.;.@.O.Y X.X.>.E Q Q ) 5.5._ =.( -.-.;.,.,.>.X.6.B ; q % ",
", > W E X.=.=.X._ ,.;.D S +.E ] ( W =.F ) M ) Z S =.X.=.] -.@.3.d W :...Y Q X.H X.+.R R P W W X.=.X. .l W X.,.,.5.5.+.,.=.( O % ",
"r 1 _ X. .1.1.;.>.=.W *.' S ` J ( *._ _ =.X.=.=._ ] _ ] _ >.O.6 3  .;.H -.) X.) O.M Z Q X.-.X.) W l E D Z ! ' X./ ' ..Q ' ! i - ",
"C < ! ) ..) ' ;.` :.=.5.;.*._ =.X.' J -.) ,.X.,.5.1.` =.:.:.G = = N :.) J X. ._ X.,. ...-.X.=.=.*.) ) / E ..+.` ] ` -.' -.) 8 , ",
"r 1 c O.1...5.,.=.=.] =.;.;.2.( =./ ' ..2.,.X.W ,.6.,.6.3.4.Q 7 < c r...-.>.-.7./ Q X...4.X.Q X.l ( >.+.W ;.,.=.5.] :.,.:.+.W 9 ",
"i f { v Z 1.W :.,.:.*.*.>.*.] :.e.X.<.( ) ,.:.0.%.2.( l G ....U t b v v ..S -.6. .r.,.>.O.C c X.>.s 1.2.D S =.e.! ,.=.q.e.>.l 3 ",
"L ; < = a % = = u : a d 1 j A d = 1 g 9 = 2 = d < W ! f u C u 2 & e o.U & #.2 r 0 , @ > t , < , q = < ; - a - 1 < % = 9 8 V 8 = ",
"; o - + = = O O O O + 8 + O O : o X O * % X + % @ = % + @ % < O o < & O < o @ & > O o ; * % @ - - % + @ : q O O % O % = ; l 8 1 "
};
