/* XPM */
static char *result[] = {
/* columns rows colors chars-per-pixel */
"64 64 223 2 ",
"   c #070605",
".  c #090705",
"X  c #0B0907",
"o  c #0D0B09",
"O  c #120E0C",
"+  c #15110E",
"@  c #1A140F",
"#  c #161311",
"$  c #1B1611",
"%  c #1E1914",
"&  c #1D1A19",
"*  c #21170F",
"=  c #231C14",
"-  c #291E15",
";  c #231E1A",
":  c #2D2217",
">  c #26211C",
",  c #2C231C",
"<  c #32261B",
"1  c #34281E",
"2  c #3B2C1E",
"3  c #252221",
"4  c #2B2622",
"5  c #2D2825",
"6  c #2F2C29",
"7  c #332B23",
"8  c #352924",
"9  c #3B2D22",
"0  c #332E29",
"q  c #3D3124",
"w  c #37312C",
"e  c #3C342C",
"r  c #353331",
"t  c #3B3531",
"y  c #3E3934",
"u  c #442F20",
"i  c #433325",
"p  c #493526",
"a  c #43352A",
"s  c #4A3729",
"d  c #45392E",
"f  c #4C3B2C",
"g  c #523E2C",
"h  c #453B34",
"j  c #4B3D32",
"k  c #473F39",
"l  c #503F30",
"z  c #4E4034",
"x  c #47413A",
"c  c #4B433A",
"v  c #534234",
"b  c #5A4535",
"n  c #5C4936",
"m  c #544539",
"M  c #59473A",
"N  c #56493C",
"B  c #5C4B3C",
"V  c #674C3A",
"C  c #624D3D",
"Z  c #65513E",
"A  c #6B533E",
"S  c #4E4A45",
"D  c #534B41",
"F  c #554A45",
"G  c #5C4C41",
"H  c #5E5044",
"J  c #5E5348",
"K  c #624F41",
"L  c #6C414B",
"P  c #655243",
"I  c #6B5544",
"U  c #6D5946",
"Y  c #645549",
"T  c #6B5648",
"R  c #66594C",
"E  c #6D5A4A",
"W  c #715643",
"Q  c #735B45",
"!  c #795D46",
"~  c #725749",
"^  c #735D4B",
"/  c #7A5E4A",
"(  c #6A4853",
")  c #6D5E51",
"_  c #735F50",
"`  c #7A5F50",
"'  c #76614D",
"]  c #7B624C",
"[  c #6E6053",
"{  c #756252",
"}  c #7B6552",
"|  c #7E6855",
" . c #7B6758",
".. c #7C6A5A",
"X. c #7C6F60",
"o. c #AF2763",
"O. c #AD2C65",
"+. c #A52E6A",
"@. c #AC2C69",
"#. c #B72E69",
"$. c #A8306C",
"%. c #B7326C",
"&. c #AE3C71",
"*. c #BB3075",
"=. c #C23658",
"-. c #C72D68",
";. c #C3316A",
":. c #CC326C",
">. c #DB356B",
",. c #EB346E",
"<. c #82654D",
"1. c #84684E",
"2. c #896A4F",
"3. c #826651",
"4. c #846A53",
"5. c #8A6D53",
"6. c #836D5A",
"7. c #8A6F59",
"8. c #8D7156",
"9. c #85705D",
"0. c #8C725C",
"q. c #917256",
"w. c #92755A",
"e. c #95795D",
"r. c #9A7B5D",
"t. c #AF4F6E",
"y. c #BB5375",
"u. c #BE5679",
"i. c #897562",
"p. c #947B62",
"a. c #977B64",
"s. c #96797A",
"d. c #AB6D6F",
"f. c #B5647E",
"g. c #A97377",
"h. c #C7496D",
"j. c #D24F6D",
"k. c #C2536A",
"l. c #C94C77",
"z. c #CB457E",
"x. c #C65879",
"c. c #C35D7B",
"v. c #DA5774",
"b. c #F54B6F",
"n. c #E6576F",
"m. c #E45272",
"M. c #E95675",
"N. c #F75577",
"B. c #FC5174",
"V. c #F45579",
"C. c #CE6374",
"Z. c #D76D7D",
"A. c #DC687C",
"S. c #E0687A",
"D. c #A1866E",
"F. c #AE6A84",
"G. c #C94882",
"H. c #CC4A81",
"J. c #D34B84",
"K. c #DB4C85",
"L. c #CE5588",
"P. c #D75985",
"I. c #D45C85",
"U. c #F54F83",
"Y. c #E65C87",
"T. c #F25B88",
"R. c #FC5B8A",
"E. c #C96489",
"W. c #CE6A8D",
"Q. c #DE6484",
"!. c #DE628A",
"~. c #D36A8E",
"^. c #D96A8F",
"/. c #D57285",
"(. c #DB7284",
"). c #DC728C",
"_. c #DD6192",
"`. c #D46C91",
"'. c #D96C92",
"]. c #DB679F",
"[. c #D07699",
"{. c #E26685",
"}. c #E36986",
"|. c #E2648A",
" X c #E36A8C",
".X c #F6678D",
"XX c #FC678E",
"oX c #E0778F",
"OX c #EC6695",
"+X c #E66D91",
"@X c #EB6C92",
"#X c #F26791",
"$X c #F46991",
"%X c #EB7395",
"&X c #E77899",
"*X c #F37494",
"=X c #FB7494",
"-X c #FC769A",
";X c #F4789A",
":X c #FC799E",
">X c #D772A7",
",X c #FE79A2",
"<X c #FD7CAB",
"1X c #AB918D",
"2X c #BE9A9C",
"3X c #ED839D",
"4X c #DF92A7",
"5X c #D386B5",
"6X c #E386A9",
"7X c #E78AB1",
"8X c #FB82B6",
"9X c #FD81BA",
"0X c #D6ABBC",
"qX c #E3A6B5",
"wX c #E6A9BB",
"eX c #E2ACBB",
"rX c #F8AABE",
"tX c #E3B2BC",
"yX c #FB92CB",
"uX c #F593D0",
"iX c #DAADC1",
"pX c #D8B5C7",
"aX c #F0B6C0",
/* pixels */
"e $ 1 1 s 9 v q < : > S % $ $ b , i f z q p z p i c y 1 1 % J R & , 1 5 , e , J 8 * s a < 1 = 8 ; = i - = , < , % * 1 $ , 7 w + ",
"o + + . O + + o . + o + X . $ X X o X o + + % 5 + + + o , O + O $ O @ X . + $ o O = o o o O X o o O o O + o o O o X X o o @ 3 @ ",
"0 @ b , Z Z ' A v v m m > 1 U Q H B 5.] Q 1.n d z ' ' B > 9 P 4 + B z B M C P P P V M v P M C P E ] U A Z Z Z Z m B m I v B P % ",
"S o * ' n n ' { | 4.' ' ' 6.| } | } ..' 4.8.] { ..Z ' ^ 6.x ..J > Q } E / ' ^ ]  .) i...` ^ U I { ] 6.4.4.| 1.1.5.| ^ | { | y > ",
"r + 2 v z A { Z 9.' ^ U U | ^ 3.U b J ' Y U ' { | q 6.' E z h 4 % M R E m ' } } ^ R E 6.5.<.P ^ 6.] | ' 5.{ 4.9.6.3.{ ~ { E 0 $ ",
"5 @ * i ] ' ' { ' ] ^ 1.] ' ] ' ' U B U A ] ' T ^ 7 Q | Y E j & + 1 U U B E ^ B ^ E T { w.' ^ T ' ' 8.' | ' | ] } 6.^ Y T Y t = ",
"5 > = g A ' ' ' } ] ^ Q G P ^ I B Z I Z U ' ' ^  .I z | T c ..0 > v B v C ' U W 4.' _ ^ Q E ' T ) ] ' ] ] ' ' ^ I Y m U P B 3 < ",
"w + b ] ] 1.A ' ^ 4.} ^ ^ ' T U I ) U U ' Z ' E E ] f = : ) w y + f j G z ^ | ' } E E } } ^ ' 5.' 6.' U ' ] ] ' ^ V I E P Y & > ",
"7 = U Z I  .] E ] ] ] | ^ ^ ^ ' ] Q E U B B U E E } P o $ _ 0 ; + 1 m B G P E }  .q.' 4.' } } 6._ { ' T B { { ^ ^ } / _ P Y F = ",
"7 @ d Q | T ' ' ] ] ' E { | E } ' } ] A ' Q U Y H E C ^ B k N > $ N q z k K U { ] <.<.{ p.E 6.R _ { ] ^ E { } ` ` ~ ` ^ 6.a $ = ",
"& 1 A ] ' ^ ] Q ] Q ' I } 6.] ] E ' T Z ' U B ' U U ' ' I 8 F x $ j Y z b B P  .' ] T | N % { { ^ ) { ' | ^ } ^ ~ ^ E 3.7.4 k ; ",
"4 : U ' Z I I I } ] ' 1.5.] ] 8.<.<.I Z ] Q E E U U <.] ^ _ F K.+X` U C Y ^ V ~ } { ) ^ a ' { } U } ] Q ] ' / E Y C Y `  ._ 4 $ ",
"> * 9.B  .| E ] ' ] ' 4.' ] 5.P ] 7.<.^ ' v { ^ | } { 5.4.7XP.'.'.;X4X^ / d m K ~ c 0 U { T E ] } e.Q A | ] 4.} ` ^ } ] `  .k ; ",
"h , ^ ^ N ' ^ ' ' 5.^ ] 4.^ <.1.} / } ^ E K T E I ^  .2XL.P.J.'.`.;X*X6X2X} } ` 9.T M T { ^ E ' ^ ^ ! ^ W ' ' <./ T ^ } _ ^ F * ",
"m q } ^ P T ' Q ^ ' ^ ' ^ ' ' ] U ^ ' 1.U G E ^ ` 3.eXJ.J.K.'.'.`.`.;X&X;XqX6.^ a a / { 3.} W B H { b Q { ' ] 3.4.' 4. .} } 4 O ",
"H , ^ P ' 5.5.' ' <.' | ] ] ! 2./ T ^ ^ P P ~ P iXiXH.H.J.J.'.`.`.`.%X%X%X%XwXiX .`  .3.7.3.} 4.] 5.] } <.] 4.3.' 2.<.3.4.0.j $ ",
"4 q U R U U ' Q | 1.Q Q q.1.2.8.q.8.' ^ { U s.qXY.G.H.J.J.`.^.'.~.`.~.%X%X%X%X%XqX1X} 4.3.' 3.<.U ' ] <.] / <./ <.<.3.3.4.3.f O ",
"6 % ' ..^ ' U Q ] Z E E Y 1.} } 1.q.^ } Y wXqX:.:.H.G.H.H.'.`.`.`.W.W.%X+X+X+Xc.c.eXwX} } } / } ' { Q ] ^ T C 3.' <.w.4.}  .j $ ",
"6 + Z E ^ ^ ' ' ' N ) R | ' ] ' 8.] ' 1XrXrX;.-.;.z.H.H.'.'.^.^.~.`.~.E. X+X+Xu.x.u.wXtX2X/ ^ E v C P U ~ ` T T ] } 7. .3.` t % ",
"> = U C B Z ' Q ' U H R ' P ' | E 1.' 0X[.@.>.%.@.z.G.z.+X'.'.^.W.~.~.@X+X X|.y.y.v.N.3XaX^ ' ^ ^ I T E K ~ ^ ~ ' ^ ^ { _ ^ t O ",
"5 @ Z N H ' Y ' Z H R R E A A ' A ] eX&.O.+.O.+.#.,.G.@X@X^.^.~.~.~.W.$X$X|.{.y.t.V.N.V.x.tXU E 4.^ ~ P K ^ } ^ E ^ ) B R R ; # ",
"> : ' H P ' } B U c E ^ P U ] ' Z ^ *.*.$.+.+.-.#.o.z.$X$X^.^.~.~.~.W..XXX|.k.l.l.B.B.x.y.y.~ ^ / ~ K U ] / ^ / ^ E ^ ^ E m % % ",
"% > ' U B ' U ^ A Z U ' U ' ' ' ] ] g.Q.%.@.@.-.#.o.|..X$X^.^.~.~.W.W.XXXX.Xt.t.j.b.N.h.v.d.E ^ ^ ^ U W U ^ ' ^ _ ` ^ ^ Y 4 ; ; ",
"t 2 w.' J I I E U ' E ' H I A ' U U Q  X).f.l.o.,.>.#X#X#X^.^.^.~.~.!.XXXXR.m.b.N.=.t.C.x. ./ P U ^ I I ] ] U ^  .' ` _ j 0 # % ",
"3 : 1.} U ' ' A Z U Z Z N N U U I ' ' ^ }.-X=XC.L.U..XT.T.Y.P.P.I.I.Y.R.R.R.V.h.k.Z.Z.n.' ^ ^ ~ ~ I V P P ^ ` / / ^ ^ E Y G 4 4 ",
"3 1 Q n n n ' n Z z n Z Z v B n Z P B B W }.:X=X*X*Xy.{.}.{.}.}.{.A.|.S.Q.n.A.Z.Z.Z.C.Q W ' E T U P j j C K ' ' P U T P G K ; O ",
"1 - ] ' n Z A z ' Z N N n A Z U b A Z U I ~ @X:X-X=Xy.M.}.{.{.Q.{.{.{.{.v.M.Z.Z.(.A.T ^ ^ P A U I V M l I C _ K ^ I T I T T w = ",
"h < 2.1.2.! ] ' | ' A ] ' 8.] ] K C Q ] ^ / g.,X-X-X=Xn.|.}.{.|.Q.{.{.Q.m.S.Z.(./.d.^ } } 4.] ^ ^ P ^ I P P / } 3./ 3.} { ) ; ; ",
"w i 8.8.] 0.' 9.n 9.9.Q | w.2.2.{ E q.2.r.' ^ F.,X:X;XV.}.}.}.|.|.|.Q.{.B.(.(.).u.4.' 0.]  .4.{ ] 3.{ } T G } } }  .} 7.}  .e $ ",
"q 2 u 8.N z ' ] E z 8.D.X.] ' D., N A g C ] ^ } E.<X,X%XI.|.|.|.|.}.|.|.Q.(.).C. ...0.9.] 4.}  . .v C 6.E  .J } 6.} } } 9.i.m % ",
"5 + u z v z z v n n 2 z | 8.| n 0 = u q : i f i : <X<X,Xt.!.}.|.Q.!.!.h.).oXoXf f { l E | ..6...k - j < G T P ` 9.{ ' }  ...7 % ",
", + % * % > + @ @ % * $ @ = : > > x & % $ $ $ ; ; ; 8X<X|._.P.|.|.P.I.A.oXoXd i 9 c G w , , j 4 7 + $ $ # = , d < d C M 1 , , + ",
"% + + + + + X O X + o @ + @ $ + O + O X o + O o + @ ( 9X<XI.P._.|._.Y.&X&XL X   O + o O + + - & $ o X O O O O . o O + O o o $ O ",
"d @ n A Q A n A n n ] ' q.q.1.Q K h f s Q C P B W Q Q [.9Xl.OX_._._.j.3X&Xf 5 @ d 8 j P d $ i K V I v K P P v j b ~ 4.i.{ 8 ; O ",
"v : A 1.] ' A ] A W Q 1.! ] <.<.I P C I P P B B U / ' 4.yX9X_.'._._.>X6XT b 1 ^ Y ` ) K K C V K Q T P I B P ^ ^ E I 5.U , 9 $ # ",
"x > q.1.A Q A Q <.<.A Q 2.2.<.<.b Z P U U I T T T E 4.7.B uXI.>X].Y.6X} W U ^ ' } ..Y K ~ 3.~ _ ^ / ^ ^ ^ V I ] ^ T ' 0.3.M m % ",
"Y 1 A ] ] 8.1.1.! ] <.' 5.9.8.| } T ^ ' ] T { { 5.5.0.p.w.j uX>X>X6X~ } ^ { m | 6._ _ _  .4.3.4.] } } } 4.M { 4.} E ^ 5.p. .0 $ ",
"7 , ] 9.R ' 9.D.] U | 6.} 0.4.| { ^ _ T ' { ) | ..6.w.0.4.9.F.5X5Xs.Y ` } j a  ._ } K ` ~ ^ ^ ' } } | ^ U ^ U { 4.` ^ 7._ 4 ; O ",
"1 : 8.] E ] E ] 4.5.w.4.8.4.' ] } { } P E E { E }  .^ i.9.T h pX0Xa I ^ I ^ ^ ` _ _ T T ^ T ~ ^ ^ ' ] ' ^ } I E ^ 4.E  ...E e O ",
"0 z U ..| A ' | ] ' ] 4.1.U ] ] ] | } ^ Y T T _ B ^ / 6.} 5.T ; # j M M ^ Y 6.E ` ^ ^ ^ ^ ^ T I ^ ^ ] ^ K E T B  .T E T T T ) ; ",
", : ' ] { A | Z 5.] 2.1.<.5.4.5.1.4.5.<.Q Y ^ ' } } ] 4.6.5.] e , n W ] } { ..' [ ] { Q / ^ ^ } ^ E ' ^ ^ P ' 4.R 5.^ P G F y ; ",
"4 : ] ' <.A 1.1.1.Q 8.' 8.1.2.5.2.0.<.2.1.Z 4.E  .} 4.5.<.' 4.w : T ] 4.} }  .B U E ' ^ ^ ^ / ' 4.5.Q / U B ^ ' T P ] ^ I = # + ",
"> 1 8.Z ' A ' ' 8.' 8.1.5.] 5.2.8.<.5.] ' ] r.5.4.' N 4.U Q 4.S > } ] U Z D E | 3.{ ^ E ' } / } / ^ ] V M I v ^ | ] ] ' 6.M 4 $ ",
"m 2 ] R Q ' ] 1.E Z ' 8.1.8.2.<.D.] A 5.| 4.5.6./ / w.] ] ' 5.x = 4.] U ^ { B ] ^ m ^ ' } U T ^ ^ E C P ^ E ^ ^ ^ ' <.^ F h % % ",
"w * Z Z 2.2.1.Z I C 5.Q 4.] 5.w.] 1.0.' H | ' ^ A ^ 4.}  ./ ` x : Q Z ] ] U Z E U ^ ^ ^ ' ^ } / E I Q ~ / ^ ] ^ ^ } T ^ m , - $ ",
", O v <.] ' ' H U E | r.' 2.5.2.] 5.) U Q 1.2.4.] | W b W <.R 4 @ ' A ' I Y E 9.U ] T ^ } E ^ / ' Q ^ I ^ ^ P ^ ^ K T I } ^ 4 & ",
"y + i 8.] ] U m B I 1.8.5.5.U ' w.8.] 2.] 1.8.4.1.Z I 3.7.w.4.4 + 1.M A Y J ] ] ] ^ U U ~ U } 4.5.] ^ I ^ T ' T ^ K P Y T _ % $ ",
", o A 2.<.] ' ] ' ' 5.1.] ] ' U ' n ' 4.' | | 5.P ] <.5.<.4.3.a = A V Z Z U U H 4.' T ^ ^ ^ } ] <.2.<.^ U W ' m } K ^ ^ ..Y , = ",
"y = ' Q ' ^ 1.5.Q / <.5.<.q.2.! G U ^ ' ] ' U ] C } 1.U / 4.4.G : Z V ] ' ' Q ^ ] <.^ E ^ p.Z <.<.<.<.] ' ] Q T P Y ^ ^  .w + + ",
"r + n Q W ] / ] <.Q 5.<.5.q.<.' P P N ^ 5.| ] ] ' ' 1.0.~ ` s.e + C ] Q ' <.! 2.] ' ~ I ' U ] q.5.] 1.U C 2.U Q U U ~ 9.G 4 8 = ",
"5 @ Q 5.Q / <.C C ^ ! ] / A <.C K C K Z Q E U m C 2.} ] <.~ S 8 * ] I ' 2.1.2.] 4.] } R E T e.5.q.] Q ^ I ] <.Q U U U j c G 0 $ ",
"5 2 ] ' ~ W C K ^ Q W 5.<.! 2.<.B ^ 4.' C e M 4.' 5.! ] 3./ ; ; % <.' Q 2.2.] <.' 2.4.} [ R 2.Q 1.4.' A A ] Q A } <.<.d $ , 3 % ",
", % 1.E ' Y b W W <.<.<.2.5.5.q./ A P 4.B I <.<.<.2.3./ / ~ 4 a = ] ] ] <.4.] <.2.] 5.^ E P ^ 1.4.1.V ^ Q ' ] ] ! <.<.3.T B w , ",
"5 % U U B C <.2.<.2.2.<.<.<.<.3.3.P ^ P ^ W <.W ! <.<.^ ! <.8 w 1 1.A <.' 2.4.<.] 5.Q } R B ] } 3.2.<.1.1.Q 8.] <.5.<.m 0.6.D % ",
"$ 2 U ] 5.<.8.2.<.q.} <.<.] I <.<.<.<.Q W ! W A 2.W 5.3.3./ 8.a < Q A W P B ' ] <.U w.5.U U 1.2.' ] W <.1.<.' ] 5.] 5.T a > & + ",
", a U v 4.5.] 8.3.<.q./ 5.U ^ <.<.<.<./ I / W A ! <.3./ 2.2.q.K , 2.<.<.' 4.^ ^ E ..| U W U ' } <.<.! <.A Q ] <.5.4.2.Q z D w # ",
"4 2 C K / W <./ 2.2.<.W W F K W <.! <.! I I W ] ! <.] 4.<.4.8.m = ! 1.] 1.6.' H <.] 3.P U U Q q.q.! <.Q 2.<.4.5.4.4.] w.m = 0 $ ",
", , A P ] <.<./ / 2.3.V V ` K / W I <.A P V I C C <.<.<.<.<.} 6.i U } ' Z U ] A ' ] P C C T U <.<.] ! j I ] 5.5.8.8.] 5.<.I $ $ ",
"w < Q ' ' 5.7.2.3.<.W <.~ C W W Q ! Q ! <.] <.<.! ! / ^ ! 3.[ 5 2 ] 1.A 1.A ] A ' M B U ' <.<.A A l Z B B P ^ / E ^ ' E U T e = ",
"m < Y W ' ^ ^ <.! <.<.5.<.<.! <.] ^ A <.Q 2./ 5.q.5.Q <.<.4.Z ; = B 1.Q A ] ] ' ' 2.] ^ } ] ] <.! Q ^ U Y ' } ~ / ^ <.^ <.^ 8 > ",
"w : v _ 3.` 7.5.<.<.! <.2.<.2.~ <.^ ^ / 5.5./ I 5.5.5.w.9.0.Z 0 : v D.' 1.1.2.q.) U 1.' 0.' U ' k Q 3.] I 2.4.<.7.^ 3.5.3.} P 8 ",
"e a E c V 6.P 5.3.<.<.<.3.<.<.<.p.' 6.W W 5.4.i.X.7.W l Z { ' H e y x z ' Z 1.w.] r.4.4.' b v / 4.p 4.0.C V <.r.I 5.3.w.a.5.l 2 ",
"D ; , = u % ; = e < u p : g b p : < i 8 = 7 = p < I K e e N y , % q R N > ' 1 e q > $ : w , , , 8 = , = - 2 - < : & = 8 8 N 8 = ",
"> o = $ = $ O o O O @ < @ O @ - o . + ; $ o O % # = $ $ @ % , O O : > O > + + % : O o & & $ @ = , $ + % - w O O $ O $ = = f 8 , "
};
