/* XPM */
static char *result[] = {
/* columns rows colors chars-per-pixel */
"64 64 236 2 ",
"   c #010101",
".  c #090705",
"X  c #0B0907",
"o  c #0D0C0A",
"O  c #120E0C",
"+  c #0E100D",
"@  c #15110E",
"#  c #19140E",
"$  c #151312",
"%  c #1B1611",
"&  c #161A17",
"*  c #1E1914",
"=  c #1C1B1B",
"-  c #21180F",
";  c #231C14",
":  c #271C15",
">  c #231E1A",
",  c #1D231E",
"<  c #2B2117",
"1  c #25211C",
"2  c #2C231C",
"3  c #32261C",
"4  c #34291E",
"5  c #3A2B1E",
"6  c #1C282B",
"7  c #242322",
"8  c #2A2622",
"9  c #262D23",
"0  c #2D2925",
"q  c #2C2C2A",
"w  c #322B23",
"e  c #3C2D23",
"r  c #382C26",
"t  c #332D29",
"y  c #2C322B",
"u  c #2B382E",
"i  c #3D3125",
"p  c #35312B",
"a  c #3C332C",
"s  c #36382D",
"d  c #2D3B33",
"f  c #2A3837",
"g  c #353432",
"h  c #3B3531",
"j  c #3C3B34",
"k  c #3B3B3B",
"l  c #433324",
"z  c #493627",
"x  c #43352A",
"c  c #45392E",
"v  c #4C3B2C",
"b  c #513E2D",
"n  c #433D34",
"m  c #4C3D32",
"M  c #453E39",
"N  c #503F31",
"B  c #2F4137",
"V  c #38453A",
"C  c #45412F",
"Z  c #4E4135",
"A  c #45443B",
"S  c #4B433B",
"D  c #484A3B",
"F  c #534234",
"G  c #5A4634",
"H  c #5C4936",
"J  c #54453A",
"K  c #59463A",
"L  c #554A3D",
"P  c #5C4B3C",
"I  c #575239",
"U  c #674C3A",
"Y  c #624E3D",
"T  c #65513E",
"R  c #6B533E",
"E  c #364942",
"W  c #454544",
"Q  c #4B4B44",
"!  c #4B4C4B",
"~  c #544B42",
"^  c #554846",
"/  c #5C4D41",
"(  c #495647",
")  c #535344",
"_  c #5D5245",
"`  c #5D554B",
"'  c #575B49",
"]  c #404C5C",
"[  c #545252",
"{  c #585855",
"}  c #5D5D5C",
"|  c #624E41",
" . c #664F4F",
".. c #655243",
"X. c #6B5544",
"o. c #6D5946",
"O. c #645549",
"+. c #6B5648",
"@. c #655B4C",
"#. c #6D5A4A",
"$. c #715643",
"%. c #735B45",
"&. c #795D46",
"*. c #735748",
"=. c #745D4B",
"-. c #7A5E4A",
";. c #614E50",
":. c #6D5E52",
">. c #655C5A",
",. c #735F50",
"<. c #705958",
"1. c #5A664F",
"2. c #5C6252",
"3. c #67644B",
"4. c #76614D",
"5. c #7B624C",
"6. c #686855",
"7. c #6B635C",
"8. c #756252",
"9. c #7B6552",
"0. c #7E6955",
"q. c #74645B",
"w. c #776A58",
"e. c #7D6A5A",
"r. c #69725A",
"t. c #72735A",
"y. c #7A775B",
"u. c #775D61",
"i. c #5D656B",
"p. c #646464",
"a. c #6B6868",
"s. c #766861",
"d. c #746B64",
"f. c #6F7A62",
"g. c #787464",
"h. c #6F7375",
"j. c #737373",
"k. c #7B7B75",
"l. c #7A7A7A",
"z. c #82654D",
"x. c #83684F",
"c. c #896A4F",
"v. c #816651",
"b. c #846A53",
"n. c #8A6D53",
"m. c #836C5A",
"M. c #8A6E59",
"N. c #837357",
"B. c #8D7156",
"V. c #86725C",
"C. c #8C735B",
"Z. c #8A7D5D",
"A. c #917256",
"S. c #92755A",
"D. c #977A5E",
"F. c #A27E5C",
"G. c #846C63",
"H. c #897864",
"J. c #8B7A6B",
"K. c #937A62",
"L. c #967969",
"P. c #877A74",
"I. c #9C7D73",
"U. c #AC786A",
"Y. c #A67972",
"T. c #7C825A",
"R. c #7C8364",
"E. c #7A8568",
"W. c #98805F",
"Q. c #868768",
"!. c #8A846B",
"~. c #8A8A6B",
"^. c #948264",
"/. c #9A8768",
"(. c #948B6A",
"). c #8C936D",
"_. c #93926D",
"`. c #96986E",
"'. c #8A857B",
"]. c #998577",
"[. c #8D9774",
"{. c #989775",
"}. c #949B7A",
"|. c #AA8865",
" X c #A2966A",
".X c #B3936E",
"XX c #AA8977",
"oX c #B8847A",
"OX c #A89978",
"+X c #B59878",
"@X c #99A279",
"#X c #A9A67A",
"$X c #B2A979",
"%X c #CC8D75",
"&X c #C7A078",
"*X c #848483",
"=X c #8D8884",
"-X c #8D8C8C",
";X c #938D88",
":X c #96958C",
">X c #939392",
",X c #9C9A98",
"<X c #A89A87",
"1X c #A7948C",
"2X c #BC9987",
"3X c #9FA883",
"4X c #A4AB82",
"5X c #ACAD82",
"6X c #B7A583",
"7X c #ACB487",
"8X c #B6B48A",
"9X c #B9A699",
"0X c #BABE93",
"qX c #B2AFAC",
"wX c #B4B4B4",
"eX c #BBBBBB",
"rX c #CB988B",
"tX c #D4948C",
"yX c #E89D8A",
"uX c #CCA68B",
"iX c #C3B38A",
"pX c #D3AB94",
"aX c #EDAC93",
"sX c #C6B2A5",
"dX c #B3C292",
"fX c #D6CCB7",
"gX c #F7D0AE",
"hX c #C4C4C4",
"jX c gray80",
"kX c #DAD2CD",
"lX c #C0C7D0",
"zX c #D4D4D4",
"xX c gray86",
"cX c #E9D4C2",
"vX c #FAF6EA",
"bX c #F4F3F2",
/* pixels */
"a % 3 5 z e F i 3 2 > ~ * % % F 2 l v v l v F l x S j 4 w ; _ @.* 8 8 8 8 x 2 ^ w - z l 3 w : w ; : l > ; 2 3 4 % ; 4 * 2 w p # ",
"o @ @ . @ @ @ X . @ o @ . . ; X . o . o @ @ * 0 @ @ # X 8 O $ O % O % X . # % O @ - o o o O . o o O O O @ o X + . . . o o % 8 # ",
"p # F 3 T R 4...F Z K J < w o.%...P b.5.%.x.G c F 4.=.Y > e | 7 @ H N K K | ........K J U K | ..#.5.X.R T T T T P P J X.N / / - ",
"Q X ; 4.H J &.5.v.b.4.8.=.b.0.9.0.8.V.4.0.B.5.8.0...=.=.M.M e.` : %.m.=.-.5.%.5.0.:.G.m.9.=.+.X.8.9.b.b.b.v.x.x.b.0.3.v.8.v.n > ",
"h @ e F C R 8...V.4.=.o.#.0.=.z.$.P O.8.X.o.4.8.9.p b.8.3.J c 8 ; H #.#.J 8.8.v.%.+.:.m.M.0...%.m.5.0.4.B.8.b.V.M.v.8.*.q.#.t % ",
"0 % : x z.5.=.9.4.5.4.v.9.4.5.=.4...P o...5.4.+.=.e %.0...@.m ; O 0 #.o.P q.=./ ,.o.#.8.S.5.=.+.4.4.C.4.9.4.0.5.8.m.,.+.+.+.h ; ",
"w 2 > v R 4.4.5.9.5.=.%./ ..=.X.Y ..X.T o.4.=.=.8.+.b e.o.J s.t : F Y Z Y J.+.%.v.8.,.,.%.o.-.o.4.9.5.5.5.5.4.4.X.+.K +.| / 7 3 ",
"p O G &.5.b.X.3.=.b.9.=.-.8.o.#.X.3.o.X.4.X.4.#.#.0.v : : ,.h k % c m / F J.0.4.0.%.=.8.8.=.4.M.#.V.4.X.4.5.5.e.=.Y ..#.+.O.* > ",
"w : X.T o.0.9.#.5.5.9.9.=.=.=.4.5.%.#.o.H Y #.#.#.9...O % ,.p 7 % 4 J P L J.#.0.8.S.4.b.4.9.9.V.=.8.8.+.| m.m.4.=.9.,.,.+.O.^ : ",
"w # c o.0.X.4.-.5.9.4.#.8.b.#.0.4.5.9.R 4.#.#.X._ #.Y =.P N J > % J i Z Z H.o.9.9.5.x.4.K.#.m.@.,.q.5.=.<X0.8.8.,.*.-.-.m.x $ ; ",
"= 3 $.5.4.=.z.=.5.%.4.o.9.m.5.9.#.4...T 4.X.I =.o.X.4.4.+.w / A % m X.m J 8XXXrXaXvXkX0.L * 8.5.=.,.8.+XC.8.9.=.*.=.#.v.M.8 M > ",
"0 2 o.9.T ..X...5.5.4.b.b.5.z.n.z.x.%...5.4.) =.o.o.z.5.=.,.t h : ..#...X.9.V.tXXX9.8.=.x 4.8.9.o.8.U.9.5.4.4.=.+.Y +.,.m.,.8 % ",
"2 - V.P w.b.#.5.5.9.8.v.4.5.n...z.A.v.=.5.F 6.=.m.9.8.M.].#.,.% ; =.X.=.,.m $XI._ W t #.9.~ I A ^ oXM.*.5.5.b.9.,.-.9.9.=.m.M ; ",
"m 2 4.=.L 4.-.8.4.b.4.5.v.4.z.x.8.5.9.=.o.P Q.=.X.=.9.8.8.d.S p # +.=.%.4.9.r.' m.+.P X.H.Z.r.( <.G.A o.o.4.4.5.z.X.,.8.,.=.^ * ",
"J i 8.=._ X.5.=.=.5.=.5.=.5.5.5.+.=.4.v.X./ @X4.9.9.=.0.+.@.8.x < ..+...V.r.0.+X0.a -.q #XOXQ.y.W g q E 6.D 9.v.b.=.m.9.0.,.8 O ",
"_ 2 =...4.b.n.4.4.5.5.9.5.5.5.x.=.*.=.=.X._ 6X..*.9.8.%.=.~ m.q : c F..X#.4.m 2 OXu 7 t 9 6  XD.' m.9.x ..].f.v.5.n.K.9Xn.C.N % ",
"0 i o.@.%.=.%.4.x.b.%.$.S.v.B.B.S.B.=.=.8.X.XX_ 4.4.=.4...7XD A < F XX: | ,.m | C.y A E 3.-.|.^.2.-.4.z.5.x.{.oXyX6Xv.v.b.v.v @ ",
"q * 4.e.#.=.#.&.4.X.#.#...v.9.x.5.S.&.4.X.o.Y.K.5.4.8.0.0.:.y.S ; +X_ % K +.9.,.4.j #Xy.=.5.|.}.r.8.&.4.#.*.8Xd.8.b.S.m.v.q.N % ",
"w @ Y #.#.4.4.&.=.P :.+.0.8.5.4.B.5.4.4.,.J.>.p.) 9.8.,.,.:.| e.|.{._ Q 0.1Xv.*.S @.w.D ,.,.^.Q.r.P X.O.*.8.0X( v.8.m.v.b.,.h % ",
"7 < o.T Y T 8.o.,.#._ @.4...4.9.=.x.#.X.K.u.^ <.'.#.0.O.=.e.p h +X2X0..X|.s.8.=.y {.g.=.v.4.y.:XE.+.+.=./ X.|.r.-.=.8.8.,.=.h O ",
"q - ..L _ 4.O.4.Y / #.@.%...R =.X.5.v.].m.,.8.-.9.}.+.9.#.w a +XOXaXsXJ S.f sX8.#X@X1.+.v.-.#.4XE.9.%.| | =.9.}.=.#.,./ +.:.> $ ",
"1 < =.X.T 4.9.P +.J #.=...#.5.4.Y =.-.=.o.-.,.8.8.3X=.0.,.H #X7X@.; G.*.,.J rXa.d V S X.,.0.*.6XE.=./ %.5.9.N.d.=.o.,.=.:.N = % ",
"= ; 4.=.| 0.OXm.X._ #.8.o.%.4.5.5.5.9.=...=.-.m.].( '.,XqX+X5X( ,X;X,X,X1X>XP.J.Q.R.| =.8.-.*.3Xt.4.o.%.*.%..X[ ,.,.-.=.+.8 > > ",
"a 5 S.#._ X.X.#.#.+XpXXX:.#.X.4.o.%.%.P.>XqXxXxXxX( -XbX#Xt.B zXhXjXjXP.wXwX%XL.d.t.-X-X=Xm.,.dX1.#.+.X.5.5.uX=.9.4.8.,.m t O ; ",
"8 : n.5.%.=.4.X.Y o.T T 0.6X8X7.'.,XhXjXhXeXzXzXxXOX{ XXV ' lXzXp.j V wXwXgX%XG.I.A (.!._ ~ j.E.6.^ 0.y.XXt.uX-.9.=.=.#.O./ 8 8 ",
"8 D $.Y H H &.P R m H ..Y l.>X1X2.qXwXhXhXhXjXzXxX8X#X0.R.sXeXd.! (.^.wXcXo.j (.(.r.~.(.`.[.y.4XD M P.m Y / I.0 S X.o.../ | 7 o ",
"4 : _.5.P ..%.F %.T J q.*X*X>X>X4X( qXwXhXhXhXhXzXy.0X@X:XhXkX[ a.r F.M m x , ) q OXl.j.k.j.` @XV 2.p.j.'.| -.s.=.*.{ +.+.+.a ; ",
"n 3 n./.' &.4.=.].4.=Xh.j.l.-X>X,X5X[ wXeXeXhXhXjX9 @XR.J l.j.k.^ &X=.h.*X,Xd f ` #Xj.j.h.p.{ !.P.;.s.{ p.*X,.e.9.,.b.8.s.#.> ; ",
"p l B.B.W.).L V.Y :Xp.p.h.j.*X-X>XuXXXk.,X} = C @XE s n j       ` ~.y       d d % 7XV { j.p.p.5X@.Y.Y.tXgXvXvXbXkXI.v.m.9.8.c % ",
"a l l C.~ I {._.' aX{ p.a.k.*X*Xj.k $X6.+   (.~.1.1   = S k     p B 1       ( d   5Xy       = iX6.rXtXyXpXa.[ ,Xm.8.0.9.G.H.J % ",
"0 # l v m m b F 5X+XXX} p.j.[       % OXd C Q.L           ] n p s t.        ( B   7Xr.        _.H.1X>.[ ! ! Q j.G.9.=.9.q.y.w * ",
"< @ ; - ; 1 @ ; h.[ &Xd.q             6XV pXI               #.I iX'         _.y   Z.).        Z.(.    $ ! W W p.4 x Y U 4 2 2 @ ",
"% @ # @ @ @ o o l.[ Q XX)             fXB `                 j |.R.V u        XH.  v !.        1 ~.        7 ! a.+ $ O O o . % O ",
"m # G R %.R Y o.P.k   K ^.V           #X! $   + =             @X$X~.B V       L V %X^.          {.          , d.F +.b.K.8.r > O ",
"F < R x.5.4.R %.R 7.=   .X_.y.L O . 9 #X6.E.[.[.[.E.=.L &       T.y ).3.s   o , |.&XQ 6 f E [.).OX        = [ =.=.+.b.+.2 r % $ ",
"S ; S.x.R %.%.&.5.5.q.g O ~ {.{.OX{.5XdX7X3X4X#X3X@X+XoXpXcXE V & ).).`.' Z.^.r.5X#X6 y 8.D.S./.}.    X q 7.+.v.-.O.4.S.v./ N ; ",
"O.4 ..5.z.B.0.n.5.5.z.9.>.{ ^ ^.$X`.#X`.~.1 . _.s ~.g.5X4X}.g.~.r.E ( ^.V , t.$X(.y 6           _.r.8 [ b.K -.n.9.%.#.n.K.0.t - ",
"p 2 9.C.@.4.V.D.5.o.0.b.p.s.a.k = + .   C Q $ (.      . I `.L.H.(.).3.V s , #X_.@.. j #Xy.> o * r.( E ,.8.G.;X].H.,.,.M.,.8 > O ",
"w 3 B.9.%.4.#.9.b.C.S.N. .b.4.5.9.7.V q * ].(.'               # |.r.C.V.B u ).,   . O ^ I.(.+X0XpXoX+X' 8.8.X.=.=.b.:.0.e.#.a O ",
"p c o.0.v...4.x.5.4.4.G.x.o.5.5.9.v.9.,.#.!.#Xk y 7 = & $ $ o o o 7 S.y.t.j t 9 g W >.s.tX,.#.X.*.=.b.2...o.o.^ 0.+.,.+.+.o.:.= ",
"2 < #.9.9.X.5.R A.5.c.H.x.B.b.n.v.9.x.z.Z.OXL ) 0.9.9.J.J.g.d.} [ >.d.J.w.#.w.=.8.-.8.-.%X-.=.m.4.#.&.OX=.| 8.b.#.v.=.+./ ^ n ; ",
"2 3 5.4.x...N.x.z.$.;X5.c.b.x.n.c.C.y.}.R.R b.2X8.0.v.B.z.z.b.a 2 X.5.v.8.<.w...+.=.=.=.aX=.-.=.b.v.=.rXX.P =.8.#...5.=.| > $ @ ",
"1 4 B.Y %.%.%.4.B.5.B.b.B.5.B.n.B.`.Q.5.4.z.K.|.v.4.K b.+.=.n.Q 2 5.5.o...+.=.9.v.,.=.=.vX4.5.8.4.4.5.9X~ +.J -.m.-.v.=.m.K 8 % ",
"K 5 5.o.%.&.5.N.@.o.4.B.x.B.x.B.<X@.$.b.0.b.b.G.-.5.S.8.5.4.n.M 1 b.4.%.=.8.P 8.,.N =.,.fX*.+.=.=.+...=.1X=.=.=.%.=.v.=.^ n * * ",
"p % R Y b.b.x.O.#.Y B.%.b.5.rX2X4.v.K.4._ v.5.4.T -.b.9.v.,.-.M : 4.T 5.5.o.g.#.=.%.4.=.V.=.9.-.o...=.%.0.P.4.=.=.9.#.=.J 8 : % ",
"8 @ G 5.z.&.o...X.4.v.D.5.+Xc.c.x.b.#.o.%.5.b.v.9.b.$.H *.v.+.8 % %.X.4.o.@.8.b.#.9.*.=.9.o.-.=.5.%.-.+.=.=.i.=.=...+.+.9.=.8 ; ",
"n O l B.5.5.=.J P ..x.B.b.B.X.4.S.B.5.n.5.v.B.b.z.T X.v.V.S.m.8 # x.H T X._ 4.5.z.=.#.#.*.#.8.n.n.5.=.+.=.o.4.7.=.| ..X.+.=.; % ",
"7 O R n.z.5.5.4.4.4.B.b.4.z.4.o.4.P 4.b.5.N.9.b...5.v.M.v.c.9.x ; R T R X.@.o...v.4.+.=.=.=.9.9.x.b.z.%.X.%.-.J 8.Y 8.=.e.;.2 ; ",
"n : &.#.=.=.x.n.%.-.z.n.v.A.n.&.P o.=.5.5.4.#.5.Y 9.x.o.&.n.n./ < T U 4.4.5.%.-.5.z.=.=.=.K.T z.z.x.z.5.&.5.%.#.T X.=.=.0.r $ % ",
"p # G =.*.z.&.5.z.%.n.z.c.A.5.5.O...P #.b.0.5.5.=.4.x.C.-.<.L.g @ U 4.4.4.5.4.x.5.4.+.+.4.o.5.A.c.5.x.o.T c.X.=.#.o.=.V./ 8 w % ",
"0 # $.B.%.-.z.Y U =.%.9.&.R 5.U | Y Y ..%.#.o.J Y x.v.-.z.*.^ 0 - 5.T 5.c.z.x.z.b.z.9.O.#.+.D.n.A.5.%.=.T 5.z.%.X.o.%.m S / t * ",
"0 5 4.4.X.*.U Y =.%.%.c.z.5.x.x.Y #.b.=.T a H v.5.n.5.5.v.-.> - * z.4.&.c.c.5.x.5.z.b.8.8.@.x.-.x.9.5.X.R 5.4.R 9.9.5.x = < 7 * ",
"2 ; z.@.4.X.H %.$.z.z.v.c.n.n.A.=.R ..n.H X.z.z.z.c.v.-.&.*.8 n ; 5.5.5.z.b.5.v.c.5.b.=.#./ =.5.x.x.U =.=.5.5.4.&.z.z.v.X.K g 2 ",
"0 % o.X.P Y z.c.z.c.c.z.z.z.z.v.z.X.=.T =.*.z.$.&.z.z.-.-.z.w r 4 x.R z.5.c.v.z.5.n.=.9.#.P 5.x.b.x.z.x.x.%.B.5.z.B.v.J C.b.~ * ",
"% 5 %.5.b.z.S.z.z.A.5.z.v.5.$.z.z.z.x.=.$.&.$.R c.%.n.5.v.z.n.x 2 &.R &...P -.5.5.=.A.B.o.#.x.x.5.z.R z.z.5.4.5.b.z.n.X.c = = # ",
"2 l #.J n.n.5.B.z.c.B.-.n.X.=.z.z.z.z.-...-.X.R %.z.v.-.v.c.A...2 z.z.5.5.9.=.=.#.w.b.X.&...5.9.z.z.&.z.R &.5.z.b.v.v.%.F / t # ",
"0 5 Y / 4.&.z.-.c.z.z.$.$.^ | $.z.%.z.&.+.X.%.5.-.z.z.b.v.b.n.J ; 5.x.5.x.0.8.T 5.5.v...o.o.-.B.A.&.z.%.x.z.v.n.b.b.5.S.J > w % ",
"2 < ....5.z.z.-.-.n.z.U U -...-.$.X.z.U X.U *.H Y z.-.5.z.v.v.b.z R 0.4.T o.4.R 5.9.| ../ X...&.z.-.&.m o.5.n.M.A.A.5.n.-.*.% % ",
"p 3 %.4.4.n.n.v.v.z.$.z.*.U *.$.%.&.&.&.z.5.z.z.&.&.&.-.-.v.=.q 5 5.z.R x.R 5.o.4.H H o.5.x.5.&.R N ..P P ..%.-.=.=.=.#.+.+.a > ",
"J 3 X.o.4.&.-.v.-.z.z.n.z.-.-.z.5.=.R z.%.c.5.c.S.n.*.z.v.v...> ; H x.%.&.&.5.4.5.x.5.4.z.5.5.z.&.%.%.#.X.4.v.%.%.-.9.-.z.&.w 1 ",
"t 3 F ,.n.-.M.n.z.z.&.z.c.z.n.*.z.=.=.-.n.n.-.X.c.B.n.A.B.C.X.t 2 F K.=.x.0.c.A.=.o.v.8.V.&.o.4.S %.b.4.X.z.c.z.B.=.v.n.v.v...4 ",
"a x :.F K m.+.b.v.z.z.z.v.z.z.z.K.5.m.$.%.b.v.H.s.C.%.N Y 8.#._ x S S C %.T 0.A.5.D.b.v.8.P Z -.b.l M.n.Y Y z.K.+.n.z.S.L.n.m 5 ",
"L > < ; l % : : r 3 l z < b G z : 3 z w : 4 : z 3 ..| x a L a 0 * i 3.~ < 4.4 s r 1 - < a 1 2 2 w ; 2 < : l : 3 < = ; w w K w : ",
"1 o > $ : % O o O O # 3 # O # : O X O = % o O ; O > - $ % * 2 @ o < < + 1 O # - 2 @ X ; = % % : < % O % : r @ O % O * ; ; v w 2 "
};
