/* XPM */
static char *result[] = {
/* columns rows colors chars-per-pixel */
"64 64 200 2 ",
"   c #040404",
".  c #090705",
"X  c #0B0906",
"o  c #060608",
"O  c #0D0B0A",
"+  c #180E05",
"@  c #120E0C",
"#  c #15110E",
"$  c #19140F",
"%  c #151413",
"&  c #1B1611",
"*  c #1E1914",
"=  c #161718",
"-  c #1C1B1B",
";  c #21170F",
":  c #231C14",
">  c #291E15",
",  c #221E1A",
"<  c #2C2117",
"1  c #26211D",
"2  c #2B241C",
"3  c #32261C",
"4  c #34291E",
"5  c #3B2C1E",
"6  c #1F1B21",
"7  c #232323",
"8  c #2B2623",
"9  c #2D2925",
"0  c #282728",
"q  c #27282A",
"w  c #2C2C2C",
"e  c #332B23",
"r  c #362B25",
"t  c #3C2D22",
"y  c #332E29",
"u  c #3C3024",
"i  c #36312C",
"p  c #3C342C",
"a  c #322F30",
"s  c #333333",
"d  c #3B3532",
"f  c #3C3935",
"g  c #3C3C3B",
"h  c #433325",
"j  c #493526",
"k  c #43352A",
"l  c #4A3729",
"z  c #45392D",
"x  c #4C3B2C",
"c  c #523E2C",
"v  c #443C34",
"b  c #4C3D32",
"n  c #423E3C",
"m  c #483F38",
"M  c #503F30",
"N  c #4E4034",
"B  c #44413E",
"V  c #4C433B",
"C  c #534234",
"Z  c #5A4534",
"A  c #5B4836",
"S  c #544539",
"D  c #59463A",
"F  c #56493D",
"G  c #5D4B3C",
"H  c #644938",
"J  c #624D3D",
"K  c #65503D",
"L  c #6B533E",
"P  c #3F3F40",
"I  c #423F40",
"U  c #444444",
"Y  c #4A4644",
"T  c #474847",
"R  c #4B4946",
"E  c #46474A",
"W  c #494748",
"Q  c #4C4B4B",
"!  c #534B42",
"~  c #564B46",
"^  c #5C4D41",
"/  c #524E4C",
"(  c #4F504F",
")  c #5C5145",
"_  c #53514E",
"`  c #5C524C",
"'  c #4E4F51",
"]  c #514F50",
"[  c #4E5255",
"{  c #545353",
"}  c #5A5654",
"|  c #575857",
" . c #5B5956",
".. c #575758",
"X. c #595758",
"o. c #5C5B5B",
"O. c #624F42",
"+. c #655243",
"@. c #6B5544",
"#. c #6D5845",
"$. c #64554A",
"%. c #6B5648",
"&. c #63594D",
"*. c #6D5A4B",
"=. c #715743",
"-. c #735B45",
";. c #795D46",
":. c #705749",
">. c #735D4B",
",. c #7A5E4A",
"<. c #645752",
"1. c #625956",
"2. c #6C5D52",
"3. c #625D5D",
"4. c #695B5A",
"5. c #735F50",
"6. c #785F50",
"7. c #76614D",
"8. c #7B624D",
"9. c #6B6054",
"0. c #64615E",
"q. c #6C625D",
"w. c #756252",
"e. c #7B6452",
"r. c #7E6855",
"t. c #73645C",
"y. c #78665F",
"u. c #76695D",
"i. c #7C6A5B",
"p. c #5C5A60",
"a. c #625F60",
"s. c #646363",
"d. c #696464",
"f. c #6B6966",
"g. c #696768",
"h. c #676968",
"j. c #6C6B6B",
"k. c #706664",
"l. c #736A64",
"z. c #7B6C62",
"x. c #726E6B",
"c. c #786D6B",
"v. c #7D7167",
"b. c #73706F",
"n. c #7B716B",
"m. c #747272",
"M. c #797675",
"N. c #7C7976",
"B. c #7C7A7B",
"V. c #82654D",
"C. c #84684E",
"Z. c #896A4F",
"A. c #816651",
"S. c #846A53",
"D. c #8A6C53",
"F. c #836D5A",
"G. c #896F59",
"H. c #8D7156",
"J. c #86715D",
"K. c #8C735C",
"L. c #917257",
"P. c #92745A",
"I. c #97795C",
"U. c #846C62",
"Y. c #8A6C62",
"T. c #847363",
"R. c #85756C",
"E. c #897668",
"W. c #947B62",
"Q. c #9A7D63",
"!. c #967B6A",
"~. c #817771",
"^. c #8C7771",
"/. c #817975",
"(. c #8D7A72",
"). c #847D7A",
"_. c #8B7C78",
"`. c #937F78",
"'. c #9B806C",
"]. c #81817F",
"[. c #998372",
"{. c #978379",
"}. c #A4866D",
"|. c #A48A77",
" X c #A28C7C",
".X c #A5907C",
"XX c #B49775",
"oX c #B2927A",
"OX c #817F80",
"+X c #838182",
"@X c #8A8788",
"#X c #9C8C86",
"$X c #9E9488",
"%X c #9B999A",
"&X c #AA9789",
"*X c #AE9D98",
"=X c #B2A08B",
"-X c #B4A791",
";X c #BBADA3",
":X c #C1A78D",
/* pixels */
"p & 3 5 j u C u 3 < , ! * & & C 2 u N N 5 N N h p V f 4 2 * `  .* 3 3 2 8 p 2 ` 4 ; l h 2 r : r , : k > < 2 3 3 & * 4 * 2 4 i # ",
"O # # . @ # @ O X # O # O . * O X O X O # + & 2 # $ $ O 2 @ $ # & # $ O X # $ @ % ; X @ X @ X X X @ X @ @ O X @ X X X @ O & 7 & ",
"i $ C 3 K L 7.K C C A C 2 4 L 7.K G S.8.-.C.A N N 7.7.A 1 5 +.8 # F C G Z J +.+.K +.D C +.Z J +.*.7.-.+.K K K K A A F L C G J * ",
"R X ; 7.A F 7.e.r.S.5.7.7.S.r.w.r.e.i.5.r.H.8.7.i.L 7.*.F.V i.) < #.8.*.7.8.>.8.i.*.T.i.e.>.:.@.7.S.S.S.S.C.C.r.i.r.*.r.w.r.f 2 ",
"s # 5 Z N L w.K J.5.7.@.%.r.7.8.#.F +.5.+.#.7.w.r.u S.e.9.N z q * A +.*.S 7.e.r.:.$.2.F.D.8.+.>.F.e.r.7.S.e.S.J.G.e.e.*.w.*.y * ",
"9 $ : h 8.7.>.e.7.8.>.C.8.7.8.7.7.+.J #.L 7.8.*.5.4 L r.+.*.N * # e *.%.F #.>.G 7.%.*.8.P.8.>.%.7.>.H.7.e.8.r.8.>.F.>.$.%.+.p , ",
"e 1 : x L 7.7.8.e.8.>.-.^ +.7.@.K K +.K #.7.7.*.w.@.C r.%.N u.i 1 C G C J 7.#.-.e.e.5.>.>.#.>.*.*.e.8.7.8.7.7.-.%.%.D %.+.^ 7 2 ",
"i # Z ;.8.r.L *.-.S.8.>.7.7.%.%.+.5.-.#.7.+.7.*.*.e.N : < 5.i f # x b ^ N >.e.7.e.*.>.e.8.>.8.F.7.F.7.%.7.e.8.7.>.J @.*.+.+.* 1 ",
"e * @.K %.r.8.*.e.8.7.r.7.>.>.8.8.-.*.#.G J #.*.*.r.@.X & >.i , # 3 A F F +.>.e.e.L.>.S.w.e.e.F.2.w.7.%.G w.8.e.>.e.,.5.+.$.! : ",
"e & x #.i.+.8.7.8.e.7.*.7.r.*.e.7.e.w.L 7.-.*.+.G *.G >.G N S , & F p N m O.%.w.e.V.V.w.W.*.F.%.w.w.8.*.*.5.e.>.6.:.6.>.F.k % : ",
"- 3 @.8.7.-.8.>.8.-.7.@.e.F.8.8.*.7.+.K 7.*.F 7.#.%.7.7.%.e ^ B $ v @.N D ^ @.r.7.8.*.r.F & w.w.>.>.7.7.r.,.w.>.:.>.*.A.G.8 m , ",
"9 < @.8.K @.@.K 8.8.7.C.S.8.e.D.V.C.@.L 8.-.*.T.#.#.V.8.7.2.9 v < K #.3.+.>.J %.8.7.d.R.k 7.5.e.%.e.8.>.8.7.8.:.@.J %.5.i.6.8 & ",
"1 * J.A i.r.*.8.7.8.8.C.8.8.Z.L V.H.8.>.e.M 5.oX[ w.w.D.F.*.w.% : -.q.<.c.x S O.:.{ R.t.i.%.*.8.e.!  XL 8.8.S.e.5.>.e.6.6.F.m : ",
"b < 7.>.F 7.7.8.7.F.>.7.r.7.C.[.R 8.e.>.%.O.^.z.l.{ r.w.m.x.0.i * *.q.t.l.c.8.,.Q 1.~ d.M.>.*.8.Q } [.>.*.>.e.8.V.%.>.6.>.>.~ & ",
"S t 8.>.) %.7.-.7.8.>.8.>.7.7.'./ } i.A.%.^.t.4.} q.U T n _ R k < <._._.4.<.a.Y 1.d.} ` k.x.:.n f / q.W.w.8.e.Y S.,.A.F.i.6.8 @ ",
") < >.$.7.Z.D.7.7.l.7.r.8.8.:XY k.f W R ~.E.l.3.T Y / s s.` 3.0.} ` T 3./ { / 3.U /  ./ 1.W T g g } 2.d.C.8.s q.`.A.V.A.D.G.M % ",
"0 u #.*.#.-.-.7.Z.F.s *.K.S.q.` d.g B s P U Q I { n g U d.} R ( U B { 3.X./ W 3.} j.T U U U { g U U g / h.w a U ^.V.A.r.F.A.x # ",
"9 * 7.i.*.7.@.7.{.} { q s n.n.P T _ U U Q T Q W Q n n 3.n } Q { Y R Q 3.X.W W Q Q  .Q X.U ] T U g Q g g s s s T E.C.P.S.A.w.M % ",
"9 $ K *.*.7.7.7.J.U T U s w U s g P g g U Q U U T Q s n n Y n R { m.3.R I ] ] I 3.Q { W X.] P I I g T Q w w g a *X&XG.A.} 6.d & ",
"1 1 @.J B K e.L ` ( q w s w { P g U g { I { ' T ] T 3.{ n . f / 3.{ ' o.p.T g.a.U ] X.Y o.' g U T U U { s a P w n ^.6.a z.>.d @ ",
"9 $ K F 1.- 7 ;Xh.q w s s s g g g g ] U U o.Q 3.r.>.%.t._ Q / } $ @.J D :.,.@.,.H 5.p.] d.g ] U g P o.g w P P s w 7 w d 5.*.6 # ",
", < 7.@.9.q 7 i s w g w g g g U g U { U 9.8.,.w.>.>.e.i./ T / s.# : +.:.6.:.,.6.>.>.D %.5.r.{ P P Q T y s U s s g 7 0 7 } S * & ",
"- : 7.#..Xa - q 7 w g s w w U g U U e.>.+.>.>.e.8.:.%.e.} _ o.N.y : :.,.,.>.:.,.=.+.O.:.e.6.>.>./ T U s g w w g w 7 7 g 4.e , 1 ",
"d 5 K.*.-XR 7 q = g s s s s U U #.>.-.:.K ,.e.w.>.8.*.e.h.o.h.p.p.C F.>.:.,.:.;.:.6.e.5.e.e.5.+.#.>.q.s a g g s 6 w 7 a 2.y T * ",
"8 : S.E.V m.7 7 w w s s w s #.#.@.>.7.>.-.+.@.#.+.>.v. X#X3.s.g.x.j./.z.[.l.%.,.:.,.5.>.w.>.>.:.%.@.J +.w w g s q 6 7 w W.` R 2 ",
"8 4 ) v.B 7 - 7 7 w w P s C G A K +.G G @.@.%.@. .} f.d.b.s.b.m.h.h.d.o.o.s.s.1.-.%.:.:.-.>.%.@.%.L b N J I g g s.T 7 = X l.y # ",
"e : Q O O w 7 7 q 7 s g A #.L #.S L J #.@.K t.{ o.h.j.m.a.j.p.m.o.3.{ s.X.m.s.s.s.l.+.:.>.O.L @.#.J D C %.l.s.s U U = o * R i * ",
"v 4 f 7 o # 7 q 7 7 U 7.7.H.7.8.+.K =.8.8.l.3.%Xs.o.s.j.o.j.g.b.a.m.s.o.p.B.x.a.+XQ q.e.e.F.T.m.h.d.p.d.o.o.Q U Q s O   , B 1 , ",
"i h $XF @ O = 7 w q G.>.r.P.Z.Z.>.*.I.Z.K.T j.j.s.s.j.o.p.h.s...m.j.s.s.{ a.b.s.s.h.X.i.w / { o.U Q Q { o.{ U R B X   O f [.z & ",
"k 5 &X=X= O % = 1 N G.}.i.7.8.'.2 D L c o.M.M.o.s.m.g.m.x.a.b.s.s.j...a.o.s.] h.s.X.m.p.} d.z.[.(.% O = w o./ + XX      -X=XF * ",
"9 # '.XX- % = = f A 5 N F.G.r.G i : u V g p.s.j.X.s.o.a.{ p.s.M.o...a.3.X.o.p.o.p.s.a.s Y { X.U Q j.o.{ Q ' } & }.      9 ! 4 * ",
"1 # R 2 = - % = $ * $ & ; | | h.o.o.d.T g ..} m.3.o.a.o.X.OXj.M.g.m.s.a.h.j.+Xo.a.m.o.T U Q X.o.{ h.3.Q s.Q / T #X    w x.P 2 @ ",
": @ * m & - = = X # + $ # { m.o.j.h.B./ s 3.x.j.3.a.s.o.s.h.s.o.j.o.a.o.M.j.+Xs.m.s.s.b.T } } { Q T Q X.Q { T m.3.O   d U @ % # ",
"z & Z Y $.- - #.A A 7.7.L.j.h.a.s.j.o.o.j.N.m.g.B.o.g.b.h.m.| m.s.X.s.{ } j.j.o.+Xp.j...o.U ~ $.*.*.Z O.+.@.C x C :.b <.U r , @ ",
"M 2 :.n Y k - #.=.=.L Z.7.} { 0.b.].@Xj.} } } j.h.s.b.h.j._ o.o.j.X.p.o.j.s...B.+Xo.OXg J J J O.>.+.+.+.J J >.>.:.@.q.~ g u % & ",
"m : L.D.U.(., -.V.8.K ;.H.0.o.j.o.B.{ j.Q U h.o.d.{ j.f.o.m.0.{ j.m.M.o.s.j.g.h.d.o.U O.>.A.>.>.>.8.,.;.>.J @.r.8.u.<.P P D M : ",
"&.4 @.8.U %.3.D.;.8.V.7.H.q.( Q 0.t.>.8.8.P l.d.j.j.o.m.| f.o. .s.X.b.d.o.h.X.o.1.3.5.5.r.A.V.S.8.r.8.e.S.D w.{ F.(.~.g !.r.y * ",
"y 2 e.G.E Y.|.P * #.r.J.e.K.S.r.e.*.5.%.8.2.0.n.q.} s.).b.o.0.f.m.a.X.{ c.d.x._.Q e.+.6.*.>.>.e.e.w.i.>.%.7.7 U ' / ` g w.2 1 O ",
"e 3 G.8.w.9.E T _ g P.S.S.S.-.C.e.e.e.O.7.*.e.*.U &.&X'.{.0.q.n.f.~.~. XoX^.Q z.5.5.@.%.:.>.:.>.>.8.8.8.>.v.T o.U T g g i.*.i @ ",
"y k #.F.r.E { Q a.( u.r.Z.#.e.8.8.r.e.>.+.$.%.>.G :.v...a.u.l.q.*.2.3.{ g.%.F.5.6.>.6.>.:.5.%.@.:.7.8.*.+.o.{ ' o.{ g *.%.*.2.: ",
"2 < >.8.e.U T U U ' M.S.A.D.S.D.C.r.Z.V.;.@.*.w.r.8.8.C.S.H.7.V g P { U _ e.i.7.7.8.w.:.,.>.>.8.>.:.,.>.s U T U U { g +.^ ! v , ",
"1 3 8.7.V.@.T U T ' { y D.S.C.D.D.H.V.Z.e.L C.*.w.e.F.G.,.8.F.p s.o.U {  ./ e.) @.*.>.:.>.>.n.z.S.S.>.d.j.T T T T T A.*.+., @ # ",
"1 4 H.J -.-.U T T U U { 0.,.D.D.D.0.D.8.8.8.I.H.S.7.F S.-.>.S.V _ Y o.3.{  .*.e.A.6.>.>.e./ T { s.7.l.] Q W Q U { g S.7.F.D 8 & ",
"Z 5 e.%.-.-.8.Q Q U j.T 3.d.Z.4.{ Q { F.e.S.S.J.7.8.K.8.8.7.D.B o.j.{ x.s.] J e.>.S *.e.U ' T { Q { U W U o.T o.Q >.V.>.~ v * * ",
"i $ K J S.D.C.U U U U T { g Q T ( { Q h.+.r.8.>.K 7.Z.8.r.8.7.B { j.s.a.s.s.u.*.*.-.w.o.h.a.T ..{ o...Q T T { Q i.e.%.>.S 2 > % ",
"1 @ Z V.V.7.>.+.Q Q Q T U ( s.{ Q { { | T u.C.S.e.S.L H t.h.+.0 9 M.j. .o.s.h.S.*.8.j.s.( ' Q { { o.| Q R Q Q >.*.O.@.%.e.>.8 , ",
"v # h H.8.8.*.S ) Q U o.' s.( | a.{ { { { P o.S.e.K @.{ { o.o.P $ m.a._ s._ { 8.v.U U s.Q o.h.T { { h.T U Q 7.%.5.O.+.@.%.>.: % ",
"1 @ L Z.V.8.7.8.8.>.T T { T ' T T ' | { ( Q U P 5.f.a.o.o.+Xb.s.Q 8 Q N.s.s.M.0.q.s g o.o...T o.T a.o.U 9.#.8.S e.J ,.>.y.$.2 : ",
"f : >.-.>.:.S.H.=.;.V.{ T T { s.( o.T Q a.a.E g Q | ' s.a.h.' ..Q { s 0. .N.s.U o.o.s U ( T o.a.s.o.{ 8.;.8.>.*.K %.>.:.i.t % $ ",
"i $ Z >.-.V.,.8.V.-.D.V.u.Q } Q { ( Q ' s.{ | Q h.M.a.' o...s.Q { { _ U R o.o._ g _ { g a.| o.0.N.8.C.*.K C.@.>.#.#.:.J.) 8 e & ",
"9 $ ;.S.-.;.V.J J ,.-.A.;.=.{ { b.a.Q { o.{ m.| | Q h...s.s.Q Q o.' U U T U ( o.| s | o.{ n.I.D.H.8.-.:.@.8.C.;.+.#.-.b V ^ i & ",
"9 5 8.7.=.:.K J >.-.=.S.V.,.S.T.Q Q a.o.h.m.m.( h.| { [ s.' ..b.{ ..s Q { } U Q { a.| o.9.&.Z.>.C.S.8.@.L 8.7.L r.V.8.z = < 7 * ",
"2 : C.9.-.%.Z =.=.V.V.V.Z.H.D.L.,.+.*.o.o. .s.R ( { _ | { j.' s.o...s j.( /  .{ { T o.>.*.) 7.8.S.C.J >.>.8.8.L ;.V.V.A.#.D s 2 ",
"8 * -.+.G K V.D.V.Z.Z.V.V.V.V.A.C.+.>.@.-.:. .s.o.{ { { ..o.X.a.j.Q q ..s.U 0.q { J.-.e.*.G 8.C.S.C.V.Z.C.L H.8.V.H.V.S P.F.! * ",
"& 5 #.e.S.Z.H.C.V.L.8.8.V.8.@.V.V.V.C.>.-.,.=.@.Z.@.D.8.S.,.H.h 2 -.Y | | ..{ { ( -.I.F.@.#.e.C.8.8.L V.Z.V.7.8.F.V.Z.%.k , % $ ",
"2 k #.C Z.S.8.H.V.Z.H.V.D.%.>.V.V.8.V.>.L ,.=.L 7.C.C.7.A.Z.L.+.2 C.C.j.Q Q Q o.l.i.S.@.-.@.8.C.V.V.;.V.L >.8.C.S.C.C.>.N ^ i & ",
"1 5 J ^ ,.>.V.,.Z.Z.V.=.=.^ O.=.V.;.V.,.@.@.=.8.,.V.V.S.e.Z.D.F , 7.C.7.C.i.e.J 8.8.S.+.%.@.>.H.L.;.V.>.C.V.S.D.S.S.8.L.S , y & ",
"1 3 +.+.8.V.V.,.,.D.A.H H 6.O.6.=.@.V.K #.H =.G H V.8.8.8.C.r.r.j L S.8.+.#.7.L 7.8.+.J J %.L 7.V.;.;.b #.8.D.D.H.L.V.G.8.=.& $ ",
"p 4 -.8.,.G.D.A.A.V.=.V.:.H =.=.-.;.;.;.V.8.V.V.>.;.,.>.;.S.9.e 5 ;.C.L C.L 8.#.7.Z G #.7.8.8.;.#.M J G G +.>.,.>.:.8.#.#.%.p : ",
"S 3 +.-.>.>.,.A.;.V.V.D.V.V.;.V.8.-.L V.-.Z.,.D.L.D.;.V.V.C.K , : J S.L ;.;.8.7.8.Z.8.7.C.8.C.V.;.=.>.*.+.8.e.-.;.>.e.>.V.>.r 1 ",
"i 3 C 5.Z.6.H.D.V.V.;.V.Z.V.D.;.8.:.>.8.D.D.8.%.D.H.D.L.J.K.K i 2 C '.7.8.C.C.P.*.@.C.7.J.7.-.7.N -.A.8.#.V.Z.V.L.,.S.S.A.A.+.r ",
"p h *.V D U.+.Z.A.V.V.V.A.V.V.V.W.8.F.-.-.S.S.K.i.K.-.M K 7.7.) p N B N 7.K C.L.8.'.Z.r.7.Z N 8.F.h S.H.G H V.Q.$.S.V.P.Q.S.b 5 ",
"! , 1 : h ; : , d < h j 3 c Z j < 3 j r : 4 : j 3 +.+.p p F f 2 & u &.F < 9.4 p r 1 ; < p 1 1 2 r : 2 1 > h > 3 2 : : r r D e : ",
"1 O : & > & @ O @ @ # 4 # @ + > O O O , & X @ * # : * $ % ; 2 @ @ 2 < @ 1 # # ; 2 # X * , & $ : < $ # & > y @ @ & @ & : : x 8 3 "
};
