/* XPM */
static char *result[] = {
/* columns rows colors chars-per-pixel */
"64 64 233 2 ",
"   c #010104",
".  c #090705",
"X  c #0A0907",
"o  c #03020B",
"O  c #0D0B09",
"+  c #120E0C",
"@  c #15110E",
"#  c #1A140E",
"$  c #020113",
"%  c #02021B",
"&  c #0B0A18",
"*  c #110D15",
"=  c #161311",
"-  c #1B1611",
";  c #1E1914",
":  c #1C181B",
">  c #21170E",
",  c #231C14",
"<  c #291E15",
"1  c #231E1A",
"2  c #281F18",
"3  c #2D2217",
"4  c #26211D",
"5  c #2C231C",
"6  c #32261B",
"7  c #34291E",
"8  c #3B2C1E",
"9  c #020222",
"0  c #0A0B23",
"q  c #02012C",
"w  c #110D2D",
"e  c #191728",
"r  c #050334",
"t  c #090739",
"y  c #1A1537",
"u  c #231D28",
"i  c #221B36",
"p  c #252221",
"a  c #2A2623",
"s  c #2E2925",
"d  c #2D2929",
"f  c #332B23",
"g  c #3B2D22",
"h  c #372A2A",
"j  c #342D2A",
"k  c #3C3025",
"l  c #37312C",
"z  c #3B332C",
"x  c #292435",
"c  c #342A35",
"v  c #3B3432",
"b  c #3A3534",
"n  c #433325",
"m  c #43352A",
"M  c #493628",
"N  c #4A3728",
"B  c #45392D",
"V  c #4B3B2C",
"C  c #523E2C",
"Z  c #433736",
"A  c #453B34",
"S  c #4C3D32",
"D  c #4B3D3A",
"F  c #4C4238",
"G  c #534234",
"H  c #5A4634",
"J  c #5D4936",
"K  c #54453A",
"L  c #59473B",
"P  c #56493C",
"I  c #5C4B3B",
"U  c #674C3A",
"Y  c #624D3D",
"T  c #65513E",
"R  c #6B533E",
"E  c #18084A",
"W  c #151648",
"Q  c #0C0950",
"!  c #1A1757",
"~  c #261C54",
"^  c #3B3544",
"/  c #2B2A50",
"(  c #383757",
")  c #2A2B6A",
"_  c #36366A",
"`  c #322B70",
"'  c #3B3A72",
"]  c #473B47",
"[  c #473C57",
"{  c #443C74",
"}  c #3D4279",
"|  c #4C4444",
" . c #534442",
".. c #544B42",
"X. c #5C4B42",
"o. c #5A4C49",
"O. c #5D5043",
"+. c #5D514A",
"@. c #574856",
"#. c #544E58",
"$. c #624E42",
"%. c #604D49",
"&. c #655243",
"*. c #6B5544",
"=. c #6E5946",
"-. c #635449",
";. c #6B5649",
":. c #67584B",
">. c #6D5A4B",
",. c #715642",
"<. c #735B45",
"1. c #7A5C46",
"2. c #735748",
"3. c #745D4B",
"4. c #7A5E4A",
"5. c #614C58",
"6. c #6B5B51",
"7. c #745F51",
"8. c #76614D",
"9. c #7B624C",
"0. c #6E6053",
"q. c #756252",
"w. c #7B6452",
"e. c #7E6855",
"r. c #7B6758",
"t. c #7D6B5C",
"y. c #514977",
"u. c #625169",
"i. c #635F79",
"p. c #82654D",
"a. c #84684E",
"s. c #8A6B4F",
"d. c #826651",
"f. c #846A53",
"g. c #8A6D53",
"h. c #836D5A",
"j. c #8A6F59",
"k. c #8D7156",
"l. c #85705C",
"z. c #8B725B",
"x. c #917256",
"c. c #92745A",
"v. c #977A5D",
"b. c #81676B",
"n. c #887461",
"m. c #987B63",
"M. c #A08871",
"N. c #3B3589",
"B. c #443C88",
"V. c #4A3D95",
"C. c #494983",
"Z. c #545389",
"A. c #484896",
"S. c #554D98",
"D. c #595998",
"F. c #675C8B",
"G. c #5D6295",
"H. c #716F8F",
"J. c #766B98",
"K. c #5A58AB",
"L. c #5856B7",
"P. c #675BA8",
"I. c #696AA8",
"U. c #6665BA",
"Y. c #7673B5",
"T. c #6968C5",
"R. c #7572CC",
"E. c #7A78DB",
"W. c #7B7DE7",
"Q. c #847BD6",
"!. c #857DE9",
"~. c #7483D4",
"^. c #7F84E5",
"/. c #878291",
"(. c #9A97AB",
"). c #8E8CB3",
"_. c #8A85C9",
"`. c #8D8AD2",
"'. c #989BDA",
"]. c #A3A2C7",
"[. c #AEAED2",
"{. c #8482ED",
"}. c #8887E9",
"|. c #8D93EA",
" X c #9895E8",
".X c #8484F2",
"XX c #8988F6",
"oX c #968CFC",
"OX c #8E97F9",
"+X c #969AF7",
"@X c #A19AEB",
"#X c #9EA0E1",
"$X c #9DA2F6",
"%X c #A9A8E9",
"&X c #A5A7F7",
"*X c #AAACFA",
"=X c #A9B2F5",
"-X c #ACB2FB",
";X c #B2B2F0",
":X c #B5B6F6",
">X c #B7B9F6",
",X c #B9BBF6",
"<X c #B5B6FA",
"1X c #B8B5FE",
"2X c #B6B9FA",
"3X c #B9BBFB",
"4X c #C0BEFE",
"5X c #BDC1FB",
"6X c #CBC9D8",
"7X c #C7C6E4",
"8X c #D0CEE1",
"9X c #D6D5E8",
"0X c #C1C3F6",
"qX c #C3C5FC",
"wX c #C5C9FD",
"eX c #CCCCFC",
"rX c #CDD2FC",
"tX c #DAD9F7",
"yX c #D4D6FD",
"uX c #D7D9FB",
"iX c #DADBFB",
"pX c #E0DFFC",
"aX c #DFE1FD",
"sX c #E3E3FD",
"dX c #E6E9FE",
"fX c #E9E8F9",
"gX c #EBEBFE",
"hX c #F1EFFE",
"jX c #EEF2FC",
"kX c #F5F6FA",
"lX c #F5F3FE",
"zX c #F9F5FD",
"xX c #FBFAFD",
/* pixels */
"z - 7 7 G 7 G k 6 3 4 P ; - - G 5 n V V k N G n n F v f 7 > ..+.; 5 f a 5 m a o.7 , M n 3 g < f , , m < 4 3 6 7 ; - 7 - 5 f l # ",
"O @ @ . + @ + O X @ O @ O . ; O . O O + @ @ ; s @ @ + X : & & $ & & * X . + = + + , X + X + X . O + O + @ O X O X X X + O # a # ",
"l # H 5 T T 8.R G G H F 4 7 =.=.&.I f.9.<.a.J B l p o   . (.9X9X8X/.$ o & u | $.$.$.L G &.H $.-.>.8.=.R T T T T J Y F *.F Y O.; ",
"| O > 8.J P 8.q.e.f.8.8.8.f.e.w.e.q.h.8.e.k.T s o #.xXkXzXxXxXzXxXxXxXxXjX^ o u X.7.n.r.q.3.2.*.8.e.f.f.f.f.p.a.e.e.8.w.9.e.v 4 ",
"b @ 8 H G T q.T l.8.8.*.>.e.8.w.<.K &.q.&.A & #.xXxXlXhXgXgXsXsXfXgXhXzXzXzXzX^   f >.h.g.9.&.3.h.9.e.9.g.q.h.h.h.e.q.>.q.>.j - ",
"s # > n 1.8.8.q.8.8.8.p.9.8.9.8.3.*.X.=.A & fXxXlXdXsXsXpXpXpXiXtXpXpXsXfXhXlXzX6Xo h 7.c.9.8.*.8.8.z.8.e.8.a.8.9.h.3.*.&.:.z 4 ",
"s 4 4 G R <.9.9.w.9.3.3.X.&.8.R T T ;.v 0 xXlXgXdXpXpXtXiXpXiXpXiXpXtXtXpXpXgXlXzXxX$ c <.>.8.>.3.w.9.8.9.8.8.8.*.;.K *.-.X.p 5 ",
"l + H <.9.f.=.>.<.f.9.3.8.8.=.=.&.6.K & xXlXgXsXiXiXiXiXtXiXiXiXiXiXpXtXpXpXpXsXlXzXlX$ D 3.8.f.3.t.8.=.8.9.9.8.3.Y *.>.*.&.; 4 ",
"f , *.T =.r.9.>.9.w.8.e.3.3.3.9.9.-.e jXjXdXpXiXiXtXaXiXiXiXiXiXiXiXtXiXiXaXtXaXsXgXzXfX; =.8.l.7.q.8.-.Y w.q.9.3.w.7.3.-.;. ., ",
"f # B <.e.&.9.8.9.w.9.>.q.e.>.w.3.c 9XgXdXsXpXiXiXuXuXiXiXiXiXiXiXiXiXiXiXtXaXtXaXsXgXxXH.l h.:.7.q.9.3.>.3.q.7.7.2.d.2.h.m = , ",
": 7 *.9.8.3.9.<.9.<.8.=.w.h.9.9.L e jXdXpXpXiXiXiXiXiXiXiXuXiXiXiXuXiXiXiXiXiXiXiXpXfXlXkX& -.q.3.6.8.8.e.3.q.3.2.7.>.d.h.s F 1 ",
"a 3 =.8.T *.*.&.9.9.8.p.f.9.9.k.A 7XdXdXiXiXuXiXuXuXuXuXaXuXiXiXiXiXuXiXiXiXiXiXiXuXsXfXlX8XZ w.=.w.9.3.9.9.9.>.*.I ;.7.e.q.p - ",
"4 > l.I r.f.6.9.4.9.q.f.9.9.f.R c dXdXiXiXaXiXuXiXuXuXuXpX[ iXaXuXiXiXuXuXuXiXiXiXiXiXsXhXzXe 3.q.v.<.*.9.9.f.w.7.7.q.q.7.d.D 1 ",
"A 5 3.8.P 8.8.9.q.f.3.9.e.8.p.9.] gXsXiXuXuXuXtXuXaXtXaXiX#.iXsXsXiXiXiXuXiXuXtXiXiXtXsXdXlXi K 9.3.1.<.=.3.q.p.p.*.4.w.7.3...; ",
"K k 9.3.O.*.9.<.3.9.3.9.<.8.9.=.(.gXaXiXuXuXuXuXuXuXuXtXpX8X  iXdXdXiXiXiXuXiXiXiXiXpXdXgXlXx c &.8.K <.w.9.w.d.f.3.f.d.r.7.s + ",
"O.5 3.-.8.f.g.8.8.9.9.w.9.9.9.3.[.aXiXuXtXuXuXiXuXtXuXaXsXdXo o [.gXdXiXiXuXuXuXuXiXsXdXgX( 9 b 9.j.8.p.9.9.f.p.9.a.p.d.g.z.S = ",
"a k =.:.=.=.8.<.p.g.=.,.c.a.g.3.7XyXyXuXuXuXuXiXuXuXpXpXpXsX(.  o 0 dXsXiXiXtXuXuXaXfXtX9 % % c *.9.9.9.9.9.p.4.p.p.p.d.h.d.V = ",
"s ; 8.t.3.8.=.8.9.&.:.3.-.a.w.I qXeXyXyXuXuXuXuXuXuXtXuXpXgXH.    o dXsXiXuXuXtXuXiXfXi.$ $ ( x >.q.<.8.<.2.Y d.9.p.c.h.w.q.S = ",
"s @ T >.3.8.8.R 8.P 0.:.e.8.9.F 0XeXyXuXuXuXiXuXiXuXyXpXpXgXy.    iXdXiXiXiXiXuXiXaXsXlX$ o / p A Y :.=.2.q.;.*.9.q.f.d.w.9.Z - ",
"a 4 R Y I T 8.8.8.=.O.:.8.&.8...0X0XrXyXyXuXuXiXuXuXiXiXpXgX[     9XdXpXuXiXtXiXiXiXdXgX$ $ / x 3.*.*.<.X.3.2.2.3.q.q.q.3.3.v + ",
"s - T P &.8.O.q.Y O.:.:.=.&.*.F 5X5XeXyXuXuXuXuXiXuXiXiXaXgXx     9XsXiXiXiXuXuXiXiXfXdX% $ e b d.3.2.-.Y 3.w.7.3.>.q.P -.:.4 = ",
"1 3 8.O.T q.e.I >.K =.>.*.>.9.D 5X,X,XrXuXuXuXuXuXuXuXiXsXdXe     6XdXaXuXyXuXuXiXiXaXsX$ & % Z 3.3.$.*.9.4.3.3.3.>.8.3.7.K ; - ",
"; 4 8.=.T 8.=.=.R Y =.8.=.=.8.S 5X,X:X5XyXyXyXuXuXuXuXiXaXdX(.    lXaXiXtXtXtXuXuXiXiXyXaX[.( ] 3.4.*.<.<.<.9.3.3.q.3.>.-.6 : 5 ",
"z 8 v.>.O.*.=.>.>.8.>.7.&.=.*.F 5X5X:X:X0XyXuXuXuXuXuXuXiXaXgXtXdXsXaXiXuXuXtXuXuXuXqX5XwXrXF.P >.3.*.*.9.9.;.3.q.9.w.7.A j = ; ",
"a 4 a.w.=.8.8.R T =.T T I P *.v 3X5X>X>X>X0XrXtXuXtXuXuXiXiXpXsXsXiXiXuXiXyXiXuXyX4X>X,X4XwXH.$.*.*.Y &.*.4.q.2.q.4.3.>.-.X.a 5 ",
"a 6 8.J J J 8.H T F J T T G I l 5X5X5X>X>X,X4X0XyXyXuXyXiXiXuXiXiXuXiXiXiXiXeX4X2X2X>X>X3XwX).X.*.*.V S Y $.9.9.*.*.;.&.X.$.p + ",
"7 < R 9.I T R G <.T P P J =.R 5.5X5X5X5X>X:X>X>X>X4XwXrXyXyXuXyXyXyXuXeX4X,X:X,X3X>X3X>X3XwX).$.2.Y K G &.Y 2.*.3.*.2.*.:.:.z , ",
"F 7 s.g.s.<.9.8.e.8.*.9.8.k.q.#.=Xr r ,X3X>X:X>X>X2X>X2X>X>X>X,X3X>X3X>X,X1X3X3X3X>X3X:X4XeX].%.3.&.3.*.*.$.7.w.w.4.w.w.q.>.u , ",
"f k g.k.9.k.8.l.T e.f.8.e.M.g.+.9 % 3X2X3X2X>X>X,X2X2X2X:X3X:X1X1X,X2X>X3X,X3X2X3X2X>X3X5XwX].+.9.d.q.w.;.X.q.w.w.e.d.h.w.e.B - ",
"k k n k.I F 8.8.>.G f.M.e.<.w.0.% C.<X2X2X2X2X2X2X2X3X>X3X>X3X3X>X2X3X3X,X1X2X1X3X:X:X3X3XwX].%.w.K Y h.>.r.-.w.l.q.e.q.l.l.P - ",
"s @ n G G G N G J J 8 G e.k.e.F 0 *X2X2X2X<X<X2X:X2X2X2X2X2X2X2X2X2X2X3X3X<X2X2X2X>X2X3X5XwX( +.S 2 S 3 X.*.$.7.l.q.8.w.r.t.s ; ",
"5 @ - > ; 4 @ ; - ; - - # , 3 ; W &X2X2X<X<X:X:X2X2X2X2X2X2X3X2X2X2X2X2X2X2X3X2X3X>X:X3X5XwXy u d = - - = , 7 m f m T J 7 5 5 @ ",
"- @ # + @ @ O O O @ + # @ # - * R.-X2X2X=X:X2X<X5X=X2X2X2X3X3X3X2X3X2X2X2X2X2X2X:X>X2X3X3XwX].0 ; O X @ @ + + . O @ @ + + . - + ",
"F # H R <.R J <.J J 3.1.x.x.p.D '.<X2X<X2X%X2X2X<X2X:X2X2X<X3X2X2X1X2X2X:X3X2X2X2X:X>X3X3XwXrXx T *.G &.&.&.G V K *.f.n.q.f 1 @ ",
"G 3 R a.9.8.R <.,.,.<.p.1.p.p.] @X<X2X2X3X_ $X5X<X2X<X2X<X2X2X3X3X>X2X>X:X1X2X:X:X:X>X5X_ eXrXu *.&.T &.Y $.3.3.<.;.f.=.u g = = ",
"F , x.s.R <.<.R p.9.*.<.s.f.p.@.&X2X2X2X5X0 '.5X2X2X2X2X2X2X2X2X<X2X2X2X>X,X2X:X>X2X3X5XW qXeXy -.9.9.<.3.Y *.9.3.*.q.c.d.L K , ",
"O.7 R 9.e.k.a.a.1.9.p.8.h.j.g.u.1X1X<X<X[.0 #X5X2X2X<X2X<X3X2X2X2X<X2X>X2X:X2X:X>X>X5X5Xt 5XrXy o.w.w.9.f.P q.f.w.3.>.g.v.e.l - ",
"l 5 w.l.:.8.h.M.9.=.e.h.d.z.w.J.1X1X3X1XH.% =X5X2X<X<X<X2X<X2X<X:X2X>X2X2X:X:X:X;X>X>X,X} '.wXt o.q.e.3.:.3.*.q.f.7.3.g.q.5 1 + ",
"6 3 k.w.<.8.>.w.f.j.c.f.g.d.$.`.1X3X1X3X/ W <X2X2X<X<X<X1X2X<X<X1X<X<X2X1X:X1X:X;X5X:X;XG.Z.wXw ] 9.p.9.3.w.*.3.3.h.:.h.t.>.z @ ",
"f F =.e.e.R 8.a.8.8.9.f.s.2.$. X<X<X3X;X0 G.2X3X<X2X<X<X2X<X2X:X2X>X2X:X:X:X>X>X>X%X;X5XZ.w 5Xt ] 9.9.<.&.=.*.X.r.*.3.:.*.>.6.; ",
"a 3 =.e.w.R e.T x.9.s.p.p.f.*. X1X3X3X%X$ ).-X2X<X2X2X:X1X:X>X1X<X<X<X<X:X<X2X>X:XI.;X3Xy.r 5Xt | 3.9.<.3.&.q.f.:.f.3.*.X...Z 1 ",
"a 3 9.8.e.T s.a.p.<.g.9.k.g.*. X-X4X4XG.% '.2X<X<X2X1X:X<X:X*X*X<X<X<X<X<X:X2X>X'.{ :X3Xy.t 5Xy %.f.3.4.=.I >.3.>.-.9.3.-., = @ ",
"5 7 k.T <.<.8.8.x.9.k.f.a.9.>. X-X4X%X~ ) *X2X<X<X<X:X:X:X:X}.{.+X-X<X<X<X<X2X>XI.' 3X>X_ t 5Xy  .4.4.Y I *.G 4.d.9.p.8.l.I 5 - ",
"G 8 9.:.<.<.9.a.:.T 8.k.a.k.=._.&X;X_.9 ' <X3X<X<X<X<X<X<XQ.{.{.}.$X<X2X>X<X2X-X) C.>X3X) Q qXy o.;.Y *.3.>.3.<.3.<.p.3. .A ; ; ",
"k - T T g.s.e.T *.Y k.<.f.9.g.@.@X#X_ % K.&X<X<X<X<X<X2X&XN.!.XXW.^.=X<X<X<X<X#Xr D.:X2X! t qXy  .*.2.2.q.3.9.3.3.w.;.3.K a 3 = ",
"4 + G a.9.8.=.T *.3.w.v.9.d.g.X.t r % ) E. X<X<X<X<X1X2Xt Q W.XXW.E.|.-X<X<X<X~.r I.2X-Xt W qXW -.3.3.*.3.3.&.3.>.&.;.*.q.3.a ; ",
"F X n k.9.9.8.P I &.p.k.f.g.&...B.K.~.}.V.Y.*X<X<X<X<X=X% Q XX!.^.!.L.|.$X-X$XY.q Y.2X-Xr ! 5Xy 3.9.2.*.3.*.8.>.3.$.&.*.;.3., - ",
"4 + R s.p.9.8.8.8.8.k.f.4.p.8.] ^.OX+XT.r U.+X-X<X<X*X' o W !.XX.XW.Q }.OX+X}.U.q `.5X-Xq ) <Xy ;.g.p.3.*.<.9.K 9.$.q.3.t.+.5 , ",
"v 4 <.=.3.3.f.g.<.4.p.g.d.x.g. .^.OXXXA.% K.|.*X<X*X+X0 h ~ XXXX.XR.t U.^.}.W.A.r &X2X-X9 ) -Xy ;.d.9.4.4.9.3.:.T =.3.>.r.g = = ",
"b # H 8.<.p.1.9.p.<.g.p.s.x.9.X.E.XXW./ Z C.^.+X*X XY.P ,.^ XXoX.XE.c b W.}.W.) Q -X3X-Xq W =Xi 2.4.p.3.T a.*.<.=.>.2.j.+.a f ; ",
"7 # R k.3.1.p.Y U 3.3.9.p.R p.I Y..XE.d I +.T.OX+X|.[ <.p.U !.oX!.T.$.9.J.XX!.W ! *X2X*X% q '.y 8.9.3.3.*.9.p.<.*.=.=.S F X.l - ",
"s 8 9.8.*.=.U T 3.<.,.g.p.1.a.p.F.!.L.D &.z L.OX|.Y.*.p.s.p.Q.!.!.@.3.<.5.{..Xt ! &X-X&X9 9 I.i 3.e.9.R *.9.<.R e.p.9.B : 5 p - ",
"5 , 9.=.8.*.J ,.,.p.p.d.s.g.g.x.u.E.S.$.Y *.P.XXXXJ.p.4.4.2.Q.oXW.*.4.9.5.Q..Xq ! |.*X$X% % _ c w.p.T 3.<.9.9.1.1.p.p.f.*.P l 5 ",
"a , 8.:.J T a.f.p.s.s.p.p.p.p.d.4.P.y.Y 3.2.F.XX}.@.p.1.1.p._.oXN.d.&.p.2.U.W.9 r R.+X}.$ $ 9 D g.f.p.a.p.<.k.9.d.g.p.K c.h...; ",
"- 8 =.9.f.p.c.a.p.x.9.p.p.9.*.p.p.b.*.<.2.1.u.!.Q.H a.,.2.4.J.oX1 2.U 2.L S.E.$ % R.oXT.$ % c 3.4.9.,.9.a.a.8.9.f.p.s.*.B 1 ; = ",
"p m <.F g.a.9.k.s.p.g.p.g.*.3.d.p.9.p.3.Y <.5.!.Y.R R Y *.,.U @X= R R R -.{ L.o o S.oXL.% ^ 3.d.p.p.1.p.R <.9.a.f.f.a.<.F ..l - ",
"s 8 Y X.9.<.p.4.s.d.p.*.,.X.$.*.p.1.9.<.Y J 5.Q.b U G G G K I ;X+ S H K R ^ V.% o S.oX` i %.1.g.x.1.p.<.a.p.f.g.f.f.9.c.K 1 h - ",
"5 3 &.&.9.p.p.4.1.g.p.U U 7.*.4.,.$.1.U I V y.R.2 V m M n m V (., g V B m f _ y w { !.E c &.$.1.p.9.1.V *.9.g.g.x.k.p.g.4.,.- # ",
"l 6 <.9.8.g.g.d.s.p.,.p.2.U ,.*.<.1.,.R R I Z.P.g n g f f g f = # 8 n f m n g h x E T.E Z 2.,.,.R S T O.I &.3.4.3.<.9.>.<.:.z , ",
"K 6 &.<.8.3.3.s.2.d.d.g.p.p.1.p.9.=.R ,.I U K._ B A 8 g f f 4 O O < f 7 f n n n M E N.~ H *.,.p.1.<.3.>.&.9.w.<.3.3.w.3.p.<.f 4 ",
"l 5 G 3.d.4.k.g.p.p.p.p.s.p.s.2.9.>.*.<.1.R { y S V m n l k 4 = + , m 7 n m M G A d E x :.I Y 3.F <.f.9.*.p.s.p.x.3.d.f.d.w.-.g ",
"z m 6.F Y h.;.d.d.p.1.1.d.p.p.p.m.9.h.,.R U / f  .G n 5 6 k f 6 - 4 4 4 g f B G V G d B I V B 3.f.n f.k.I U p.m.*.g.p.v.m.g.S 8 ",
"..4 5 , n > , , v 6 n M 6 C H M 3 6 N f , 5 : 7 , S z 5 4 f 4 - + ; v j # B ; 5 , ; @ , f , 2 5 f , a , < n < 6 5 : , f f L f , ",
"4 O , # , > + X * + # 6 # O # < O X + : - X + - + - # + @ @ ; O X ; # O ; X O @ , O X - ; = # , 5 - @ - 1 g + @ # + - 1 , V s 3 "
};
