/* XPM */
static char *result[] = {
/* columns rows colors chars-per-pixel */
"64 64 241 2 ",
"   c #020105",
".  c #090705",
"X  c #0B0907",
"o  c #02010B",
"O  c #09070F",
"+  c #0D0B09",
"@  c #100907",
"#  c #120E0C",
"$  c #15110E",
"%  c #1A140E",
"&  c #020215",
"*  c #02001B",
"=  c #0A0519",
"-  c #120F18",
";  c #161311",
":  c #1B1611",
">  c #1E1914",
",  c #1C181B",
"<  c #21170E",
"1  c #231B15",
"2  c #291E16",
"3  c #231E1A",
"4  c #2B2117",
"5  c #26211C",
"6  c #2C241C",
"7  c #31261C",
"8  c #34281E",
"9  c #3B2C1E",
"0  c #020024",
"q  c #02012C",
"w  c #0B0A29",
"e  c #120C2A",
"r  c #121128",
"t  c #010232",
"y  c #090738",
"u  c #1C1837",
"i  c #261D28",
"p  c #201B32",
"a  c #252221",
"s  c #2A2622",
"d  c #2E2925",
"f  c #2F2C29",
"g  c #332B23",
"h  c #3B2E23",
"j  c #362B2A",
"k  c #342D2A",
"l  c #3C3024",
"z  c #37312C",
"x  c #3C332C",
"c  c #2B253D",
"v  c #3B3533",
"b  c #442F20",
"n  c #433326",
"m  c #493627",
"M  c #433529",
"N  c #45392E",
"B  c #4C3B2D",
"V  c #523E2C",
"C  c #453B34",
"Z  c #453B35",
"A  c #4C3E32",
"S  c #503F30",
"D  c #4F4134",
"F  c #4C423B",
"G  c #534334",
"H  c #5A4534",
"J  c #5C4936",
"K  c #54453A",
"L  c #5A463A",
"P  c #56493B",
"I  c #5C4A3B",
"U  c #674A37",
"Y  c #624D3D",
"T  c #65513E",
"R  c #6C533E",
"E  c #140B43",
"W  c #121242",
"Q  c #1B1647",
"!  c #12134A",
"~  c #261A4F",
"^  c #352F47",
"/  c #1F0464",
"(  c #261769",
")  c #211573",
"_  c #312C71",
"`  c #363675",
"'  c #463A43",
"]  c #423C57",
"[  c #3F4671",
"{  c #4D4643",
"}  c #534442",
"|  c #564B46",
" . c #5C4C41",
".. c #5E5146",
"X. c #524958",
"o. c #624E42",
"O. c #614F49",
"+. c #655243",
"@. c #6B5544",
"#. c #6D5945",
"$. c #645449",
"%. c #6B5649",
"&. c #66594C",
"*. c #6D5A4B",
"=. c #725643",
"-. c #735B45",
";. c #795D46",
":. c #735748",
">. c #745D4B",
",. c #7A5E4A",
"<. c #6C5D51",
"1. c #63545D",
"2. c #745F50",
"3. c #76614D",
"4. c #7B624C",
"5. c #6E6053",
"6. c #756252",
"7. c #7B6452",
"8. c #7E6855",
"9. c #7B6758",
"0. c #7D6B5C",
"q. c #555173",
"w. c #625C73",
"e. c #6A626A",
"r. c #82654D",
"t. c #84684E",
"y. c #8A6B4F",
"u. c #816651",
"i. c #846A53",
"p. c #8A6D53",
"a. c #836D5A",
"s. c #8A6F59",
"d. c #8C7156",
"f. c #85705C",
"g. c #8C735B",
"h. c #917256",
"j. c #92745A",
"k. c #977A5D",
"l. c #887564",
"z. c #987B63",
"x. c #A1866E",
"c. c #433C84",
"v. c #514B8A",
"b. c #555796",
"n. c #727292",
"m. c #544DAE",
"M. c #545DA6",
"N. c #5B62BA",
"B. c #736BAA",
"V. c #7D7BA7",
"C. c #7271BC",
"Z. c #645FC4",
"A. c #6766CC",
"S. c #6A6DCE",
"D. c #7776C5",
"F. c #7978D8",
"G. c #6E74E1",
"H. c #757AE6",
"J. c #8179CE",
"K. c #837DD9",
"L. c #7381BE",
"P. c #7C88C8",
"I. c #7C8AE8",
"U. c #7F87F7",
"Y. c #968F8E",
"T. c #878499",
"R. c #8A8AA6",
"E. c #8988B2",
"W. c #A59AA1",
"Q. c #9DA1BD",
"!. c #AFA7BC",
"~. c #8887C9",
"^. c #9595C6",
"/. c #8485DA",
"(. c #989ADA",
"). c #A8A6DA",
"_. c #B5B6D3",
"`. c #8788E7",
"'. c #858AEE",
"]. c #8F90E9",
"[. c #9897E7",
"{. c #8488F7",
"}. c #8B8AFD",
"|. c #8B93FA",
" X c #9999FA",
".X c #A69DF4",
"XX c #9DA8EE",
"oX c #A7ABE6",
"OX c #ACB3E8",
"+X c #B4B5EC",
"@X c #B7B8EA",
"#X c #BDBBED",
"$X c #A6A8F9",
"%X c #ABAEFC",
"&X c #B0AFF5",
"*X c #ADB3F3",
"=X c #AFBAF3",
"-X c #AEB4FB",
";X c #B4B5F6",
":X c #B8B7F2",
">X c #B5BAF6",
",X c #BABAF5",
"<X c #B4B6FA",
"1X c #B6B9FA",
"2X c #B9BBFA",
"3X c #C4BCC4",
"4X c #C1BEF0",
"5X c #BDC2DC",
"6X c #B7C2FA",
"7X c #BDC1FC",
"8X c #C8C5C9",
"9X c #C9C7D1",
"0X c #DAD5D8",
"qX c #E2DFDF",
"wX c #C9C8EA",
"eX c #C5C4F6",
"rX c #C2C4FB",
"tX c #C8C7F8",
"yX c #CCCDFC",
"uX c #CDD1FD",
"iX c #D1D1F0",
"pX c #D5D6F5",
"aX c #D6D8F6",
"sX c #DADAF7",
"dX c #D4D5FC",
"fX c #D9D6F9",
"gX c #D7D9FA",
"hX c #DADBFB",
"jX c #E2DDE6",
"kX c #E1DDF8",
"lX c #D9E3F7",
"zX c #DEE1FD",
"xX c #E9E6E9",
"cX c #E3E3FD",
"vX c #E9E9FA",
"bX c #EBEBFD",
"nX c #F2EEF7",
"mX c #ECF2FC",
"MX c #F4F3FD",
"NX c #FAF5FC",
"BX c #F9F8FB",
/* pixels */
"x : 8 8 D 8 G l 7 4 3 | > ; : G 6 l B B l m D m x F v 8 g 1 ..&., 6 8 s 6 x 6 ..g < m M 7 g 1 g 1 1 M 2 1 6 7 7 % > 8 : 6 g z $ ",
"+ $ $ . # ; # + X $ + $ X X > + . + + # $ $ > s $ $ % # 6 # $ # : $ : + . $ ; # $ < + @ + # + + + # + # $ + + # X X . # + % s % ",
"z % H 6 T R 3.R H D J G 5 8 R >.+.I i.4.3.t.H B D 3.3.I 2 h +.2 $ J G J L Y +.@.o.+.P G o.H Y +.*.4.=.@.T T T T J I G R D Y  .> ",
"{ + < 3.J P -.6.8.8.3.3.>.i.8.8.8.3.f.3.8.d.4.3.0.T T F e.8XqX0X8X0XW.| $.3.>.4.0.<.f.0.7.>.%.@.6.4.a.t.i.i.t.t.a.8.5.8.6.8.v 6 ",
"v # 9 G D R 6.T s.5.3.@.#.8.3.4.=.P +.6.@.#.>.2.I 9XnXnXNXNXNXNXNXNXNXNXnXjX..8.*.$.<.i.p.8.+.>.a.4.8.3.p.6.a.a.s.8.7.*.6.*.k : ",
"d % 1 b ;.3.3.3.3.4.>.t.7.3.4.3.3.T  .#.T 3.-.Y.BXMXNXnXbXvXcXcXkXcXbXbXnXMXMX0XK #.*.7.j.4.>.@.3.3.g.3.8.3.8.4.>.0.>.@.#.$.v 3 ",
"d 5 1 D R -.3.4.4.4.3.#. .+.3.R T T %.Y #.I nXNXMXvXcXcXkXkXkXsXkXhXsXkXkXbXbXMXMX' +.>.-.%.,.%.*.3.4.4.4.3.3.-.%.%.K %.+. .a 7 ",
"z $ H 3.4.y.#.5.3.i.4.>.3.3.#.*.+.5.*.#.A BXNXbXcXcXsXsXsXsXsXsXsXsXhXhXfXhXcXbXmXBXn.{ >.>.3.s.3.f.3.#.3.4.4.3.>.Y @.*.+.+.> 5 ",
"g 1 #.T @.9.3.*.4.4.6.8.>.>.>.3.4.-.*.} BXMXbXcXhXsXhXsXsXhXaXlXsXhXsXsXsXhXsXhXvXbXMX] C 8.3.a.<.6.6.+.I 7.7.,.>.7.2.2.+.$.} 3 ",
"g % N #.8.@.4.,.4.4.3.*.3.8.*.8.3.8.$.jXMXbXcXkXhXsXsXsXsXaXsXaXsXsXpXfXpXpXaXaXhXcXmXmXw K i.&.2.7.4.>.*.2.6.2.,.:.,.,.a.M : 1 ",
"> 7 #.4.3.>.4.>.4.-.3.#.4.a.4.4.*.*.w.MXbXcXhXsXhXsXgXsXsXgXaXhXsXpXaXpXpXpXpXpXpXpXzXvXbX; 2.6.>.<.6.3.8.>.7.>.%.>.>.7.s.d F 3 ",
"s 6 #.3.T @.@.+.4.4.3.i.s.4.r.p.t.} BXmXcXhXsXhXfXsXsXaXaXaXgXaXaXpXaXaXpXaXpXpXpXpXzXcXbXc &.7.%.8.4.-.4.4.3.*.%.I %.2.0.2.a : ",
"5 % f.I 9.8.*.r.,.3.3.y.3.4.p.T 4.1.mXvXhXsXhXhXsXgXsXgXgXhXgXgXgXgXgXaXpXpXgXpXpXaXhXcXbXiX..7.4.k.:.R 4.4.s.7.2.>.7.2.>.0.Z 3 ",
"A 6 ,.>.P 3.3.3.3.s.>.3.u.3.r.t.*.3XbXcXhXhXq.hXhXhXgXgXgXgXgXgXgXgXgXsXfXgXgXsXiXwXhXhXcXvX| 3.,.>.3.-.:.>.>.r.r.@.>.7.,.>.} > ",
"K l 7.>...@.3.-.>.4.>.4.>.3.3.4.} bXcXcXzX_.] hXhXhXgXgXgXgXgXgXgXgXgXgXgXgXhXhXR.n.cXhXcXcX' I  .3.G -.3.3.7.u.i.>.i.8.8.2.d # ",
"..5 >.+.3.y.d.3.3.4.3.8.4.4.,.y.} cXzXhXsXwX* gXzXhXhXgXgXgXgXhXgXgXgXaXsXsXzXzXr R.hXhXkXhXV.4.4.s.3.t.r.4.i.r.4.i.r.u.p.g.D : ",
"s l #.&.-.3.#.3.t.y.#.#.j.t.d.d.| zXhXhXkXkX* & xXlXhXgXhXhXgXgXhXgXsXfXsXhXzXR.* _.kXhXhXiX@X2.#.4.4.4.4.4.r.3.r.r.u.u.i.u.B # ",
"d > 3.0.*.3.#.-.6.R *.*.+.t.4.4.X.hXkXhXcXhXo o L.vXzXgXgXhXhXgXdXdXsXpXsXcXiX= r dXkXhXhXeX@X:.3.7.-.3.:.%.Y r.4.t.j.i.7.9.A : ",
"d $ T *.*.3.3.;.3.I 5.&.8.3.8.3.1.dXhXkXcXiXo o * zXcXhXgXgXhXgXhXhXfXfXhXcX^ O p pXcXkXdX4XOXo.G o.%.#.:.7.%.%.3.6.s.8.u.7.v > ",
"a 4 @.Y Y T 3.#.*.*.+.&.3.+.3.6.X.dXuXkXvX5Xo   w.zXzXhXhXgXgXhXhXgXhXsXhXhXX.  o wXcXkXdX,X).%.>.@.@.#. .=.>.:.,.>.2.6.2.>.v @ ",
"f % T P ..3.+.3.I  .*.&.*.T =.>.X.yXrXhXvX_.o o R.cXlXhXgXgXhXhXgXgXgXhXhXcXmX    wXcXhX4X#XOXO.i.>.:.+.o.:.8.>.:.*.*. .$.&.a $ ",
"3 4 3.T T 6.8.I *.K *.*.@.*.4.>.X.yX2XdXzXQ.  o q.sXzXhXhXhXhXdXhXgXgXhXzXzXlX    wXbXdX4X@X).l.3.:.Y #.4.7.>.>.>.*.6.>.*.K 1 : ",
"> 1 -.R T >.@.>.R Y #.3.@.-.,.>.' rX,XtXhX5X    L.kXgXgXgXgXhXhXgXgXhXgXhXzXcX  & pXcXtX,X,X:XS >.>.%.=.#.-.3.:.2.6.,.>.$.7 , 5 ",
"v l x.*...&.@.#.*.>.*.6.+.#.%.%.p 2X7X6XrXhXw.w zXhXhXgXgXgXhXdXgXgXgXgXaXzXsX& r cXuX:X#X,X2XZ @.>.#.@.4.4.%.4.8.3.3.2.Z k ; > ",
"a 4 t.8.#.3.3.R I #.T T I L @.Z yX2X7X,X,XrXhXcXcXhXhXdXdXhXdXhXgXgXdXgXhXhXcXvXkXrX,X:X:X,X:X~ L +.o.@.+.;.2.2.,.>.>.>.$.} g 5 ",
"a 8 -.J J J 3.J R D I T +.G &.4X7X7X,X,X,X2X,XrXdXhXhXdXhXhXhXdXgXgXsXdXgXdXdXuX4X,X,X,X:X2X,X~ mXY A S Y +.4.,.@.%.%.+.L $.a # ",
"8 2 3.3.J T -.D -.T P P J %.P uX,X2X,X2X2X2X2X2X2XrXyXdXdXdXdXhXgXgXdXsXdXyXrX7X:X2X,X;X,X2XoX).dX| L S +.o.>.o.>.@.=.+.*.&.x 1 ",
"D 7 y.t.t.-.4.3.8.3.#.3.>.d.T.rX2X,X2X2X<X2X2X2X2X,X2X,X4X2XrX4X7X7X7X2X2X2X2X>X,X2X2X,X,X2X2XrXyXxX:.@.+.+.,.7.7.,.8.7.6.*.5 1 ",
"k l d.d.4.d.3.d.T 8.d.-.8.x.tX7X2X2X>X>X2X2X2X<X2X2X2X2X2X2X2X2X2X1X2X2X2X1X1X2X1X2X2X<X2X1X2X2XrXkX>.7.%. .2.7.7.7.8.a.7.6.N : ",
"x 9 l d.P G >.3.5.D d.x.8.@.iXeX:X,X2X>X;X1X2X>X<X2X1X2X2X2X1X1X2X2X1X2X1X1X2X2X1X1X2X2X;X>X,X2XrXuXZ a.*.9.$.8.f.7.8.7.f.l.P : ",
"g % b D D D D D J J 9 D 8.e.aX6X~ OX2X>X;X1X;X>X2X1X1X1X2X<X2X1X2X2X1X1X1X1X<X1X<X1X1X;X1X2X+XrX>XyXT.2 I %.$.2.a.6.3.7.9.0.d > ",
"4 # > > > 4 $ > % > % % : X.uX7X0 >X7X2X>X>X;X>X<X1X1X1X2X<X2X<X<X2X1X1X2X1X1X1X1X;X1X1X<X,X*XB.2XyX0X% ; 1 7 M g M Y J 8 6 6 $ ",
"> $ : $ % $ + # + # # % % w.uX^.& 6X7X2X>X;X;X1X1X1X2X1X1X1X1X1X1X1X1X1X2X1X1X2X1X1X;X;X;X2X,XE :XrXpX@ $ # # . + $ # # + . ; ; ",
"N % J R R R J R J U >.;.h.R.dXV.* @X7X2X>X;X;X<X1X1X1X1X2X2X1X1X1X1X2X1X1X1X<X<X;X1X1X1X;X2X2Xy #XrXsXx +.@.G N H %.s.l.6.h 3 # ",
"G 4 R t.8.3.R -.=.=.=.t.;.Q.uXV.* OX7X1X>X>X1X1X1X;X1X1X<X1X1X1X1X<X1X1X<X1X<X1X1X1X1X<X1X1X2Xq #X7XaXz I +.>.>.*.@.s.#.2 h : ; ",
"F 5 h.y.R R 3.R 4.4.@.;.p.jXuX^.0 OX7X,X;X1X1X1X;X1X<X<X<X2X1X>X2X2X<X1X1X;X2X1X;X1X;X;X;X1X6Xt @XrXlXX.:.U @.3.>.@.3.d.a.L K > ",
"..8 R 4.4.d.t.t.;.4.r.4.i.NXuX).0 ^.7X#Xc.1X<X1X;X<X<X;X1X<X1X1X1X;X1X1X1X1X<X1X1X;X;X<X1X2X6Xq #XeXkX8X7.} 7.s.8.:.%.s.z.8.j > ",
"k 6 3.f.&.3.f.x.4.#.8.a.r.xXfXOXq L.6XOXQ <X1X<X;X<X<X;X1X1X;X1X1X1X<X,X;X1X1X;X<X;X<X,X<X1X6X0 4X4XkXqX%.,.%.>.i.4.>.s.2.5 3 # ",
"g 4 d.8.-.3.*.8.p.d.j.i.s._.kX@Xt n.6XoXy <X<X;X;X<X;X<X<X<X<X;X;X;X;X;XoX1X;X;X<X;X<X>XoX=X6X0 @XeXnXqX>.7.+.>.:.a.&.a.0.*.x $ ",
"k D R 8.8.R 3.4.3.3.4.8.i.1.bXeXt Q 6X).t *X<X1X;X;X1X<X<X;X1X<X;X;X1X,Xv.<X;X1X;X1X>X<XB.=X=X0 4XyXbXW.o.%.%. .0.+.*.*.+.*.<.> ",
"6 4 -.8.6.R 8.T p.4.y.t.r.6.bXfXu y +XoX0 oX1X<X;X<X<X~.<X<X<X<X<X<X<X1X~ =X1X<X<X<X>X2X` +X1X* tXkXbXj >.+.3.i.&.s.>.@. .} Z 3 ",
"s 7 4.3.4.R y.t.t.-.p.4.p.i.!.pXQ y *XoX0 (.1X<X%X;X;XC.&X2X<X<X;X;X1X1X~.! 6X1X1X<X1X2XE =X>X* w.T.v #.#.I *.3.*.T 4.>.+.3 ; $ ",
"6 8 d.T -.-.>.3.d.4.d.t.p.4.p.p.8.^ *XoX* b.1X1X;X;X*XXX( <X1X<X;X<X<X<X[.q (.2X1X1X1X>XW >X=X, S o.Y L G +.G 3.8.4.r.>.a.I d $ ",
"G 9 3.#.-.3.4.8.*.T 3.d.t.d.y.r.x.F $X$X0 ~ -X<X-X;X*X(.t -X2X<X<X;X<X%X].M.t >X2X2X2X;XQ 1XoXh A S A J %.>.>.:.-.>.r.>.{ Z > > ",
"l : T T y.y.t.T @.Y d.:.y.4.p.j.,.@.(.%X! y -X1X-X1X-X(.0 F.-X1X<X-X*X$XF.H.t D.<X1X6X;XQ <Xv.m A A L Y >.>.4.>.:.8.*.>.K 6 5 : ",
"5 # H t.4.3.>...#.#.8.k.3.y.p.p.r.r.V. Xb.0 XX1X<X-X<X[.q !  X1X<X-X$X/.A.H._ t  X%X6X(.Q >X^ M S A L L #.-.T >.*.+.@.@.8.:.s 1 ",
"C # l d.4.4.-.P I @.t.d.i.p.#.>.j.h.X.`.M.& ].1X-X1X1X[.W o {. X-X%X]./.F.U.A.0 F.|. XD._ <Xi B G G L J %.%.3.#.>.o.+.$.*.>.> % ",
"5 # R y.4.4.3.4.3.3.d.t.4.4.3.*.>.J x F.` & D.1X<X1X1X].W   `. X X X/._ F.}.H.0 ` ].'.v.` ;X3 M S L U o.+.#.4.K 7.o.>.>.0.$.6 1 ",
"C 1 3.#.3.>.t.p.-.,.r.p.t.h.p.-.I >.A C.` o v.-X<X2X-X/.0   e }.{.'.I.0 {.{.U.0 W {.U.` c.=X> m B H I T #.4.-.*.T +.>.*.0.j : ; ",
"v ; H -.:.r.;.4.r.:.d.r.y.h.4.4.$.o.C v.` o ~  X<X2X<XF.O $ # |.{.'.D.* }.{.I.0 t F.'.( c.*X4 B G V Y Y J t.#.>.*.#.:.s. .s g : ",
"g % 3.t.>.-.r.I U 3.-.4.r.R 4.Y +.o.o.i v.o E `.<X1X$XS.# < @ [.|.'.W 0 }.U.I.o w S.U.y ) P.8 N G H G Y T 4.t.4.#.#.#.A K I z : ",
"d 9 3.3.#.-.U T 3.:.=.p.r.4.t.t.I *.r.@.f o E F.<X<X.X[ : 1 X _ |.{.q _ }.H.I.o q A.H.* ! q.6 h B P I Y U 4.4.R 8.r.4.N , 5 a > ",
"6 > t.5.3.R J :.=.r.r.r.r.p.p.h.>.R o.r.P l e Z.%X1X].e 1 < . o  XU.0 N.}.H.I.o w G.G.* W r 6 n B J G T :.4.4.R ;.4.r.i.@.P z 6 ",
"6 > R &.P Y t.y.r.y.y.r.r.r.r.r.i.@.>.Y o.L n m. X$X`.= < : .   $XI.= M.}.{.I.o y A.A.o O > 9 M G T R 4.4.=.d.4.r.p.y.F g.a.| > ",
": 9 -.4.y.t.d.t.r.h.4.r.t.3.=.r.r.r.r.:.@.R H ^ '. X`.# 1 : % . $XS.= W {.}.I.. & Q O : 2 6 l N G Y U 4.t.4.4.4.s.4.p.#.M 3 > $ ",
"s M #.K i.p.4.d.y.r.h.,.p.@.>.t.t.4.t.,.Y =.L g K. XK.; 3 : ; . P.D.o & {.}.B.. X # 1 1 5 8 l D J R R 4.R 3.4.t.i.i.t.-.D | z : ",
"6 9 T I 3.;.t.,.y.r.r.@.=. .o.=.r.-.r.;.+.T U H B. XJ.: 1 > : . y P.o & m.}.` X $ $ 2 1 6 g M Y =.R ;.:.t.r.t.p.i.i.3.j.K 2 k : ",
"5 7 +.+.4.4.r.4.,.p.y.U U 2.@.,.=.@.r.R =.J R A i  XJ.: 3 1 : $ . O O w ( }.O @ % > > 6 d M N I #.-.-.B #.,.p.s.d.h.r.p.r.@.: % ",
"x 8 :.3.3.y.p.r.u.r.=.r.:.U @.=.-.;.;.;.t.,.;.-.V .X/.1 7 5 > + . X X r / {.@ % > > 4 h B G I U U A I +.I +.>.,.:.>.3.*.*.%.z 2 ",
"K 6 +.>.4.-.>.r.:.u.u.p.u.r.:.r.4.-.R r.>.p.4.i.u.1.E.g n h > + . ; ; + ) b.: 2 6 l l D J T R ;.-.=.>.*.+.7.8.=.-.,.4.3.r.-.g 5 ",
"z 6 G 3.i.4.p.p.r.r.,.u.y.r.p.:.4.:.>.4.p.p.;.@.u.} T.H P D 6 ; + > g 1 p : 7 n h x H P 3.T @.#.D :.i.4.#.y.i.t.p.>.i.p.u.7.+.h ",
"x M *.F L a.@.s.u.u.r.,.u.r.r.r.z.4.a.=.-.i.i.l.0.a.R m N D N g 1 , 5 1 g 7 N D D #.R #.*.H D 4.i.M i.d.Y U r.k.%.p.r.j.z.p.A 9 ",
"P 5 6 1 b 1 1 1 x 7 b m 7 V H b 2 7 N g 2 7 1 m 7 o.o.h z D d > $ 4 C k $ A > s 6 > : 4 z 5 6 6 g 1 6 5 2 h 2 7 2 3 1 g g L d 1 ",
"3 + 2 ; 2 : # + - @ % 7 < @ % 2 # X # , : + # : : 1 1 : ; : 5 # . > : + 1 # # % 4 # + > 3 : % 2 5 % $ % 2 j # # > @ > 1 1 B s 7 "
};
