/* XPM */
static char *result[] = {
/* columns rows colors chars-per-pixel */
"64 64 238 2 ",
"   c #080705",
".  c #0B0907",
"X  c #01010D",
"o  c #0D0B09",
"O  c #120E0C",
"+  c #15110E",
"@  c #19140E",
"#  c #030113",
"$  c #0C0517",
"%  c #02011C",
"&  c #130E10",
"*  c #161311",
"=  c #1B1611",
"-  c #1E1914",
";  c #1A151B",
":  c #21170F",
">  c #231C14",
",  c #291E15",
"<  c #221D1A",
"1  c #2D2217",
"2  c #26211D",
"3  c #2B231C",
"4  c #32261C",
"5  c #34281E",
"6  c #3B2C1E",
"7  c #010224",
"8  c #0B0724",
"9  c #01022C",
"0  c #110A29",
"q  c #17122A",
"w  c #090737",
"e  c #150C3B",
"r  c #0D103B",
"t  c #181539",
"y  c #201B25",
"u  c #231D37",
"i  c #252221",
"p  c #2A2622",
"a  c #2E2925",
"s  c #2D2829",
"d  c #332B24",
"f  c #362A27",
"g  c #3B2D23",
"h  c #332D2A",
"j  c #3D3023",
"k  c #37312C",
"l  c #3C342C",
"z  c #2B2738",
"x  c #362B37",
"c  c #3A3533",
"v  c #3C3532",
"b  c #442F20",
"n  c #433425",
"m  c #493627",
"M  c #43352A",
"N  c #45392D",
"B  c #4D3C2C",
"V  c #513E2D",
"C  c #443C34",
"Z  c #4C3D33",
"A  c #473A3B",
"S  c #513F32",
"D  c #4F4134",
"F  c #4D433C",
"G  c #534234",
"H  c #5A4534",
"J  c #5D4936",
"K  c #54453A",
"L  c #59463A",
"P  c #56493C",
"I  c #5C4A3C",
"U  c #674A38",
"Y  c #624D3D",
"T  c #65513E",
"R  c #6B523E",
"E  c #0A0844",
"W  c #180F4E",
"Q  c #17144A",
"!  c #171253",
"~  c #231F4B",
"^  c #231756",
"/  c #272246",
"(  c #362945",
")  c #39324A",
"_  c #2A2859",
"`  c #30345E",
"'  c #231D62",
"]  c #282767",
"[  c #32306B",
"{  c #292A74",
"}  c #363879",
"|  c #433A46",
" . c #4A3D42",
".. c #4C464B",
"X. c #524642",
"o. c #544B41",
"O. c #5D4C41",
"+. c #5A4D48",
"@. c #5D5043",
"#. c #5E5348",
"$. c #624E41",
"%. c #655243",
"&. c #6B5544",
"*. c #6E5945",
"=. c #635449",
"-. c #6B5648",
";. c #65594C",
":. c #6D5A4B",
">. c #715643",
",. c #735B45",
"<. c #795D46",
"1. c #735748",
"2. c #745D4B",
"3. c #7A5E4A",
"4. c #6C5E53",
"5. c #645B5A",
"6. c #745F50",
"7. c #76614D",
"8. c #7B624C",
"9. c #6E6053",
"0. c #756251",
"q. c #7B6452",
"w. c #7E6855",
"e. c #7B6758",
"r. c #7D6A5B",
"t. c #4F4B70",
"y. c #655C6A",
"u. c #6E6770",
"i. c #82654D",
"p. c #84684E",
"a. c #8A6B4F",
"s. c #816651",
"d. c #846A53",
"f. c #8A6D53",
"g. c #836D5A",
"h. c #8A6F59",
"j. c #8D7156",
"k. c #85705C",
"l. c #8B735B",
"z. c #917256",
"x. c #91745A",
"c. c #977A5D",
"v. c #887461",
"b. c #987B63",
"n. c #85807F",
"m. c #A1866E",
"M. c #383784",
"N. c #474888",
"B. c #57528A",
"V. c #4C4995",
"C. c #565799",
"Z. c #625C8F",
"A. c #5F6298",
"S. c #696584",
"D. c #726D93",
"F. c #5B5CA9",
"G. c #5858B6",
"H. c #635BB1",
"J. c #5C6AB2",
"K. c #6561A6",
"L. c #7A7CAA",
"P. c #6E6EB3",
"I. c #787AB3",
"U. c #6A6BC7",
"Y. c #7A7BC5",
"T. c #6869D6",
"R. c #6C6FD5",
"E. c #7577D4",
"W. c #777BE3",
"Q. c #807BDE",
"!. c #897FE6",
"~. c #7F82B6",
"^. c #7881CA",
"/. c #7983E7",
"(. c #7E83F4",
"). c #7F85FB",
"_. c #988D88",
"`. c #8886A8",
"'. c #918EB3",
"]. c #B3ABAD",
"[. c #8789C7",
"{. c #8B93C6",
"}. c #8B95CC",
"|. c #898BD8",
" X c #9396D0",
".X c #979AD8",
"XX c #B1AED2",
"oX c #8788E8",
"OX c #9697E5",
"+X c #8588F8",
"@X c #8A89FC",
"#X c #908CFE",
"$X c #8B96F7",
"%X c #9799F8",
"&X c #9EA3E7",
"*X c #94A7F1",
"=X c #98A2FD",
"-X c #A6A9EA",
";X c #AAB3EA",
":X c #B8BDE8",
">X c #A8A9F6",
",X c #ADB3FA",
"<X c #B3B5F5",
"1X c #B4BBF5",
"2X c #B9BCF7",
"3X c #B4B6FA",
"4X c #B8B7FB",
"5X c #B6B9FB",
"6X c #B9BBFB",
"7X c #C0BDEE",
"8X c #C3BEF6",
"9X c #B9C0DD",
"0X c #BBC1F6",
"qX c #BCC2FD",
"wX c #CBC5C3",
"eX c #DBD7D7",
"rX c #CFCDED",
"tX c #C5C6F8",
"yX c #C2C5FC",
"uX c #CCCCFB",
"iX c #CDD2FB",
"pX c #D6D8F7",
"aX c #D8DAF6",
"sX c #D4D5FD",
"dX c #D8D5F8",
"fX c #D7D9FB",
"gX c #DADBFC",
"hX c #E1DCFD",
"jX c #DFE2FD",
"kX c #EBE9EA",
"lX c #E3E3FD",
"zX c #E9E9FA",
"xX c #EBEBFD",
"cX c #F1EEFB",
"vX c #EEF1FE",
"bX c #F5F6F9",
"nX c #F4F3FD",
"mX c #F9F9FD",
/* pixels */
"l = 5 5 D 5 H j 4 1 2 P - * - G 4 j B B j B D n n F l d d - #.;.- p 4 a 2 l 4 +.d : m M 4 5 , d > > M , 2 1 4 4 = - 5 = 4 d k + ",
"o + +   O + O .   + o + o   - o   o o O + + ; a + + @ o 2 + + + @ + = o   @ * O * : o o o O . . o O o O + o o o o .   + o @ i @ ",
"k @ H 3 T R 7.T G G H D 2 5 *.*.@.I f.8.,.p.H N D 7.7.I 1 d O.2 + P G L H Y -.T %.T L G $.H $.=.:.7.*.R T T T T H I K R K I @.> ",
"X.o : 7.J P 7.0.w.d.7.0.7.d.w.w.w.q.r.7.w.j.8.q.w.T 7.I @.5.wXwX].wX9.P &.7.7.7.e.4.v.r.q.2.*.&.0.q.d.d.d.d.p.p.r.w.:.w.7.w.c 1 ",
"c O b G D R 7.T k.9.7.&.*.w.7.8.*.P =.7.&.*.7.7.q.2 _.kXnXnXnXcXnXnXbXbXeX].I q.2.=.4.d.f.q.=.2.g.8.q.8.k.7.d.k.f.w.q.2.0.:.h ; ",
"a @ : n 8.,.7.7.8.8.2.i.q.7.8.7.7.T I *.T 7.8.K _.kXnXnXxXzXzXlXlXlXzXzXvXnXkX5.2.-.-.q.x.8.<.*.7.7.l.2.8.8.w.8.0.r.2.=.*.=.l 2 ",
"a 2 2 D R ,.8.8.8.8.7.,.O.%.7.&.Y T *.T *.7.Z cXbXvXxXlXhXhXaXhXgXaXhXhXlXxXcXnXeX:.6.2.,.:.7.-.7.q.8.8.q.8.7.,.&.-.L &.%.@.2 4 ",
"k O H ,.8.d.*.9.2.d.q.2.2.7.&.*.&.9.*.&.7.d mXnXzXjXaXgXgXgXaXaXgXgXgXaXaXgXlXzXnXcX .e.3.2.2.h.:.g.7.*.7.q.7.7.2.Y %.:.%.%.- < ",
"d > &.T *.e.8.:.8.8.0.q.7.2.2.7.8.*.:.*.d mXnXzXlXaXgXgXgXfXgXgXgXgXaXaXfXaXgXaXxXvXmXK q.q.q.g.2.0.2.=.I 0.q.3.2.q.6.6.-.=.X.< ",
"d @ N ,.w.&.7.2.8.q.7.:.7.w.2.q.7.q.q.B mXnXxXlXaXgXgXgXaXgXgXfXgXaXfXaXaXaXaXaXgXlXxXzX=.4.d.;.4.e.8.2.:.6.q.6.6.1.3.2.g.M = > ",
"< 4 &.8.7.2.i.,.8.,.7.*.q.g.8.q.2.7.&.u.mXxXgXhXaXhXfXgXaXgXfXgXgXgXaXpXaXaXpXgXgXgXzXvX..; 3.0.2.2.0.7.d.2.q.2.1.2.:.s.h.a F < ",
"p 1 *.8.T %.&.%.8.8.7.p.f.8.8.f.i.q.o.mXxXlXgXaXgXgXfXgXaXgXfXgXfXfXaXpXpXpXpXpXpXpXjXzXnX .0.e.-.q.8.2.8.7.7.-.=.Y -.2.e.6.i = ",
"i > k.L e.d.4.8.8.8.7.d.7.8.f.%.i.f.'.nXlXgXgXgXfXgXgXfXgXgXgXgXfXgXgXfXpXfXpXfXpXpXjXlXzX..-.3.q.c.,.R 8.8.h.q.6.2.q.2.3.e.Z < ",
"C 1 2.2.P 7.2.7.0.f.2.7.d.2.i.p.q.=.kXzXlXgXgXgXgXgXgXgXgXgXgXgXfXgXgXfXfXpXfXfXpXpXgXlXlXiX=.q.7.2.,.2.*.2.2.i.i.-.2.q.6.2.o.- ",
"K j 7.2.=.&.7.2.2.8.2.7.,.8.7.8.*.A zXlXaXgXgXfXgXgXgXgXgXgXgXfXfXaXaXfXfXfXfXpXgXgXgXgXlXlXX.o.%.0.G ,.7.q.q.s.d.2.d.w.e.3.s O ",
"+.1 2.-.7.p.j.,.7.8.8.q.8.8.8.p.7.x jXjXjXgXfXgXfXfXgXgXgXgXgXfXfXgXgXfXpXfXpXfXfXfXgXgXjXgX5.s.7.f.8.d.i.8.d.s.8.p.i.s.h.l.Z = ",
"a j *.;.*.7.*.7.p.d.,.*.z.p.j.j.x.A jXjXsXgXgXgXgXgXgXfXgXfXfXgXfXgXfXgXgXgXgXfXgXdXfXgXaXsXS.s.*.8.8.8.8.8.p.8.i.i.s.s.g.s.B & ",
"a - 7.r.:.7.R 7.8.T :.:.%.p.8.8.7.y.iXjXgXgXfXsXgXgXgXgXgXgXfXgXfXfXgXgXgXgXdXgXgXfXfXfXgXuXS.3.7.0.,.8.-.1.Y i.7.i.x.d.s.0.Z = ",
"a + Y :.*.7.8.,.7.I 9.;.r.7.q.7.8.`.iXgXgXfXfXgXgXgXgXgXgXgXgXgXgXgXgXgXgXgXgXgXfXdXgXfXgXtXS.-.D Y -.&.1.6.-.-.8.0.g.r.s.q.v = ",
"i 1 *.Y I T q.*.9.*.T ;.7.&.7.q.=.`.yXjXgXgXiXjXgXgXgXgXgXgXgXgXgXgXgXgXgXgXgXgXgXgXfXsXsX0XS.2.2.*.*.-.$.1.2.1.3.2.3.0.6.2.v O ",
"a = T P @.7.#.0.Y @.-.;.:.T R 2.X.L.yXiXsXgXsXgXgXgXgXgXgXgXgXgXgXgXgXgXgXgXgXgXgXgXsXsXuX2XS.4.d.2.2.$.$.2.w.2.2.2.2.o.%.;.< = ",
"< 1 7.T T q.q.I *.K :.:.&.:.8.8.C D.qXqXiXgXsXgXgXgXgXgXgXgXgXgXgXgXgXgXgXgXgXgXgXfXsXsX0X2X'.;.2.1.I ,.3.q.2.2.2.-.6.6.4.K - = ",
"- > 7.*.T 7.*.7.R @.&.7.*.*.7.7.a K.6X2XyXsXsXgXgXgXgXgXgXgXgXgXgXgXgXgXgXgXgXfXfXsXsXtX2XqX{.$.2.<.-.>.>.,.q.2.6.6.<.2.%.a < 2 ",
"c j c.:.#.%.&.*.*.7.,.9.-.*.&.:.; &XqX6X0XiXiXgXgXgXgXgXgXgXgXgXgXgXgXgXfXfXfXfXfXsXuX2X2X2X}.x -.2.,.=.8.8.&.2.e.3.7.6.C h * - ",
"p 1 p.q.*.,.7.R T *.T T O.L &.o.) ;X0X2X2X2XtXsXgXgXgXgXgXgXgXgXgXgXgXsXgXgXgXsXsXtX6X2X2X6X{.$ Z %.$.$.%.2.6.3.3.2.2.:.=.O.a 2 ",
"p 3 ,.I J J 7.J T D I T T G I z t.;XqX2X2X3X2X2XuXsXgXgXgXgXgXgXgXgXfXgXgXgXsXuX0X6X6X4X6X6X}.$ D.I Z S Y $.q.3.-.&.*.=.I $.i O ",
"4 , 8.7.I T >.G ,.T P P L *.I 9X` :XqX6X2X2X3X6X6X6XyXuXsXgXgXgXgXgXgXgXuXyX6X6X6X3X6X6X6X6X}.8 XXx L S %.Y 6.$.2.&.1.$.-.;.l > ",
"D 4 a.p.a.,.8.7.w.7.*.7.,.h.X.pX` 0XqX0X6X3X2X6X6X5X6X6X6X6X6X6XyX6X6X2X6X6X6X6X6X3X6X3X6XqX}.8 XXn.$.&.%.%.3.q.q.3.w.q.0.:.i > ",
"h j j.j.8.j.,.k.T w.d.7.w.z.A lX/ XXyXqX5X3X6X3X5X6X5X6X6X6X4X6X6X6X6X6X6X5X6X4X3X6X3X6X5XqX}.8 `.7X_.i.-.O.q.q.e.w.q.h.w.e.M = ",
"l j j j.P D 7.8.:.D j.m.r.7.) zXQ _ qXqX6X3X3X6X5X6X4X6X4X6X6X6X6X6X3X5X4X4X5X4X5X5X3X6X6XqX X8 D.dXf h.:.e.#.q.g.q.e.q.g.v.P = ",
"5 + b D D D D D J J 6 D w.w.XXaXt 7 qXqX3X6X3X3X4X5X5X6X6X5X6X6X6X6X5X6X5X5X4X4X5X6X5X5X6XqX.X% S.dX0 g I -.=.6.g.q.7.q.e.r.a - ",
"2 + - : > 2 O - = - - @ - > 9XjXt % qXqX6X3X3X6X5X4X6X5X5X5X6X4X6X4X5X5X5X5X3X5X6X3X3X3X5XqX8X8 t.hXt.s * > 4 M 4 M T L 5 3 3 + ",
"- O @ + + + . O O O + + + * rXdXt % qXqX6X6X3X6X5X5X6X5X4X6X5X5X3X6X5X6X4X4X3X5X4X3X3X1X6X6XiX7 t.sXnX$ + O O . O O O O o   = O ",
"D = J R ,.R U R J I <.,.z.A dXdXQ % qXqX3X6X5X3X5X5X4X5X5X5X5X5X6X3X5X4X5X5X5X3X2X3X3X<X5XqXiX7 Z.uXlXp %.%.S B G &.h.v.0.f < O ",
"D 1 R p.8.7.R 7.>.>.<.p.<.c lXuX` % qX6X<X1X5X5X6X5X5X5X5X5X5X5X6X6X5X6X3X5X5X5X2X3X3X2X3X6XqX8 '.tXxXq I $.2.2.1.&.g.,.4 g = = ",
"F : z.p.R >.,.R i.3.%.1.a.A nXuXB.7 2X1X-X;X5X5X5X4X4X6X5X4X5X5X5X5X5X5X5X5X3X3X<X3X3X<X3X6XqX8 2X0XbX# +.U %.7.2.&.7.x.s.o.S - ",
"#.5 R 8.w.j.w.p.<.8.i.7.h.A xXuX~.7 0X0X[.}.4X5X5X3X3X4X5X5X5X5X3X5X4X1X3X1X3X3X3X3X3X<X<X6X1X9 8X7XnXX F L q.h.q.1.-.f.b.w.f = ",
"k 3 8.k.-.7.g.m.8.*.w.g.q.X.xXsX'.7 :X0X`.B.5X5X4X4X3X3X5X3X5X5X3X<X4X3X,X3X4X1X<X3X<X3X-X1X-X7 7XtXnXX x 2.-.3.h.q.2.h.6.p < O ",
"a 1 j.q.*.8.:.q.p.k.x.d.f.A rXhX2X9 }.0XI.Q 3X5X4X4X3X3X1X3X3X3X3X3X1X6XK.1X3X1X<X<X3X<X}.<X.X7 7XuXnXX A e.%.2.-.d.;.g.r.:.k * ",
"d D *.w.w.R 7.p.8.7.8.d.f.A `.xXuXw t.0XL.w >X5X3X4X4X-X,X3X3X3X1X3X3X6XK.;X5X4X3X1X<X<XP.1X X7 sXgXnX% P &.&.o.r.-.2.=.&.:.4.- ",
"3 1 :.8.w.R w.T f.8.a.p.i.q.t 9XrX9 [ 2X`.7 >X5X3X3X3X,XC.4X5X3X4X<X3X3X.X! qX3X3X3X3X.XV.6XI.7 L.uXt h ,.&.0.d.;.h.2.-.o.o.C > ",
"a 1 8.7.w.T p.p.p.>.f.8.f.f.Y y 9 9 _ 4XI.7 -X5X3X3X3X>XW -X3X3X3X3X5X5X%X9 [.5X5X3X5X[.B.6XA.q x  .P 2.-.L -.0.-.T 8.2.-.> & + ",
"2 5 j.T ,.,.7.7.j.8.j.f.f.8.j.f.-.z Q <X|.7 .X6X3X3X<X-XQ Y.3X5X3X<X3X,X#XF.E ,X5X5X5X^.B.6X}  .<.7.8.Y L &.G <.q.8.8.7.g.L a = ",
"G 6 q.*.,.,.8.p.:.%.7.j.8.z.p.i.m.2.e >X|.9 I.3X3X3X3X-XQ ! >X5X5X3X3X>X!.T.w |.,X5X5XP.B.3XQ +.2.*.T &.2.:.2.2.8.,.s.2.X.C = - ",
"k @ T T j.a.8.T *.Y h.,.f.8.f.x.3.s.) OXOXr N.>X3X3X,X>XN.7 $X4X5X5X<X!.T.W.N.E *X,X,XF.B.5XQ -.-.&.,.2.3.2.7.2.2.q.-.2.L a , = ",
"2 O H p.8.7.7.%.&.*.8.c.7.p.f.f.i.f.) P.oXr Q OX4X5X5X*XY.% E.%X5X5XOXoXT.!.U.9 E.$X>XN.Z.,XQ 1.8.,.2.-.2.2.%.2.2.$.*.%.q.2.p - ",
"D o j j.8.8.*.P I &.p.j.f.d.*.2.c.j.) } E.% 9 .X5X5X3X%XF.# } @X$X%X/.H.U.+XE.9 H.(.oX{ P..Xr d.f.<.>.*.2.&.7.*.2.$.=.-.-.2.- = ",
"2 O R a.i.8.7.8.7.7.j.p.7.i.7.*.2.J ..w P.% 7 Q.,X5X6XOX] o X +X@X+XW.9 W.+XW.w ] /./.] P.^.0 q.p.d.i.2.&.2.8.K 7.$.6.2.r.=.3 > ",
"c 2 ,.*.2.2.d.j.,.<.i.f.d.z.a.<.I :.;.8 C.% % U.>X3X5XoX[ f @ $X@X+X/.# (.(./.# E W.W.W K.A.0 i.8.p.8.8.<.8.2.:.Y -.2.1.e.k + = ",
"c + H 7.,.8.<.8.i.,.f.i.a.j.8.8.%.$.L ; [ 7 % G.>X4X,X.Xx -.K ^ #X+XM.# +X)./.X r R.W.w C.} q c.f.i.i.,.T p.*.2.-.*.2.k.@.p d = ",
"5 @ <.a.2.<.i.Y Y 3.2.8.i.R i.Y =.Y $.X.$ % % V.%X4X=XQ.L $.C & @X@Xw Q @X)./.X r T.T.% } ~ +.f.z.8.2.2.&.8.i.,.*.*.*.Z F O.k = ",
"a 6 7.7.>.>.Y Y 2.1.>.f.i.3.i.p.$.-.d.2.X.8 # { oX<X%XB.&.$.< = OX+X% { @X(./.X r T.G.# w Q 8.<.d.q.8.R &.8.,.R q.i.8.N ; 1 i = ",
"3 - p.9.7.T J ,.>.i.i.i.i.f.f.z.<.%.%.f.I O. .W E.=X%Xt.Y I i f |.$X# ~ @X)./.# e T.' X # ( -.8.d.p.Y 2.,.7.8.<.<.i.i.d.&.P k 3 ",
"a : *.&.J T p.p.i.a.p.i.i.i.i.s.p.%.<.%.2.*.*.e H.oX%X( $.U , p N.=XX % ).+XR.# 0 w $ $ = X.8.p.p.p.i.p.p.,.j.8.i.f.p.F x.g.o.- ",
"- j *.8.d.p.x.p.i.z.q.i.i.8.>.i.i.i.i.2.>.3.>.x M.oX#Xs &.U >.4 r *XX # G.@XV.# ( 3 R d.&.*.p.d.7.i.R i.p.8.8.8.g.i.a.*.N - ; = ",
"2 l *.K d.a.8.j.i.a.z.3.f.&.2.p.p.8.d.<.R 3.,.Z ' Q.%Xz $.R $.Z O J.# t ^ +X' u I :.2.%.*.&.8.8.p.p.<.i.R <.8.p.j.8.p.,.D @.h = ",
"a 6 Y $.<.,.p.2.a.i.i.>.1.O.$.>.i.<.i.<.%.&.,.R ^ H.$X( J T T l O z r ` W +XE f T T 7.Y *.*.2.j.z.<.i.,.p.i.p.f.d.f.8.z.L < f = ",
"2 1 %.%.8.i.i.<.3.f.i.U U 6.$.1.>.-.i.R &.U &.Y ) { =X/ G Y I P 3 4 Q / ! R.w B I *.I I O.*.&.<.i.3.3.Z *.3.f.h.j.j.i.h.8.&.@ = ",
"k 4 ,.<.7.f.h.d.s.i.>.i.1.U 1.>.>.<.<.<.i.8.8.i.$.E $XQ L Y D < 2 D n / ^ { c G T G L *.7.p.8.<.R S %.I I =.2.3.:.2.7.-.*.-.l < ",
"L 4 =.2.7.2.<.i.3.s.s.f.i.i.3.i.8.2.>.i.,.f.8.a.z./ } t >.&.D - + n J g ^ E N U R 8.8.7.p.8.8.i.<.,.,.:.&.7.w.>.<.2.i.2.8.,.d 3 ",
"k 3 G 2.d.3.h.f.i.i.3.i.a.i.a.1.i.-.2.<.f.a.3.%.a.6.| L w.q.K 2 > N :.J F L T i.-.&.8.7.l.8.*.7.D ,.d.7.*.p.d.p.z.2.i.h.d.q.-.g ",
"l M :.K I g.-.d.s.s.i.<.d.i.i.i.b.8.g.,.,.h.d.v.g.h.1.S I :.%.P k l C l O.H >.d.8.b.a.w.0.G G 8.d.n h.j.Y U i.b.-.d.i.c.b.f.Z 5 ",
"P 2 3 > b > > > v 4 b m 4 V H b , 4 M d > d , m 4 $.$.n l P l 3 @ j %.F 2 *.a l d 2 : 3 l 2 3 3 f > 2 > , g , 4 1 - > d f L d > ",
"2 o > * > : O . & & @ 5 @ O @ , o o O > = o & = = < : * @ - 2 + o 2 2 o 2 + + - 1 + o - - = @ > 1 = + = , f O O = O = > > m a 4 "
};
