/* XPM */
static char *result[] = {
/* columns rows colors chars-per-pixel */
"64 64 239 2 ",
"   c #010104",
".  c #090705",
"X  c #0A0807",
"o  c #01010B",
"O  c #0D0B09",
"+  c #120E0C",
"@  c #15110E",
"#  c #1A140F",
"$  c #020213",
"%  c #0C0A13",
"&  c #02031C",
"*  c #09061B",
"=  c #0A0A1D",
"-  c #110E19",
";  c #161311",
":  c #1B1611",
">  c #1E1915",
",  c #1E1A1A",
"<  c #21170E",
"1  c #231C14",
"2  c #291E15",
"3  c #231D1A",
"4  c #2C2217",
"5  c #26211C",
"6  c #2C241C",
"7  c #32261B",
"8  c #34281E",
"9  c #3B2C1E",
"0  c #030223",
"q  c #0C0C22",
"w  c #01022B",
"e  c #090829",
"r  c #120929",
"t  c #131225",
"y  c #191521",
"u  c #19162A",
"i  c #080736",
"p  c #130A36",
"a  c #0F1331",
"s  c #181437",
"d  c #221D29",
"f  c #211D3C",
"g  c #2A2622",
"h  c #282327",
"j  c #2E2925",
"k  c #332A23",
"l  c #362B26",
"z  c #3B2D22",
"x  c #342D29",
"c  c #3D3125",
"v  c #37312C",
"b  c #3C332C",
"n  c #282534",
"m  c #332B32",
"M  c #382C3A",
"N  c #3A3533",
"B  c #3C323B",
"V  c #442F20",
"C  c #433425",
"Z  c #4A3627",
"A  c #43352A",
"S  c #45392D",
"D  c #4C3B2C",
"F  c #513E2C",
"G  c #443B34",
"H  c #4C3D33",
"J  c #463A39",
"K  c #513F32",
"L  c #54412F",
"P  c #4F4134",
"I  c #4C423B",
"U  c #534234",
"Y  c #5A4534",
"T  c #5D4936",
"R  c #54453A",
"E  c #5B473B",
"W  c #57493C",
"Q  c #5C4A3C",
"!  c #634532",
"~  c #624D3D",
"^  c #65503E",
"/  c #6B533E",
"(  c #110C4E",
")  c #1A1849",
"_  c #171854",
"`  c #271C4F",
"'  c #1E2442",
"]  c #2A2847",
"[  c #332C47",
"{  c #3A3348",
"}  c #272558",
"|  c #332C5A",
" . c #383757",
".. c #2B296B",
"X. c #362D65",
"o. c #383869",
"O. c #2F2B79",
"+. c #3A3A7A",
"@. c #463A48",
"#. c #4E3D4A",
"$. c #413C77",
"%. c #3A4378",
"&. c #544943",
"*. c #5D4D41",
"=. c #51494B",
"-. c #5D5145",
";. c #5C4D52",
":. c #624E42",
">. c #624E48",
",. c #655243",
"<. c #6B5544",
"1. c #6D5845",
"2. c #635449",
"3. c #6A5648",
"4. c #66594C",
"5. c #6D5A4B",
"6. c #715743",
"7. c #735B45",
"8. c #795C46",
"9. c #735748",
"0. c #745D4B",
"q. c #7A5E4A",
"w. c #6D5D51",
"e. c #745F50",
"r. c #76614D",
"t. c #7B624C",
"y. c #6E6053",
"u. c #756252",
"i. c #7B6452",
"p. c #7E6855",
"a. c #7B6758",
"s. c #7D6A5B",
"d. c #52506D",
"f. c #47457E",
"g. c #67606E",
"h. c #82654D",
"j. c #84684E",
"k. c #8A6B4F",
"l. c #816651",
"z. c #846A53",
"x. c #8A6D53",
"c. c #836D5A",
"v. c #8A6F59",
"b. c #8D7156",
"n. c #85705C",
"m. c #8B725B",
"M. c #917256",
"N. c #91745A",
"B. c #977A5D",
"V. c #887461",
"C. c #997C64",
"Z. c #A08871",
"A. c #2B2982",
"S. c #393485",
"D. c #433C86",
"F. c #374782",
"G. c #4A4788",
"H. c #524C82",
"J. c #504F95",
"K. c #5E618B",
"L. c #676797",
"P. c #70749E",
"I. c #5755AA",
"U. c #5E5BB6",
"Y. c #6968A9",
"T. c #6865B8",
"R. c #6C71BC",
"E. c #7370B1",
"W. c #7575B8",
"Q. c #6B67C5",
"!. c #7071C9",
"~. c #7776CA",
"^. c #7979D8",
"/. c #7C79E6",
"(. c #837DCA",
"). c #817EE9",
"_. c #7E81B7",
"`. c #7D86DB",
"'. c #7C87E9",
"]. c #8C8CB0",
"[. c #A29EAA",
"{. c #8B8BC9",
"}. c #8485D6",
"|. c #8E93DC",
" X c #9796DC",
".X c #A8ACD4",
"XX c #B8BAD5",
"oX c #8484E3",
"OX c #8C89E7",
"+X c #8583EC",
"@X c #8C8BEC",
"#X c #8892ED",
"$X c #9898E6",
"%X c #8584F2",
"&X c #8889F5",
"*X c #989AF6",
"=X c #A09FE4",
"-X c #A19EE6",
";X c #A19EF2",
":X c #A5A6E7",
">X c #A5A5F5",
",X c #ABACF4",
"<X c #AAACFB",
"1X c #B0ADF2",
"2X c #AEB1F7",
"3X c #B4B5F6",
"4X c #B8B7F2",
"5X c #B7B9F6",
"6X c #BABCF5",
"7X c #B5B6FB",
"8X c #B7B8FA",
"9X c #B9BAFA",
"0X c #C0BFF8",
"qX c #BEC0F7",
"wX c #BEC2FC",
"eX c #CACCDC",
"rX c #D4D7E8",
"tX c #C3C4F6",
"yX c #C2C5FB",
"uX c #C5CCFC",
"iX c #CBCDFA",
"pX c #CED3FA",
"aX c #D4D5FC",
"sX c #D7D9FC",
"dX c #D8D8F8",
"fX c #DADBFC",
"gX c #E1DFFD",
"hX c #DEE2F6",
"jX c #DEE1FD",
"kX c #E6E7EE",
"lX c #E3E4FD",
"zX c #E9E7FD",
"xX c #E5E8FD",
"cX c #EBECFE",
"vX c #F1EEFB",
"bX c #F4F4F8",
"nX c #F3F3FD",
"mX c #FBF5FE",
"MX c #FCFAFE",
/* pixels */
"b : 8 8 S 9 Y c 7 4 5 &.> ; : Y 6 c D L c Z L C A I N 8 k 1 -.4., g 7 j g b 6 -.k < Z A 6 z 2 k 1 1 A 2 1 6 7 8 : > 8 : 6 8 v @ ",
"O @ @ . + @ @ O . @ O @ X . : O . O X O @ @ > j @ @ # O 2 + ; + : + : . . @ ; + ; < X O X + X O O + O + @ O O O O X O O O : g # ",
"v # Y 6 ^ / r.^ L L R P 5 8 1.7.,.Q z.t.r.j.Y S P r.r.~ 3 k H 1 + A C K E ,.,.<.:./ E U :.Y :.>.5.t.1./ ^ ^ ^ ^ Y ~ P <.I ~ -.> ",
"&.O < r.T T r.u.p.c.r.u.r.z.p.a.p.u.c.r.p.b.t.u.s.^ 2.I J y % % o $ % d N J 3.q.s.5.V.s.i.0.1.<.r.p.z.z.z.z.z.j.c.p.5.p.t.p.N 4 ",
"v + 9 L L ^ u.^ n.y.r.<.5.p.r.t.7.W ,.u.<.<.r.u.u., -   o { eXbXbXbXrXg.o $ y m :.2.5.c.x.t.,.7.c.u.p.r.v.r.z.c.c.p.u.0.u.w.x : ",
"j ; 1 C t.r.r.u.t.t.0.j.t.r.t.r.r.^ Q 1.^ t.t.I u o g.MXMXMXmXmXmXmXMXMXMXMX[.$ - v 5.u.m.t.r.5.r.r.b.0.p.r.p.t.t.s.q.2.<.2.N 1 ",
"j 5 5 L / r.r.r.t.t.0.7.*.,.0.<.^ ^ <.^ 1.5.m =  .MXMXbXnXcXzXlXhXgXlXzXvXmXmXmXd.* M 7.7.5.r.1.0.t.t.t.t.r.r.0.<.3.W <.,.Q h 6 ",
"v + L t.t.z.,.r.0.z.t.0.e.q.1.5.,.y.5.1.5.h & bXMXbXcXlXlXfXfXfXgXdXgXfXgXlXcXnXnXbX& n 0.0.r.v.5.n.r.5.r.t.t.r.0.~ ,.5.<.<.: 5 ",
"k 1 1.^ 5.a.t.5.t.t.t.p.0.0.0.t.t.0.5.<.h & MXmXvXxXhXfXjXjXfXfXdXgXfXfXfXhXfXlXcXnXnX$ N a.r.n.5.u.u.,.~ u.u.q.0.i.e.e.>.3.&.1 ",
"k # S 1.p.<.t.0.t.i.u.5.u.p.5.u.r.u.u.H & mXnXcXlXgXfXhXsXsXfXfXgXdXfXdXsXjXfXhXlXcXnXbX$ B s.4.u.a.t.0.5.u.u.e.e.9.q.q.c.A ; 1 ",
"3 7 / t.r.7.t.0.t.7.r.<.i.c.t.t.0.0.W q rXnXcXlXfXfXfXfXfXfXdXfXfXfXfXfXjXsXdXdXfXjXxXnXkXo -.r.0.w.r.r.z.q.u.q.9.e.5.l.v.j I 3 ",
"g 4 5.t.^ ,.<.,.t.t.r.j.v.t.h.x.h.i.x t nXcXlXfXdXfXfXfXsXfXfXdXfXfXfXdXdXjXsXjXsXfXlXxXcXn u a.1.i.t.5.t.r.q.5.<.Q 3.e.s.e.g ; ",
"g : n.T a.z.5.t.t.t.r.z.r.t.x./ h.t.q xXvXzXgXfXfXfXfXdXfXsXfXdXfXfXsXjXsXsXsXsXfXfXfXlXcXnX= -.u.B.7.<.t.t.z.i.e.0.i.i.q.s.J 3 ",
"G 4 q.0.W u.r.t.u.z.0.u.i.r.h.j.u.G ' nXzXgXgXfXgXdXfXdXfXfXfXsXfXhXrXfXfXsXsXsXsXfXsXjXxXcXa d q.0.8.7.3.q.u.h.h.<.0.u.0.0.W : ",
"R c u.0.-.<.t.0.0.t.q.t.7.t.r.t.3.M XXcXgXgXfXfXfXfXdXfXfXfXfXgXlXlX[ jXfXfXsXjXfXsXfXjXjXcXXX0 ,.u.R 7.u.t.i.l.z.q.z.l.s.e.j + ",
"&.4 q.2.r.z.x.7.r.t.t.u.t.t.t.j.<.y dXvXlXfXfXfXfXdXdXfXdXfXfXzXxXa ].hXjXsXsXsXfXsXsXjXjXcXnX0 ,.z.r.j.h.t.z.t.t.z.h.l.z.m.U ; ",
"j c 1.4.1.r./ r.j.k.1.7.N.p.x.b.5.= f lXzXlXfXfXdXdXfXfXfXgXzXzX& $ jXjXjXdXsXfXsXsXsXfXjXjXbX0 J t.r.t.t.t.h.t.h.h.h.l.z.i.D @ ",
"x > r.s.5.r.1.r.u.^ 5.1.,.j.i.t.I * q e XXcXgXfXdXfXdXfXfXgXhX$ o d.lXjXsXfXsXsXfXfXsXfXfXjXjX& M u.7.t.5.9.~ l.t.h.N.c.p.a.H : ",
"j @ ~ 5.1.r.t.7.r.Q y.4.p.u.t.r.J &  .o * fXlXfXdXaXfXfXgXzXo   o .XxXjXfXsXfXsXsXsXsXfXfXaXjX0 d ~ <.5.9.u.3.1.t.u.v.l.l.e.N : ",
"5 5 1.~ ~ ^ u.1.r.1.-.4.r.,.t.p.B &  .o pXzXgXfXdXdXdXdXgXzXvX    .XxXjXsXdXsXfXfXsXsXsXfXiXpX0 n <.<.5.*.9.9.9.q.5.e.u.q.q.N + ",
"j # -.W -.r.,.u.^ -.4.4.5.^ / r.N = [ o dXlXfXfXaXfXfXfXfXlXcXo   .XxXhXfXsXsXsXsXsXsXsXsXtXuX& m q.9.,.:.0.u.e.5.5.u.Q 2.5.3 ; ",
"3 4 t.^ ^ u.i.Q 1.I 1.5.1.5.t.r.R t ] $ rXlXfXfXfXfXfXfXfXlXxX    XXlXjXfXsXfXsXsXfXsXfXpXqXtX[ n 5.~ 1.h.e.q.e.q.5.0.0.w.R , ; ",
"> 5 r.1.^ r.1.r./ ^ 4.t.1.5.r.t.t.d a $ hXfXfXfXfXfXfXfXfXxXcX    eXlXfXaXfXaXfXsXsXaXfXqXqXqX_.n 8.1.7.<.7.t.7.e.u.0.0.2.6 3 5 ",
"b 9 B.5.-.,.1.1.1.r.7.r.-.1.,.7.5.;.pXfXsXaXfXfXfXfXfXfXfXfXxX$   fXjXjXfXsXfXsXsXsXsXiX4XqXqX].d 0.1.,.t.t.3.q.u.r.u.e.H x @ > ",
"g 4 j.i.1.7.r./ ^ 1.^ ^ W W / 1.,.;.pXuXtXtXaXfXfXfXfXfXaXfXlXlXrXxXgXfXfXfXaXfXsXsXpX6X5XwXwX_.y <.~ <.<.0.e.q.i.0.0.5.,.W k 5 ",
"g 6 r.Q T T r.T ^ P Q ^ ^ W ^ Y <.;.uXyX6X6X6XtXaXaXaXfXfXfXfXlXlXjXgXfXfXaXaXaXaXpX6X4X6XwXwXP.- ,.D H ~ :.q.h.<.<.3.,.*.>.g + ",
"k < 8.r.T ^ 1.L 7.^ W W Y / / 1.Y ;.uXwX6X6X6X6X0XiXaXaXfXfXfXfXsXfXaXfXaXfXaXiXtX4X4X5X9XuXwXK.t :.R U :.:.e.:.9.<.9.<.3.4.v 1 ",
"P 7 k.j.k.r.t.r.p.r.1.r.r.b.r.t.-.;.uXwX9X6X8X6X8X9X9X0XtXyXiXiXiXpXiXiXtX0X9X9X5X5X5X6XE.J.wXH.t :.9.<.<.<.q.u.l.e.l.i.u.w.5 > ",
"v c b.b.t.b.r.n.^ p.z.r.p.B.k.j.r.=.uXwX9X9X8X9X9X8X9X9X5X8X9X9X9X9X8X9X9X5X9X9X8X8X5X8X1Xw J.K.t e.e.i.3.*.e.i.p.l.i.c.i.a.S : ",
"b 9 c v.W P 5.u.w.L z.Z.s.r.r.Z.7 ] yXwX9X9X9X9X9X5X9X9X9X9X9X9X6X9X9X9X9X9X5X9X8X8X8X5X5XY.w | t H :.c.5.s.2.i.c.u.p.u.c.V.R : ",
"8 @ V L P L L L T T 9 L p.b.p.T x ' wXwX9X8X8X8X5X9X9X9X9X9X9X9X9X9X7X9X9X9X9X3X5X5X8X8X3X2Xw & q 3 H 2 *.,.,.e.n.u.r.p.a.s.k > ",
"5 @ > 1 > 5 + > # > > # > 1 4 5 , n =XwXwX9X8X8X9X5X9X3X9X5X9X9X9X9X9X9X3X3X9X9X3X3X5X8X8X,XW.$ = ; : > : 1 7 A k A ~ T 8 6 6 @ ",
"> @ @ @ @ @ O + X + + # + # < @ % e 8XyX9X9X9X9X6X8X9X8X8X9X9X9X9X3X9X8X8X9X9X3X3X5X3X3X8X7X>X$ & % . @ + + + . O ; @ + O . ; @ ",
"S # T / r./ T / ! T t.7.M.M.z.7.&.0 uX9X9X7X9X3X8X8X8X8X8X9X7X7X9X7X7X8X8X8X3X3X7X:X3X3X8X7X7X$ = R U ,.,.<.K D U <.z.V.u.l 2 + ",
"R 4 / k.t.r./ 7.7.6.7.h.8.t.h.t.3 w yX{.9X9X9X9X9X9X9X8X9X9X9X9X9X9X9X9X8X8X9X9X9XX.,X3X7X7X7Xa & &.^ ,.~ ,.0.0.7.3.z.7.2 z ; ; ",
"I 1 M.j./ / 8./ t.t.<.7.x.x.l.<.= e uXW.:XwX9X9X7X9X7X9X9X9X9X9X7X9X9X8X3X8X7X9X9X] {.2X7X9X7X{.& J t.7.0.~ ,.i.q.2.u.N.c.W R 3 ",
"4.8 / r.p.b.j.j.8.t.h.r.b.b.z.*.* ` yXY. X0X9X9X9X8X9X7X3X3X7X7X9X7X7X3X9X9X3X9X9X$.L.3X7X7X7X7X& n t.p.p.T u.z.l.9.5.v.C.p.l > ",
"k 6 i.n.4.r.c.Z.t.1.p.n.i.m.z.-.- o.7XJ.:X9X9X5X3X3X8X9X9X9X9X9X9X9X9X9X8X8X3X9X9XP.[ ,X7X7X7X7X& h a.r.3.0.<.r.z.e.0.x.e.6 3 O ",
"j 4 b.t.1.t.<.p.z.v.N.z.x.z.0.,.q G.1XG.:X8X8X8X8X7X3X8X9X3X9X9X9X8X9X3X9X8X9X9X9X{.& :X7X9X7X>X& h p.t.q.u.<.0.0.c.5.s.s.5.b + ",
"x P 7.p.p./ r.j.r.r.t.z.j.5.t.,.d H.1XD.:XwX:X8X8X8X8X7X7X7X7X3X3X7X8X3X9X9X7X7X9X5X$ :X7X9X9X>X) y r.1.-.5.1.Q a.<.5.3.3.3.y., ",
"6 4 1.p.i./ p.^ x.t.k.h.j.z.z.j.[ H.-XD.=X6XG.1X8X8X8X8X8X7X3X2X7X7X3X8X7X5X8X8XwXwX0 K.7X7X9X;X+., t.0.0.,.u.z.5.z.0.<.*.&.N 5 ",
"g 4 t.r.j.^ z.j.h.7.b.t.x.z.j.x.@.f.-XO. X0X$.].8X8X8X7X8X7X7X7X,X7X3X8X5X5X5X7X8X8Xo.s 2X7X8X>XG.y 7.q.1.T 5.r.5.,.t.0.,.3 ; @ ",
"6 8 b.^ 7.1.r.7.b.t.b.z.x.t.b.k.@.H.-XD.$X9Xf.+.2X8X7X7X7X7X2X;X@X$X,X3X7X5X5X7X8X8XY.& :X7X9X*Xo.y q.:.T 3.P r.p.r.j.0.c.W 6 : ",
"U 9 t.4.7.r.t.z.5.,.r.b.j.M.j.h.@.J. XO.=X9XL.( $X7X7X7X7X2X>X+X+X/.~.3X5X7X7X7X8XwX:Xo L.<X<X>Xw u :.<.7.5.q.5.0.0.h.0.&.G > > ",
"b : ^ ^ k.k.j.^ <.~ b.7.z.t.x.N.{ H. XO. X9X=Xw `.2X3X7X2X>X@X+X/./.I.:X2X5X5XwX8X7X;Xw 0 {.$X(.$ m 7.5.q.0.r.0.q.i.3.e.R 6 2 > ",
"5 + L j.t.t.1.-.1.5.t.B.t.j.x.x.{ G.|... X3X8X0 !.;X2X7X<X$X^.).+X/.A.%.2X7X2X7X8X2XT.~.0 0 X.0 $ -.0.3.q.0.,.0.5.,.<.,.i.0.g > ",
"P O c b.t.t.r.W ~ ,.j.b.z.x.<.0.@.G.|.( (.3X8Xw Q.OX>X>X@XOX^.+X+X/._ 0 |.2X7X7X7X-XJ.Q.+XY.X.} % w.9.1.0.3.r.1.q.*.,.<.2.q.> : ",
"g O / k.h.t.t.r.r.r.x.k.r.h.0.1.{ o.OXi W.<X9Xw J.`.*X*X}.O.`.%X+X/.( o !.>X7X7X2X|.S.S.+X*X#X#X% l.l.0.<.7.t.R u.:.e.q.s.>.g 1 ",
"N 1 r.1.0.0.j.x.7.q.h.x.j.M.x.7.M ( }.i E.<X7X_ _ ^.@X).`.w %X%X/./.0 o ..OX<X<X:X`._ ( ^.&X&XF.% h.h.q.7.t.0.5.^ <.q.5.a.v @ # ",
"N # Y 7.7.h.q.q.h.7.x.h.k.M.t.t.[ p `.i R.>X7XW.0 ^.+XoXi & '.%X&X^.o o e ^.*X<X*X!.a e !.%X@Xe 3 h.j.3.^ k.1.0.5.1.7.n.-.h k : ",
"8 # 7.x.7.0.h.Q ~ 0.7.h.8./ h.~ @.r `.e ~.;X7X@X0 ^.+XoXo $ S.).&X/.  $ q G.oX$X|.J.e e I./.%X$ U t.7.9.,.t.j.7.<.1.1.H I *.v : ",
"j 9 t.r.9.7.~ ^ q.7.9.z.h.t.j.j.R p R.0 ~.*X<X}.& }.&XG.* m r ).&X`.d d d ) ^.@X@X..e r ` ).).$ i.p.t.1.<.t.8./ i.l.h.A , 4 g : ",
"5 > j.5.r.,.! 7.6.h.h.l.k.x.x.M.9.n +.& ~.&X*XU.& }.&X= h 2.y (.&X^.U *.>.B U.@XoX( q a r ).T.: z.j.~ 0.7.t.r.8.8.h.j.j.<.W m 6 ",
"j > 7.4.Q ^ h.z.h.k.k.j.h.h.h.z.l.J q $ I.).OX..& ~.'.h *.q.7 f.).R.Y q.q.<.+.@X^.a q a q !._ 5.z.j.h.h.j.7.b.t.h.x.j.I m.z.&.> ",
"> 9 1.t.z.j.b.j.h.M.t.t.h.t.<.h.h.9.J $ ` ).).( $ I.J.N q.q.z.| ).@.<.9.^ T  .).!.a e s r G.= h.q.q.6.h.j.t.t.t.z.t.k.<.A , > ; ",
"5 C 1.R k.z.t.M.k.h.M.q.x.<.q.h.h.h.l.m 0 ).).i & O.} I z.k.x.` oX#.h.h.t.h.#.Q.Q.s n [ u r &.i.j.j.8.h./ 7.t.j.z.z.j.r.P -.v : ",
"g 9 ~ *.q.7.j.q.k.h.h.6.6.*.>.6.h.8.h.>.& /.^.i & 0 } ,.j.z.t.} oX/ j.r.h.z.2.J.Q.s @.K &.*.7.M.M.8.t.7.j.h.z.x.z.z.t.N.R 2 x : ",
"6 4 ,.,.t.h.h.t.8.x.k.~ ! e.,.q.6.<.h.~ i U.D.( * % k 9.6.9.t.H | ~ r.5.Q <.<...U.s M ~ :.<.<.q.h.t.8.H <.t.x.x.M.M.h.x.t.<.# : ",
"v 7 7.r.r.x.x.z.l.h.9.h.0.! 6.6.9.8.8.7.M ( _ [ l C Y E E ~ W 5 4 ! <.Y <.~ ~ s D.s N 1.9.j.t.6./ U ,.~ Q ,.q.q.0.7.t.5.1.3.b 3 ",
"R 7 <.7.r.7.9.h.9.l.h.x.k.h.9.h.q.7./ 7.K ( X.Z ~ E D F K U b @ # C T P L ~ ! r D.) A 9.t.t.h.h.8.7.7.4.<.t.u.9.0.0.i.0.h.7.k 5 ",
"v 6 U r.x.t.v.x.q.h.h.l.k.l.k.9.h.3.1.<.^ B 1 c Z D A H S G 8 > # 6 R A H U T d } s A 3.a.7.<.r.H 7.z.t.<.k.k.h.M.0.z.z.z.l.>.z ",
"b A w.P E c.<.z.x.h.h.8.l.h.8.h.C.i.i.~ U K S H G A z 1 7 x z j > 5 5 4 c z F H s u H ,.~ P D q.z.C z.v.~ ~ h.C.3.k.h.B.C.z.H 9 ",
"W 5 6 1 V 1 2 1 N 7 V Z 7 F ! Z 1 7 C 6 : 1 # 2 # k j > > 6 > @ O > x g @ b : 5 1 @ @ 1 j 5 5 5 k 1 6 5 2 z 2 7 2 , 1 k k E k 1 ",
"5 O 1 ; 1 : + X % + + k # + @ 2 O O + > @ . X + O + + X O @ ; . . @ @ . # X X + # X X @ : @ # 1 4 # @ : 2 l @ + : + : 1 1 D j 6 "
};
