/* XPM */
static char *_f87325428ed4440dc171f6806cbd39ejtQP7d2Tjhjd7QXE[] = {
/* columns rows colors chars-per-pixel */
"64 64 245 2 ",
"   c #080705",
".  c #0B0907",
"X  c #0D0B09",
"o  c #120E0C",
"O  c #15110E",
"+  c #19140E",
"@  c #151311",
"#  c #1B1611",
"$  c #1E1914",
"%  c #1D191C",
"&  c #27180E",
"*  c #231B14",
"=  c #2B1C15",
"-  c #24161A",
";  c #241D1B",
":  c #2B1C1C",
">  c #351B18",
",  c #391E1B",
"<  c #2D2217",
"1  c #26211D",
"2  c #2C231C",
"3  c #362217",
"4  c #32241B",
"5  c #3A231A",
"6  c #34291E",
"7  c #3B2C1E",
"8  c #1B1725",
"9  c #1C1C2C",
"0  c #1A1533",
"q  c #1C1C32",
"w  c #221C23",
"e  c #261D27",
"r  c #371D20",
"t  c #241F34",
"y  c #1E2129",
"u  c #1E2339",
"i  c #242323",
"p  c #2B2522",
"a  c #2E2925",
"s  c #29252B",
"d  c #332424",
"f  c #332A23",
"g  c #3C2C24",
"h  c #34252A",
"j  c #3B2528",
"k  c #352B2B",
"l  c #3C2B2B",
"z  c #3D3024",
"x  c #36312C",
"c  c #3C332C",
"v  c #222235",
"b  c #27273A",
"n  c #2A2A3D",
"m  c #332B33",
"M  c #3C2C32",
"N  c #372B38",
"B  c #3C3333",
"V  c #3B3637",
"C  c #43200E",
"Z  c #462A1D",
"A  c #482723",
"S  c #442C23",
"D  c #4B2D24",
"F  c #432D2B",
"G  c #4A2D2A",
"H  c #433325",
"J  c #4B3225",
"K  c #44342B",
"L  c #4C332B",
"P  c #45392E",
"I  c #4D3B2C",
"U  c #563524",
"Y  c #5C3826",
"T  c #52352B",
"R  c #5B362C",
"E  c #543B2D",
"W  c #5D3A2D",
"Q  c #443333",
"!  c #4A3532",
"~  c #443B34",
"^  c #4C3C34",
"/  c #44363A",
"(  c #49363A",
")  c #463A3B",
"_  c #4B3B3C",
"`  c #543B33",
"'  c #543936",
"]  c #5B3C33",
"[  c #623A29",
"{  c #633C32",
"}  c #693F33",
"|  c #663D39",
" . c #4F4134",
".. c #4C423A",
"X. c #534234",
"o. c #5B4335",
"O. c #5D4936",
"+. c #54453A",
"@. c #5B453A",
"#. c #56493C",
"$. c #5C4A3B",
"%. c #654334",
"&. c #6B4335",
"*. c #694936",
"=. c #62453A",
"-. c #6B4539",
";. c #634C3C",
":. c #6A4939",
">. c #714733",
",. c #714934",
"<. c #7A4D37",
"1. c #744C3B",
"2. c #7A4E3B",
"3. c #65513E",
"4. c #6C533E",
"5. c #76523B",
"6. c #7A513D",
"7. c #1D2246",
"8. c #242642",
"9. c #262647",
"0. c #262942",
"q. c #2A2A44",
"w. c #2C2C4A",
"e. c #302D48",
"r. c #2E3045",
"t. c #2D314C",
"y. c #3C3947",
"u. c #33344B",
"i. c #2F3353",
"p. c #323354",
"a. c #373755",
"s. c #34395C",
"d. c #3B3C5D",
"f. c #393C63",
"g. c #4C3C42",
"h. c #453B48",
"j. c #543D42",
"k. c #433D53",
"l. c #433F5A",
"z. c #3E4259",
"x. c #3C4264",
"c. c #3C436B",
"v. c #3E4674",
"b. c #4B4447",
"n. c #544343",
"m. c #544A42",
"M. c #5C4D42",
"N. c #58474A",
"B. c #5E5144",
"V. c #5E534A",
"C. c #494557",
"Z. c #42425C",
"A. c #564C59",
"S. c #644C42",
"D. c #6B4C42",
"F. c #674D4B",
"G. c #744D43",
"H. c #714D4B",
"J. c #655243",
"K. c #6B5544",
"L. c #6E5845",
"P. c #64544A",
"I. c #6B5549",
"U. c #65594D",
"Y. c #6D5A4B",
"T. c #715644",
"R. c #7D5241",
"E. c #735B45",
"W. c #7A5D46",
"Q. c #71564A",
"!. c #7E5548",
"~. c #745D4B",
"^. c #7B5E4A",
"/. c #664E53",
"(. c #685557",
"). c #6B5D52",
"_. c #6B5359",
"`. c #765D55",
"'. c #75604D",
"]. c #7B624C",
"[. c #6E6053",
"{. c #756352",
"}. c #7B6552",
"|. c #7E6854",
" X c #7A6758",
".X c #7D6B5B",
"XX c #484A66",
"oX c #544E68",
"OX c #4C506F",
"+X c #53536A",
"@X c #474C77",
"#X c #4B5478",
"$X c #56597A",
"%X c #625D6C",
"&X c #765C62",
"*X c #58617F",
"=X c #7A6466",
"-X c #666378",
";X c #7A7270",
":X c #82583E",
">X c #90643F",
",X c #835542",
"<X c #825942",
"1X c #8C5E44",
"2X c #865C4B",
"3X c #8A5D4B",
"4X c #915F44",
"5X c #8C6345",
"6X c #86664B",
"7X c #82654D",
"8X c #8B624B",
"9X c #83684F",
"0X c #946545",
"qX c #956945",
"wX c #94664B",
"eX c #956A4C",
"rX c #9A6C4C",
"tX c #836551",
"yX c #846A53",
"uX c #8A6C53",
"iX c #896956",
"pX c #836D5A",
"aX c #946C54",
"sX c #9B6C51",
"dX c #956D59",
"fX c #8D7156",
"gX c #85705C",
"hX c #8B725B",
"jX c #92745A",
"kX c #947459",
"lX c #876F68",
"zX c #967B64",
"xX c #A08871",
"cX c #495583",
"vX c #575984",
"bX c #5B5D92",
"nX c #5B6586",
"mX c #596991",
"MX c #5F7496",
"NX c #666787",
"BX c #6B7495",
"VX c #687CA1",
"CX c #727DB1",
"ZX c #6D81A4",
"AX c #7682A9",
/* pixels */
"c # 4 6 I g o.z 4 1 ; m.* # # X.4 H I I H I E K K ..B f f * V.U.$ 2 4 p p c 2 B.6 * L K < 7 * f ; * H * * 2 4 4 # * 6 # 2 f x + ",
"X O o   O O o X   O X O .   $ X   X X X O @ $ p o + + X 2 o O o # o #     O @ o O $ . X X O   . X o X o o X X X .     o   @ p + ",
"k O o.2 J.4.~.J.X.` +.X.1 6 K.E.J.$.yX].E.9Xo.P  .'.^.;.1 g J.2 O @.X.$.@.;.J.J.J.J.@.X.J.o.;.J.Y.].L.4.3.3.3.3.$.$.+.K.X.M.S.$ ",
"b.X * ^.O.#.E.].|.yX{.{.~.yX}. X|.{.pX~.yXfX].{..XJ.~.~.pX...XV.; ^.}.Y.'.].~.]..XY.gX.X{.~.I.K.{.}.yXtXyXtXtX9XpXyX~.}.{.}.B 1 ",
"V o 7 X.I K.{.J.gX'.~.K.Y.|.^.tX^.m.V.U.P.P.).).)...).).(.N.n.) B m.P.U.m.Y.).~.P.P.).yXuX}.J.^.pX}.|.].uX{.yXpXyX}.{.Y.{.Y.k # ",
"a # * K ].^.~.{.].].^.9X}.'.].'.I.5 5 5 5 5 > , , , , , , , , , , 5 5 5 5 5 5 5 5 5 {.{.jX].^.K.].~.fX^.}.].yX].'.pX~.I.K.J.B * ",
"a 1 * E L.E.'.].}.].^.E.M.J.'.P S.jXdXdXkXdX8XaXdXdXaX8XiXdX8X8X6X8X8XtXtXtXtXtXtXtXE ^ E.Y.'.I.~.{.].].].'.^.~.K.I.@.K.S.M.i 4 ",
"x o o.W.].yXK.~.^.tX].~.~.~.Q.7 *.aX0X0X8X1X<X1X8X8X8X:X1XwX<X:X<X<X:X<X<X<X<X<X3X6XZ P {.~.'.yX~.pX~.I.^.}.].~.^.;.J.Y.J.K.% * ",
"f * K.J.K. X].Y.].].'.}.~.~.{.g -.sX>.R R [ W R W W W W { ] W Y R ] W R R R R R ,.5XZ P {.}.{.pXY.{.{.J.$.{.].'.~.}.~.~.J.I.+.* ",
"f + P L.|.J.].~.].}.].Y.{.|.'.g -.sX,.R 1.1.,.-.%.1.1.,.-.| 1.5.-.-.%.,.R.,.:.] ,.5XA c zXY.{.U.U.).].E.Y.{.{.~.'.E.].^.pXP # * ",
"; 4 T.].'.E.].~.'.E.^.I.}.pX].g -.sX,.R aXeX3XR.1.aXaX1X<X2.aXsX5X2X1.5XsX1X3X} 2.3XA ~ m.; i w : p ~ ].|.~.{.~.I.~.Y.yXpXp ..; ",
"p < K.].3.K.K.J.].].'.tXyX].tXg -.sX,.[ rXqX1X<X<.eXeX1X<X2.sXrX1X3X<.>XrX1X8X{ 2.5XS d l m.&X&X&X(.N.~ Y.].^.Y.K.$.K.~..X{.2 # ",
"1 # gX$. XyXY.].^.].{.tX].].fXg -.rX,.[ eX0X1X<X<.eXeX5X<X2.rXrX1X2X2.0XrX1X3X} 2.5XS 2 d Q =X=X=X_.N.; V.|.yX}.~.~.{.{.'.|._ ; ",
"~ < ~.^.#.'.'.].{.yX~.].tX^.yXg -.rX>.[ eXqX1X<X<.eXeX5X<X2.rXrX1X2X6.5XsX1X3X} 2.6X5 2 ;X=Xj j d h j (.b.1  X9X7XK.~.{.~.~.#.$ ",
"+.z {.~.P.K.].~.~.].~.].E.'.}.g ,.rX>.[ eX0X1X,X<.eXeX5X<X2.rXrX1X2X6.5XsX1X3X-.2.6X5 - =X_._ B h B ! (./ 1 .XtXyX'.yX}. X^.a o ",
"B.1 ^.J.'.yXuX^.^.].].}.].].].g :.rX>.[ eX0X1X,X<.eXeX5X<X2.rXrX1X2X6.5XrX1X3X} 2.6X5 : _.`.lXn.d (./.j./ 1 yX}.].yX9XtXyXhX .# ",
"a z E.I.Y.~.E.E.9XuXE.T.jXtXfXg :.sX>.Y eX0X4X,X<.eXeX1X<X2.eXrX1X2X6.5XrX1X3X&.<.6XS : F ! N.n.n.F.n.h P.{.tX^.].7X9XtXyXtXI O ",
"a * '..XY.~.Y.^.].K.I.Y.J.yXyXg :.sX,.Y eX0X1X,X<.eXeX1X<X2.eXrX1X2X6.5XrX1X3X%.2.8XZ d : d ( N.(.N.n.: B.~.;.tX'.tXjXyXtX{.^ # ",
"a O ;.Y.~.~.'.E.^.$.[.U.yX'.|.g :.sX,.Y eX0X1X,X<.eXeX1X<X2.eXrX1X2X6.8XeX1XtX&.1.7X5 - b.n.(.F.N./ / V B B Y.I.].{.pX}.tX].B # ",
"1 * L.;.$.3.{.Y.~.L.B.U.~.J.].g :.sX,.Y eXqX5X,X2.eXeX1X<X2.rXrX1X2X6.5XrX1XtXW -.K.4 ; N./.&X_.N._ ) / k ; {.E.~.~.`.{.'.~.B o ",
"a & J.#.J.^.J.{.;.M.I.U.Y.J.E.g :.sX>.Y eXqX1X,X<.eXeX1X<X2.rXrX1X3X1.0XrX1X2X> > = % - _.&XlX&X_.N.b.B k 1 |.Q.E.Y.~.#.J.U.1 O ",
"; = ^.J.J.].{.$.Y.+.Y.Y.K.Y.].g :.rX>.Y eXqX1X,X<.eXqX1X<X2.rXrX1X3X1.5XrX[ ] E E ^ w - /._.=X_./.g._ ) k ; {.~.~.Y.'.~.Y.+.$ # ",
"% * ].E.3.~.K.~.4.B.L.'.L.~.].g :.rX>.Y eXqX1X,X<.eXeX4X<X2.rXrX1X3X2.6XuXC > I.Q.Q.d - N.N._.N.n._ ) g.B ;  XE.~.{.^.Y.P.a * 1 ",
"B z jXY.J.K.L.Y.Y.^.L.~.J.I.Y.g :.rX&.Y eXqXeX<X<.eXeXrX1X2.rXrXqXwX6.U Z ;.M.S.%.J = - _ g.N.g._ ) / g.B % ~ B.}.].].~.^ k @ $ ",
"i * uX}.L.~.'.K.;.L.3.3.M.@.L.g *.aX,.[ wXwXeX:X<.wXwXaX<X<.wXeXeXiXT.J 5 D.I.=.E J = : Q / N.g.g.( / g.M ; 4 X.}.^.~.Q.J.#.a 2 ",
"i 4 E.$.$.O.E.$.K.^ $.J.3.X.J.g %.aX,.} &.&.&.} { &.} | | } &.} &.| r @.Q.;.=.D E ;.F l - : Q ) / g./ - h ^ P.I.K M.I.J.#.J.i o ",
"a * W.^.$.3.T.X.E.J.#.#.$.L.L.g *.sX:X6.2.6.1.6.R.1.1.1.1.1.1.1.1.H.> =.I.] ] W o.;.L Q 4 d h m k M l d F L S.S.4 #.L.J.I.I.c * ",
"~ 6 uXyXuXE.].^.yX'.K.].E.fX].F :.eXsXsXrXeX0XeXsX8X5X5X5X5X5X8X8X^.> @.Q.S J T.K.=.] ' F g * - - - : ' L D o.@.3 M.|.{.{.Y.1 * ",
"x H fXfX].fX'.hX$.tXpX^.yXjXuXK W <X6.<X<X,X6.<X<X6.R.R.R.R.R.R.!.D.> =.Q.D J T.K.=.] ] S.@.g j j F L @.' S ] @.< B.}.yX}.{.P # ",
"c 7 H hX#. .'.{.).I hXxXpX{. XK E 5.1.G.G.G.G.G.G.G.G.G.G.G.G.G.Q.S.r S.I.J S Q.K.;.] E E.;.I F F ` ` ;.` D o.@.4 B.}.}.gXgX+.# ",
"a O S I I I I I O.O.7 I yXhX.Xl L =.T G G D D J D J D D D D D D D L > ;.Q.S H E.J.=.' E T.K.=.o.E K.K.;.] J o.@.4 B.{.}. X.Xf $ ",
"1 o * * $ 1 @ * # $ # # # * k p l ! l j d j L S S L L L L G L J L K 4 @.I.L L S.;.;.` E E.4.=.] E K.4.o.] T =.;.4 P ;.O.6 2 2 O ",
"$ O + o O O X X X o o + O % 8 8 8 8 8 8 % e ' L A ] =.=.| ] =.=.] ! 2 @.T.S.n.G T *.' E T.K.;.] T J.3.J E ;.K.S.= 1 O o X   @ O ",
"~ + o.K.E.4.;.L.$.$.^.Y.U.C.d.d.d.d.p.t.q.b h l S =.:.%.[ W %.@.j N +XN.@.3.4.] X.` T T D.D.;.E L ] ] E ;.4.o.' V b.).lX{.g ; o ",
"+.1 K.9X}.~.K.E.T.T.E.M.q XXvXvX#XvX@Xx.s.w.8 h F D.,.%.W W %.@.e 0.AXC.j 4.5.*.X.J L L S.S.S.] D L T ;.:.T.T / C.u.s J.2 g O @ ",
"..* jX6X4.T.E.E.7X].~ y.a.#X@X9.8.8.u 7.f.s.u.v : ' %.=.] R D.F.w u MXC.x L R K.;.O.o.@.` L T ] =.=.=.K.*.J G y.XXz.9  XyX$.X.$ ",
"P.6 K.].9XhX9XuX^.{.i q.d.#X@X7.q q q 8.f.d.u.v % ' ] =.] ] G.F.w 8.mXXXy.l L I.S.;.;.$.I L L ] *.*.;.J.o.S / k.XXz.9 {.jX|.k $ ",
"k 2 ].gXI.'.pXjX].Y.i n i.c.@X#Xp.0 a.d.XXd.0.e - ^ ] =.W [ 1.H.e b #XNXBXh.P J J G J.K.;.;.;.J.E.T J J K M %X-XZ.y.y  X{.2 1 o ",
"f 2 uX].E.E.I.{.uXhX|.N.w.s.c.@Xs.9.f.x.a.u.v s e ' ] =.] [ 1.D.j N Z.nXMX#XA.P L L #.$.` o.o.@.=.T L L g.C.$X$Xu.N.V..X.XY.c O ",
"k P L.|.|.K.'.9X].'.].P.i u.s.c.x.x.c.x.9.v 8 h F ] W | ] { G.G.' _ e z.#XCXBXV ^ ! K L L L L L K ^ _ _ oXBX$XXXt b.Q.I.K.L.).$ ",
"2 < ~.}.{.K.}.3.uX].yX9X].b.u p.p.s.p.r.9 i h j S ` W ] ] { G.H.j N +Xy.a.bXmXNXNXNXh.( ! T T L / -XNX*X$X$Xz.y.a.b.m.P.M.m.~ * ",
"p < ].^.9XJ.tX9X9XE.uX].uX) 9 9.w.p.w.b 9 w V l F ` R E W { G.F.e b NXC.N A.#XAXAXAXZ./ ) _ g.V u.BXVXnXvX+Xh.V l.u.% U.J.* @ O ",
"2 6 uX;.E.E.E.'.fX].uXI.B b w.p.p.p.w.0.b v 8 h F G D G G D D F w q #XC.g.x V $XcX$XBXVXZXVXZXMXnX#X#X#XZ.N ( g.oXl.y U.pX$.4 # ",
"X.7 {.I.E.E.].yXI.J.{.V.y r.w.s.s.p.w.w.8.v 9 s j F D G G D G K ; q OXC.C.x B oXXXC.NXVXVXVXVXmXnXoXC.C.h.M _ C.oXZ.y P.n.~ $ $ ",
"x # 3.;.uXuX9XJ.I.S.x n p.x.x.c.f.i.p.p.q.0.b w - Q ! L T T ` _ w q XXvXNXV K Q M M oX+XOXOXOXOX+Xy.m l M / C.oXx.u.i U.+.2 1 # ",
"p O o.9X7X^.E.J.I.Y.i t.f.@X@X@Xv.f.s.p.q.0.b e 8 l j j S j F c w i N XX#X+XA.! L K h.k.k.k.k.C.h./ Q K g.C.C.Z.u.b.P.I.{.Q.p $ ",
"~ o g fX].7XE.+.M.I.w w.x.#XcXcX@Xx.s.p.q.0.0.9 8 h j l F Q Q p 1 c d V C.NX$Xb._ g./ l l l F F K ' ' g.C.+XXXl.m _ J.K.K.~.$ # ",
"i o T.uX7X].].].].~.w t.x.#XcXv.c.c.s.p.q.q.e.t e {.}.uX9XyX9Xc * K.d h N Z.XXNXNX-Xg.! $.@.! ! B %X-XoXXXz.a.N r ..'.~..XP.2 * ",
"V * E.Y.^.~.tXuXE.~.w u.x.@X@Xv.c.x.s.p.w.q.e.v s }.9XE.^.yXyXM.2 J.^ F m k.XXNXNXNXZ.h.A.N.g.h.y.$X*XOXXXk.B h B M.~.E.|.l @ + ",
"x + o.E.E.9X^.].6XY.w b p.f.c.c.s.p.p.p.w.q.w.q s '.9XfX^.{.zXB O ;.'.J.: m N l.d.XXNXNXNXNXNXvXOXXXz.l.y.m d B ~.L.E.gXB.p d $ ",
"a + E.yX^.^.7X;.;.~.w b t.f.f.f.s.p.t.t.w.q.w.q i tXtX^.].I.m.f * ].K.J.p d M h.h.k.$XvXvXvXbXvXOXa.y.h.M h p c Y.I.L.^ ..M.x # ",
"a g ].'.I.E.3.;.~.E.a v 0.t.t.i.i.p.w.q.q.0.r.y B uX^.].tX^.; $ $ 9X^.J.f l j j h e k.z.z.x.x.Z.C.m a h l l h Q tXtX7XP # 2 i $ ",
"p * 9XY.~.K.O.E.E.9X].m.9 0.q.w.w.w.q.q.q.b y P.].uXtX^.^.E.a B * ].^.].}.^ 4 S j d m m y.y.V m k d d l l h Y.^.W.9X9XtXK.$.x 2 ",
"p * E.J.$.;.7XyX6XuXuXJ.k b b b b 0.0.0.r.b m J.E.7X7X^.^.^.6 x f tX:.9X'.L.Q K j d d d Q Q l j d h h M l c uX].9XuXtX+.hXyXm.$ ",
"# 7 E.].uX6XfX6X7XfX{.].tX/ 9 b b n q.0.8 N.E.K.uXT.uX9XtX^.fXK 4 E.J.E.J.$.'.j d 4 d g g K F j d d p d K.].'.].yX9XuXI.K ; $ + ",
"p H L.+.yXyX].fXyX6XuX^.uX#.V b b b b n m K.T.J.^.6X9X^.yXuXfXJ.2 6X6X].].}.~.#.^ ^ j 6 z g l l d P K ^ ;.^.].9XyXtX9XE. .m.x # ",
"p 7 ;.M.].E.6X^.yX6X7XK.E.M.P.i 8 8 8 a K.K.E.].].6X].yX9XyXuX+.* ].9X].9XyX{.S.].].M.d d d d h c ^.7XE.9X9XyXuXyXyX].jX+.; f # ",
"2 2 J.J.].7X].].^.uXyX;.;.{.J.~.I.J.].J.I.$.I.$.$.^.].].^.tXyXyXJ K.tX^.J.L.].K.].].J.J.M.I.I.'.].].^.^ I.].uXuXfXfX].uX].K.# # ",
"x 4 E.].'.uXyX9XyX].T.].^.;.T.K.E.W.W.W.7X].].7X^.^.W.^.^.tX~.f 7 W.9XK.].L.].L.'.@.$.L.^.9X].E.K.X.J.;.$.J.^.].E.E.].L.L.I.c * ",
"+.4 J.E.'.^.^.6XE.tX9XuX6X^.^.9X].~.T.7XE.uX].uXfXyXE.9X9XtX;.; * $.tXT.E.].].E.].yX^.^.9X].].].W.T.~.I.J.]. XL.^.E.].^.9XE.f 1 ",
"x 4 X.~.uX].uXuX9X7X].].uX6XuXE.9XY.~.].uXuX].K.uXfXuXfXhXhXJ.k 2 X.zX'.tXtXyXjXY.I.9X{.hX^.L.'...E.yX].I.9XyX6XuX~.tXyXtX}.J.g ",
"c K Y.X.$.pXJ.yXyXtX^.^.yX7X^.9XzX].pXT.E.yXtXhX=XfXT.E ;.{.~.B.P .... .~.;.9XhX].zXyXtX{.@.X.^.yXH yXfX;.;.7XzXJ.iX9XjXzXiX^ 7 ",
"m.; 1 * z * * * c 4 g J 2 E %.J * 4 K f * 6 * J 4 K.J.K c #.c p # z ).m.1 ~.f c k 1 & < c 2 2 2 k * 2 * * g = 4 2 % * f j #.f * ",
"; X * @ * # o X o o O 6 + o O = X X o ; # X o $ O * $ # # $ 2 o X 1 * O 2 o O $ 2 o X * * # # * 1 # o # ; k O o # o # * * I a 2 "
};
