/* XPM */
static char *result[] = {
/* columns rows colors chars-per-pixel */
"64 64 81 1 ",
"  c #15191F",
". c #1C1D22",
"X c #211F26",
"o c #1C2027",
"O c #222127",
"+ c #242228",
"@ c #282C30",
"# c #332D39",
"$ c #363233",
"% c #3A3535",
"& c #34333C",
"* c #3A353D",
"= c #383640",
"- c #443C44",
"; c #4B4147",
": c #4D444A",
"> c #4D4D4E",
", c #52454A",
"< c #58474A",
"1 c #554B4D",
"2 c #594A4C",
"3 c #54514F",
"4 c #4D4D50",
"5 c #565352",
"6 c #5E5555",
"7 c #624F4E",
"8 c #61504F",
"9 c #645453",
"0 c #695654",
"q c #645B55",
"w c #6B5C56",
"e c #625758",
"r c #645A59",
"t c #6A5D59",
"y c #66605A",
"u c #6B625A",
"i c #72635B",
"p c #78655C",
"a c #76695E",
"s c #7B6B5F",
"d c #706761",
"f c #766C62",
"g c #7A6E63",
"h c #7D7166",
"j c #816D5F",
"k c #83715F",
"l c #816D62",
"z c #886F60",
"x c #857263",
"c c #8B7465",
"v c #8F7867",
"b c #8D776A",
"n c #877869",
"m c #8D796C",
"M c #907765",
"N c #937C6B",
"B c #9A7E6A",
"V c #9C826E",
"C c #998573",
"Z c #9B8875",
"A c #A2866F",
"S c #A28671",
"D c #A68A73",
"F c #AA8D75",
"G c #A48C79",
"H c #AC8F78",
"J c #AD9076",
"K c #AE927A",
"L c #B1967D",
"P c #B3997F",
"I c #AB9481",
"U c #B29781",
"Y c #B49A82",
"T c #B89E86",
"R c #BA9F88",
"E c #BBA187",
"W c #BBA28A",
"Q c #BEA792",
"! c #BEA890",
"~ c #C0A78F",
"^ c #C1AB93",
/* pixels */
"o@$$%%%%%%%%%%%%%%%%%@..........................................",
"&>gnmbmmmnmmbmmNmNmNm2..........................................",
"&>CUUUPPIUUUUYYYYPPPRe..........................................",
"&>vDDSDSDDFDDDDFDFHDI6..........................................",
"#4VZAAADDDDDDDFFDDDDK6..........................................",
"#4vDAMNSADDDDFDSFDFFK6o.........................................",
"&4nABxkBFDFFDFFDFGHGY6..........................................",
"&4VZANcBDDDAASASFFGKTeO.........................................",
"&>NDDSADFDBMcccMSFFFYeX.........................................",
"&1NDDDDDDDAkzczMDDFFPeO.........................................",
"&>MDDDDFFDAcccMSFFFJPeX.........................................",
"&>BSDFFDFDAASSSHFGJYErO.........................................",
"&>sBVDKKLKLLULLLIUTW!eO.........................................",
"&3kjuaZETTTTRRRRTE~^!tO.........................................",
"%>qq55yfffffgfgggghhh1O.........................................",
"&3scnq3uxkncbnnxtnmvb3O.........................................",
"&*209,-,77909909,9000,X.........................................",
"#,22<222<<<2<<22,-,;:-+.........................................",
"*wNNNCNmNNNNNNNNnxuwe:X.........................................",
"&wGYKKKKHLLLLLUPKKgie:+.........................................",
"*qGKJGFFFHFHHHHFJFNcu;O.........................................",
"*wGJGFFFFHDAAAFHJKKLa:O.........................................",
"&tGJFFFFFDBlzNAHFKJLa:O.......... ..............................",
"*wGJFFFFDNlppzBFJHKLa:+.........................................",
"*wDJFFFFNwqiijDJHHKLa:+.........................................",
"*wDKFHFFBiqivBFJHFJLa:O.........................................",
"=tGHHFHHJDFJJHHFNNFLf,+.........................................",
"=tDKFJFFJJFJHJJDBDJLf:+................. .......................",
"*wGKFHFHJFJKJKLFFJHPi:+.........................................",
"*tITPLPYPPPPYTYEPPLLf,+.........................................",
"*ilKEEEREWEEEW!!~RYLs,+.........................................",
"*equdffgfffhglhhxgw9,-+X........................................",
".@&%%%%%%%%%%%%%%%%%*@..........................................",
"&>fmmbbbmmbmNmvNmmNmm3..........................................",
"&>CUUUUUUUUUYYPPTUUYTe..........................................",
"#>vDDSDSDDFGDSDFDFDFH6..........................................",
"#4nZSSSSDDDDFDFDFDFDK6o.........................................",
"&4NDAMNSDDDDDDDDDFFFK6o.........................................",
"#>vDBzkNDDFFDDFHFFDHLeO.........................................",
"&>VDSNMBDFSASSSSDFGKYeO.........................................",
"&>nDDAAADDVMvccMSFFFYeO.........................................",
"&>VDDDFFDFVkczzMDFFHPeO.........................................",
"&>VDFAFDDDVcccMSFGFFP9O ........................................",
"&>nADDFDFDDDAASFFFFYWrO.........................................",
"$3sVVDKKKLLKLLLLLUTW!r+.........................................",
"&>ksipZETTTTRTEETW~^Qr+.........................................",
"&>yq53yaffffggffgghhg2+.......... X.............................",
"&3scny3ukxxvnnnnwnmmn3O......... X..............................",
"$-299:-,88909909:90w0:O.........................................",
"#,2<,12,22<2<<2<:;:;,-+.........................................",
"&wNNNCNNNNNNNNNNnxuwe:O.........................................",
"*wGYLKKKLLLHLLPPKJlie:O....... ........................... .....",
"*wGKHGFFHFHHFHHFHDNcy:+.........................................",
"&tDKFFFFDFDSSSFHHHLLa:O.........................................",
"&wGFFFFFHDBlzMSHJKKKa:O.........................................",
"*wGKFFFFABgppcBFJJKLa:O.........................................",
"*wGHFFFFNwqiujFJHHJLs:+.........................................",
"*wDHFFFHNpquMBFJHFJLa:+.........................................",
"=wDLJFHHHFFFHHHFNNFLs:+.........................................",
"=wDJJFFHFJJJFJHFBDJLa:+.........................................",
"*wGLFHFHJJJKJKHJJJKLi;+.........................................",
"*wKYPLPPPPPPPEYEPPLLs<+.........................................",
"=ilKREEWWREEWWW^!EPLs;+.........................................",
"*eeudfggfgggggxgxsu7<;+........................................."
};
