/* XPM */
static char *result[] = {
/* columns rows colors chars-per-pixel */
"64 64 114 2 ",
"   c #171512",
".  c #191615",
"X  c #1D1A16",
"o  c #1F1C18",
"O  c #201B17",
"+  c #221E1A",
"@  c #25211C",
"#  c #29231D",
"$  c #171A21",
"%  c #1C1D22",
"&  c #1D2026",
"*  c #2B2623",
"=  c #2D2926",
"-  c #23242C",
";  c #23282C",
":  c #2D2A28",
">  c #312A25",
",  c #3C2F25",
"<  c #322D2A",
"1  c #36312D",
"2  c #3B322D",
"3  c #2C2733",
"4  c #2E2835",
"5  c #2E2738",
"6  c #2F293A",
"7  c #312D36",
"8  c #332D3D",
"9  c #343134",
"0  c #3A3535",
"q  c #3F3935",
"w  c #353139",
"e  c #3D3B3A",
"r  c #41352E",
"t  c #443A34",
"y  c #483C36",
"u  c #483F39",
"i  c #4D423B",
"p  c #52463D",
"a  c #55483F",
"s  c #352F40",
"d  c #353243",
"f  c #3A3444",
"g  c #363649",
"h  c #3B3749",
"j  c #373A4A",
"k  c #3C3B4C",
"l  c #3E3F50",
"z  c #413C4D",
"x  c #443F50",
"c  c #3C404E",
"v  c #374252",
"b  c #3D4353",
"n  c #3D4856",
"m  c #3E4B5A",
"M  c #3B505D",
"N  c #43434A",
"B  c #4C4C4D",
"V  c #554A42",
"C  c #5B4D44",
"Z  c #5D5047",
"A  c #424454",
"S  c #424957",
"D  c #434758",
"F  c #434C5A",
"G  c #494D5B",
"H  c #44515E",
"J  c #4A515F",
"K  c #545252",
"L  c #5B5653",
"P  c #5C5954",
"I  c #615147",
"U  c #695649",
"Y  c #695F57",
"T  c #6D635A",
"R  c #73665D",
"E  c #73685D",
"W  c #786A5F",
"Q  c #455461",
"!  c #4C5563",
"~  c #4B5966",
"^  c #4C5D69",
"/  c #505866",
"(  c #52606C",
")  c #746661",
"_  c #766C62",
"`  c #796E63",
"'  c #7C7167",
"]  c #83715F",
"[  c #856E61",
"{  c #847262",
"}  c #8B7464",
"|  c #8C776C",
" . c #8C796B",
".. c #907666",
"X. c #917867",
"o. c #987F6A",
"O. c #917E72",
"+. c #9D836F",
"@. c #938277",
"#. c #9D8570",
"$. c #968479",
"%. c #A2846E",
"&. c #A28671",
"*. c #A68A73",
"=. c #A98C74",
"-. c #AB9077",
";. c #AE937B",
":. c #B0967E",
">. c #B19781",
",. c #B39981",
"<. c #B89F86",
"1. c #B5A084",
"2. c #BBA38B",
"3. c #C1AA94",
/* pixels */
"% % % % % % % % % % % % % % % % % % % % % % % % % % % % % % % % % % % % % % % % % $ ; 4 0 0 9 0 0 0 0 0 0 0 0 0 0 0 0 0 0 0 9 & ",
"% % % % % % % % % % % % % % % % % % % % % % % % % % % % % % % % % % % % % % % % % - c T  . . . . . .| |  . . . . . .@. . .O.) 4 ",
"% % % % % % % % % % % % % % % % % % % % % % % % % % % % % % % % % % % % % % % % % - N _ ;.:.,.>.>.>.>.,.,.,.,.,.,.,.,.,.:.,.@.7 ",
"% % % % % % % % % % % % % % % % % % % % % % % % % % % % % % % % % % % % % % % % o - c T *.#.*.*.=.*.*.*.*.*.=.=.=.=.=.=.-.-. .7 ",
"% % % % % % % % % % % % % % % % % % % % % % % % % % % % % % % % % % % % % % % % % - N E *.*.&.%.*.*.*.*.=.*.*.=.*.=.=.*.*.-. .7 ",
"% % % % % % % % % % % % % % % % % % % % % % % % % % % % % % % % % % % % % % % % % - N E *.%.o.[ #.*.*.*.=.*.*.*.*.=.*.=.=.-. .7 ",
"% % % % % % % % % % % % % % % % % % % % % % % % % % % % % % % % % % % % % % % % % - N E *.%.} [ } *.*.=.=.=.=.=.=.=.=.=.=.;. .7 ",
"% % % % % % % % % % % % % % % % % % % % % % % % % % % % % % % % % % % % % % % % % - N E *.&.%.} } *.*.*.*.+.&.%.#.*.=.=.;.,.@.w ",
"% % % % % % % % % % % % % % % % % % % % % % % % % % % % % % % % % % % % % % % % % - N E *.*.*.%.%.*.=.&...} } } } #.=.=.-.:.O.9 ",
"% % % % % % % % % % % % % % % % % % % % % % % % % % % % % % % % % % % % % % % % % - N E *.*.*.*.=.=.=.&...[ } } } #.=.=.=.:.@.7 ",
"% % % % % % % % % % % % % % % % % % % % % % % % % % % % % % % % % % % % % % % % % - N E *.*.=.*.=.=.=.*...} } } #.*.-.-.=.;. .9 ",
"% % % % % % % % % % % % % % % % % % % % % % % % % % % % % % % % % % % % % % % % % - N E *.*.*.*.*.=.=.*.%.%.#.*.*.-.=.=.:.2.@.w ",
"% % % % % % % % % % % % % % % % % % % % % % % % % % % % % % % % % % % % % % % % % - N T ..%.+.:.:.;.:.:.:.:.:.:.:.:.:.:.2.2.$.9 ",
"% % % % % % % % % % % % % % % % % % % % % % % % % % % % % % % % % % % % % % % % % - N T ] R T } 1.<.<.<.1.1.2.<.<.<.2.3.3.3.$.w ",
"% % % % % % % % % % % % % % % % % % % % % % % % % % % % % % % % % % % % % % % % % - N P Y L K P _ _ _ _ W _ _ ' ` ` ` ` ' ' T w ",
"% % % % % % % % % % % % % % % % % % % % % % % % % % % % % % % % % % % % % % % % % : N T ] ..W B P ] ] {  .}  .} } R W X. . .E w ",
"% % % % % % % % % % % % % % % % % % % % % % % % % % % % % % % % % % % % % % % % % + . f f z h f 8 f A J ~ ! ! ! A 8 z J / G 8 > ",
"% % % % % % % % % % % % % % % % % % % % % % % % % % % % % % % % % % % % % % % % % 2 X k N z f w 8 z G J ! ! / ^ z 8 f G ( B 4 p ",
"% % % % % % % % % % % % % % % % % % % % % % % % % % % % % % % % % % % % % % % % % V o ~ ! ^ ~ A z h A ! ^ ! / ^ A 8 f G J G 4 I ",
"% % % % % % % % % % % % % % % % % % % % % % % % % % % % % % % % % % % % % % % % % a . H H ! ~ H f z A J ! G ! ^ D f f D J z 4 < ",
"% % % % % % % % % % % % % % % % % % % % % % % % % % % % % % % % % % % % % % % % % i @ S H J H F f z x J ! J G Q x z f z N z 3 > ",
"% % % % % % % % % % % % % % % % % % % % % % % % % % % % % % % % % % % % % % % % % 2 O F J D D D h z x J ^ G F Q x s s f z z 4 # ",
"% % % % % % % % % % % % % % % % % % % % % % % % % % % % % % % % % % % % % % % % % > + n D A D z f z z A D D G G z s s s z z 4 y ",
"% % % % % % % % % % % % % % % % % % % % % % % % % % % % % % % % % % % % % % % % % p + c z h h h 8 f f h k x D D s s r z z z 7 , ",
"% % % % % % % % % % % % % % % % % % % % % % % % % % % % % % % % % % % % % % % % % t + 8 f 8 h h w f h f f h k k s s f G G A 8 < ",
"% % % % % % % % % % % % % % % % % % % % % % % % % % % % % % % % % % % % % % % % % < + 8 8 f b b f D G F D A A k z s k ~ D l 7 1 ",
"% % % % % % % % % % % % % % % % % % % % % % % % % % % % % % % % % % % % % % % % % = @ d 6 k b b d n H H F F F F z s f ~ F z 3 < ",
"% % % % % % % % % % % % % % % % % % % % % % % % % % % % % % % % % % % % % % % % & Z @ c 6 b k k 8 A F D c D D S k s f G F h 3 : ",
"% % % % % % % % % % % % % % % % % % % % % % % % % % % % % % % % % % % % % % % % % q X c 6 g l g 8 k D b k l D D h 8 f A x h 4 * ",
"% % % % % % % % % % % % % % % % % % % % % % % % % % % % % % % % % % % % % % % % % r + w 5 6 s 8 7 g k k l l A D z 8 8 h k s 4 = ",
"% % % % % % % % % % % % % % % % % % % % % % % % % % % % % % % % % % % % % % % % % p * 5 d k v h d s s s d f k m f 8 s s s 8 4 t ",
"% % % % % % % % % % % % % % % % % % % % % % % % % % % % % % % % % % % % % % % % % U , d M H Q Q Q F j s 8 8 s s 8 8 s s s 8 4 0 ",
"% % % % % % % % % % % % % % % % % % % % % % % % % % % % % % % % % % % % % % % % % t + k m F m m F F n h 8 s g k F Q Q n D l 3 i ",
"% % % % % % % % % % % % % % % % % % % % % % % % % % % % % % % % % % % % % % % % % < O h M m m F m n F b f s f x Q H H F F l 3 1 ",
"% % % % % % % % % % % % % % % % % % % % % % % % % % % % % % % % % % % % % % % % % p + j F n b b b b H m g s g l F H M H H b 5 < ",
"% % % % % % % % % % % % % % % % % % % % % % % % % % % % % % % % % % % % % % % % % V + j m b b b b n m m j s d l F F D F F b 5 e ",
"% % % % % % % % % % % % % % % % % % % % % % % % % % % % % % % % % % % % % % % % % u > j m n M v n n m m l d s l m S D b S c 3 < ",
"% % % % % % % % % % % % % % % % % % % % % % % % % % % % % % % % % % % % % % % % $ V + j m n v v l l l l d s s k b S b b b k 3 1 ",
"% % % % % % % % % % % % % % % % % % % % % % % % % % % % % % % % % % % % % % % % % < % s g g d d g g g g s s s g l l k g h d 3 = ",
"% % % % % % % % % % % % % % % % % % % % % % % % % % % % % % % % % % % % % % % % % V . s s s s s s 6 6 5 6 6 s s f d w 7 5 5 3 = ",
"% % % % % % % % % % % % % % % % % % % % % % % % % % % % % % % % % % % % % % % % % C + j j g s ; s g j g g g d g j g d d s 8 3 t ",
"% % % % % % % % % % % % % % % % % % % % % % % % % % % % % % % % % % % % % % % % % U o v v g 3 d g n m j j k j m m m n b b k 5 V ",
"% % % % % % % % % % % % % % % % % % % % % % % % % % % % % % % % % % % % % % % % & I X j v d 6 j n M m j j k l n S D m n n j 3 : ",
"% % % % % % % % % % % % % % % % % % % % % % % % % % % % % % % % % % % % % % % % % V o d s 6 s j m m m m l l l n v l l b n c 3 : ",
"% % % % % % % % % % % % % % % % % % % % % % % % % % % % % % % % % % % % % % % % % i X n 8 6 g j l l v m l l v b l h k v b j 3 : ",
"% % % % % % % % % % % % % % % % % % % % % % % % % % % % % % % % % % % % % % % % % * * M d 5 d j j j j j j l l j j g k l k g 3 * ",
"% % % % % % % % % % % % % % % % % % % % % % % % % % % % % % % % % % % % % % % % % t * j d 6 s j j j j j j j l j l j l j g w ; : ",
"% % % % % % % % % % % % % % % % % % % % % % % % % % % % % % % % % % % % % % % % % i @ g d 6 6 d g g g j g g g g g h g h g d 3 < ",
"% % % % % % % % % % % % % % % % % % % % % % % % % % % % % % % % % % % % % % % % % C + w 5 5 3 8 s s s s s s s d s d f 8 f 8 3 r ",
"% % % % % % % % % % % % % % % % % % % % % % % % % % % % % % % % % % % % % % % % % o . h z z z z s h x ! ! / ! ! D g z J G G 8 + ",
"% % % % % % % % % % % % % % % % % % % % % % % % % % % % % % % % % % % % % % % % % > . f k z d s s h D ! ~ ! ! ~ x 8 f J / G 7 y ",
"% % % % % % % % % % % % % % % % % % % % % % % % % % % % % % % % % % % % % % % % % V + J G G S k f l x ! ~ / / ^ x 8 f G / G 4 C ",
"% % % % % % % % % % % % % % % % % % % % % % % % % % % % % % % % % % % % % % % % % <   Q ! ! ^ F h z x ~ ! Q ~ ^ x 8 z D / A 4 r ",
"% % % % % % % % % % % % % % % % % % % % % % % % % % % % % % % % % % % % % % % % % Z @ F G ! ! F h h x G ! G G ! x z 8 x A z 3 , ",
"% % % % % % % % % % % % % % % % % % % % % % % % % % % % % % % % % % % % % % % % % @ . F G F F F z z x ! ^ G H Q x s z s f t 4 > ",
"% % % % % % % % % % % % % % % % % % % % % % % % % % % % % % % % % % % % % % % % % 2 @ S F D D z f h z D J G G Q A s s s f z 7 y ",
"% % % % % % % % % % % % % % % % % % % % % % % % % % % % % % % % % % % % % % % % % t + n N x x k s z z k k A G F f s f f z z 4 > ",
"% % % % % % % % % % % % % % % % % % % % % % % % % % % % % % % % % % % % % % % % % i + f d s d f 8 s f s f z z k s s f x G A 8 < ",
"% % % % % % % % % % % % % % % % % % % % % % % % % % % % % % % % % % % % % % % % % = X 8 s d D A f z A A z k l h f s z ^ F z 8 t ",
"% % % % % % % % % % % % % % % % % % % % % % % % % % % % % % % % % % % % % % % % % t + d 7 h b l s F Q Q G D F S x s f ! F h 4 = ",
"% % % % % % % % % % % % % % % % % % % % % % % % % % % % % % % % % % % % % % % % % i = j 6 b k l s A F S S S S F z s f Q F z 4 * ",
"% % % % % % % % % % % % % % % % % % % % % % % % % % % % % % % % % % % % % % % % % * X c 6 j l j 8 k S D k l S S k 8 f S D h 7 + ",
"% % % % % % % % % % % % % % % % % % % % % % % % % % % % % % % % % % % % % % % % % < + g 6 d f d 6 k b b k x D S k 8 f h z f 3 > ",
"% % % % % % % % % % % % % % % % % % % % % % % % % % % % % % % % % % % % % % % % o p @ 6 8 d g s 8 s d f k h b S h 8 s d f 8 4 < "
};
