/* XPM */
static char *result[] = {
/* columns rows colors chars-per-pixel */
"64 64 81 1 ",
"  c #171A21",
". c #1C1D22",
"X c #1D2026",
"o c #24242C",
"O c #28252E",
"+ c #23282C",
"@ c #312F37",
"# c #342F38",
"$ c #333035",
"% c #3A3436",
"& c #353138",
"* c #39323A",
"= c #443B45",
"- c #4B3F46",
"; c #404347",
": c #444449",
"> c #4C4349",
", c #4C4C4D",
"< c #514649",
"1 c #58464B",
"2 c #564B4D",
"3 c #5A4B4D",
"4 c #56504E",
"5 c #5A524F",
"6 c #584F50",
"7 c #545252",
"8 c #5B5351",
"9 c #5C5954",
"0 c #624F4D",
"q c #655352",
"w c #6A5655",
"e c #645C55",
"r c #695E57",
"t c #675F5A",
"y c #6B5F59",
"u c #6D625A",
"i c #73655D",
"p c #78665D",
"a c #74685E",
"s c #7A6B5F",
"d c #6F6860",
"f c #746661",
"g c #756C62",
"h c #796E63",
"j c #7D7066",
"k c #83715F",
"l c #836D61",
"z c #857163",
"x c #8B7464",
"c c #8D7867",
"v c #847668",
"b c #8C776A",
"n c #8D796B",
"m c #907666",
"M c #927967",
"N c #937D6D",
"B c #987F6A",
"V c #917E72",
"C c #95816F",
"Z c #9D836E",
"A c #958171",
"S c #9D8570",
"D c #968479",
"F c #A2846E",
"G c #A28671",
"H c #A68A73",
"J c #AA8D75",
"K c #AC8F78",
"L c #AD9077",
"P c #AE927A",
"I c #B1967D",
"U c #B4997F",
"Y c #B19781",
"T c #B49A82",
"R c #B99E86",
"E c #B99F88",
"W c #B5A084",
"Q c #BAA187",
"! c #BCA38B",
"~ c #BEA890",
"^ c #C1AA94",
/* pixels */
"......................................... +@%%%%%*%%%%%*%%%%%%$X",
".........................................o;tnvnnvnnnnnnnnnnnnAf@",
".........................................o;gYTYYYTYYTUTTTTTTTTA@",
"........................................XX;aHSHHHHHHJGHJHJJJJLv@",
".........................................o:uHHHFHHHHHHHHJHHJJKv@",
".........................................X:fHFBkSHHHHJJHJHJHHLn@",
".........................................o:iHFxlxHHHJHJJHJHJJYn@",
".........................................o:iHHZxmHHHGGGFSHJHPYV&",
".........................................o:iHHHFFHHHmxxxbSJJJPV&",
".........................................o:aHHHHJHHHmlxxxZJJJPn&",
".........................................o:aHHJHJHHHmxxxZHJJJPn&",
".........................................o:aHGJJHJHHHFSHHJJJY!D&",
".........................................o:ucFZPIIPIPTUPPYTTW~Y@",
".........................................o:ukuuvWRRREWREQRQ!~~D@",
".........................................o:9u589ggggghgjhhjhjj9@",
".........................................o:ukcs,ejkzxcnvnugnnnf&",
".........................................X*>qq3=-500wqqqw13www5%",
".........................................o-33112111311333<>>>>>#",
".........................................o2zCNnCNNNNNNNNNnvpye6&",
".........................................o2nTUPPPIPPIIIIIIPNiy2&",
".........................................o2cUPJJJJJJJJJKPJJZch2&",
".........................................O2cPJJJJJJJHHHHJLJIIN4&",
".........................................o2nPLJJJJJGxlmZJLPJIA4*",
".........................................o6nPJJJJHZzpilmHJLJIA3*",
".........................................o2nPLJJJHpeyypZLLKKIB6*",
".........................................o3cPJJLJHsrrxMHLLJJIB8*",
".........................................O3nIJJJJLJJJJLJLBBGIA8&",
"........................................XO2cIJLJJJLJLLLLKBGJIA8&",
".........................................o2nIJLLLJLLLLLPLJJKIV3%",
".........................................O6V!IIIUUIUUUQTRRTYIA8*",
".........................................O0hBQERR!!QQQ!!^^!RTV6*",
".........................................O2etfghhhhhjhljjslpq3>%",
"......................................... +&&%%%%*%%%$%%%%$%%%$X",
".........................................+:tnvnvnnnnnnnnnCCnVnf@",
"........................................XX;gTYYYYTYYYUTYTYTTTRA@",
"........................................XX;uGHHHHHHHHHJJHJJHHLv@",
".........................................o:aFHFZHHHJHJHJJHHJJLv@",
".........................................X:fHHBxSGHHHHHHJHJHJJn@",
".........................................o:iHFxlxHHHJJHJHJHJJYn@",
".........................................o:iHHFxmHHHGFGFGGJHPYV&",
".........................................o:iHHHFHHJFmxxxbZJHJPA&",
".........................................o:iHHHHHHHHmzxxvZJJJPV@",
".........................................o:iHHJHJHHHmxxxZJJJJLn&",
".........................................o:aHHGJHHJHFFSGHJJJP!D&",
".........................................o:ucFZPIIIIPTPYUIUU!~D&",
".........................................o:ukuuvWRRRQWQQERW~~~D*",
".........................................o:9y949ggggghhhghhjjju@",
".........................................O:uxxs,elkzxnvcnugnnnf&",
".........................................o*<qq3=-00qwwqqq13www5&",
".........................................o-12132<21111333<>>>>>%",
".........................................o2zCNnCNNnNNNNNNnvpre6#",
".........................................o2MTIPPPPPIIIIIIIINiy6#",
".........................................o2bIPJJJJJJJJJKIJJZxh2&",
".........................................o2bPJJJJKJJHHGHJJLIYN4&",
".........................................O2nPLJJJJJGxlxFHLJLIC4*",
".........................................o2nPJJJJHSzpilMHLPJIA3*",
".........................................O2cPLJJJHpeyupFJLKKIV3*",
".........................................o2cPJLJJHsrrzMHKLKJIZ5&",
".........................................O3nIJJJJJJJJKJLLFMGUA4*",
".........................................O4nILJKJLJLLJLLKBFJIA4*",
".........................................O2nIJJJJLLLLIJJLJJKIN2%",
".........................................O2NEUUYUUUUUUQRQRTYUZ7*",
".........................................O6lAQQQQE!RQQ!!^!!ETA8*",
".........................................O2etdfhlhhhjhhjhzziq1-%"
};
