/* XPM */
static char *fb52c41bab87442dfdeeb38cc9196ba2cPUeKGIp4MHd8itV[] = {
/* columns rows colors chars-per-pixel */
"64 64 176 2 ",
"   c #18161B",
".  c #1E1B1F",
"X  c #1D1A21",
"o  c #211D23",
"O  c #2B1D2F",
"+  c #321F36",
"@  c #212026",
"#  c #2A2527",
"$  c #242229",
"%  c #28262C",
"&  c #34252E",
"*  c #3F222F",
"=  c #302A2B",
"-  c #2E2236",
";  c #332137",
":  c #3C2432",
">  c #3E2A35",
",  c #35233A",
"<  c #39253D",
"1  c #352A3C",
"2  c #3B2A3D",
"3  c #452736",
"4  c #432B36",
"5  c #492E37",
"6  c #432D39",
"7  c #4A2E3B",
"8  c #45333C",
"9  c #4D333D",
"0  c #4B3A3E",
"q  c #52333D",
"w  c #3B2740",
"e  c #362B40",
"r  c #3C2B42",
"t  c #3D2E49",
"y  c #373242",
"u  c #3C3245",
"i  c #383846",
"p  c #3E3449",
"a  c #3C3C4B",
"s  c #412E45",
"d  c #4D2E41",
"f  c #422F48",
"g  c #413046",
"h  c #4E3343",
"j  c #4D3A42",
"k  c #43344B",
"l  c #48364D",
"z  c #44394E",
"x  c #49384F",
"c  c #513645",
"v  c #523A45",
"b  c #583B44",
"n  c #513748",
"m  c #543B4A",
"M  c #583F4F",
"N  c #453C52",
"B  c #4A3D53",
"V  c #40404C",
"C  c #544743",
"Z  c #5D4E47",
"A  c #57444A",
"S  c #59434D",
"D  c #5D494C",
"F  c #464254",
"G  c #4B4156",
"H  c #434955",
"J  c #474659",
"K  c #4C4559",
"L  c #454A5A",
"P  c #4C4B5D",
"I  c #504157",
"U  c #51455A",
"Y  c #514B5E",
"T  c #42515B",
"R  c #4D515F",
"E  c #50515F",
"W  c #62474B",
"Q  c #634C4E",
"!  c #694E4E",
"~  c #61504D",
"^  c #674E50",
"/  c #694F50",
"(  c #655251",
")  c #6C5453",
"_  c #6E5C56",
"`  c #725654",
"'  c #735B56",
"]  c #795F55",
"[  c #755D59",
"{  c #795F5A",
"}  c #796157",
"|  c #756159",
" . c #7A625A",
".. c #7F695D",
"X. c #4E4F60",
"o. c #524E60",
"O. c #4E5262",
"+. c #4E5966",
"@. c #4F5968",
"#. c #525464",
"$. c #585365",
"%. c #525966",
"&. c #595867",
"*. c #565769",
"=. c #535B6A",
"-. c #595C6B",
";. c #55616E",
":. c #5A616E",
">. c #556571",
",. c #5B6572",
"<. c #576975",
"1. c #596975",
"2. c #5E6C78",
"3. c #5D727B",
"4. c #62727D",
"5. c #80645B",
"6. c #836B5D",
"7. c #8C725E",
"8. c #846760",
"9. c #866C62",
"0. c #886E62",
"q. c #877062",
"w. c #8B7364",
"e. c #8F7867",
"r. c #8E7668",
"t. c #927665",
"y. c #947A66",
"u. c #917569",
"i. c #957C69",
"p. c #997D6A",
"a. c #9D826D",
"s. c #9F8171",
"d. c #A1816E",
"f. c #A78A6E",
"g. c #A88A6F",
"h. c #A28472",
"j. c #A68A72",
"k. c #AB8C72",
"l. c #A68B78",
"z. c #A98D7B",
"x. c #AE9076",
"c. c #AE917C",
"v. c #B19277",
"b. c #B3957A",
"n. c #B8967C",
"m. c #B5987E",
"M. c #B99B7F",
"N. c #637580",
"B. c #B39683",
"V. c #B69A82",
"C. c #BD9E83",
"Z. c #BA9F88",
"A. c #BFA084",
"S. c #BBA28A",
"D. c #C09F83",
"F. c #C09F84",
"G. c #C1A083",
"H. c #C0A184",
"J. c #C1A387",
"K. c #C2A389",
"L. c #C2A489",
"P. c #C2A589",
"I. c #C5A78B",
"U. c #C6A88A",
"Y. c #C6A88D",
"T. c #C6AA8D",
"R. c #C8AB8E",
"E. c #C5AA90",
"W. c #C9AD92",
"Q. c #CAAD92",
"!. c #CAAE94",
"~. c #CCAF95",
"^. c #CBB095",
"/. c #CDB196",
"(. c #CCB296",
"). c #CDB39A",
/* pixels */
". . . . . . . . . . . X % o . . . . . . . . . . . . . . . . . . . . . . . . . . . . @ @ X . . . . . . . . . . . . . . . . . .   ",
"Z ..t.i.i.i.i.i.i.i.i.a.i.7.i.i.i.i.p.a.! y.a.p.p.i.i.i.i.i.i.p.i.i.r.6.9.r.t.w.6.6.' [ e.i.i.i.i.i.i.i.i.i.i.i.i.i.i.i.p.i.6.% ",
"j  .V.Q.!.!.~.~.Q.^./.Q.Q.m.Q.Q.!.~./.y./ a.!.Y.Y.Y.Y.U.Y.Y.Y.Y.Y.Y.Y.Y.b.y.y.y.y.w.' ' c././.^.^.!.!.!.^.^.^.^.^.^.^.^.^.!.r.# ",
"0  .S.K.S.S.G.S.H.H.S.C.C.H.k.k.C.C.^.y./ a.Y.U.S.S.G.H.S.S.H.H.S.H.H.F.H.U.m.p.p.w.' ' h.S.K.S.S.H.H.H.H.H.H.S.H.G.G.G.H.P.w.# ",
"0 } V.H.A.S.G.H.K.C.D.H.G.D.G.k.k.f.Q.y.! a.I.S.D.G.G.D.H.C.C.C.C.H.H.H.H.I./.!.Y.j.' ' h.S.H.S.A.A.S.S.S.H.H.H.S.H.G.H.H.P.w.# ",
"0  .V.H.A.G.G.S.C.S.G.G.D.G.G.S.D.k.n.t.( a.U.F.H.A.A.S.D.m.j.j.x.C.H.C.S.S.S.S.P.l.' ' j.G.C.b.m.S.S.S.H.H.H.A.H.H.H.H.H.P.w.# ",
"0  .V.H.A.C.C.k.f.M.C.G.G.A.A.G.H.A.n.t./ a.U.H.G.G.G.C.n.d.y.p.f.v.G.H.H.G.H.C.P.l.' ' j.H.n.k.k.M.H.H.G.H.G.H.S.H.H.H.H.I.w.# ",
"0  .V.H.H.x.g.f.j.g.C.H.H.S.H.H.F.A.C.7./ a.U.G.A.F.F.m.t.6.t.t.j.H.G.A.G.G.H.A.P.j.' ' j.A.G.b.k.M.H.H.C.C.C.C.C.A.S.H.I.Q.w.# ",
"0  .V.H.H.k.k.j.j.k.C.H.H.S.C.C.C.H.Q.y./ a.I.A.A.G.D.V.i.w.i.k.v.S.C.C.C.H.H.S.K.l.' ' j.H.S.C.S.C.H.H.x.k.k.k.k.M.H.A.H.E.w.# ",
"0  .V.K.C.v.k.k.k.C.A.S.S.A.k.j.k.H.~.y./ a.U.A.D.G.S.H.G.F.A.S.H.G.m.k.b.S.H.H.P.l.' ' j.H.H.H.G.G.A.H.b.k.k.k.k.C.S.H.S.Y.w.# ",
"0  .V.H.S.A.G.G.H.S.G.G.G.H.k.k.x.H.~.y.! a.Y.C.G.F.S.G.D.G.D.A.G.G.M.b.G.H.H.H.P.j.' ' j.H.K.K.H.S.S.S.b.z.k.k.M.A.H.H.K.U.q.# ",
"0  .S.Q.P.K.H.H.H.H.H.H.H.H.H.H.K.I.^.t.! a.Y.H.H.H.H.H.H.H.H.H.H.H.K.H.H.H.H.C.H.j.` { h.S.S.H.P.H.H.H.H.H.H.K.K.H.H.P./.).r.# ",
"0  .V.!.Q./.Q.Y.Y.Y.Y.Y.U.U.Y.R./.).R.t./ a.E.Y.Y.R.R.R.Y.Q.R.Q.~.Q.^.Q.Q.~.I.K.I.z.[ | a.x.k.B.E.!.!.Q.Q.Q.Q.E.Q.Q.Q./.).).r.# ",
"0 ' l.V.S.V.B.z.z.B.V.V.V.m.V.S.S.C.m.w./ p.y.Z.V.S.S.S.S.S.S.S.S.S.S.S.S.Z.B.B.c.i.' ' p.a.q.q.z.S.S.S.S.S.S.Z.Z.Z.Z.S.S.S.q.# ",
"6 ` w.y.y.` b ! ` w.t.t.t.y.y.t...t.y.0.! t.w.6...y.t.y.y.t.t.y.t.r.q.t.y.0.9.w.[ ) ^ [ r.i.y.9.9.u.i.i.i.i.i.i.t.0.u.i.y.u.{ # ",
"0 u.h.h.h.h.W i.h.h.h.h.h.h.h.d. .s.h.5.Q a.p.t.{ s.d.d.h.d.d.h.d.u.8.h.h.h.h.h.h.u.) ) u.h.h.0.{ w.p.p.h.l.l.h.h.8.p.h.h.h.i.= ",
"h M S S M m m m h c m m v v v v 9 c v c h c h h h h h d 7 7 7 7 h c c c c c c m m m n c m m c M m m m m m m m M S S S M m v h o ",
"u B U I x l f g l G K K K B B B , K x B N B l l l N B s , , , < f B B B B B x B B B B B B B B B B B k l f < < B B B B I B B x $ ",
"p G U U k B k f B P P P K P P B < %.B B B B B B B P #.f < + r l B B B B B B B B B B B B K B B I K I B B l 2 < B U Y Y Y U K B % ",
"p G Y Y B B f s K #.O.%.#.#.X.N r %.G K K K K K K P #.x r , k K #.K K K K K K K K K K K Y Y K Y Y o.Y Y B < < B -.=.%.#.$.Y G % ",
"p G U Y K G k < l G P =.#.#.P K r %.#.P P P Y Y Y Y #.B f r B K %.#.#.Y P P P P Y P P P o.o.Y #.o.-.#.#.B f r K -.>.,.-.-.#.K % ",
"p G U #.K K K s f k k k k x x x r K %.P P P P #.#.#.#.B g f B P ;.;.%.#.#.#.Y P Y P P Y #.o.P #.#.-.%.Y B f f I Y -.:.:.-.#.J % ",
"z P o.*.K G B k k f f g r < , , r < F O.P P #.#.+.X.P B f f x K =.3.;.=.=.#.#.P P P P #.#.#.#.#.#.:.%.Y B f l I B #.-.-.=.#.K % ",
"F O.#.#.K B r B P #.#.#.X.B < < r , , F P K O.Y K B k k r r k B K -.-.;.-.%.#.P P #.#.#.#.#.#.-.-.,.-.o.B f l I B K #.#.#.o.P $ ",
"z K K Y K B f U #.<.<.<.<.-.l < r N r < z l l k l k r s < < r k x B K o.#.#.P P Y #.#.:.-.%.-.-.-.-.&.o.x f l I K K U U U K K $ ",
"u B B K K k f K U ,.:.-.=.-.K , r %.K g , r < < f f f g < < , r l l B B B B B B B I Y -.&.#.#.#.Y U Y I f f k l x B B I B B x $ ",
"2 x k r k r r I K ,.,.;.=.1.K , < %.;.#.< < < s g K K K K k < , r f k g g k k k l x x B B B B B B B B l r f l l f k o.-.-.Y g o ",
"F #.P H G k r I K 2.:.=.-.N.I < ; #.;.>.< , g K K %.%.;.<.X.r + + , r < r f k k k f f f f k r s k g k f f Y ,.$.g B ,.4.4.,.#.$ ",
"R ,.;.>.,.K r B K 3.,.%.-.3.K f ; #.#.O., , P =.%.#.#.%.<.<.x < , < r r G K K Y K x x f f s r x G o.-.#.#.3.4.-.g k %.-.:.-.;.$ ",
"H -.#.%.,.K f B G >.-.#.#.>.Y k + N >.#., r ;.%.#.#.P #.=.<.o.g , < x O.%.%.#.:.:.Y U g s g B #.>.2.4.2.1.>.=.Y f s Y #.-.-.#.$ ",
"V &.o.O.,.G g B B ,.-.P #.:.#.r < < K F , N ;.#.o.P G P #.>.=.N < 1 P -.#.#.P #.:.#.K g f l I :.1.>.,.-.-.#.#.Y k f o.-.,.-.E $ ",
"F #.P P #.B f I B -.-.#.#.-.Y , , < w < , G %.X.P K B G P ;.;.N < e P #.#.#.P #.:.=.K l k l K $.#.#.$.#.$.Y Y U g s K #.-.:.#.$ ",
"H #.K G Y k f I B Y o.P #.#.N ; < P N r , B O.P P K B B P %.=.B r 2 K X.%.#.#.#.>.-.U N f l l B B K U K U K K U f f N K Y o.#.$ ",
"y x g g x e r l f x K K K K f , r <.Y N < B P P P K K K P #.#.B r 2 G K O.#.#.=.-.#.U l f s r r 2 g g r k g g x s g l l l x x o ",
"1 f f N G r f B B l k l l z r < r <.P G < B P P P R O.#.=.=.#.l r < x B K K P Y Y Y U x f k B B B B B x f r e 2 < f f k k k f $ ",
"; < g K P r B =.#.%.K K P G N < r <.R N , r G P #.#.#.%.#.P K f < , r k k g r g l l k r r B K Y =.>.;.=.=.G l < r K P P P #.R $ ",
"y < z G P r x =.+.%.O.O.O.O.B < g <.O.N + ; x x K B z z k g g < e N K P P R N g g f s < w l K P #.%.-.=.>.P B < f P #.#.O.#.%.$ ",
"a 2 F G P e z +.O.K K P #.O.x < f =.+.B , , < , < < , < , < < r K #.#.X.O.O.O.P P G g 2 < k X.O.P P X.P #.X.G < , N #.P P P P @ ",
"a r g B G < g X.P G B G X.#.l < f K K B e l g < ; g x K K K K P %.#.Y P P P P O.#.P B r < g P #.o.P P K P #.K x r x #.P P P K @ ",
"1 , ; r r , r N B G G J P P l < r l B r e #.B < ; N K %.P X.X.O.O.#.X.O.P P P #.%.X.B f < k K X.K K K K K #.K B f B #.P Y P x X ",
"O < z K x g e e e r z z P #.r , r r u < N %.P < , N K =.P P P R R O.O.O.P O.#.#.X.K B g < g P X.K G K K K #.K B f N P P P P k X ",
"; P +.=.%.=.+.J r < w w r g ; , w e e e r u u , ; N J K K K K K K G G G G G K K G B B g , r B K B B B B G P K B f x P P P P r X ",
"y O.#.+.@.%.=.%.G r < r l z X.+.O.K K K J +.K < < x N B B B B B B B B B B B l r e r < , + ; g B K B B B B G B l r k K P P K 2 . ",
"i +.+.O.+.+.P *.O.N r < N G <.%.%.O.O.O.P =.=.e , e g g f f r e e < < < r < ; + + + , < < , , r f f g r r e 2 < , < f g g g , . ",
"i O.O.P P P K O.<.P r w B G =.%.+.#.#.+.P O.;.N r ; < < w r g z N P O.J < < < 2 w e z K P O.N r < < < f k O.;.;.O.u < , , < , . ",
"y O.X.K P K P P =.Y r r B B @.+.+.%.+.#.K K P N f < e z O.O.O.P P O.#.K < f G O.O.O.O.O.#.-.#.N < , F O.X.#.%.%.%.%.O.P x < ; . ",
"y X.P P K P O.O.>.#.K r r N +.P P P O.X.P P K N g , k ;.%.O.O.R O.P O.H r l K #.O.#.P K Y #.#.K e e %.>.%.#.#.+.#.%.%.+.O.e < X ",
"y O.O.O.+.O.K F O.G u g f N +.+.K K P P P +.#.B z + k %.+.P P P P P X.J r x P %.O.O.K K P O.#.K e r X.%.#.#.O.O.O.#.#.#.%.e < X ",
"y K J B N N N N N N r r l B F P N N N B P P G B g ; g P #.O.P P K K P F r N #.#.#.#.Y B K #.O.K e f X.#.#.#.P P P P #.O.#.2 < X ",
"- e r e < r r r < r 2 < r K B N N < < e l l r r u < r g B B N N N B N g < z X.#.O.#.Y K P #.P K u e K %.+.P P P P P P P N < , X ",
"1 e s g , ; < , ; ; ; ; r r l < , + ; ; < < + ; < ; , ; < < < r w w e < , < g N o.#.P P P +.P K u < x O.X.P P P P P P P x f < X ",
"a O.z e ; e r O.N H J N z K P X.F N z p ; , ; ; < , < g r r g r < r r e < < g K o.O.P P O.+.P B r < z O.O.P P P P P +.X.K < 2 X ",
"i O.F < u N P =.G z F N N P O.R #.X.P P K J p , , < r N P ;.+.O.+.+.P N u < g K P O.P P O.+.P B e , l X.=.%.#.#.#.=.O.G k , e X ",
"i J r , r J @.+.O.N N N K X.O.P X.#.P K K P K , ; e k X.+.O.O.O.O.O.O.K k r g F X.O.P G G X.P B e + g N B G K P G G F N e , e X ",
"e e + w p O.O.O.O.P J K P K F N N P #.P P O.P r ; r N O.P P P O.O.O.O.X.B r r l K O.P G G X.P B e + < r r g x x x x g e , ; < X ",
"L N , r F J J J J J K J K K N z N K L P O.O.P r ; r F +.P P P P P P K P B < e k F P K P P +.O.B e ; + + , < e e r r r f g P P @ ",
"T N ; e z N N N N N N N N N N N N N z N O.O.K p ; r N K G G F F F G K P z , < r N K G G K P K N < + < r P +.P K K P K K K P P @ ",
"i a < < u z N N N N N N N N N N N N z p F P G g , t N N N N N B B G P X.F , < f z N x B N F N g < + w x K K G G G G G G G B N X ",
"y p < , e g k z z z p z z p p z z k x u N N B g ; e k F N z x N B B N F u ; , e g g r f g z r r , , e N N N N N N N N N B B x X ",
"; < , + , e e r r r e r r u r r g r g 2 r s g k ; ; , < r < < r f 2 r r , ; ; , < r r < , , , , , < < 2 r r r f r r r < f g r X ",
"& 4 4 5 5 5 5 4 4 : 3 6 6 6 5 5 5 5 4 4 4 9 q c h 9 9 4 4 q v b 9 q q q 4 : 4 5 5 5 5 4 * 3 5 5 5 5 5 5 5 4 7 7 9 7 q 9 5 4 : . ",
"C ..| 6.6.9.6.Q ( j v ~ Q Q _ _ _ ' v v v w.a.p.q.i.a.D W t.i.i.q.q.t.p.] v ) w.0...' ( v Q | ' [ { ) _  .Q ..6.| | 9.w. .Q v o ",
"8 S S D D D D S D 9 A A D D D D D D A 7 h ( ( ( D ) p.{ m ( ( D D D D _ [ A Q ) D D D ) D W ( D D Q D D ) Q ) [ ~ D Q Q Q D 9 o ",
"& 2 6 > > 2 > > > : : 2 2 6 6 6 2 6 > : > 6 2 6 6 6 8 j 8 6 6 6 6 6 6 6 4 > 6 6 6 8 8 8 6 > 6 6 6 6 6 6 6 > 4 6 6 6 6 8 8 8 8 X "
};
