/* XPM */
static char *result[] = {
/* columns rows colors chars-per-pixel */
"64 64 121 2 ",
"   c #1D1916",
".  c #1D1A1A",
"X  c #201B17",
"o  c #221E1B",
"O  c #26211D",
"+  c #2A241E",
"@  c #1C1D22",
"#  c #211F26",
"$  c #1C2027",
"%  c #222126",
"&  c #2C2622",
"*  c #2D2825",
"=  c #23242C",
"-  c #28242E",
";  c #2A2A2E",
":  c #342B24",
">  c #392F25",
",  c #322B2D",
"<  c #3A2F28",
"1  c #36312C",
"2  c #3A332C",
"3  c #272731",
"4  c #2C2733",
"5  c #2B2B34",
"6  c #2E2A3A",
"7  c #332B31",
"8  c #382E34",
"9  c #332D3D",
"0  c #382F3F",
"q  c #2E323A",
"w  c #363233",
"e  c #3A3535",
"r  c #3E3834",
"t  c #33323C",
"y  c #41352B",
"u  c #453B34",
"i  c #443E38",
"p  c #4E453D",
"a  c #54463D",
"s  c #352F40",
"d  c #392F40",
"f  c #363243",
"g  c #3A3444",
"h  c #353944",
"j  c #363649",
"k  c #3B3648",
"l  c #373B4C",
"z  c #3C3B4C",
"x  c #3D3F50",
"c  c #413D4E",
"v  c #423F50",
"b  c #3D404F",
"n  c #3D4353",
"m  c #3E4957",
"M  c #3F4758",
"N  c #3E4A59",
"B  c #4D4D4E",
"V  c #5B4C40",
"C  c #534D4E",
"Z  c #594E4F",
"A  c #54514F",
"S  c #5D544B",
"D  c #424454",
"F  c #494553",
"G  c #424857",
"H  c #4D4D50",
"J  c #444758",
"K  c #434C5B",
"L  c #494D5C",
"P  c #45515E",
"I  c #49515F",
"U  c #565352",
"Y  c #5E5555",
"T  c #615556",
"R  c #635B55",
"E  c #625758",
"W  c #645A59",
"Q  c #695D59",
"!  c #66605A",
"~  c #6E625A",
"^  c #7B6B5F",
"/  c #455461",
"(  c #4B5562",
")  c #475864",
"_  c #4C5966",
"`  c #465A68",
"'  c #4C5C69",
"]  c #505764",
"[  c #505966",
"{  c #515C6A",
"}  c #776D62",
"|  c #796E63",
" . c #7C7167",
".. c #816D5F",
"X. c #83715F",
"o. c #886F60",
"O. c #867363",
"+. c #8B7464",
"@. c #8F7867",
"#. c #8D776A",
"$. c #8D796C",
"%. c #907765",
"&. c #927B69",
"*. c #9A7E6A",
"=. c #9D826E",
"-. c #998573",
";. c #9B8875",
":. c #A2866F",
">. c #A28771",
",. c #A68A73",
"<. c #A98C74",
"1. c #AE937B",
"2. c #B1967E",
"3. c #B29781",
"4. c #B49A82",
"5. c #B89E86",
"6. c #BA9F88",
"7. c #BBA38B",
"8. c #BEA792",
"9. c #C0A78F",
"0. c #C1AB93",
/* pixels */
"$ 3 w w w e e t e w e e e e e e e e e r e 5 @ @ @ @ @ @ @ @ @ @ @ @ @ @ @ @ @ @ @ @ @ @ @ @ @ @ @ @ @ @ @ @ @ @ @ @ @ @ @ @ @ @ ",
"t B | $.#.#.$.#.$.$.$.$.$.$.$.$.$.$.$.$.$.U @ @ @ @ @ @ @ @ @ @ @ @ @ @ @ @ @ @ @ @ @ @ @ @ @ @ @ @ @ @ @ @ @ @ @ @ @ @ @ @ @ @ ",
"q B -.3.3.3.2.3.3.3.4.3.3.4.4.4.4.4.4.4.6.Y @ @ @ @ @ @ @ @ @ @ @ @ @ @ @ @ @ @ @ @ @ @ @ @ @ @ @ @ @ @ @ @ @ @ @ @ @ @ @ @ @ @ ",
"q B @.,.,.,.,.,.,.,.,.,.,.<.<.<.<.<.,.<.3.Y @ @ @ @ @ @ @ @ @ @ @ @ @ @ @ @ @ @ @ @ @ @ @ @ @ @ @ @ @ @ @ @ @ @ @ @ @ @ @ @ @ @ ",
"q B $.,.,.,.:.,.,.,.,.,.,.,.<.<.,.<.<.<.1.Y $ @ @ @ @ @ @ @ @ @ @ @ @ @ @ @ @ @ @ @ @ @ @ @ @ @ @ @ @ @ @ @ @ @ @ @ @ @ @ @ @ @ ",
"t B @.,.=.@.&.>.,.,.,.,.,.,.,.<.<.<.<.<.1.E @ @ @ @ @ @ @ @ @ @ @ @ @ @ @ @ @ @ @ @ @ @ @ @ @ @ @ @ @ @ @ @ @ @ @ @ @ @ @ @ @ @ ",
"t H &.,.*.o...*.,.<.,.<.<.<.,.<.<.<.<.<.3.Y @ @ @ @ @ @ @ @ @ @ @ @ @ @ @ @ @ @ @ @ @ @ @ @ @ @ @ @ @ @ @ @ @ @ @ @ @ @ @ @ @ @ ",
"q H &.,.,.&.+.*.,.,.,.>.:.>.:.,.<.<.<.1.5.E # @ @ @ @ @ @ @ @ @ @ @ @ @ @ @ @ @ @ @ @ @ @ @ @ @ @ @ @ @ @ @ @ @ @ @ @ @ @ @ @ @ ",
"t C &.:.<.>.>.,.,.,.=.+.+.+.%.%.,.<.<.<.5.W % @ @ @ @ @ @ @ @ @ @ @ @ @ @ @ @ @ @ @ @ @ @ @ @ @ @ @ @ @ @ @ @ @ @ @ @ @ @ @ @ @ ",
"t B &.,.>.,.<.<.<.<.=.O.X.+.o.%.,.1.<.<.2.W # @ @ @ @ @ @ @ @ @ @ @ @ @ @ @ @ @ @ @ @ @ @ @ @ @ @ @ @ @ @ @ @ @ @ @ @ @ @ @ @ @ ",
"t B &.,.<.,.,.<.<.<.=.+.+.o.%.>.<.<.<.<.2.T # @ @ @ @ @ @ @ @ @ @ @ @ @ @ @ @ @ @ @ @ @ @ @ @ @ @ @ @ @ @ @ @ @ @ @ @ @ @ @ @ @ ",
"t A &.,.,.<.,.,.,.,.,.:.,.>.,.<.<.<.<.4.7.Q # @ @ @ @ @ @ @ @ @ @ @ @ @ @ @ @ @ @ @ @ @ @ @ @ @ @ @ @ @ @ @ @ @ @ @ @ @ @ @ @ @ ",
"t C ^ =.*.,.1.1.1.1.2.1.3.2.2.3.2.2.5.7.8.W % @ @ @ @ @ @ @ @ @ @ @ @ @ @ @ @ @ @ @ @ @ @ @ @ @ @ @ @ @ @ @ @ @ @ @ @ @ @ @ @ @ ",
"t B X...~ } ;.7.7.4.7.5.6.6.6.5.5.7.9.0.8.Q % @ @ @ @ @ @ @ @ @ @ @ @ @ @ @ @ @ @ @ @ @ @ @ @ @ @ @ @ @ @ @ @ @ @ @ @ @ @ @ @ @ ",
"t A R R U U ! } } } | | | | | } |  . . . .C % @ @ @ @ @ @ @ @ @ @ @ @ @ @ @ @ @ @ @ @ @ @ @ @ @ @ @ @ @ @ @ @ @ @ @ @ @ @ @ @ @ ",
"t A ^ +.O.R A ~ X.X.O.+.$.O.#.O.Q O.$.$.#.Z % @ @ @ @ @ @ @ @ @ @ @ @ @ @ @ @ @ @ @ @ @ @ @ @ @ @ @ @ @ @ @ @ @ @ @ @ @ @ @ @ @ ",
"o 5 k c g k 0 0 c L [ I [ ( I k 0 H ] ] c 8 X @ @ @ @ @ @ @ @ @ @ @ @ @ @ @ @ @ @ @ @ @ @ @ @ @ @ @ @ @ @ @ @ @ @ @ @ @ @ @ @ @ ",
"& w D z g 0 9 g v J ( ( ( ] ( g 9 c ] { c < > @ @ @ @ @ @ @ @ @ @ @ @ @ @ @ @ @ @ @ @ @ @ @ @ @ @ @ @ @ @ @ @ @ @ @ @ @ @ @ @ @ ",
"1 t ' ' ' I c k c J _ _ [ [ ` k 0 c I I c 7 y @ @ @ @ @ @ @ @ @ @ @ @ @ @ @ @ @ @ @ @ @ @ @ @ @ @ @ @ @ @ @ @ @ @ @ @ @ @ @ @ @ ",
"r q / P ( ( D k c J ` L I ( ` c 0 k I L d 7 : @ . @ @ @ @ @ @ @ @ @ @ @ @ @ @ @ @ @ @ @ @ @ @ @ @ @ @ @ @ @ @ @ @ @ @ @ @ @ @ @ ",
"i q L L I P D k k D ] ( K I P c d g c c g 4 : . @ @ @ @ @ @ @ @ @ @ @ @ @ @ @ @ @ @ @ @ @ @ @ @ @ @ @ @ @ @ @ @ @ @ @ @ @ @ @ @ ",
"& t L K K K c k c D [ _ K I L z d d i 0 d 7 : @ @ @ @ @ @ @ @ @ @ @ @ @ @ @ @ @ @ @ @ @ @ @ @ @ @ @ @ @ @ @ @ @ @ @ @ @ @ @ @ @ ",
"+ q K D J D k k c c D L K I K k 9 d c c 0 7 : @ @ @ @ @ @ @ @ @ @ @ @ @ @ @ @ @ @ @ @ @ @ @ @ @ @ @ @ @ @ @ @ @ @ @ @ @ @ @ @ @ ",
"* 5 D k k k 0 g g k k c c K z 0 9 c c F k 7 o @ @ @ @ @ @ @ @ @ @ @ @ @ @ @ @ @ @ @ @ @ @ @ @ @ @ @ @ @ @ @ @ @ @ @ @ @ @ @ @ @ ",
"& 4 g 0 k z g g k k g k k c k 9 d v L L k 8 X @ @ @ @ @ @ @ @ @ @ @ @ @ @ @ @ @ @ @ @ @ @ @ @ @ @ @ @ @ @ @ @ @ @ @ @ @ @ @ @ @ ",
": 4 9 0 z G k k K K K D n D z k d v ( D k 7 + @ @ @ @ @ @ @ @ @ @ @ @ @ @ @ @ @ @ @ @ @ @ @ @ @ @ @ @ @ @ @ @ @ @ @ @ @ @ @ @ @ ",
"* 5 f s b n j j P K I K G K J j s D ( D d 7 > @ @ @ @ @ @ @ @ @ @ @ @ @ @ @ @ @ @ @ @ @ @ @ @ @ @ @ @ @ @ @ @ @ @ @ @ @ @ @ @ @ ",
"p 6 j f z n f j K G D n D J G g s x / D d 7 o @ @ @ @ @ @ @ @ @ @ @ @ @ @ @ @ @ @ @ @ @ @ @ @ @ @ @ @ @ @ @ @ @ @ @ @ @ @ @ @ @ ",
"; q l 9 l z t f n G z n D G D f s k v v d 7 y @ @ @ @ @ @ @ @ @ @ @ @ @ @ @ @ @ @ @ @ @ @ @ @ @ @ @ @ @ @ @ @ @ @ @ @ @ @ @ @ @ ",
"+ ; f 4 9 0 6 s l z c z n D G f 9 g z k 9 7 : @ @ @ @ @ @ @ @ @ @ @ @ @ @ @ @ @ @ @ @ @ @ @ @ @ @ @ @ @ @ @ @ @ @ @ @ @ @ @ @ @ ",
"2 3 9 j n l j s 0 9 s j k n n 9 9 s d s 9 , < @ @ @ @ @ @ @ @ @ @ @ @ @ @ @ @ @ @ @ @ @ @ @ @ @ @ @ @ @ @ @ @ @ @ @ @ @ @ @ @ @ ",
"V 3 l / P / / / n f 9 9 9 0 0 9 9 s s s 9 4 < @ @ @ @ @ @ @ @ @ @ @ @ @ @ @ @ @ @ @ @ @ @ @ @ @ @ @ @ @ @ @ @ @ @ @ @ @ @ @ @ @ ",
"7 3 n N N N N N P x f s d l x / / P G m f , : @ @ @ @ @ @ @ @ @ @ @ @ @ @ @ @ @ @ @ @ @ @ @ @ @ @ @ @ @ @ @ @ @ @ @ @ @ @ @ @ @ ",
"w 3 N P K K N n M N z s s x M ` P K G G k 4 + @ @ @ @ @ @ @ @ @ @ @ @ @ @ @ @ @ @ @ @ @ @ @ @ @ @ @ @ @ @ @ @ @ @ @ @ @ @ @ @ @ ",
"a 5 n N N n n n M / n s s x n K P P P P j ; X @ @ @ @ @ @ @ @ @ @ @ @ @ @ @ @ @ @ @ @ @ @ @ @ @ @ @ @ @ @ @ @ @ @ @ @ @ @ @ @ @ ",
"w 3 x N n n M n m N x f s k n K G N K G k 7 # @ @ @ @ @ @ @ @ @ @ @ @ @ @ @ @ @ @ @ @ @ @ @ @ @ @ @ @ @ @ @ @ @ @ @ @ @ @ @ @ @ ",
"1 5 n N n m n m M / n j s f x K M n G G d 7 & @ @ @ @ @ @ @ @ @ @ @ @ @ @ @ @ @ @ @ @ @ @ @ @ @ @ @ @ @ @ @ @ @ @ @ @ @ @ @ @ @ ",
"1 5 b N n m N l l n z s s d x J m n n n d 7 o @ @ @ @ @ @ @ @ @ @ @ @ @ @ @ @ @ @ @ @ @ @ @ @ @ @ @ @ @ @ @ @ @ @ @ @ @ @ @ @ @ ",
"% 3 h j f f f j k s j s s s l x x j g k 9 7 o @ @ @ @ @ @ @ @ @ @ @ @ @ @ @ @ @ @ @ @ @ @ @ @ @ @ @ @ @ @ @ @ @ @ @ @ @ @ @ @ @ ",
", = s s s 6 6 s s 6 6 6 6 s j j s s 7 4 4 7 : @ @ @ @ @ @ @ @ @ @ @ @ @ @ @ @ @ @ @ @ @ @ @ @ @ @ @ @ @ @ @ @ @ @ @ @ @ @ @ @ @ ",
"p 5 b j s 6 6 s l j j j h h l j j f f f 9 , : @ @ @ @ @ @ @ @ @ @ @ @ @ @ @ @ @ @ @ @ @ @ @ @ @ @ @ @ @ @ @ @ @ @ @ @ @ @ @ @ @ ",
"u 5 N n s q j l N x l n l l N N m n n n f ; 2 @ @ @ @ @ @ @ @ @ @ @ @ @ @ @ @ @ @ @ @ @ @ @ @ @ @ @ @ @ @ @ @ @ @ @ @ @ @ @ @ @ ",
"p 5 n l 6 s l N N N j l l x N N M M M n f ; : @ @ @ @ @ @ @ @ @ @ @ @ @ @ @ @ @ @ @ @ @ @ @ @ @ @ @ @ @ @ @ @ @ @ @ @ @ @ @ @ @ ",
"2 3 f 6 6 f n N N N n x n n n x x n n m f , O @ @ @ @ @ @ @ @ @ @ @ @ @ @ @ @ @ @ @ @ @ @ @ @ @ @ @ @ @ @ @ @ @ @ @ @ @ @ @ @ @ ",
"$ 3 m 6 s j n n n n n x x n n z z z n n f 4 + @ @ @ @ @ @ @ @ @ @ @ @ @ @ @ @ @ @ @ @ @ @ @ @ @ @ @ @ @ @ @ @ @ @ @ @ @ @ @ @ @ ",
"$ q N 6 s j j l l z l x l x l z l l l l 0 , + @ @ @ @ @ @ @ @ @ @ @ @ @ @ @ @ @ @ @ @ @ @ @ @ @ @ @ @ @ @ @ @ @ @ @ @ @ @ @ @ @ ",
"; q l s 5 s j l l l l z l l z z z l l k 0 , + @ @ @ @ @ @ @ @ @ @ @ @ @ @ @ @ @ @ @ @ @ @ @ @ @ @ @ @ @ @ @ @ @ @ @ @ @ @ @ @ @ ",
"1 5 j s 6 s j j j j j j j j j j k l j k 9 , & @ @ @ @ @ @ @ @ @ @ @ @ @ @ @ @ @ @ @ @ @ @ @ @ @ @ @ @ @ @ @ @ @ @ @ @ @ @ @ @ @ ",
"r = q 4 4 9 9 9 9 9 t 0 s f f 0 9 0 d d 9 # y @ @ @ @ @ @ @ @ @ @ @ @ @ @ @ @ @ @ @ @ @ @ @ @ @ @ @ @ @ @ @ @ @ @ @ @ @ @ @ @ @ ",
"o q c c c c g 0 c L { ( _ ( ( c c F I I c 8   @ @ @ @ @ @ @ @ @ @ @ @ @ @ @ @ @ @ @ @ @ @ @ @ @ @ @ @ @ @ @ @ @ @ @ @ @ @ @ @ @ ",
"O 5 k c g 0 9 0 c J ] I ] _ P k 0 c [ [ c 7 : @ @ @ @ @ @ @ @ @ @ @ @ @ @ @ @ @ @ @ @ @ @ @ @ @ @ @ @ @ @ @ @ @ @ @ @ @ @ @ @ @ ",
"u t ( I I D k g c K ` ] [ _ ( g 9 c ] [ c , < o @ @ @ @ @ @ @ @ @ @ @ @ @ @ @ @ @ @ @ @ @ @ @ @ @ @ @ @ @ @ @ @ @ @ @ @ @ @ @ @ ",
"& q ` ( _ ( x k c K ' ( ( _ ` c d c L L k 7 * @ @ @ @ @ @ @ @ @ @ @ @ @ @ @ @ @ @ @ @ @ @ @ @ @ @ @ @ @ @ @ @ @ @ @ @ @ @ @ @ @ ",
"S q P P ( ( v c k J ( I K ( P c 9 i v F g 7 y @ @ @ @ @ @ @ @ @ @ @ @ @ @ @ @ @ @ @ @ @ @ @ @ @ @ @ @ @ @ @ @ @ @ @ @ @ @ @ @ @ ",
". q I L G P x k k J ' _ K L K k 9 c c k 0 , : . @ @ @ @ @ @ @ @ @ @ @ @ @ @ @ @ @ @ @ @ @ @ @ @ @ @ @ @ @ @ @ @ @ @ @ @ @ @ @ @ ",
"& 6 K G G J z k c D K I L I I z 9 0 0 k d 7 y @ @ @ @ @ @ @ @ @ @ @ @ @ @ @ @ @ @ @ @ @ @ @ @ @ @ @ @ @ @ @ @ @ @ @ @ @ @ @ @ @ ",
": q G c v c g g c c k D J K D 0 0 k c c 0 7 X $ @ @ @ @ @ @ @ @ @ @ @ @ @ @ @ @ @ @ @ @ @ @ @ @ @ @ @ @ @ @ @ @ @ @ @ @ @ @ @ @ ",
"& 4 k g f g 9 0 0 0 g k c D c 9 0 k F L k 8 X @ @ @ @ @ @ @ @ @ @ @ @ @ @ @ @ @ @ @ @ @ @ @ @ @ @ @ @ @ @ @ @ @ @ @ @ @ @ @ @ @ ",
"o 4 s s z J j c D D c k k c d 0 g J ( D k 8 + . @ @ @ @ @ @ @ @ @ @ @ @ @ @ @ @ @ @ @ @ @ @ @ @ @ @ @ @ @ @ @ @ @ @ @ @ @ @ @ @ ",
", 5 9 s z G g l P L ) K K G G l s n ( D 0 7 & # @ @ @ @ @ @ @ @ @ @ @ @ @ @ @ @ @ @ @ @ @ @ @ @ @ @ @ @ @ @ @ @ @ @ @ @ @ @ @ @ ",
"r 5 j f n n f k G K G G J G G g s D / J 0 7 o @ @ @ @ @ @ @ @ @ @ @ @ @ @ @ @ @ @ @ @ @ @ @ @ @ @ @ @ @ @ @ @ @ @ @ @ @ @ @ @ @ ",
"& 5 j f z n f f G J x n D G J f s z G D d 7 : @ @ @ @ @ @ @ @ @ @ @ @ @ @ @ @ @ @ @ @ @ @ @ @ @ @ @ @ @ @ @ @ @ @ @ @ @ @ @ @ @ ",
", 5 j 6 s f 9 f b n v z n J D f 0 g c z 0 , : @ @ @ @ @ @ @ @ @ @ @ @ @ @ @ @ @ @ @ @ @ @ @ @ @ @ @ @ @ @ @ @ @ @ @ @ @ @ @ @ @ ",
"1 - 9 t h f 9 s f f j k z J n f 9 s g s 9 7 & @ @ @ @ @ @ @ @ @ @ @ @ @ @ @ @ @ @ @ @ @ @ @ @ @ @ @ @ @ @ @ @ @ @ @ @ @ @ @ @ @ "
};
